%TF.GenerationSoftware,KiCad,Pcbnew,7.0.7*%
%TF.CreationDate,2023-09-24T11:57:44+02:00*%
%TF.ProjectId,RF Energy Harvesting LK-R37 Enclosure,52462045-6e65-4726-9779-204861727665,Beta R4*%
%TF.SameCoordinates,Original*%
%TF.FileFunction,Copper,L2,Bot*%
%TF.FilePolarity,Positive*%
%FSLAX46Y46*%
G04 Gerber Fmt 4.6, Leading zero omitted, Abs format (unit mm)*
G04 Created by KiCad (PCBNEW 7.0.7) date 2023-09-24 11:57:44*
%MOMM*%
%LPD*%
G01*
G04 APERTURE LIST*
%TA.AperFunction,ComponentPad*%
%ADD10C,1.600000*%
%TD*%
%TA.AperFunction,ComponentPad*%
%ADD11O,1.050000X2.100000*%
%TD*%
%TA.AperFunction,ComponentPad*%
%ADD12C,1.240000*%
%TD*%
%TA.AperFunction,SMDPad,CuDef*%
%ADD13O,1.500000X0.800000*%
%TD*%
%TA.AperFunction,ViaPad*%
%ADD14C,0.600000*%
%TD*%
%TA.AperFunction,ViaPad*%
%ADD15C,0.800000*%
%TD*%
%TA.AperFunction,ViaPad*%
%ADD16C,0.700000*%
%TD*%
%TA.AperFunction,Conductor*%
%ADD17C,0.510000*%
%TD*%
%TA.AperFunction,Conductor*%
%ADD18C,0.300000*%
%TD*%
%TA.AperFunction,Conductor*%
%ADD19C,0.150000*%
%TD*%
%TA.AperFunction,Conductor*%
%ADD20C,0.250000*%
%TD*%
%TA.AperFunction,Conductor*%
%ADD21C,0.200000*%
%TD*%
%TA.AperFunction,Conductor*%
%ADD22C,0.400000*%
%TD*%
G04 APERTURE END LIST*
D10*
%TO.P,EHC2,1*%
%TO.N,IN_ADS_A+*%
X137920000Y-111340000D03*
%TO.P,EHC2,2*%
%TO.N,IN_ADS_A-*%
X135420000Y-111340000D03*
%TD*%
D11*
%TO.P,J1,S1,SHIELD*%
%TO.N,Earth*%
X159500000Y-76930000D03*
%TO.P,J1,S2,SHIELD*%
X150860000Y-76930000D03*
%TO.P,J1,S3,SHIELD*%
X159500000Y-72750000D03*
%TO.P,J1,S4,SHIELD*%
X150860000Y-72750000D03*
%TD*%
D12*
%TO.P,SMA1,1*%
%TO.N,IN_ADS2_A*%
X154680000Y-108340000D03*
%TO.P,SMA1,2*%
%TO.N,N/C*%
X153410000Y-107070000D03*
X153410000Y-109610000D03*
X155950000Y-107070000D03*
X155950000Y-109610000D03*
%TD*%
D10*
%TO.P,EHC1,1*%
%TO.N,Net-(EHC1-Pad1)*%
X145390000Y-110970000D03*
%TO.P,EHC1,2*%
%TO.N,IN_ADS2_A*%
X147890000Y-110970000D03*
%TD*%
D13*
%TO.P,ICSP1,5,Pin_5*%
%TO.N,CHIP_EN*%
X125230500Y-81765000D03*
%TO.P,ICSP1,6,Pin_6*%
%TO.N,ESP_GPIO0_BOOT-DTR*%
X125230500Y-83035000D03*
%TO.P,ICSP1,7,Pin_7*%
%TO.N,unconnected-(ICSP1-Pad7)*%
X125230500Y-84305000D03*
%TO.P,ICSP1,8,Pin_8*%
%TO.N,3V3*%
X125230500Y-85575000D03*
%TD*%
D14*
%TO.N,*%
X156929255Y-86150893D03*
X157179255Y-86950893D03*
%TO.N,3V3*%
X157519255Y-101050893D03*
D15*
X170960000Y-85160000D03*
D14*
X162509255Y-102999255D03*
D15*
X148989255Y-96300893D03*
X172372500Y-123620000D03*
D14*
X161699255Y-100790893D03*
D15*
X130120000Y-83510000D03*
X178782500Y-123840000D03*
D14*
X154533755Y-86020893D03*
X127300000Y-122540000D03*
D15*
X145549255Y-96040893D03*
D14*
X138615000Y-107485000D03*
D15*
X161760000Y-130000000D03*
X145439255Y-102999255D03*
D14*
X127320000Y-128854500D03*
D15*
X170960000Y-96640000D03*
D14*
X141980000Y-105740000D03*
X161274984Y-97559199D03*
D15*
X166480000Y-119770000D03*
D14*
X148850000Y-133050000D03*
D15*
X145679255Y-86890893D03*
D14*
X132660000Y-104440000D03*
D15*
X138565000Y-79645000D03*
X145439255Y-100730893D03*
X147272951Y-81462951D03*
X145589255Y-89690893D03*
D14*
%TO.N,GND*%
X130780000Y-105620000D03*
D15*
X157860000Y-94160000D03*
X158390000Y-79190000D03*
X145450000Y-75010000D03*
D14*
X154469255Y-98960893D03*
D15*
X168612500Y-127250000D03*
X180822500Y-123970000D03*
X186880000Y-96000000D03*
X151860000Y-79170000D03*
X171890000Y-86150000D03*
D14*
X129450000Y-124060000D03*
D15*
X179440000Y-80170000D03*
X127130000Y-117630000D03*
X169722500Y-117890000D03*
X136090000Y-105760000D03*
D16*
X151629288Y-88716359D03*
D15*
X153989255Y-90190893D03*
X142200000Y-75010000D03*
D14*
X154500000Y-101860000D03*
D16*
X180805000Y-119375000D03*
D15*
X168422500Y-131880000D03*
D14*
X130630000Y-126620000D03*
X128515000Y-128465000D03*
D15*
X134570000Y-74020000D03*
D14*
X158880000Y-96530000D03*
D15*
X172800000Y-96880000D03*
D14*
X155860000Y-134380000D03*
D15*
X172790000Y-94220000D03*
%TO.N,5V0*%
X137900000Y-103190000D03*
X171880000Y-87900000D03*
X171880000Y-97630000D03*
X129665000Y-111205000D03*
D14*
X128380000Y-105690000D03*
%TO.N,BUZZER_IO18*%
X155679255Y-101120893D03*
X169910000Y-105824500D03*
%TO.N,Net-(E2R1-Pad2)*%
X156020268Y-86041906D03*
X158809255Y-86680893D03*
%TO.N,CHIP_EN*%
X149150000Y-91250000D03*
D15*
X130000000Y-82200000D03*
D14*
%TO.N,GPIO8_I2C_SDA*%
X172592500Y-119670000D03*
X153847487Y-135427487D03*
X154570000Y-132960000D03*
X160454255Y-97635893D03*
X150360000Y-105705500D03*
X150921314Y-95083767D03*
%TO.N,GPIO9_I2C_SCL*%
X151290000Y-105690000D03*
X151707852Y-95290143D03*
X154650000Y-134000000D03*
X179370000Y-120463000D03*
X159749255Y-98170893D03*
%TO.N,ESP2_USB_D-*%
X156329255Y-100350893D03*
%TO.N,ESP2_USB_D+*%
X157279255Y-100200893D03*
D15*
%TO.N,5V0F*%
X123410000Y-85320000D03*
X153580000Y-76270000D03*
X156660000Y-76250000D03*
D14*
%TO.N,IMU_CS_IO21*%
X159669255Y-99920893D03*
X158483755Y-98117455D03*
%TO.N,ESP_GPIO0_BOOT-DTR*%
X155014921Y-87590021D03*
X150129255Y-91380893D03*
D15*
X133660000Y-82140000D03*
D14*
%TO.N,RXD0*%
X155299611Y-86701638D03*
D15*
X126860000Y-79100000D03*
D16*
X136610000Y-77499500D03*
D14*
%TO.N,TXD0*%
X158839255Y-83400893D03*
D16*
X137640000Y-76850000D03*
D15*
X126770000Y-77890000D03*
D14*
%TO.N,3V3_EN_ADS_IO01*%
X149540000Y-92070000D03*
X141210000Y-102410000D03*
%TO.N,DOUT_ADS_3V3_IO02*%
X148567346Y-92694157D03*
X138947027Y-104858259D03*
%TO.N,CLK_ADS2_3V3_IO07*%
X150975488Y-94217126D03*
X130240000Y-122150000D03*
%TO.N,CLK_ADS_3V3_IO05*%
X140328258Y-105674500D03*
X148980000Y-94300000D03*
%TO.N,SCLK_COMMON_3V3_IO04*%
X169335734Y-113535734D03*
X149410000Y-93400000D03*
X139587937Y-105354500D03*
X170960000Y-121485500D03*
%TO.N,LCD_MOSI_IO11*%
X178062500Y-123090000D03*
X160590836Y-88992160D03*
%TO.N,LCD_CS_IO12*%
X178870000Y-122750000D03*
X160260000Y-89720000D03*
%TO.N,LCD_RST_IO13*%
X160283754Y-91760949D03*
X178702649Y-121803378D03*
%TO.N,LCD_DC_IO14*%
X169720000Y-120810000D03*
X160553927Y-91008479D03*
%TO.N,LCD_BUSY_IO17*%
X160845758Y-90264143D03*
X170139650Y-120129487D03*
D15*
%TO.N,Earth*%
X158670000Y-107950000D03*
X169420000Y-106990000D03*
X148200000Y-108250000D03*
X151030000Y-110350000D03*
X174130000Y-106540000D03*
X161870000Y-108020000D03*
D14*
%TO.N,DOUT_ADS2_5V0*%
X132360000Y-123280000D03*
X133260000Y-107850000D03*
%TO.N,unconnected-(ESP32S1-Pad16)*%
X152647806Y-96425393D03*
%TO.N,unconnected-(ESP32S1-Pad17)*%
X153279255Y-97020893D03*
%TO.N,unconnected-(ESP32S1-Pad43)*%
X159956622Y-88417660D03*
%TO.N,SCLK_ADS_COMMON_5V0*%
X128560000Y-110100000D03*
X124195000Y-110265000D03*
%TO.N,DOUT_ADS2_3V3_IO06*%
X139980000Y-106610000D03*
X149490000Y-94930000D03*
%TO.N,LED_R_IO13*%
X159110000Y-128240000D03*
X154094755Y-96876913D03*
%TO.N,LED_G_IO14*%
X154669255Y-97581393D03*
X159850000Y-128860000D03*
%TO.N,LED_B_IO17*%
X160857500Y-129152500D03*
X154956338Y-100747976D03*
%TO.N,3V3_EN_ADS2_IO10*%
X151924243Y-96074221D03*
X127438767Y-123894500D03*
%TD*%
D17*
%TO.N,3V3*%
X154533755Y-86020893D02*
X153663755Y-86890893D01*
D18*
X147272951Y-81462951D02*
X146315983Y-81462951D01*
D19*
X162490000Y-102980000D02*
X162490000Y-98450000D01*
D20*
X159720000Y-132040000D02*
X153960000Y-132040000D01*
D18*
X126930000Y-87050000D02*
X125950000Y-87050000D01*
D19*
X127320000Y-128854500D02*
X126710000Y-128244500D01*
D17*
X145439255Y-102999255D02*
X145439255Y-100730893D01*
D18*
X125230500Y-86330500D02*
X125230500Y-85575000D01*
X178782500Y-123840000D02*
X172592500Y-123840000D01*
X125950000Y-87050000D02*
X125230500Y-86330500D01*
X130120000Y-83860000D02*
X126930000Y-87050000D01*
X167290000Y-123620000D02*
X166950000Y-123620000D01*
X147272951Y-81462951D02*
X140532951Y-81462951D01*
D19*
X162509255Y-102999255D02*
X162490000Y-102980000D01*
X136340000Y-104440000D02*
X138615000Y-106715000D01*
X127220000Y-122540000D02*
X127290000Y-122540000D01*
D18*
X167290000Y-121230000D02*
X167290000Y-123620000D01*
D21*
X144680745Y-102999255D02*
X145439255Y-102999255D01*
D17*
X153663755Y-86890893D02*
X145679255Y-86890893D01*
D19*
X161699255Y-100790893D02*
X161274984Y-100366622D01*
X161699255Y-100790893D02*
X161669255Y-100820893D01*
D20*
X153960000Y-132040000D02*
X152950000Y-133050000D01*
D18*
X161760000Y-130000000D02*
X161760000Y-128710000D01*
X170742500Y-123620000D02*
X172372500Y-123620000D01*
X140532951Y-81462951D02*
X138700000Y-79630000D01*
D19*
X126710000Y-123050000D02*
X127220000Y-122540000D01*
X161669255Y-100820893D02*
X157749255Y-100820893D01*
D17*
X145589255Y-89690893D02*
X145589255Y-86980893D01*
D19*
X132660000Y-104440000D02*
X136340000Y-104440000D01*
X162490000Y-98450000D02*
X161599199Y-97559199D01*
X126710000Y-128244500D02*
X126710000Y-123050000D01*
D17*
X145949255Y-96350893D02*
X145639255Y-96040893D01*
D20*
X152950000Y-133050000D02*
X148850000Y-133050000D01*
D17*
X148906781Y-96342853D02*
X148898741Y-96350893D01*
X145589255Y-86980893D02*
X145679255Y-86890893D01*
D19*
X157749255Y-100820893D02*
X157519255Y-101050893D01*
D17*
X148898741Y-96350893D02*
X145949255Y-96350893D01*
D18*
X170742500Y-123620000D02*
X167290000Y-123620000D01*
X172592500Y-123840000D02*
X172372500Y-123620000D01*
D21*
X141980000Y-105700000D02*
X144680745Y-102999255D01*
X141980000Y-105740000D02*
X141980000Y-105700000D01*
D19*
X138615000Y-106715000D02*
X138615000Y-107485000D01*
D18*
X130120000Y-83510000D02*
X130120000Y-83860000D01*
X166850000Y-123620000D02*
X170742500Y-123620000D01*
D19*
X161599199Y-97559199D02*
X161274984Y-97559199D01*
D18*
X166480000Y-120420000D02*
X167290000Y-121230000D01*
X166480000Y-119770000D02*
X166480000Y-120420000D01*
D17*
X170960000Y-96640000D02*
X170960000Y-85160000D01*
D18*
X161760000Y-128710000D02*
X166850000Y-123620000D01*
D20*
X161760000Y-130000000D02*
X159720000Y-132040000D01*
D19*
X161274984Y-100366622D02*
X161274984Y-97559199D01*
D18*
%TO.N,GND*%
X141430000Y-75010000D02*
X140420000Y-74000000D01*
D19*
X154469255Y-98960893D02*
X154469255Y-99010745D01*
D18*
X146370000Y-75010000D02*
X145450000Y-75010000D01*
X151860000Y-79170000D02*
X150530000Y-79170000D01*
D17*
X172790000Y-94220000D02*
X172790000Y-87050000D01*
X172800000Y-96880000D02*
X172790000Y-96870000D01*
D18*
X179330000Y-103500000D02*
X186830000Y-96000000D01*
X179330000Y-117900000D02*
X179330000Y-103500000D01*
X129450000Y-124060000D02*
X128860000Y-123470000D01*
X179330000Y-117900000D02*
X178630000Y-117900000D01*
X150530000Y-79170000D02*
X146370000Y-75010000D01*
D17*
X172790000Y-96870000D02*
X172790000Y-94220000D01*
D18*
X130760000Y-112060000D02*
X130760000Y-105640000D01*
X134590000Y-74000000D02*
X134570000Y-74020000D01*
X128785000Y-128465000D02*
X130630000Y-126620000D01*
X128860000Y-119360000D02*
X127130000Y-117630000D01*
X158880000Y-96530000D02*
X158880000Y-95210000D01*
X186830000Y-96000000D02*
X186880000Y-96000000D01*
X127130000Y-115690000D02*
X130760000Y-112060000D01*
D19*
X154270000Y-99210000D02*
X154270000Y-101630000D01*
D18*
X130760000Y-105640000D02*
X130780000Y-105620000D01*
X180805000Y-119375000D02*
X179330000Y-117900000D01*
D19*
X154469255Y-99010745D02*
X154270000Y-99210000D01*
X155860000Y-134380000D02*
X156240000Y-134760000D01*
D18*
X128860000Y-123470000D02*
X128860000Y-119360000D01*
X158390000Y-79190000D02*
X151880000Y-79190000D01*
X127130000Y-117630000D02*
X127130000Y-115690000D01*
X168612500Y-131690000D02*
X168422500Y-131880000D01*
D19*
X163790104Y-131970000D02*
X168332500Y-131970000D01*
D18*
X130820000Y-105660000D02*
X135990000Y-105660000D01*
D19*
X161000104Y-134760000D02*
X163790104Y-131970000D01*
X154270000Y-101630000D02*
X154500000Y-101860000D01*
D18*
X135990000Y-105660000D02*
X136090000Y-105760000D01*
D22*
X151629288Y-88716359D02*
X152514721Y-88716359D01*
D18*
X142200000Y-75010000D02*
X141430000Y-75010000D01*
X140420000Y-74000000D02*
X134590000Y-74000000D01*
D19*
X156240000Y-134760000D02*
X161000104Y-134760000D01*
D18*
X178630000Y-117900000D02*
X169732500Y-117900000D01*
X128515000Y-128465000D02*
X128785000Y-128465000D01*
D22*
X152514721Y-88716359D02*
X153989255Y-90190893D01*
D19*
X168332500Y-131970000D02*
X168422500Y-131880000D01*
D18*
X158880000Y-95210000D02*
X157860000Y-94190000D01*
X145450000Y-75010000D02*
X142200000Y-75010000D01*
X130780000Y-105620000D02*
X130820000Y-105660000D01*
X169732500Y-117900000D02*
X169722500Y-117890000D01*
X151880000Y-79190000D02*
X151860000Y-79170000D01*
D17*
X172790000Y-87050000D02*
X171890000Y-86150000D01*
D18*
X168612500Y-127250000D02*
X168612500Y-131690000D01*
D17*
%TO.N,5V0*%
X171880000Y-97630000D02*
X171880000Y-87900000D01*
D21*
X128420000Y-108360000D02*
X129665000Y-109605000D01*
X128420000Y-105610000D02*
X128420000Y-108360000D01*
D17*
X130880000Y-103190000D02*
X137900000Y-103190000D01*
X128380000Y-105690000D02*
X130880000Y-103190000D01*
D21*
X129665000Y-109605000D02*
X129665000Y-111205000D01*
D19*
%TO.N,BUZZER_IO18*%
X158080000Y-103840000D02*
X155679255Y-101439255D01*
X169910000Y-105824500D02*
X167925500Y-103840000D01*
X155679255Y-101439255D02*
X155679255Y-101120893D01*
X167925500Y-103840000D02*
X158080000Y-103840000D01*
%TO.N,Net-(E2R1-Pad2)*%
X156020268Y-86041906D02*
X156531281Y-85530893D01*
X158809255Y-86650893D02*
X158809255Y-86680893D01*
X156531281Y-85530893D02*
X157689255Y-85530893D01*
X157689255Y-85530893D02*
X158809255Y-86650893D01*
%TO.N,CHIP_EN*%
X141965026Y-82990000D02*
X144200000Y-85224974D01*
X130000000Y-82200000D02*
X130790000Y-82990000D01*
X144634157Y-91994157D02*
X147740869Y-91994157D01*
D21*
X125230500Y-80949500D02*
X125900000Y-80280000D01*
X125230500Y-81765000D02*
X125230500Y-80949500D01*
D19*
X130790000Y-82990000D02*
X141965026Y-82990000D01*
X144200000Y-91560000D02*
X144634157Y-91994157D01*
X148485026Y-91250000D02*
X149150000Y-91250000D01*
X147740869Y-91994157D02*
X148485026Y-91250000D01*
D21*
X125900000Y-80280000D02*
X127000000Y-80280000D01*
D19*
X144200000Y-85224974D02*
X144200000Y-91560000D01*
D21*
X127000000Y-80280000D02*
X128920000Y-82200000D01*
X128920000Y-82200000D02*
X130000000Y-82200000D01*
D19*
%TO.N,GPIO8_I2C_SDA*%
X179640000Y-119670000D02*
X172592500Y-119670000D01*
X182070000Y-122100000D02*
X179640000Y-119670000D01*
X153847487Y-135427487D02*
X153847487Y-133702513D01*
X150930000Y-96660001D02*
X150930000Y-95092453D01*
X159988362Y-97170000D02*
X158500000Y-97170000D01*
X150360000Y-105540000D02*
X151610000Y-104290000D01*
X158500000Y-97170000D02*
X156000893Y-94670893D01*
X156000893Y-94670893D02*
X151429255Y-94670893D01*
X150360000Y-105705500D02*
X150360000Y-105540000D01*
X163830052Y-132920000D02*
X173704974Y-132920000D01*
X153847487Y-135427487D02*
X153880000Y-135460000D01*
X151429255Y-94670893D02*
X151016381Y-95083767D01*
X161290052Y-135460000D02*
X163830052Y-132920000D01*
X173704974Y-132920000D02*
X182070000Y-124554974D01*
X151610000Y-97340000D02*
X150930000Y-96660001D01*
X153847487Y-133702513D02*
X154540000Y-133010000D01*
X150930000Y-95092453D02*
X150921314Y-95083767D01*
X151610000Y-104290000D02*
X151610000Y-97340000D01*
X160454255Y-97635893D02*
X159988362Y-97170000D01*
X182070000Y-124554974D02*
X182070000Y-122100000D01*
X151016381Y-95083767D02*
X150921314Y-95083767D01*
X153880000Y-135460000D02*
X161290052Y-135460000D01*
%TO.N,GPIO9_I2C_SCL*%
X158355026Y-97520000D02*
X156125169Y-95290143D01*
X151280000Y-95717995D02*
X151280000Y-96515026D01*
X156125169Y-95290143D02*
X151707852Y-95290143D01*
X179370000Y-120463000D02*
X179938026Y-120463000D01*
X154650000Y-134320000D02*
X155440000Y-135110000D01*
X179938026Y-120463000D02*
X181720000Y-122244974D01*
X151960000Y-105020000D02*
X151290000Y-105690000D01*
X151960000Y-97195026D02*
X151960000Y-105020000D01*
X151707852Y-95290143D02*
X151280000Y-95717995D01*
X173560000Y-132570000D02*
X181720000Y-124410000D01*
X151280000Y-96515026D02*
X151960000Y-97195026D01*
X154650000Y-134000000D02*
X154650000Y-134320000D01*
X181720000Y-124410000D02*
X181720000Y-122890000D01*
X181720000Y-122244974D02*
X181720000Y-122940000D01*
X163685078Y-132570000D02*
X173560000Y-132570000D01*
X159040000Y-97520000D02*
X158355026Y-97520000D01*
X159647738Y-98084876D02*
X159604876Y-98084876D01*
X161145078Y-135110000D02*
X163685078Y-132570000D01*
X155440000Y-135110000D02*
X161145078Y-135110000D01*
X159604876Y-98084876D02*
X159040000Y-97520000D01*
D18*
%TO.N,5V0F*%
X152280000Y-74860000D02*
X153580000Y-76160000D01*
X148800000Y-74860000D02*
X152280000Y-74860000D01*
X153600000Y-76250000D02*
X153580000Y-76270000D01*
X123410000Y-80060000D02*
X130340000Y-73130000D01*
X123410000Y-85320000D02*
X123410000Y-80060000D01*
X153580000Y-76160000D02*
X153580000Y-76270000D01*
X130340000Y-73130000D02*
X147070000Y-73130000D01*
X156660000Y-76250000D02*
X153600000Y-76250000D01*
X147070000Y-73130000D02*
X148800000Y-74860000D01*
D19*
%TO.N,IMU_CS_IO21*%
X158483755Y-98735393D02*
X159669255Y-99920893D01*
X158483755Y-98117455D02*
X158483755Y-98735393D01*
%TO.N,ESP_GPIO0_BOOT-DTR*%
X148570000Y-90630000D02*
X147555843Y-91644157D01*
X144934157Y-91644157D02*
X144550000Y-91260000D01*
D21*
X127165686Y-79880000D02*
X128625686Y-81340000D01*
X128625686Y-81340000D02*
X132860000Y-81340000D01*
D19*
X144550000Y-91260000D02*
X144550000Y-85080000D01*
X134160000Y-82640000D02*
X133720000Y-82200000D01*
X151380425Y-87709723D02*
X155050838Y-87709723D01*
X142110000Y-82640000D02*
X134160000Y-82640000D01*
X150080000Y-90630000D02*
X148570000Y-90630000D01*
D21*
X124515000Y-83035000D02*
X123860000Y-82380000D01*
D19*
X147555843Y-91644157D02*
X144934157Y-91644157D01*
X144550000Y-85080000D02*
X142110000Y-82640000D01*
D21*
X123860000Y-82380000D02*
X123860000Y-80920000D01*
D19*
X150129255Y-90620745D02*
X150129255Y-88960893D01*
D21*
X125230500Y-83035000D02*
X124515000Y-83035000D01*
X123860000Y-80920000D02*
X124900000Y-79880000D01*
X132860000Y-81340000D02*
X133660000Y-82140000D01*
D19*
X150129255Y-91380893D02*
X150129255Y-90620745D01*
X150130000Y-90680000D02*
X150080000Y-90630000D01*
D21*
X124900000Y-79880000D02*
X127165686Y-79880000D01*
D19*
X150129255Y-88960893D02*
X151380425Y-87709723D01*
%TO.N,RXD0*%
X150515026Y-80550000D02*
X156425026Y-80550000D01*
X138340000Y-77600000D02*
X138710000Y-77230000D01*
X157969255Y-84825893D02*
X157969255Y-83590745D01*
D21*
X128710000Y-77250000D02*
X126860000Y-79100000D01*
D19*
X147195026Y-77230000D02*
X150515026Y-80550000D01*
X138710000Y-77230000D02*
X147195026Y-77230000D01*
X136610000Y-77499500D02*
X136710500Y-77600000D01*
X136710500Y-77600000D02*
X138340000Y-77600000D01*
X155299611Y-86701638D02*
X155299611Y-85949390D01*
X156108108Y-85140893D02*
X157654255Y-85140893D01*
X155299611Y-85949390D02*
X156108108Y-85140893D01*
X157969255Y-82094229D02*
X157969255Y-83590745D01*
D21*
X136610000Y-77499500D02*
X136360500Y-77250000D01*
D19*
X157969255Y-83590745D02*
X157969255Y-83420893D01*
D21*
X136360500Y-77250000D02*
X128710000Y-77250000D01*
D19*
X157654255Y-85140893D02*
X157969255Y-84825893D01*
X156425026Y-80550000D02*
X157969255Y-82094229D01*
%TO.N,TXD0*%
X147340000Y-76880000D02*
X150660000Y-80200000D01*
X137670000Y-76880000D02*
X147340000Y-76880000D01*
D21*
X127810000Y-76850000D02*
X126770000Y-77890000D01*
D19*
X158839255Y-82469255D02*
X158839255Y-83400893D01*
D21*
X137640000Y-76850000D02*
X127810000Y-76850000D01*
D19*
X150660000Y-80200000D02*
X156570000Y-80200000D01*
X156570000Y-80200000D02*
X158839255Y-82469255D01*
X137640000Y-76850000D02*
X137670000Y-76880000D01*
%TO.N,3V3_EN_ADS_IO01*%
X143485843Y-92344157D02*
X147885843Y-92344157D01*
X141630000Y-94200000D02*
X141630000Y-102100000D01*
X141630000Y-102100000D02*
X141290000Y-102440000D01*
X147885843Y-92344157D02*
X148160000Y-92070000D01*
X143219107Y-92610893D02*
X141630000Y-94200000D01*
X148160000Y-92070000D02*
X149540000Y-92070000D01*
X143090000Y-92740000D02*
X143485843Y-92344157D01*
%TO.N,DOUT_ADS_3V3_IO02*%
X142120000Y-94340000D02*
X143765843Y-92694157D01*
X143765843Y-92694157D02*
X148567346Y-92694157D01*
X138947027Y-104858259D02*
X139025286Y-104780000D01*
X142120000Y-102650000D02*
X142120000Y-94340000D01*
X139025286Y-104780000D02*
X139990000Y-104780000D01*
X139990000Y-104780000D02*
X142120000Y-102650000D01*
%TO.N,CLK_ADS2_3V3_IO07*%
X135340000Y-121580000D02*
X133065000Y-123855000D01*
X143520000Y-95034974D02*
X143520000Y-103229896D01*
X130240000Y-122150000D02*
X130210000Y-122180000D01*
X143520000Y-103229896D02*
X141370000Y-105379896D01*
X150065000Y-95345000D02*
X149800000Y-95610000D01*
X150974782Y-94217126D02*
X150065000Y-95126908D01*
X141370000Y-105379896D02*
X141370000Y-106190000D01*
X131665000Y-123855000D02*
X130240000Y-122430000D01*
X149800000Y-95610000D02*
X148703440Y-95610000D01*
X147333440Y-94240000D02*
X144314974Y-94240000D01*
X130240000Y-122430000D02*
X130240000Y-122150000D01*
X150975488Y-94217126D02*
X150974782Y-94217126D01*
X140300000Y-107260000D02*
X140300000Y-112890000D01*
X140300000Y-112890000D02*
X135340000Y-117850000D01*
X141370000Y-106190000D02*
X140300000Y-107260000D01*
X135340000Y-117850000D02*
X135340000Y-121580000D01*
X148703440Y-95610000D02*
X147333440Y-94240000D01*
X144314974Y-94240000D02*
X143520000Y-95034974D01*
X133065000Y-123855000D02*
X131665000Y-123855000D01*
X150065000Y-95126908D02*
X150065000Y-95345000D01*
%TO.N,CLK_ADS_3V3_IO05*%
X142820000Y-102939948D02*
X142820000Y-94700000D01*
X147477545Y-93394157D02*
X148463388Y-94380000D01*
X140328258Y-105431690D02*
X142820000Y-102939948D01*
X144125843Y-93394157D02*
X147477545Y-93394157D01*
X148463388Y-94380000D02*
X148970000Y-94380000D01*
X140328258Y-105674500D02*
X140328258Y-105431690D01*
X142820000Y-94700000D02*
X144125843Y-93394157D01*
%TO.N,SCLK_COMMON_3V3_IO04*%
X170960000Y-119920000D02*
X170960000Y-121485500D01*
X169047500Y-113823968D02*
X169047500Y-118757500D01*
X142470000Y-102794974D02*
X142470000Y-94484974D01*
X169450000Y-119160000D02*
X170200000Y-119160000D01*
X147622519Y-93044157D02*
X147978362Y-93400000D01*
X140134975Y-105130000D02*
X142470000Y-102794974D01*
X143910817Y-93044157D02*
X147622519Y-93044157D01*
X139587937Y-105354500D02*
X139812437Y-105130000D01*
X147978362Y-93400000D02*
X149410000Y-93400000D01*
X170200000Y-119160000D02*
X170960000Y-119920000D01*
X169047500Y-118757500D02*
X169450000Y-119160000D01*
X139812437Y-105130000D02*
X140134975Y-105130000D01*
X169335734Y-113535734D02*
X169047500Y-113823968D01*
X142470000Y-94484974D02*
X143910817Y-93044157D01*
%TO.N,LCD_MOSI_IO11*%
X159240000Y-89420000D02*
X159240000Y-94095026D01*
X167297500Y-111732500D02*
X167297500Y-120537449D01*
X167297500Y-120537449D02*
X169620052Y-122860000D01*
X178062500Y-123090000D02*
X177832500Y-122860000D01*
X165034974Y-99890000D02*
X165534974Y-99890000D01*
X165534974Y-99890000D02*
X171100000Y-105455026D01*
X159240000Y-94095026D02*
X165034974Y-99890000D01*
X169620052Y-122860000D02*
X169870000Y-122860000D01*
X159667840Y-88992160D02*
X159240000Y-89420000D01*
X160590836Y-88992160D02*
X159667840Y-88992160D01*
X171100000Y-105455026D02*
X171100000Y-107930000D01*
X171100000Y-107930000D02*
X167297500Y-111732500D01*
X177832500Y-122860000D02*
X169790000Y-122860000D01*
%TO.N,LCD_CS_IO12*%
X167647500Y-120392474D02*
X167647500Y-119370000D01*
X160914974Y-95275026D02*
X165179948Y-99540000D01*
X159590000Y-93950052D02*
X161279948Y-95640000D01*
X167647500Y-119370000D02*
X167647500Y-111877474D01*
X171450000Y-108074974D02*
X169782487Y-109742487D01*
X171450000Y-105310051D02*
X171450000Y-108074974D01*
X167647500Y-120392475D02*
X167897513Y-120642487D01*
X170709974Y-104570026D02*
X171450000Y-105310051D01*
X160260000Y-89720000D02*
X160170000Y-89720000D01*
X169927487Y-109597487D02*
X169932487Y-109592487D01*
X167897513Y-120642487D02*
X169715026Y-122460000D01*
X167647500Y-111877474D02*
X169927487Y-109597487D01*
X169715026Y-122460000D02*
X178580000Y-122460000D01*
X178580000Y-122460000D02*
X178870000Y-122750000D01*
X159590000Y-90300000D02*
X159590000Y-93950052D01*
X165679948Y-99540000D02*
X170709974Y-104570026D01*
X167897513Y-120642487D02*
X167647500Y-120392474D01*
X170709974Y-104570026D02*
X171019948Y-104880000D01*
X165179948Y-99540000D02*
X165679948Y-99540000D01*
X160170000Y-89720000D02*
X159590000Y-90300000D01*
%TO.N,LCD_RST_IO13*%
X171800000Y-105165076D02*
X171800000Y-108219948D01*
X171002461Y-104367539D02*
X171164922Y-104530000D01*
X159940000Y-92104703D02*
X159940000Y-93805078D01*
X171800000Y-108219948D02*
X167997500Y-112022448D01*
X165824922Y-99190000D02*
X171002461Y-104367539D01*
X178446027Y-122060000D02*
X178702649Y-121803378D01*
X167997500Y-112022448D02*
X167997500Y-120247501D01*
X159940000Y-93805078D02*
X165324922Y-99190000D01*
X169810000Y-122060000D02*
X178446027Y-122060000D01*
X167997500Y-120247501D02*
X169810000Y-122060000D01*
X171002461Y-104367539D02*
X171800000Y-105165076D01*
X165324922Y-99190000D02*
X165824922Y-99190000D01*
X160283754Y-91760949D02*
X159940000Y-92104703D01*
%TO.N,LCD_DC_IO14*%
X170924948Y-103795052D02*
X170924951Y-103795052D01*
X160290000Y-93630000D02*
X165500000Y-98840000D01*
X170924948Y-103795052D02*
X171309896Y-104180000D01*
X160920000Y-91374552D02*
X160920000Y-92010000D01*
X165500000Y-98840000D02*
X165969896Y-98840000D01*
X172150000Y-108364922D02*
X168347500Y-112167422D01*
X168347500Y-112167422D02*
X168347500Y-120102526D01*
X160290000Y-92640000D02*
X160290000Y-93630000D01*
X170924951Y-103795052D02*
X172150000Y-105020101D01*
X160553927Y-91008479D02*
X160920000Y-91374552D01*
X172150000Y-105020101D02*
X172150000Y-108364922D01*
X165969896Y-98840000D02*
X170924948Y-103795052D01*
X160920000Y-92010000D02*
X160290000Y-92640000D01*
X169054974Y-120810000D02*
X169720000Y-120810000D01*
X168347500Y-120102526D02*
X169054974Y-120810000D01*
%TO.N,LCD_BUSY_IO17*%
X160676422Y-90433479D02*
X160792100Y-90433479D01*
X160640000Y-92784974D02*
X160640000Y-93485026D01*
X160845758Y-90264143D02*
X160676422Y-90433479D01*
X168869435Y-120129487D02*
X168697500Y-119957552D01*
X171157439Y-103532565D02*
X171157435Y-103532565D01*
X170139650Y-120129487D02*
X168869435Y-120129487D01*
X166114870Y-98490000D02*
X171157435Y-103532565D01*
X160640000Y-93485026D02*
X165644974Y-98490000D01*
X161270000Y-90911379D02*
X161270000Y-92154974D01*
X160792100Y-90433479D02*
X161270000Y-90911379D01*
X171157435Y-103532565D02*
X171454870Y-103830000D01*
X168697500Y-119957552D02*
X168697500Y-112312396D01*
X172500000Y-104875126D02*
X171157439Y-103532565D01*
X161270000Y-92154974D02*
X160640000Y-92784974D01*
X172500000Y-108509896D02*
X172500000Y-104875126D01*
X168697500Y-112312396D02*
X172500000Y-108509896D01*
X165644974Y-98490000D02*
X166114870Y-98490000D01*
D17*
%TO.N,Earth*%
X172690000Y-83400000D02*
X174610000Y-85320000D01*
X174610000Y-106060000D02*
X174130000Y-106540000D01*
X162900000Y-106990000D02*
X161870000Y-108020000D01*
X158270000Y-107950000D02*
X157890000Y-108330000D01*
X172690000Y-80370000D02*
X172690000Y-83400000D01*
X169420000Y-106990000D02*
X162900000Y-106990000D01*
X159500000Y-72750000D02*
X150860000Y-72750000D01*
X174610000Y-85320000D02*
X174610000Y-106060000D01*
X159500000Y-72750000D02*
X159500000Y-76930000D01*
X169250000Y-76930000D02*
X172690000Y-80370000D01*
X159500000Y-76930000D02*
X169250000Y-76930000D01*
X158670000Y-107950000D02*
X158270000Y-107950000D01*
X151030000Y-110350000D02*
X150300000Y-110350000D01*
X150300000Y-110350000D02*
X148200000Y-108250000D01*
D19*
%TO.N,DOUT_ADS2_5V0*%
X131870000Y-109220000D02*
X133250000Y-107840000D01*
X131870000Y-112740000D02*
X131870000Y-109220000D01*
X132360000Y-123280000D02*
X132510000Y-123280000D01*
X134990000Y-115860000D02*
X131870000Y-112740000D01*
X132510000Y-123280000D02*
X134990000Y-120800000D01*
X134990000Y-120800000D02*
X134990000Y-115860000D01*
%TO.N,unconnected-(ESP32S1-Pad16)*%
X152647806Y-96425393D02*
X152660000Y-96437587D01*
X152660000Y-96437587D02*
X152660000Y-102514925D01*
%TO.N,unconnected-(ESP32S1-Pad17)*%
X153279255Y-97020893D02*
X153279255Y-97805919D01*
X153010000Y-98075174D02*
X153010000Y-102369950D01*
X153279255Y-97805919D02*
X153010000Y-98075174D01*
%TO.N,unconnected-(ESP32S1-Pad43)*%
X164890000Y-100240000D02*
X165390000Y-100240000D01*
X165390000Y-100240000D02*
X170365000Y-105215000D01*
X159747366Y-88417660D02*
X158890000Y-89275026D01*
X170365000Y-105215000D02*
X170750000Y-105600000D01*
X159956622Y-88417660D02*
X159747366Y-88417660D01*
X170365000Y-105215000D02*
X170730000Y-105580000D01*
X158890000Y-89275026D02*
X158890000Y-94240000D01*
X158890000Y-94240000D02*
X164890000Y-100240000D01*
%TO.N,SCLK_ADS_COMMON_5V0*%
X124195000Y-110265000D02*
X124360000Y-110100000D01*
X124360000Y-110100000D02*
X128560000Y-110100000D01*
%TO.N,DOUT_ADS2_3V3_IO06*%
X148548414Y-94960000D02*
X147332571Y-93744157D01*
X143170000Y-103084922D02*
X141020000Y-105234922D01*
X141020000Y-105234922D02*
X141020000Y-105795931D01*
X147332571Y-93744157D02*
X144315843Y-93744157D01*
X144315843Y-93744157D02*
X143170000Y-94890000D01*
X140205931Y-106610000D02*
X139980000Y-106610000D01*
X141020000Y-105795931D02*
X140205931Y-106610000D01*
X149440000Y-94960000D02*
X148548414Y-94960000D01*
X143170000Y-94890000D02*
X143170000Y-103084922D01*
%TO.N,LED_R_IO13*%
X153360000Y-98220148D02*
X154094755Y-97485393D01*
X154105026Y-102970000D02*
X153360000Y-102224975D01*
X159110000Y-128240000D02*
X159110000Y-128210000D01*
X159500000Y-127820000D02*
X159500000Y-106800052D01*
X159500000Y-106800052D02*
X155669948Y-102970000D01*
X153360000Y-102224975D02*
X153360000Y-98220148D01*
X154094755Y-97485393D02*
X154094755Y-96876913D01*
X155669948Y-102970000D02*
X154105026Y-102970000D01*
X159110000Y-128210000D02*
X159500000Y-127820000D01*
%TO.N,LED_G_IO14*%
X154493729Y-97581393D02*
X153710000Y-98365122D01*
X157357461Y-104162539D02*
X157734922Y-104540000D01*
X159850000Y-106655078D02*
X157357461Y-104162539D01*
X153710000Y-98365122D02*
X153710000Y-102080000D01*
X155814922Y-102620000D02*
X157357461Y-104162539D01*
X159850000Y-128860000D02*
X159850000Y-106655078D01*
X154250000Y-102620000D02*
X155814922Y-102620000D01*
X154669255Y-97581393D02*
X154493729Y-97581393D01*
X153710000Y-102080000D02*
X154250000Y-102620000D01*
%TO.N,LED_B_IO17*%
X160857500Y-129152500D02*
X160857500Y-128667500D01*
X160857500Y-128667500D02*
X160200000Y-128010000D01*
X160200000Y-106454974D02*
X154956338Y-101211312D01*
X160200000Y-128010000D02*
X160200000Y-106454974D01*
X154956338Y-101211312D02*
X154956338Y-100747976D01*
%TO.N,3V3_EN_ADS2_IO10*%
X152310000Y-105800000D02*
X152310000Y-96900760D01*
X140650000Y-113034974D02*
X140650000Y-108020000D01*
X128324267Y-124780000D02*
X132634974Y-124780000D01*
X142230000Y-106440000D02*
X151670000Y-106440000D01*
X132634974Y-124780000D02*
X135690000Y-121724974D01*
X135690000Y-121724974D02*
X135690000Y-117994974D01*
X152310000Y-96900760D02*
X151924243Y-96515003D01*
X135690000Y-117994974D02*
X140650000Y-113034974D01*
X151924243Y-96515003D02*
X151924243Y-96074221D01*
X151670000Y-106440000D02*
X152310000Y-105800000D01*
X140650000Y-108020000D02*
X142230000Y-106440000D01*
X127438767Y-123894500D02*
X128324267Y-124780000D01*
%TD*%
%TA.AperFunction,NonConductor*%
G36*
X146918263Y-82032208D02*
G01*
X146976714Y-82046641D01*
X146984623Y-82050792D01*
X147039158Y-82079414D01*
X147193480Y-82117451D01*
X147193481Y-82117451D01*
X147352421Y-82117451D01*
X147352422Y-82117451D01*
X147506744Y-82079414D01*
X147568107Y-82047207D01*
X147626755Y-82032776D01*
X157397557Y-82040601D01*
X157465659Y-82060657D01*
X157486548Y-82077505D01*
X157602850Y-82193807D01*
X157636876Y-82256119D01*
X157639755Y-82282902D01*
X157639755Y-84637218D01*
X157619753Y-84705339D01*
X157602851Y-84726313D01*
X157554677Y-84774488D01*
X157492366Y-84808513D01*
X157465581Y-84811393D01*
X156125228Y-84811393D01*
X156119743Y-84811153D01*
X156089565Y-84808513D01*
X156078949Y-84807584D01*
X156078945Y-84807584D01*
X156039379Y-84818185D01*
X156034015Y-84819374D01*
X155993676Y-84826487D01*
X155988439Y-84828393D01*
X155971749Y-84835306D01*
X155966707Y-84837657D01*
X155933152Y-84861152D01*
X155928518Y-84864104D01*
X155893045Y-84884585D01*
X155893038Y-84884590D01*
X155866706Y-84915972D01*
X155862992Y-84920025D01*
X155129974Y-85653042D01*
X155067662Y-85687068D01*
X154996847Y-85682003D01*
X154940917Y-85640651D01*
X154929229Y-85625419D01*
X154892455Y-85597201D01*
X154813404Y-85536542D01*
X154813396Y-85536537D01*
X154678507Y-85480664D01*
X154533755Y-85461608D01*
X154389002Y-85480664D01*
X154321556Y-85508601D01*
X154254113Y-85536538D01*
X154254112Y-85536539D01*
X154254111Y-85536539D01*
X154138281Y-85625419D01*
X154049399Y-85741252D01*
X154049398Y-85741253D01*
X154028263Y-85792278D01*
X154000951Y-85833153D01*
X153489618Y-86344488D01*
X153427305Y-86378513D01*
X153400522Y-86381393D01*
X146138931Y-86381393D01*
X146070810Y-86361391D01*
X146055381Y-86349708D01*
X146053788Y-86348297D01*
X146053782Y-86348293D01*
X146042099Y-86342161D01*
X145913048Y-86274430D01*
X145913047Y-86274429D01*
X145913046Y-86274429D01*
X145758727Y-86236393D01*
X145758726Y-86236393D01*
X145599784Y-86236393D01*
X145599782Y-86236393D01*
X145445464Y-86274429D01*
X145445457Y-86274432D01*
X145304729Y-86348291D01*
X145304724Y-86348295D01*
X145209109Y-86433004D01*
X145185757Y-86453692D01*
X145121790Y-86546365D01*
X145109196Y-86564610D01*
X145054037Y-86609309D01*
X144983468Y-86617092D01*
X144919895Y-86585487D01*
X144883500Y-86524528D01*
X144879500Y-86493033D01*
X144879500Y-85097131D01*
X144879740Y-85091637D01*
X144883310Y-85050840D01*
X144872701Y-85011252D01*
X144871520Y-85005925D01*
X144864405Y-84965566D01*
X144864403Y-84965562D01*
X144862491Y-84960308D01*
X144855596Y-84943663D01*
X144853235Y-84938600D01*
X144853235Y-84938599D01*
X144829738Y-84905042D01*
X144826783Y-84900404D01*
X144826538Y-84899980D01*
X144806305Y-84864934D01*
X144774916Y-84838595D01*
X144770876Y-84834893D01*
X144199993Y-84264010D01*
X144165967Y-84201698D01*
X144163088Y-84175096D01*
X144162751Y-83941121D01*
X144160181Y-82156279D01*
X144180085Y-82088133D01*
X144233674Y-82041563D01*
X144286281Y-82030101D01*
X146918263Y-82032208D01*
G37*
%TD.AperFunction*%
%TA.AperFunction,NonConductor*%
G36*
X154673383Y-86705971D02*
G01*
X154730219Y-86748518D01*
X154754273Y-86807579D01*
X154759383Y-86846391D01*
X154799302Y-86942765D01*
X154806891Y-87013355D01*
X154775111Y-87076842D01*
X154741606Y-87100108D01*
X154742431Y-87101537D01*
X154735280Y-87105665D01*
X154619447Y-87194547D01*
X154530563Y-87310383D01*
X154526613Y-87317225D01*
X154475229Y-87366218D01*
X154417495Y-87380223D01*
X154199156Y-87380223D01*
X154131035Y-87360221D01*
X154084542Y-87306565D01*
X154074438Y-87236291D01*
X154103932Y-87171711D01*
X154110046Y-87165142D01*
X154540259Y-86734929D01*
X154602568Y-86700907D01*
X154673383Y-86705971D01*
G37*
%TD.AperFunction*%
%TA.AperFunction,NonConductor*%
G36*
X160193115Y-90270479D02*
G01*
X160258041Y-90299203D01*
X160297132Y-90358468D01*
X160301587Y-90378952D01*
X160305303Y-90407176D01*
X160306608Y-90417084D01*
X160303685Y-90417468D01*
X160302326Y-90474258D01*
X160262524Y-90533048D01*
X160259018Y-90535838D01*
X160158454Y-90613003D01*
X160145462Y-90629935D01*
X160088123Y-90671802D01*
X160017252Y-90676023D01*
X159955350Y-90641258D01*
X159922069Y-90578545D01*
X159919500Y-90553230D01*
X159919500Y-90488673D01*
X159939502Y-90420552D01*
X159956399Y-90399583D01*
X160054088Y-90301894D01*
X160116396Y-90267872D01*
X160159622Y-90266070D01*
X160193115Y-90270479D01*
G37*
%TD.AperFunction*%
%TA.AperFunction,NonConductor*%
G36*
X150987702Y-87420395D02*
G01*
X151034195Y-87474051D01*
X151044299Y-87544325D01*
X151014805Y-87608905D01*
X151008690Y-87615473D01*
X150180982Y-88443181D01*
X149908383Y-88715780D01*
X149904331Y-88719493D01*
X149872949Y-88745827D01*
X149872948Y-88745829D01*
X149852467Y-88781303D01*
X149849514Y-88785937D01*
X149826021Y-88819490D01*
X149823665Y-88824542D01*
X149816745Y-88841251D01*
X149814848Y-88846462D01*
X149807735Y-88886802D01*
X149806545Y-88892169D01*
X149795945Y-88931728D01*
X149795945Y-88931734D01*
X149799515Y-88972530D01*
X149799755Y-88978024D01*
X149799755Y-90174500D01*
X149779753Y-90242621D01*
X149726097Y-90289114D01*
X149673755Y-90300500D01*
X148587132Y-90300500D01*
X148581647Y-90300260D01*
X148552590Y-90297718D01*
X148540842Y-90296690D01*
X148540835Y-90296690D01*
X148501276Y-90307290D01*
X148495909Y-90308480D01*
X148455569Y-90315593D01*
X148450363Y-90317488D01*
X148433628Y-90324420D01*
X148428601Y-90326764D01*
X148428599Y-90326765D01*
X148428596Y-90326766D01*
X148428598Y-90326766D01*
X148395037Y-90350263D01*
X148390404Y-90353214D01*
X148354936Y-90373693D01*
X148354934Y-90373694D01*
X148328607Y-90405068D01*
X148324894Y-90409120D01*
X147456265Y-91277752D01*
X147393952Y-91311777D01*
X147367169Y-91314657D01*
X145122831Y-91314657D01*
X145054710Y-91294655D01*
X145033735Y-91277752D01*
X144916404Y-91160420D01*
X144882379Y-91098108D01*
X144879500Y-91071325D01*
X144879500Y-90216224D01*
X144899502Y-90148103D01*
X144953158Y-90101610D01*
X145023432Y-90091506D01*
X145088012Y-90121000D01*
X145090257Y-90123221D01*
X145095756Y-90128093D01*
X145095757Y-90128094D01*
X145214726Y-90233492D01*
X145214727Y-90233492D01*
X145214729Y-90233494D01*
X145285199Y-90270479D01*
X145355462Y-90307356D01*
X145509784Y-90345393D01*
X145509785Y-90345393D01*
X145668725Y-90345393D01*
X145668726Y-90345393D01*
X145823048Y-90307356D01*
X145963784Y-90233492D01*
X146082753Y-90128094D01*
X146173042Y-89997288D01*
X146229404Y-89848675D01*
X146229404Y-89848674D01*
X146229405Y-89848672D01*
X146248562Y-89690896D01*
X146248562Y-89690889D01*
X146229405Y-89533113D01*
X146173040Y-89384494D01*
X146121059Y-89309186D01*
X146098823Y-89241761D01*
X146098755Y-89237610D01*
X146098755Y-87526393D01*
X146118757Y-87458272D01*
X146172413Y-87411779D01*
X146224755Y-87400393D01*
X150919581Y-87400393D01*
X150987702Y-87420395D01*
G37*
%TD.AperFunction*%
%TA.AperFunction,NonConductor*%
G36*
X159493012Y-95309449D02*
G01*
X159499595Y-95315578D01*
X161048337Y-96864320D01*
X161082363Y-96926632D01*
X161077298Y-96997447D01*
X161034751Y-97054283D01*
X161007465Y-97069822D01*
X160995342Y-97074844D01*
X160995340Y-97074845D01*
X160995335Y-97074848D01*
X160891348Y-97154640D01*
X160825128Y-97180240D01*
X160755579Y-97165975D01*
X160737946Y-97154643D01*
X160733906Y-97151543D01*
X160733896Y-97151537D01*
X160599007Y-97095664D01*
X160454256Y-97076608D01*
X160454255Y-97076608D01*
X160433405Y-97079352D01*
X160363257Y-97068409D01*
X160327869Y-97043524D01*
X160233477Y-96949132D01*
X160229762Y-96945079D01*
X160214283Y-96926632D01*
X160203428Y-96913695D01*
X160167951Y-96893212D01*
X160163319Y-96890261D01*
X160129763Y-96866765D01*
X160129759Y-96866762D01*
X160124729Y-96864416D01*
X160108026Y-96857498D01*
X160102792Y-96855593D01*
X160062453Y-96848480D01*
X160057087Y-96847290D01*
X160017526Y-96836690D01*
X160017520Y-96836690D01*
X160005771Y-96837718D01*
X159976714Y-96840260D01*
X159971230Y-96840500D01*
X159540023Y-96840500D01*
X159471902Y-96820498D01*
X159425409Y-96766842D01*
X159415305Y-96696568D01*
X159418316Y-96681891D01*
X159420227Y-96674756D01*
X159420226Y-96674756D01*
X159420228Y-96674754D01*
X159439285Y-96530000D01*
X159420228Y-96385246D01*
X159364355Y-96250358D01*
X159364350Y-96250351D01*
X159310537Y-96180219D01*
X159284937Y-96113998D01*
X159284500Y-96103516D01*
X159284500Y-95404673D01*
X159304502Y-95336552D01*
X159358158Y-95290059D01*
X159428432Y-95279955D01*
X159493012Y-95309449D01*
G37*
%TD.AperFunction*%
%TA.AperFunction,NonConductor*%
G36*
X161812996Y-98239433D02*
G01*
X161819579Y-98245562D01*
X162123595Y-98549578D01*
X162157621Y-98611890D01*
X162160500Y-98638673D01*
X162160500Y-100193188D01*
X162140498Y-100261309D01*
X162086842Y-100307802D01*
X162016568Y-100317906D01*
X161986282Y-100309597D01*
X161978899Y-100306538D01*
X161978898Y-100306538D01*
X161875297Y-100263625D01*
X161844007Y-100250664D01*
X161714038Y-100233554D01*
X161649111Y-100204832D01*
X161610019Y-100145566D01*
X161604484Y-100108632D01*
X161604484Y-98334657D01*
X161624486Y-98266536D01*
X161678142Y-98220043D01*
X161748416Y-98209939D01*
X161812996Y-98239433D01*
G37*
%TD.AperFunction*%
%TA.AperFunction,NonConductor*%
G36*
X160878544Y-98102095D02*
G01*
X160929342Y-98151694D01*
X160945483Y-98213395D01*
X160945483Y-100349480D01*
X160945243Y-100354972D01*
X160943372Y-100376370D01*
X160917511Y-100442490D01*
X160860009Y-100484131D01*
X160817851Y-100491393D01*
X160185930Y-100491393D01*
X160117809Y-100471391D01*
X160071316Y-100417735D01*
X160061212Y-100347461D01*
X160085968Y-100288689D01*
X160148076Y-100207748D01*
X160153610Y-100200536D01*
X160209483Y-100065647D01*
X160228540Y-99920893D01*
X160209483Y-99776139D01*
X160153610Y-99641251D01*
X160064729Y-99525419D01*
X160064727Y-99525417D01*
X160064726Y-99525416D01*
X159948904Y-99436542D01*
X159948896Y-99436537D01*
X159814007Y-99380664D01*
X159669256Y-99361608D01*
X159669255Y-99361608D01*
X159648405Y-99364352D01*
X159578257Y-99353409D01*
X159542869Y-99328524D01*
X158891388Y-98677043D01*
X158857362Y-98614731D01*
X158862427Y-98543916D01*
X158880516Y-98511251D01*
X158968110Y-98397098D01*
X158989030Y-98346592D01*
X159033575Y-98291314D01*
X159100938Y-98268892D01*
X159169730Y-98286449D01*
X159218109Y-98338411D01*
X159221846Y-98346594D01*
X159264899Y-98450534D01*
X159264904Y-98450542D01*
X159353780Y-98566367D01*
X159448011Y-98638673D01*
X159469612Y-98655248D01*
X159604501Y-98711121D01*
X159749255Y-98730178D01*
X159894009Y-98711121D01*
X160028898Y-98655248D01*
X160144729Y-98566367D01*
X160233610Y-98450536D01*
X160289483Y-98315647D01*
X160291433Y-98300828D01*
X160320153Y-98235905D01*
X160379416Y-98196811D01*
X160432799Y-98192353D01*
X160454255Y-98195178D01*
X160599009Y-98176121D01*
X160733898Y-98120248D01*
X160742777Y-98113434D01*
X160808995Y-98087832D01*
X160878544Y-98102095D01*
G37*
%TD.AperFunction*%
%TA.AperFunction,NonConductor*%
G36*
X156004617Y-95639645D02*
G01*
X156025591Y-95656548D01*
X158011337Y-97642294D01*
X158045363Y-97704606D01*
X158040298Y-97775421D01*
X158022205Y-97808092D01*
X157999404Y-97837806D01*
X157999401Y-97837811D01*
X157999400Y-97837813D01*
X157971463Y-97905257D01*
X157943526Y-97972702D01*
X157924470Y-98117454D01*
X157924470Y-98117455D01*
X157943526Y-98262207D01*
X157999399Y-98397096D01*
X157999404Y-98397104D01*
X158088278Y-98512926D01*
X158088279Y-98512927D01*
X158088281Y-98512929D01*
X158104958Y-98525725D01*
X158146825Y-98583060D01*
X158154255Y-98625688D01*
X158154255Y-98718260D01*
X158154015Y-98723753D01*
X158150445Y-98764551D01*
X158150445Y-98764558D01*
X158161045Y-98804118D01*
X158162235Y-98809484D01*
X158169348Y-98849823D01*
X158171253Y-98855057D01*
X158178171Y-98871760D01*
X158180517Y-98876790D01*
X158204013Y-98910345D01*
X158206967Y-98914982D01*
X158227451Y-98950460D01*
X158258828Y-98976788D01*
X158262871Y-98980492D01*
X158718916Y-99436537D01*
X159076886Y-99794507D01*
X159110912Y-99856819D01*
X159112714Y-99900043D01*
X159109970Y-99920892D01*
X159109970Y-99920894D01*
X159129026Y-100065645D01*
X159184899Y-100200534D01*
X159184904Y-100200542D01*
X159252542Y-100288689D01*
X159278143Y-100354909D01*
X159263878Y-100424458D01*
X159214277Y-100475254D01*
X159152580Y-100491393D01*
X157943971Y-100491393D01*
X157875850Y-100471391D01*
X157829357Y-100417735D01*
X157819049Y-100348947D01*
X157838540Y-100200893D01*
X157838540Y-100200892D01*
X157822149Y-100076393D01*
X157819483Y-100056139D01*
X157763610Y-99921251D01*
X157674729Y-99805419D01*
X157674727Y-99805417D01*
X157674726Y-99805416D01*
X157558904Y-99716542D01*
X157558896Y-99716537D01*
X157424007Y-99660664D01*
X157279255Y-99641608D01*
X157134502Y-99660664D01*
X157067057Y-99688601D01*
X156999613Y-99716538D01*
X156999612Y-99716539D01*
X156999611Y-99716539D01*
X156883778Y-99805421D01*
X156829097Y-99876683D01*
X156771759Y-99918551D01*
X156700888Y-99922772D01*
X156652432Y-99899942D01*
X156608904Y-99866542D01*
X156608896Y-99866537D01*
X156474007Y-99810664D01*
X156329255Y-99791608D01*
X156184502Y-99810664D01*
X156117435Y-99838445D01*
X156049613Y-99866538D01*
X156049612Y-99866539D01*
X156049611Y-99866539D01*
X155933781Y-99955419D01*
X155844901Y-100071249D01*
X155844900Y-100071251D01*
X155827014Y-100114432D01*
X155789026Y-100206140D01*
X155769970Y-100350892D01*
X155769970Y-100350894D01*
X155779246Y-100421357D01*
X155768306Y-100491505D01*
X155721178Y-100544604D01*
X155670770Y-100562724D01*
X155585522Y-100573947D01*
X155515373Y-100563008D01*
X155462275Y-100515879D01*
X155452669Y-100497248D01*
X155440693Y-100468334D01*
X155351812Y-100352502D01*
X155351810Y-100352500D01*
X155351809Y-100352499D01*
X155235987Y-100263625D01*
X155235979Y-100263620D01*
X155101090Y-100207747D01*
X154956338Y-100188691D01*
X154811584Y-100207747D01*
X154811579Y-100207749D01*
X154773717Y-100223432D01*
X154703127Y-100231021D01*
X154639640Y-100199241D01*
X154603414Y-100138182D01*
X154599500Y-100107023D01*
X154599500Y-99856819D01*
X154599500Y-99591316D01*
X154619501Y-99523199D01*
X154673156Y-99476706D01*
X154677214Y-99474940D01*
X154748898Y-99445248D01*
X154864729Y-99356367D01*
X154953610Y-99240536D01*
X155009483Y-99105647D01*
X155028540Y-98960893D01*
X155027166Y-98950460D01*
X155013918Y-98849827D01*
X155009483Y-98816139D01*
X154953610Y-98681251D01*
X154864729Y-98565419D01*
X154864727Y-98565417D01*
X154864726Y-98565416D01*
X154748904Y-98476542D01*
X154748896Y-98476537D01*
X154614007Y-98420664D01*
X154469255Y-98401608D01*
X154469250Y-98401608D01*
X154457505Y-98403154D01*
X154387357Y-98392213D01*
X154334259Y-98345084D01*
X154315071Y-98276730D01*
X154335884Y-98208852D01*
X154351967Y-98189137D01*
X154390711Y-98150393D01*
X154453023Y-98116367D01*
X154516150Y-98120882D01*
X154516525Y-98119484D01*
X154523779Y-98121427D01*
X154523838Y-98121432D01*
X154523930Y-98121468D01*
X154524497Y-98121619D01*
X154524501Y-98121621D01*
X154669255Y-98140678D01*
X154814009Y-98121621D01*
X154948898Y-98065748D01*
X155064729Y-97976867D01*
X155153610Y-97861036D01*
X155209483Y-97726147D01*
X155228540Y-97581393D01*
X155221599Y-97528674D01*
X155217759Y-97499500D01*
X155209483Y-97436639D01*
X155153610Y-97301751D01*
X155064729Y-97185919D01*
X155064727Y-97185917D01*
X155064726Y-97185916D01*
X154948904Y-97097042D01*
X154948896Y-97097037D01*
X154814007Y-97041164D01*
X154760430Y-97034111D01*
X154695503Y-97005388D01*
X154656412Y-96946123D01*
X154651956Y-96892740D01*
X154654040Y-96876913D01*
X154651233Y-96855595D01*
X154635611Y-96736929D01*
X154634983Y-96732159D01*
X154579110Y-96597271D01*
X154490229Y-96481439D01*
X154490227Y-96481437D01*
X154490226Y-96481436D01*
X154374404Y-96392562D01*
X154374396Y-96392557D01*
X154239507Y-96336684D01*
X154094755Y-96317628D01*
X153950002Y-96336684D01*
X153884028Y-96364012D01*
X153815113Y-96392558D01*
X153815112Y-96392559D01*
X153815111Y-96392559D01*
X153699277Y-96481441D01*
X153692194Y-96490673D01*
X153634855Y-96532538D01*
X153563983Y-96536757D01*
X153544017Y-96530374D01*
X153424007Y-96480664D01*
X153306526Y-96465198D01*
X153241598Y-96436476D01*
X153202507Y-96377210D01*
X153198050Y-96356722D01*
X153196808Y-96347291D01*
X153188034Y-96280639D01*
X153132161Y-96145751D01*
X153043280Y-96029919D01*
X153043278Y-96029917D01*
X153043277Y-96029916D01*
X152927455Y-95941042D01*
X152927447Y-95941037D01*
X152792558Y-95885164D01*
X152681661Y-95870565D01*
X152616734Y-95841843D01*
X152577642Y-95782578D01*
X152576797Y-95711586D01*
X152614467Y-95651407D01*
X152678692Y-95621148D01*
X152698107Y-95619643D01*
X155936496Y-95619643D01*
X156004617Y-95639645D01*
G37*
%TD.AperFunction*%
%TA.AperFunction,NonConductor*%
G36*
X170123604Y-82050792D02*
G01*
X170191708Y-82070849D01*
X170238158Y-82124542D01*
X170249502Y-82176544D01*
X170288371Y-101893079D01*
X170268503Y-101961239D01*
X170214939Y-102007837D01*
X170144685Y-102018080D01*
X170080046Y-101988714D01*
X170073276Y-101982422D01*
X169191507Y-101100653D01*
X166359974Y-98269121D01*
X166356270Y-98265079D01*
X166353860Y-98262207D01*
X166329936Y-98233695D01*
X166294459Y-98213212D01*
X166289827Y-98210261D01*
X166256271Y-98186765D01*
X166256267Y-98186762D01*
X166251237Y-98184416D01*
X166234534Y-98177498D01*
X166229300Y-98175593D01*
X166188961Y-98168480D01*
X166183595Y-98167290D01*
X166144034Y-98156690D01*
X166144028Y-98156690D01*
X166132279Y-98157718D01*
X166103222Y-98160260D01*
X166097738Y-98160500D01*
X165833647Y-98160500D01*
X165765526Y-98140498D01*
X165744552Y-98123595D01*
X161006405Y-93385448D01*
X160972379Y-93323136D01*
X160969500Y-93296353D01*
X160969500Y-92973647D01*
X160989502Y-92905526D01*
X161006399Y-92884557D01*
X161490887Y-92400069D01*
X161494917Y-92396375D01*
X161526305Y-92370040D01*
X161546794Y-92334549D01*
X161549728Y-92329946D01*
X161573235Y-92296375D01*
X161575602Y-92291297D01*
X161582488Y-92274673D01*
X161584403Y-92269411D01*
X161584402Y-92269411D01*
X161584405Y-92269408D01*
X161591521Y-92229042D01*
X161592700Y-92223725D01*
X161603310Y-92184134D01*
X161601298Y-92161137D01*
X161599740Y-92143320D01*
X161599500Y-92137828D01*
X161599500Y-90928511D01*
X161599740Y-90923018D01*
X161600417Y-90915279D01*
X161603310Y-90882219D01*
X161592701Y-90842631D01*
X161591520Y-90837304D01*
X161584405Y-90796945D01*
X161584403Y-90796941D01*
X161582494Y-90791697D01*
X161575590Y-90775028D01*
X161573235Y-90769979D01*
X161573235Y-90769978D01*
X161566283Y-90760050D01*
X161549734Y-90736412D01*
X161546780Y-90731777D01*
X161531693Y-90705646D01*
X161526305Y-90696313D01*
X161502125Y-90676023D01*
X161494925Y-90669981D01*
X161490882Y-90666277D01*
X161400856Y-90576251D01*
X161366830Y-90513939D01*
X161371895Y-90443124D01*
X161373543Y-90438936D01*
X161381158Y-90420552D01*
X161385986Y-90408897D01*
X161405043Y-90264143D01*
X161385986Y-90119389D01*
X161330113Y-89984501D01*
X161241232Y-89868669D01*
X161241230Y-89868667D01*
X161241229Y-89868666D01*
X161125407Y-89779792D01*
X161125399Y-89779787D01*
X160990510Y-89723914D01*
X160912644Y-89713663D01*
X160847717Y-89684940D01*
X160808626Y-89625675D01*
X160804165Y-89605154D01*
X160804094Y-89604613D01*
X160815055Y-89534470D01*
X160862200Y-89481386D01*
X160866021Y-89479089D01*
X160870476Y-89476516D01*
X160870479Y-89476515D01*
X160986310Y-89387634D01*
X161075191Y-89271803D01*
X161131064Y-89136914D01*
X161150121Y-88992160D01*
X161147898Y-88975278D01*
X161136607Y-88889507D01*
X161131064Y-88847406D01*
X161075191Y-88712518D01*
X160986310Y-88596686D01*
X160986308Y-88596684D01*
X160986307Y-88596683D01*
X160870485Y-88507809D01*
X160870477Y-88507804D01*
X160735588Y-88451931D01*
X160612479Y-88435724D01*
X160547552Y-88407001D01*
X160508461Y-88347736D01*
X160504004Y-88327248D01*
X160498383Y-88284555D01*
X160496850Y-88272906D01*
X160440977Y-88138018D01*
X160352096Y-88022186D01*
X160352094Y-88022184D01*
X160352093Y-88022183D01*
X160236271Y-87933309D01*
X160236263Y-87933304D01*
X160101374Y-87877431D01*
X159956622Y-87858375D01*
X159811869Y-87877431D01*
X159744423Y-87905368D01*
X159676980Y-87933305D01*
X159676979Y-87933306D01*
X159676978Y-87933306D01*
X159561148Y-88022186D01*
X159472268Y-88138016D01*
X159472264Y-88138023D01*
X159419096Y-88266380D01*
X159391784Y-88307256D01*
X158669124Y-89029917D01*
X158665072Y-89033630D01*
X158633693Y-89059961D01*
X158633692Y-89059961D01*
X158613211Y-89095436D01*
X158610259Y-89100070D01*
X158586766Y-89133623D01*
X158584410Y-89138675D01*
X158577490Y-89155384D01*
X158575593Y-89160595D01*
X158568480Y-89200935D01*
X158567290Y-89206302D01*
X158556690Y-89245861D01*
X158556690Y-89245866D01*
X158558959Y-89271803D01*
X158560260Y-89286663D01*
X158560500Y-89292157D01*
X158560500Y-93626226D01*
X158540498Y-93694347D01*
X158486842Y-93740840D01*
X158416568Y-93750944D01*
X158351988Y-93721450D01*
X158350946Y-93720538D01*
X158234530Y-93617402D01*
X158234525Y-93617398D01*
X158093797Y-93543539D01*
X158093795Y-93543538D01*
X158093793Y-93543537D01*
X158093791Y-93543536D01*
X158093790Y-93543536D01*
X157939472Y-93505500D01*
X157939471Y-93505500D01*
X157780529Y-93505500D01*
X157780527Y-93505500D01*
X157626209Y-93543536D01*
X157626202Y-93543539D01*
X157485474Y-93617398D01*
X157485469Y-93617402D01*
X157366501Y-93722800D01*
X157276215Y-93853601D01*
X157276212Y-93853607D01*
X157219849Y-94002220D01*
X157200693Y-94159996D01*
X157200693Y-94160003D01*
X157219849Y-94317779D01*
X157256565Y-94414588D01*
X157276213Y-94466395D01*
X157366502Y-94597201D01*
X157485471Y-94702599D01*
X157485472Y-94702599D01*
X157485474Y-94702601D01*
X157560200Y-94741820D01*
X157626207Y-94776463D01*
X157780529Y-94814500D01*
X157860260Y-94814500D01*
X157928381Y-94834502D01*
X157949355Y-94851405D01*
X158438595Y-95340645D01*
X158472621Y-95402957D01*
X158475500Y-95429740D01*
X158475500Y-96103516D01*
X158455498Y-96171637D01*
X158449463Y-96180219D01*
X158395649Y-96250351D01*
X158395643Y-96250361D01*
X158365498Y-96323137D01*
X158320949Y-96378417D01*
X158253585Y-96400837D01*
X158184794Y-96383278D01*
X158159995Y-96364012D01*
X156246008Y-94450025D01*
X156242293Y-94445972D01*
X156242018Y-94445644D01*
X156215959Y-94414588D01*
X156180482Y-94394105D01*
X156175850Y-94391154D01*
X156142294Y-94367658D01*
X156142290Y-94367655D01*
X156137260Y-94365309D01*
X156120557Y-94358391D01*
X156115323Y-94356486D01*
X156074984Y-94349373D01*
X156069618Y-94348183D01*
X156030057Y-94337583D01*
X156030051Y-94337583D01*
X156018302Y-94338611D01*
X155989245Y-94341153D01*
X155983761Y-94341393D01*
X151660773Y-94341393D01*
X151592652Y-94321391D01*
X151546159Y-94267735D01*
X151536901Y-94225175D01*
X151535851Y-94225314D01*
X151515716Y-94072373D01*
X151515716Y-94072372D01*
X151459843Y-93937484D01*
X151370962Y-93821652D01*
X151370960Y-93821650D01*
X151370959Y-93821649D01*
X151255137Y-93732775D01*
X151255129Y-93732770D01*
X151120240Y-93676897D01*
X150975488Y-93657841D01*
X150830735Y-93676897D01*
X150763290Y-93704834D01*
X150695846Y-93732771D01*
X150695845Y-93732772D01*
X150695844Y-93732772D01*
X150580014Y-93821652D01*
X150491134Y-93937482D01*
X150491133Y-93937484D01*
X150482474Y-93958389D01*
X150435259Y-94072373D01*
X150416203Y-94217124D01*
X150418865Y-94237348D01*
X150407923Y-94307497D01*
X150383037Y-94342886D01*
X150119892Y-94606031D01*
X150057580Y-94640057D01*
X149986765Y-94634992D01*
X149930835Y-94593641D01*
X149885472Y-94534524D01*
X149769649Y-94445649D01*
X149769641Y-94445644D01*
X149634750Y-94389770D01*
X149629359Y-94388326D01*
X149568738Y-94351371D01*
X149537720Y-94287508D01*
X149537060Y-94283100D01*
X149520228Y-94155246D01*
X149497480Y-94100329D01*
X149489892Y-94029742D01*
X149521671Y-93966255D01*
X149565668Y-93935706D01*
X149689643Y-93884355D01*
X149805474Y-93795474D01*
X149894355Y-93679643D01*
X149950228Y-93544754D01*
X149969285Y-93400000D01*
X149950228Y-93255246D01*
X149894355Y-93120358D01*
X149805474Y-93004526D01*
X149805472Y-93004524D01*
X149805471Y-93004523D01*
X149689649Y-92915649D01*
X149689646Y-92915647D01*
X149689643Y-92915645D01*
X149563395Y-92863351D01*
X149508116Y-92818803D01*
X149485695Y-92751440D01*
X149503254Y-92682648D01*
X149555216Y-92634270D01*
X149595165Y-92622022D01*
X149684754Y-92610228D01*
X149819643Y-92554355D01*
X149935474Y-92465474D01*
X150024355Y-92349643D01*
X150080228Y-92214754D01*
X150099285Y-92070000D01*
X150099285Y-92061741D01*
X150100917Y-92061741D01*
X150110375Y-92001052D01*
X150157498Y-91947948D01*
X150207915Y-91929822D01*
X150274009Y-91921121D01*
X150408898Y-91865248D01*
X150524729Y-91776367D01*
X150613610Y-91660536D01*
X150669483Y-91525647D01*
X150688540Y-91380893D01*
X150669483Y-91236139D01*
X150613610Y-91101251D01*
X150611198Y-91098108D01*
X150584623Y-91063475D01*
X150524729Y-90985419D01*
X150524726Y-90985417D01*
X150524725Y-90985415D01*
X150508048Y-90972618D01*
X150466182Y-90915279D01*
X150458755Y-90872658D01*
X150458755Y-90705646D01*
X150458995Y-90700152D01*
X150459332Y-90696311D01*
X150463310Y-90650840D01*
X150463048Y-90649861D01*
X150458755Y-90617252D01*
X150458755Y-89149566D01*
X150478757Y-89081445D01*
X150495655Y-89060475D01*
X150817989Y-88738141D01*
X150880299Y-88704118D01*
X150951114Y-88709182D01*
X151007950Y-88751729D01*
X151032004Y-88810790D01*
X151040348Y-88874165D01*
X151101256Y-89021216D01*
X151198153Y-89147493D01*
X151324430Y-89244390D01*
X151402857Y-89276874D01*
X151471482Y-89305299D01*
X151629288Y-89326075D01*
X151787094Y-89305299D01*
X151879824Y-89266889D01*
X151934145Y-89244390D01*
X151996039Y-89196897D01*
X152062259Y-89171296D01*
X152072743Y-89170859D01*
X152274271Y-89170859D01*
X152342392Y-89190861D01*
X152363361Y-89207759D01*
X153296917Y-90141316D01*
X153330941Y-90203626D01*
X153332901Y-90215221D01*
X153349105Y-90348672D01*
X153349105Y-90348674D01*
X153349106Y-90348675D01*
X153405468Y-90497288D01*
X153495757Y-90628094D01*
X153614726Y-90733492D01*
X153614727Y-90733492D01*
X153614729Y-90733494D01*
X153684244Y-90769978D01*
X153755462Y-90807356D01*
X153909784Y-90845393D01*
X153909785Y-90845393D01*
X154068725Y-90845393D01*
X154068726Y-90845393D01*
X154223048Y-90807356D01*
X154363784Y-90733492D01*
X154482753Y-90628094D01*
X154573042Y-90497288D01*
X154629404Y-90348675D01*
X154629404Y-90348674D01*
X154629405Y-90348672D01*
X154648562Y-90190896D01*
X154648562Y-90190889D01*
X154629405Y-90033113D01*
X154610968Y-89984499D01*
X154573042Y-89884498D01*
X154482753Y-89753692D01*
X154363784Y-89648294D01*
X154363783Y-89648293D01*
X154363780Y-89648291D01*
X154223052Y-89574432D01*
X154223050Y-89574431D01*
X154223048Y-89574430D01*
X154223046Y-89574429D01*
X154223045Y-89574429D01*
X154068727Y-89536393D01*
X154068726Y-89536393D01*
X154029705Y-89536393D01*
X153961584Y-89516391D01*
X153940610Y-89499488D01*
X153416400Y-88975278D01*
X152856646Y-88415523D01*
X152851943Y-88410260D01*
X152827353Y-88379424D01*
X152777771Y-88345619D01*
X152729497Y-88309992D01*
X152729495Y-88309991D01*
X152729494Y-88309990D01*
X152729491Y-88309989D01*
X152721859Y-88305955D01*
X152714149Y-88302243D01*
X152660275Y-88285625D01*
X152601077Y-88246432D01*
X152572465Y-88181456D01*
X152583524Y-88111326D01*
X152630743Y-88058308D01*
X152697415Y-88039223D01*
X154646695Y-88039223D01*
X154714816Y-88059225D01*
X154723400Y-88065262D01*
X154735278Y-88074376D01*
X154870167Y-88130249D01*
X155014921Y-88149306D01*
X155159675Y-88130249D01*
X155294564Y-88074376D01*
X155410395Y-87985495D01*
X155499276Y-87869664D01*
X155555149Y-87734775D01*
X155574206Y-87590021D01*
X155555149Y-87445267D01*
X155515229Y-87348894D01*
X155507640Y-87278305D01*
X155539419Y-87214818D01*
X155572926Y-87191558D01*
X155572099Y-87190125D01*
X155579252Y-87185994D01*
X155579252Y-87185993D01*
X155579254Y-87185993D01*
X155695085Y-87097112D01*
X155783966Y-86981281D01*
X155839839Y-86846392D01*
X155858198Y-86706939D01*
X155886919Y-86642014D01*
X155946184Y-86602922D01*
X155999563Y-86598465D01*
X156020268Y-86601191D01*
X156165022Y-86582134D01*
X156299911Y-86526261D01*
X156337438Y-86497465D01*
X156403656Y-86471865D01*
X156473205Y-86486129D01*
X156514102Y-86520722D01*
X156525933Y-86536140D01*
X156533781Y-86546367D01*
X156618590Y-86611444D01*
X156660456Y-86668780D01*
X156664678Y-86739651D01*
X156658294Y-86759622D01*
X156639028Y-86806135D01*
X156639026Y-86806139D01*
X156619970Y-86950892D01*
X156619970Y-86950893D01*
X156639026Y-87095645D01*
X156694899Y-87230534D01*
X156694904Y-87230542D01*
X156783780Y-87346367D01*
X156899605Y-87435243D01*
X156899612Y-87435248D01*
X157034501Y-87491121D01*
X157106878Y-87500649D01*
X157179254Y-87510178D01*
X157179254Y-87510177D01*
X157179255Y-87510178D01*
X157324009Y-87491121D01*
X157458898Y-87435248D01*
X157574729Y-87346367D01*
X157663610Y-87230536D01*
X157719483Y-87095647D01*
X157738540Y-86950893D01*
X157719483Y-86806139D01*
X157663610Y-86671251D01*
X157574729Y-86555419D01*
X157574727Y-86555417D01*
X157574726Y-86555416D01*
X157489920Y-86490342D01*
X157448053Y-86433004D01*
X157443831Y-86362133D01*
X157450210Y-86342173D01*
X157469483Y-86295647D01*
X157488540Y-86150893D01*
X157483207Y-86110385D01*
X157494146Y-86040238D01*
X157541274Y-85987139D01*
X157609628Y-85967949D01*
X157677506Y-85988760D01*
X157697224Y-86004845D01*
X158220376Y-86527997D01*
X158254402Y-86590309D01*
X158256203Y-86633535D01*
X158249970Y-86680888D01*
X158249970Y-86680893D01*
X158269026Y-86825645D01*
X158324899Y-86960534D01*
X158324904Y-86960542D01*
X158413780Y-87076367D01*
X158529605Y-87165243D01*
X158529612Y-87165248D01*
X158664501Y-87221121D01*
X158716563Y-87227975D01*
X158809254Y-87240178D01*
X158809254Y-87240177D01*
X158809255Y-87240178D01*
X158954009Y-87221121D01*
X159088898Y-87165248D01*
X159204729Y-87076367D01*
X159293610Y-86960536D01*
X159349483Y-86825647D01*
X159368540Y-86680893D01*
X159367270Y-86671250D01*
X159357688Y-86598465D01*
X159349483Y-86536139D01*
X159293610Y-86401251D01*
X159204729Y-86285419D01*
X159204727Y-86285417D01*
X159204726Y-86285416D01*
X159088904Y-86196542D01*
X159088896Y-86196537D01*
X158954007Y-86140664D01*
X158809256Y-86121608D01*
X158800997Y-86121608D01*
X158800997Y-86118690D01*
X158744771Y-86109922D01*
X158709380Y-86085035D01*
X158031833Y-85407488D01*
X157997807Y-85345176D01*
X158002872Y-85274361D01*
X158031830Y-85229299D01*
X158190142Y-85070987D01*
X158194173Y-85067294D01*
X158225560Y-85040959D01*
X158246051Y-85005466D01*
X158248985Y-85000860D01*
X158272490Y-84967294D01*
X158272490Y-84967291D01*
X158274872Y-84962184D01*
X158281726Y-84945638D01*
X158283661Y-84940323D01*
X158285727Y-84928598D01*
X158290776Y-84899964D01*
X158291958Y-84894632D01*
X158302564Y-84855054D01*
X158299339Y-84818185D01*
X158298995Y-84814251D01*
X158298755Y-84808759D01*
X158298755Y-83940587D01*
X158318757Y-83872466D01*
X158372413Y-83825973D01*
X158442687Y-83815869D01*
X158501457Y-83840623D01*
X158559612Y-83885248D01*
X158694501Y-83941121D01*
X158839255Y-83960178D01*
X158984009Y-83941121D01*
X159118898Y-83885248D01*
X159234729Y-83796367D01*
X159323610Y-83680536D01*
X159379483Y-83545647D01*
X159398540Y-83400893D01*
X159379483Y-83256139D01*
X159323610Y-83121251D01*
X159234729Y-83005419D01*
X159234726Y-83005417D01*
X159234725Y-83005415D01*
X159218048Y-82992618D01*
X159176182Y-82935279D01*
X159168755Y-82892658D01*
X159168755Y-82486388D01*
X159168995Y-82480896D01*
X159171864Y-82448091D01*
X159172564Y-82440094D01*
X159161961Y-82400524D01*
X159160775Y-82395177D01*
X159153660Y-82354821D01*
X159153659Y-82354820D01*
X159151741Y-82349551D01*
X159144854Y-82332923D01*
X159142490Y-82327854D01*
X159134762Y-82316818D01*
X159118987Y-82294288D01*
X159116046Y-82289672D01*
X159095560Y-82254189D01*
X159095556Y-82254186D01*
X159091229Y-82249028D01*
X159062762Y-82183988D01*
X159073978Y-82113883D01*
X159121314Y-82060971D01*
X159187846Y-82042034D01*
X170123604Y-82050792D01*
G37*
%TD.AperFunction*%
%TA.AperFunction,NonConductor*%
G36*
X155220107Y-101946598D02*
G01*
X155244908Y-101965865D01*
X155354448Y-102075405D01*
X155388474Y-102137717D01*
X155383409Y-102208532D01*
X155340862Y-102265368D01*
X155274342Y-102290179D01*
X155265353Y-102290500D01*
X155110440Y-102290500D01*
X155042319Y-102270498D01*
X154995826Y-102216842D01*
X154985722Y-102146568D01*
X154994031Y-102116282D01*
X155034708Y-102018080D01*
X155039405Y-102006740D01*
X155083952Y-101951461D01*
X155151316Y-101929040D01*
X155220107Y-101946598D01*
G37*
%TD.AperFunction*%
%TA.AperFunction,NonConductor*%
G36*
X163028012Y-98844449D02*
G01*
X163034594Y-98850578D01*
X164644894Y-100460877D01*
X164648598Y-100464919D01*
X164674934Y-100496305D01*
X164710417Y-100516791D01*
X164715033Y-100519732D01*
X164748599Y-100543234D01*
X164748599Y-100543235D01*
X164753668Y-100545599D01*
X164770296Y-100552486D01*
X164775569Y-100554406D01*
X164788984Y-100556770D01*
X164815922Y-100561520D01*
X164821269Y-100562706D01*
X164860839Y-100573309D01*
X164887891Y-100570942D01*
X164901642Y-100569740D01*
X164907134Y-100569500D01*
X165201327Y-100569500D01*
X165269448Y-100589502D01*
X165290422Y-100606405D01*
X166811181Y-102127164D01*
X166845207Y-102189476D01*
X166840142Y-102260291D01*
X166797595Y-102317127D01*
X166731075Y-102341938D01*
X166722134Y-102342259D01*
X162945548Y-102343705D01*
X162877420Y-102323729D01*
X162830906Y-102270091D01*
X162819500Y-102217705D01*
X162819500Y-98939673D01*
X162839502Y-98871552D01*
X162893158Y-98825059D01*
X162963432Y-98814955D01*
X163028012Y-98844449D01*
G37*
%TD.AperFunction*%
%TA.AperFunction,NonConductor*%
G36*
X156956076Y-100651841D02*
G01*
X156976718Y-100667681D01*
X157018584Y-100725017D01*
X157022806Y-100795888D01*
X157016422Y-100815860D01*
X156979027Y-100906138D01*
X156979026Y-100906139D01*
X156959970Y-101050892D01*
X156959970Y-101050893D01*
X156979026Y-101195645D01*
X157034899Y-101330534D01*
X157034904Y-101330542D01*
X157123780Y-101446367D01*
X157239605Y-101535243D01*
X157239612Y-101535248D01*
X157374501Y-101591121D01*
X157519255Y-101610178D01*
X157664009Y-101591121D01*
X157798898Y-101535248D01*
X157914729Y-101446367D01*
X158003610Y-101330536D01*
X158046009Y-101228173D01*
X158090558Y-101172894D01*
X158157921Y-101150473D01*
X158162418Y-101150393D01*
X161215616Y-101150393D01*
X161283737Y-101170395D01*
X161299089Y-101182767D01*
X161407099Y-101265647D01*
X161419612Y-101275248D01*
X161554501Y-101331121D01*
X161699255Y-101350178D01*
X161844009Y-101331121D01*
X161978898Y-101275248D01*
X161978903Y-101275243D01*
X161986281Y-101272188D01*
X162056871Y-101264599D01*
X162120358Y-101296378D01*
X162156586Y-101357436D01*
X162160500Y-101388597D01*
X162160500Y-102218055D01*
X162140498Y-102286176D01*
X162086842Y-102332669D01*
X162034548Y-102344055D01*
X157104164Y-102345943D01*
X157036036Y-102325967D01*
X157015021Y-102309038D01*
X156206420Y-101500437D01*
X156172394Y-101438125D01*
X156177459Y-101367310D01*
X156179094Y-101363152D01*
X156219483Y-101265647D01*
X156238540Y-101120893D01*
X156229263Y-101050428D01*
X156240202Y-100980281D01*
X156287330Y-100927182D01*
X156337738Y-100909061D01*
X156474009Y-100891121D01*
X156608898Y-100835248D01*
X156724729Y-100746367D01*
X156779414Y-100675100D01*
X156836750Y-100633235D01*
X156907621Y-100629013D01*
X156956076Y-100651841D01*
G37*
%TD.AperFunction*%
%TA.AperFunction,NonConductor*%
G36*
X147212888Y-94589502D02*
G01*
X147233862Y-94606405D01*
X148253754Y-95626298D01*
X148287780Y-95688610D01*
X148282715Y-95759426D01*
X148240168Y-95816261D01*
X148173648Y-95841072D01*
X148164659Y-95841393D01*
X146260553Y-95841393D01*
X146192432Y-95821391D01*
X146145939Y-95767735D01*
X146142741Y-95760072D01*
X146142137Y-95758480D01*
X146133042Y-95734498D01*
X146042753Y-95603692D01*
X145923784Y-95498294D01*
X145923783Y-95498293D01*
X145923780Y-95498291D01*
X145783052Y-95424432D01*
X145783050Y-95424431D01*
X145783048Y-95424430D01*
X145783046Y-95424429D01*
X145783045Y-95424429D01*
X145628727Y-95386393D01*
X145628726Y-95386393D01*
X145469784Y-95386393D01*
X145469782Y-95386393D01*
X145315464Y-95424429D01*
X145315457Y-95424432D01*
X145174729Y-95498291D01*
X145174724Y-95498295D01*
X145055756Y-95603693D01*
X144965470Y-95734494D01*
X144965467Y-95734500D01*
X144909104Y-95883113D01*
X144889948Y-96040889D01*
X144889948Y-96040896D01*
X144909104Y-96198672D01*
X144954219Y-96317628D01*
X144965468Y-96347288D01*
X145055757Y-96478094D01*
X145174726Y-96583492D01*
X145174727Y-96583492D01*
X145174729Y-96583494D01*
X145220065Y-96607288D01*
X145315462Y-96657356D01*
X145469784Y-96695393D01*
X145521022Y-96695393D01*
X145589143Y-96715395D01*
X145610117Y-96732298D01*
X145614745Y-96736926D01*
X145614751Y-96736931D01*
X145616305Y-96738094D01*
X145627555Y-96746514D01*
X145631043Y-96749325D01*
X145670966Y-96783919D01*
X145675449Y-96785966D01*
X145698622Y-96799715D01*
X145702562Y-96802665D01*
X145702564Y-96802666D01*
X145702567Y-96802668D01*
X145752059Y-96821128D01*
X145756191Y-96822840D01*
X145766767Y-96827669D01*
X145804236Y-96844781D01*
X145809114Y-96845482D01*
X145835219Y-96852145D01*
X145839839Y-96853869D01*
X145892530Y-96857636D01*
X145896985Y-96858116D01*
X145912813Y-96860393D01*
X145912818Y-96860393D01*
X145928814Y-96860393D01*
X145933310Y-96860554D01*
X145985973Y-96864320D01*
X145985973Y-96864319D01*
X145985976Y-96864320D01*
X145990790Y-96863272D01*
X146017573Y-96860393D01*
X148615873Y-96860393D01*
X148674426Y-96874825D01*
X148755462Y-96917356D01*
X148909784Y-96955393D01*
X148909785Y-96955393D01*
X149068725Y-96955393D01*
X149068726Y-96955393D01*
X149223048Y-96917356D01*
X149363784Y-96843492D01*
X149482753Y-96738094D01*
X149573042Y-96607288D01*
X149629404Y-96458675D01*
X149629404Y-96458674D01*
X149629405Y-96458672D01*
X149648562Y-96300896D01*
X149648562Y-96300889D01*
X149629405Y-96143113D01*
X149616915Y-96110181D01*
X149611461Y-96039394D01*
X149645143Y-95976896D01*
X149707267Y-95942529D01*
X149734727Y-95939500D01*
X149782868Y-95939500D01*
X149788353Y-95939739D01*
X149829160Y-95943310D01*
X149868735Y-95932705D01*
X149874073Y-95931520D01*
X149914434Y-95924405D01*
X149914435Y-95924404D01*
X149914437Y-95924404D01*
X149919699Y-95922488D01*
X149936322Y-95915603D01*
X149941398Y-95913235D01*
X149941401Y-95913235D01*
X149974973Y-95889726D01*
X149979573Y-95886796D01*
X150015066Y-95866305D01*
X150015232Y-95866108D01*
X150041395Y-95834926D01*
X150045099Y-95830882D01*
X150285893Y-95590089D01*
X150289924Y-95586396D01*
X150321305Y-95560066D01*
X150341791Y-95524581D01*
X150344733Y-95519964D01*
X150351092Y-95510882D01*
X150406552Y-95466561D01*
X150477172Y-95459258D01*
X150530998Y-95483199D01*
X150551203Y-95498703D01*
X150593071Y-95556038D01*
X150600500Y-95598665D01*
X150600500Y-96642869D01*
X150600260Y-96648362D01*
X150596690Y-96689160D01*
X150596690Y-96689162D01*
X150607291Y-96728727D01*
X150608481Y-96734094D01*
X150615595Y-96774437D01*
X150617496Y-96779659D01*
X150624416Y-96796368D01*
X150626762Y-96801398D01*
X150650258Y-96834953D01*
X150653212Y-96839590D01*
X150662453Y-96855595D01*
X150673695Y-96875067D01*
X150695319Y-96893212D01*
X150705067Y-96901391D01*
X150709122Y-96905106D01*
X150989935Y-97185919D01*
X151243595Y-97439578D01*
X151277620Y-97501891D01*
X151280500Y-97528674D01*
X151280500Y-102222224D01*
X151260498Y-102290345D01*
X151206842Y-102336838D01*
X151154548Y-102348224D01*
X146074803Y-102350169D01*
X146006675Y-102330193D01*
X145960161Y-102276555D01*
X145948755Y-102224169D01*
X145948755Y-101184174D01*
X145968757Y-101116053D01*
X145971059Y-101112598D01*
X145979304Y-101100653D01*
X146023042Y-101037288D01*
X146079404Y-100888675D01*
X146079404Y-100888674D01*
X146079405Y-100888672D01*
X146098562Y-100730896D01*
X146098562Y-100730889D01*
X146079405Y-100573113D01*
X146058041Y-100516782D01*
X146023042Y-100424498D01*
X145932753Y-100293692D01*
X145813784Y-100188294D01*
X145813783Y-100188293D01*
X145813780Y-100188291D01*
X145673052Y-100114432D01*
X145673050Y-100114431D01*
X145673048Y-100114430D01*
X145673046Y-100114429D01*
X145673045Y-100114429D01*
X145518727Y-100076393D01*
X145518726Y-100076393D01*
X145359784Y-100076393D01*
X145359782Y-100076393D01*
X145205464Y-100114429D01*
X145205457Y-100114432D01*
X145064729Y-100188291D01*
X145064724Y-100188295D01*
X144945756Y-100293693D01*
X144855470Y-100424494D01*
X144855467Y-100424500D01*
X144799104Y-100573113D01*
X144779948Y-100730889D01*
X144779948Y-100730896D01*
X144799104Y-100888672D01*
X144855467Y-101037285D01*
X144855470Y-101037291D01*
X144907451Y-101112598D01*
X144929687Y-101180023D01*
X144929755Y-101184174D01*
X144929755Y-102224657D01*
X144909753Y-102292778D01*
X144856097Y-102339271D01*
X144803803Y-102350657D01*
X144315121Y-102350844D01*
X144246993Y-102330868D01*
X144200479Y-102277230D01*
X144189073Y-102225028D01*
X144178520Y-94894804D01*
X144198424Y-94826658D01*
X144215416Y-94805540D01*
X144414553Y-94606404D01*
X144476865Y-94572379D01*
X144503648Y-94569500D01*
X147144767Y-94569500D01*
X147212888Y-94589502D01*
G37*
%TD.AperFunction*%
%TA.AperFunction,NonConductor*%
G36*
X181880894Y-73722281D02*
G01*
X182012518Y-73734969D01*
X182061540Y-73739695D01*
X182085899Y-73744502D01*
X182250650Y-73794292D01*
X182273591Y-73803780D01*
X182425394Y-73884922D01*
X182446022Y-73898722D01*
X182578964Y-74008056D01*
X182596480Y-74025626D01*
X182705403Y-74158913D01*
X182719141Y-74179590D01*
X182799803Y-74331636D01*
X182809221Y-74354610D01*
X182858498Y-74519515D01*
X182863229Y-74543891D01*
X182880079Y-74724589D01*
X182880351Y-74730802D01*
X182831858Y-83224987D01*
X182831519Y-83231169D01*
X182812768Y-83410873D01*
X182807803Y-83435088D01*
X182757086Y-83598769D01*
X182747488Y-83621552D01*
X182665790Y-83772174D01*
X182651929Y-83792642D01*
X182542395Y-83924416D01*
X182524803Y-83941785D01*
X182391645Y-84049637D01*
X182371003Y-84063236D01*
X182219351Y-84143014D01*
X182196448Y-84152322D01*
X182032140Y-84200953D01*
X182007863Y-84205610D01*
X181866992Y-84218500D01*
X181827932Y-84222074D01*
X181821764Y-84222334D01*
X176535484Y-84185297D01*
X176529350Y-84184954D01*
X176366181Y-84167761D01*
X176350164Y-84166074D01*
X176326019Y-84161106D01*
X176162824Y-84110457D01*
X176140109Y-84100882D01*
X175989900Y-84019428D01*
X175969486Y-84005615D01*
X175883178Y-83933969D01*
X175838012Y-83896475D01*
X175820677Y-83878951D01*
X175712970Y-83746304D01*
X175699378Y-83725740D01*
X175644332Y-83621552D01*
X175619555Y-83574654D01*
X175610230Y-83551843D01*
X175561351Y-83388101D01*
X175556647Y-83363923D01*
X175539708Y-83184536D01*
X175539430Y-83178395D01*
X175550957Y-80170000D01*
X178634435Y-80170000D01*
X178654632Y-80349255D01*
X178654633Y-80349257D01*
X178714211Y-80519522D01*
X178714212Y-80519525D01*
X178810182Y-80672260D01*
X178810183Y-80672262D01*
X178937737Y-80799816D01*
X178937739Y-80799817D01*
X179090474Y-80895787D01*
X179090475Y-80895787D01*
X179090478Y-80895789D01*
X179260745Y-80955368D01*
X179440000Y-80975565D01*
X179619255Y-80955368D01*
X179789522Y-80895789D01*
X179942262Y-80799816D01*
X180069816Y-80672262D01*
X180165789Y-80519522D01*
X180225368Y-80349255D01*
X180245565Y-80170000D01*
X180225368Y-79990745D01*
X180165789Y-79820478D01*
X180165787Y-79820475D01*
X180165787Y-79820474D01*
X180069817Y-79667739D01*
X180069816Y-79667737D01*
X179942262Y-79540183D01*
X179942260Y-79540182D01*
X179789525Y-79444212D01*
X179789522Y-79444211D01*
X179671913Y-79403058D01*
X179619255Y-79384632D01*
X179440000Y-79364435D01*
X179439999Y-79364435D01*
X179413926Y-79367372D01*
X179260745Y-79384632D01*
X179260742Y-79384632D01*
X179260742Y-79384633D01*
X179090477Y-79444211D01*
X179090474Y-79444212D01*
X178937739Y-79540182D01*
X178937737Y-79540183D01*
X178810183Y-79667737D01*
X178810182Y-79667739D01*
X178714212Y-79820474D01*
X178714211Y-79820477D01*
X178714211Y-79820478D01*
X178654632Y-79990745D01*
X178634435Y-80170000D01*
X175550957Y-80170000D01*
X175571781Y-74734966D01*
X175572103Y-74728837D01*
X175590342Y-74549952D01*
X175595214Y-74525842D01*
X175645144Y-74362788D01*
X175654603Y-74340096D01*
X175735267Y-74189843D01*
X175748951Y-74169426D01*
X175857274Y-74037710D01*
X175874668Y-74020338D01*
X176006512Y-73912184D01*
X176026962Y-73898516D01*
X176177301Y-73818045D01*
X176200004Y-73808614D01*
X176363133Y-73758883D01*
X176387232Y-73754045D01*
X176566125Y-73736030D01*
X176572277Y-73735713D01*
X176737652Y-73735284D01*
X181537281Y-73722863D01*
X181874683Y-73721990D01*
X181880894Y-73722281D01*
G37*
%TD.AperFunction*%
%TA.AperFunction,Conductor*%
%TO.N,Earth*%
G36*
X152778414Y-106109402D02*
G01*
X152846516Y-106129455D01*
X152892968Y-106183147D01*
X152903018Y-106253428D01*
X152873475Y-106317986D01*
X152852376Y-106337337D01*
X152790671Y-106382168D01*
X152661195Y-106525967D01*
X152564451Y-106693534D01*
X152564447Y-106693542D01*
X152504655Y-106877562D01*
X152484430Y-107070000D01*
X152504655Y-107262437D01*
X152564447Y-107446457D01*
X152564451Y-107446465D01*
X152661195Y-107614032D01*
X152661196Y-107614034D01*
X152661198Y-107614036D01*
X152790672Y-107757832D01*
X152790673Y-107757833D01*
X152947210Y-107871564D01*
X152947212Y-107871565D01*
X152947215Y-107871567D01*
X153123983Y-107950269D01*
X153313252Y-107990500D01*
X153313256Y-107990500D01*
X153506744Y-107990500D01*
X153506748Y-107990500D01*
X153635882Y-107963051D01*
X153706671Y-107968453D01*
X153763303Y-108011270D01*
X153787797Y-108077907D01*
X153781911Y-108125232D01*
X153774655Y-108147563D01*
X153754430Y-108340000D01*
X153774655Y-108532439D01*
X153781910Y-108554766D01*
X153783937Y-108625734D01*
X153747274Y-108686531D01*
X153683562Y-108717856D01*
X153635881Y-108716948D01*
X153579269Y-108704915D01*
X153506748Y-108689500D01*
X153313252Y-108689500D01*
X153179850Y-108717856D01*
X153123982Y-108729731D01*
X152947210Y-108808435D01*
X152790673Y-108922166D01*
X152661195Y-109065967D01*
X152564451Y-109233534D01*
X152564447Y-109233542D01*
X152504655Y-109417562D01*
X152484430Y-109610000D01*
X152504655Y-109802437D01*
X152564447Y-109986457D01*
X152564451Y-109986465D01*
X152661195Y-110154032D01*
X152661196Y-110154034D01*
X152661198Y-110154036D01*
X152725473Y-110225421D01*
X152790673Y-110297833D01*
X152947210Y-110411564D01*
X152947212Y-110411565D01*
X152947215Y-110411567D01*
X153123983Y-110490269D01*
X153313252Y-110530500D01*
X153313256Y-110530500D01*
X153506744Y-110530500D01*
X153506748Y-110530500D01*
X153696017Y-110490269D01*
X153872785Y-110411567D01*
X154029327Y-110297833D01*
X154158802Y-110154036D01*
X154255550Y-109986463D01*
X154315344Y-109802437D01*
X154335570Y-109610000D01*
X154315344Y-109417563D01*
X154308088Y-109395234D01*
X154306061Y-109324268D01*
X154342723Y-109263470D01*
X154406435Y-109232144D01*
X154454116Y-109233050D01*
X154583252Y-109260500D01*
X154583256Y-109260500D01*
X154776744Y-109260500D01*
X154776748Y-109260500D01*
X154905882Y-109233051D01*
X154976671Y-109238453D01*
X155033303Y-109281270D01*
X155057797Y-109347907D01*
X155051911Y-109395232D01*
X155044655Y-109417563D01*
X155024430Y-109609999D01*
X155044655Y-109802437D01*
X155104447Y-109986457D01*
X155104451Y-109986465D01*
X155201195Y-110154032D01*
X155201196Y-110154034D01*
X155201198Y-110154036D01*
X155265473Y-110225421D01*
X155330673Y-110297833D01*
X155487210Y-110411564D01*
X155487212Y-110411565D01*
X155487215Y-110411567D01*
X155663983Y-110490269D01*
X155853252Y-110530500D01*
X155853256Y-110530500D01*
X156046744Y-110530500D01*
X156046748Y-110530500D01*
X156236017Y-110490269D01*
X156412785Y-110411567D01*
X156569327Y-110297833D01*
X156698802Y-110154036D01*
X156795550Y-109986463D01*
X156855344Y-109802437D01*
X156875570Y-109610000D01*
X156855344Y-109417563D01*
X156855344Y-109417562D01*
X156795552Y-109233542D01*
X156795548Y-109233534D01*
X156794745Y-109232144D01*
X156698802Y-109065964D01*
X156569327Y-108922167D01*
X156569326Y-108922166D01*
X156412789Y-108808435D01*
X156236017Y-108729731D01*
X156236017Y-108729730D01*
X156046748Y-108689500D01*
X155853252Y-108689500D01*
X155792166Y-108702484D01*
X155724118Y-108716948D01*
X155653327Y-108711545D01*
X155596695Y-108668728D01*
X155572202Y-108602091D01*
X155578090Y-108554762D01*
X155585344Y-108532437D01*
X155593411Y-108455682D01*
X155605570Y-108340000D01*
X155585344Y-108147563D01*
X155578088Y-108125234D01*
X155576061Y-108054268D01*
X155612723Y-107993470D01*
X155676435Y-107962144D01*
X155724116Y-107963050D01*
X155853252Y-107990500D01*
X155853256Y-107990500D01*
X156046744Y-107990500D01*
X156046748Y-107990500D01*
X156236017Y-107950269D01*
X156412785Y-107871567D01*
X156569327Y-107757833D01*
X156698802Y-107614036D01*
X156795550Y-107446463D01*
X156855344Y-107262437D01*
X156875570Y-107070000D01*
X156855344Y-106877563D01*
X156847170Y-106852405D01*
X156795552Y-106693542D01*
X156795548Y-106693534D01*
X156792222Y-106687774D01*
X156698802Y-106525964D01*
X156569327Y-106382167D01*
X156554217Y-106371189D01*
X156511624Y-106340243D01*
X156468270Y-106284021D01*
X156462195Y-106213284D01*
X156495327Y-106150493D01*
X156557147Y-106115581D01*
X156585767Y-106112308D01*
X158230383Y-106113563D01*
X158298486Y-106133617D01*
X158319379Y-106150468D01*
X159087595Y-106918684D01*
X159121621Y-106980996D01*
X159124500Y-107007779D01*
X159124500Y-114041114D01*
X159104498Y-114109235D01*
X159050842Y-114155728D01*
X158999075Y-114167113D01*
X140268229Y-114252544D01*
X140200017Y-114232853D01*
X140153280Y-114179409D01*
X140142856Y-114109182D01*
X140172054Y-114044468D01*
X140178531Y-114037478D01*
X140878745Y-113337264D01*
X140898921Y-113320881D01*
X140907836Y-113315058D01*
X140929606Y-113287085D01*
X140934771Y-113281238D01*
X140937519Y-113278492D01*
X140951085Y-113259490D01*
X140984809Y-113216163D01*
X140984809Y-113216160D01*
X140988553Y-113209243D01*
X140992009Y-113202175D01*
X141007671Y-113149569D01*
X141025500Y-113097633D01*
X141026792Y-113089889D01*
X141027768Y-113082062D01*
X141025500Y-113027218D01*
X141025500Y-110970000D01*
X144284785Y-110970000D01*
X144303603Y-111173084D01*
X144359416Y-111369245D01*
X144359417Y-111369247D01*
X144359418Y-111369250D01*
X144450327Y-111551821D01*
X144450328Y-111551822D01*
X144450329Y-111551824D01*
X144573234Y-111714578D01*
X144723959Y-111851981D01*
X144723960Y-111851982D01*
X144897351Y-111959341D01*
X144897354Y-111959342D01*
X144897363Y-111959348D01*
X145087544Y-112033024D01*
X145288024Y-112070500D01*
X145288026Y-112070500D01*
X145491974Y-112070500D01*
X145491976Y-112070500D01*
X145692456Y-112033024D01*
X145882637Y-111959348D01*
X146056041Y-111851981D01*
X146206764Y-111714579D01*
X146329673Y-111551821D01*
X146420582Y-111369250D01*
X146476397Y-111173083D01*
X146495215Y-110970000D01*
X146495215Y-110969999D01*
X146784785Y-110969999D01*
X146803603Y-111173084D01*
X146859416Y-111369245D01*
X146859417Y-111369247D01*
X146859418Y-111369250D01*
X146950327Y-111551821D01*
X146950328Y-111551822D01*
X146950329Y-111551824D01*
X147073234Y-111714578D01*
X147223959Y-111851981D01*
X147223960Y-111851982D01*
X147397351Y-111959341D01*
X147397354Y-111959342D01*
X147397363Y-111959348D01*
X147587544Y-112033024D01*
X147788024Y-112070500D01*
X147788026Y-112070500D01*
X147991974Y-112070500D01*
X147991976Y-112070500D01*
X148192456Y-112033024D01*
X148382637Y-111959348D01*
X148556041Y-111851981D01*
X148706764Y-111714579D01*
X148829673Y-111551821D01*
X148920582Y-111369250D01*
X148976397Y-111173083D01*
X148995215Y-110970000D01*
X148976397Y-110766917D01*
X148920582Y-110570750D01*
X148829673Y-110388179D01*
X148829670Y-110388175D01*
X148706765Y-110225421D01*
X148556040Y-110088018D01*
X148556039Y-110088017D01*
X148382648Y-109980658D01*
X148382641Y-109980654D01*
X148382637Y-109980652D01*
X148266132Y-109935518D01*
X148192457Y-109906976D01*
X148125629Y-109894484D01*
X147991976Y-109869500D01*
X147788024Y-109869500D01*
X147687783Y-109888238D01*
X147587542Y-109906976D01*
X147440189Y-109964060D01*
X147397363Y-109980652D01*
X147397362Y-109980652D01*
X147397361Y-109980653D01*
X147397351Y-109980658D01*
X147223960Y-110088017D01*
X147223959Y-110088018D01*
X147073234Y-110225421D01*
X146950329Y-110388175D01*
X146859416Y-110570754D01*
X146803603Y-110766915D01*
X146784785Y-110969999D01*
X146495215Y-110969999D01*
X146476397Y-110766917D01*
X146420582Y-110570750D01*
X146329673Y-110388179D01*
X146329670Y-110388175D01*
X146206765Y-110225421D01*
X146056040Y-110088018D01*
X146056039Y-110088017D01*
X145882648Y-109980658D01*
X145882641Y-109980654D01*
X145882637Y-109980652D01*
X145766132Y-109935518D01*
X145692457Y-109906976D01*
X145625629Y-109894484D01*
X145491976Y-109869500D01*
X145288024Y-109869500D01*
X145187783Y-109888238D01*
X145087542Y-109906976D01*
X144940189Y-109964060D01*
X144897363Y-109980652D01*
X144897362Y-109980652D01*
X144897361Y-109980653D01*
X144897351Y-109980658D01*
X144723960Y-110088017D01*
X144723959Y-110088018D01*
X144573234Y-110225421D01*
X144450329Y-110388175D01*
X144359416Y-110570754D01*
X144303603Y-110766915D01*
X144284785Y-110970000D01*
X141025500Y-110970000D01*
X141025500Y-108227726D01*
X141045502Y-108159605D01*
X141062400Y-108138636D01*
X142348631Y-106852405D01*
X142410944Y-106818379D01*
X142437727Y-106815500D01*
X151617989Y-106815500D01*
X151643847Y-106818181D01*
X151654268Y-106820367D01*
X151689436Y-106815983D01*
X151697226Y-106815500D01*
X151701107Y-106815500D01*
X151701114Y-106815500D01*
X151724140Y-106811657D01*
X151778626Y-106804866D01*
X151778627Y-106804865D01*
X151778630Y-106804865D01*
X151786136Y-106802630D01*
X151793604Y-106800065D01*
X151793610Y-106800065D01*
X151841877Y-106773944D01*
X151891211Y-106749826D01*
X151891213Y-106749823D01*
X151897603Y-106745261D01*
X151903821Y-106740421D01*
X151903826Y-106740419D01*
X151921648Y-106721058D01*
X151941009Y-106700028D01*
X152217176Y-106423860D01*
X152494881Y-106146154D01*
X152557190Y-106112132D01*
X152584053Y-106109253D01*
X152778414Y-106109402D01*
G37*
%TD.AperFunction*%
%TD*%
M02*
