%TF.GenerationSoftware,KiCad,Pcbnew,7.0.7*%
%TF.CreationDate,2023-09-24T11:57:44+02:00*%
%TF.ProjectId,RF Energy Harvesting LK-R37 Enclosure,52462045-6e65-4726-9779-204861727665,Beta R4*%
%TF.SameCoordinates,Original*%
%TF.FileFunction,Copper,L1,Top*%
%TF.FilePolarity,Positive*%
%FSLAX46Y46*%
G04 Gerber Fmt 4.6, Leading zero omitted, Abs format (unit mm)*
G04 Created by KiCad (PCBNEW 7.0.7) date 2023-09-24 11:57:44*
%MOMM*%
%LPD*%
G01*
G04 APERTURE LIST*
G04 Aperture macros list*
%AMRoundRect*
0 Rectangle with rounded corners*
0 $1 Rounding radius*
0 $2 $3 $4 $5 $6 $7 $8 $9 X,Y pos of 4 corners*
0 Add a 4 corners polygon primitive as box body*
4,1,4,$2,$3,$4,$5,$6,$7,$8,$9,$2,$3,0*
0 Add four circle primitives for the rounded corners*
1,1,$1+$1,$2,$3*
1,1,$1+$1,$4,$5*
1,1,$1+$1,$6,$7*
1,1,$1+$1,$8,$9*
0 Add four rect primitives between the rounded corners*
20,1,$1+$1,$2,$3,$4,$5,0*
20,1,$1+$1,$4,$5,$6,$7,0*
20,1,$1+$1,$6,$7,$8,$9,0*
20,1,$1+$1,$8,$9,$2,$3,0*%
G04 Aperture macros list end*
%TA.AperFunction,NonConductor*%
%ADD10C,0.200000*%
%TD*%
%TA.AperFunction,SMDPad,CuDef*%
%ADD11RoundRect,0.225000X-0.225000X-0.250000X0.225000X-0.250000X0.225000X0.250000X-0.225000X0.250000X0*%
%TD*%
%TA.AperFunction,SMDPad,CuDef*%
%ADD12RoundRect,0.250000X0.375000X0.625000X-0.375000X0.625000X-0.375000X-0.625000X0.375000X-0.625000X0*%
%TD*%
%TA.AperFunction,SMDPad,CuDef*%
%ADD13RoundRect,0.250000X-0.250000X-0.475000X0.250000X-0.475000X0.250000X0.475000X-0.250000X0.475000X0*%
%TD*%
%TA.AperFunction,SMDPad,CuDef*%
%ADD14C,1.000000*%
%TD*%
%TA.AperFunction,SMDPad,CuDef*%
%ADD15RoundRect,0.200000X0.200000X0.275000X-0.200000X0.275000X-0.200000X-0.275000X0.200000X-0.275000X0*%
%TD*%
%TA.AperFunction,SMDPad,CuDef*%
%ADD16R,0.600000X0.450000*%
%TD*%
%TA.AperFunction,SMDPad,CuDef*%
%ADD17R,0.580000X0.350000*%
%TD*%
%TA.AperFunction,SMDPad,CuDef*%
%ADD18R,0.350000X0.580000*%
%TD*%
%TA.AperFunction,SMDPad,CuDef*%
%ADD19R,0.280000X0.850000*%
%TD*%
%TA.AperFunction,SMDPad,CuDef*%
%ADD20R,0.850000X0.280000*%
%TD*%
%TA.AperFunction,SMDPad,CuDef*%
%ADD21R,2.050000X2.050000*%
%TD*%
%TA.AperFunction,SMDPad,CuDef*%
%ADD22RoundRect,0.225000X-0.250000X0.225000X-0.250000X-0.225000X0.250000X-0.225000X0.250000X0.225000X0*%
%TD*%
%TA.AperFunction,SMDPad,CuDef*%
%ADD23R,0.800000X0.300000*%
%TD*%
%TA.AperFunction,SMDPad,CuDef*%
%ADD24R,1.200000X1.900000*%
%TD*%
%TA.AperFunction,SMDPad,CuDef*%
%ADD25R,0.700000X0.450000*%
%TD*%
%TA.AperFunction,SMDPad,CuDef*%
%ADD26RoundRect,0.042000X-0.258000X0.943000X-0.258000X-0.943000X0.258000X-0.943000X0.258000X0.943000X0*%
%TD*%
%TA.AperFunction,SMDPad,CuDef*%
%ADD27RoundRect,0.250000X-0.450000X0.350000X-0.450000X-0.350000X0.450000X-0.350000X0.450000X0.350000X0*%
%TD*%
%TA.AperFunction,ComponentPad*%
%ADD28C,1.600000*%
%TD*%
%TA.AperFunction,SMDPad,CuDef*%
%ADD29RoundRect,0.225000X0.225000X0.250000X-0.225000X0.250000X-0.225000X-0.250000X0.225000X-0.250000X0*%
%TD*%
%TA.AperFunction,SMDPad,CuDef*%
%ADD30R,0.600000X1.450000*%
%TD*%
%TA.AperFunction,SMDPad,CuDef*%
%ADD31R,0.300000X1.450000*%
%TD*%
%TA.AperFunction,ComponentPad*%
%ADD32O,1.050000X2.100000*%
%TD*%
%TA.AperFunction,SMDPad,CuDef*%
%ADD33RoundRect,0.225000X0.250000X-0.225000X0.250000X0.225000X-0.250000X0.225000X-0.250000X-0.225000X0*%
%TD*%
%TA.AperFunction,SMDPad,CuDef*%
%ADD34RoundRect,0.200000X-0.275000X0.200000X-0.275000X-0.200000X0.275000X-0.200000X0.275000X0.200000X0*%
%TD*%
%TA.AperFunction,SMDPad,CuDef*%
%ADD35RoundRect,0.218750X-0.218750X-0.381250X0.218750X-0.381250X0.218750X0.381250X-0.218750X0.381250X0*%
%TD*%
%TA.AperFunction,SMDPad,CuDef*%
%ADD36RoundRect,0.250000X-1.075000X0.375000X-1.075000X-0.375000X1.075000X-0.375000X1.075000X0.375000X0*%
%TD*%
%TA.AperFunction,SMDPad,CuDef*%
%ADD37RoundRect,0.200000X0.275000X-0.200000X0.275000X0.200000X-0.275000X0.200000X-0.275000X-0.200000X0*%
%TD*%
%TA.AperFunction,SMDPad,CuDef*%
%ADD38RoundRect,0.200000X-0.200000X-0.275000X0.200000X-0.275000X0.200000X0.275000X-0.200000X0.275000X0*%
%TD*%
%TA.AperFunction,ComponentPad*%
%ADD39C,1.240000*%
%TD*%
%TA.AperFunction,SMDPad,CuDef*%
%ADD40R,1.300000X1.000000*%
%TD*%
%TA.AperFunction,SMDPad,CuDef*%
%ADD41RoundRect,0.124800X-0.475200X-0.275200X0.475200X-0.275200X0.475200X0.275200X-0.475200X0.275200X0*%
%TD*%
%TA.AperFunction,SMDPad,CuDef*%
%ADD42RoundRect,0.041300X0.948700X0.253700X-0.948700X0.253700X-0.948700X-0.253700X0.948700X-0.253700X0*%
%TD*%
%TA.AperFunction,SMDPad,CuDef*%
%ADD43RoundRect,0.098350X0.604150X1.437900X-0.604150X1.437900X-0.604150X-1.437900X0.604150X-1.437900X0*%
%TD*%
%TA.AperFunction,SMDPad,CuDef*%
%ADD44RoundRect,0.100000X0.100000X-2.750000X0.100000X2.750000X-0.100000X2.750000X-0.100000X-2.750000X0*%
%TD*%
%TA.AperFunction,SMDPad,CuDef*%
%ADD45RoundRect,0.100000X0.100000X-6.400000X0.100000X6.400000X-0.100000X6.400000X-0.100000X-6.400000X0*%
%TD*%
%TA.AperFunction,SMDPad,CuDef*%
%ADD46RoundRect,0.100000X-12.650000X-0.100000X12.650000X-0.100000X12.650000X0.100000X-12.650000X0.100000X0*%
%TD*%
%TA.AperFunction,SMDPad,CuDef*%
%ADD47RoundRect,0.100000X0.100000X-9.850000X0.100000X9.850000X-0.100000X9.850000X-0.100000X-9.850000X0*%
%TD*%
%TA.AperFunction,SMDPad,CuDef*%
%ADD48RoundRect,0.042000X0.943000X0.258000X-0.943000X0.258000X-0.943000X-0.258000X0.943000X-0.258000X0*%
%TD*%
%TA.AperFunction,SMDPad,CuDef*%
%ADD49RoundRect,0.250000X-0.475000X0.250000X-0.475000X-0.250000X0.475000X-0.250000X0.475000X0.250000X0*%
%TD*%
%TA.AperFunction,SMDPad,CuDef*%
%ADD50RoundRect,0.150000X-0.150000X0.587500X-0.150000X-0.587500X0.150000X-0.587500X0.150000X0.587500X0*%
%TD*%
%TA.AperFunction,SMDPad,CuDef*%
%ADD51R,0.420000X1.100000*%
%TD*%
%TA.AperFunction,SMDPad,CuDef*%
%ADD52R,2.500000X1.600000*%
%TD*%
%TA.AperFunction,SMDPad,CuDef*%
%ADD53RoundRect,0.050000X-0.387500X-0.050000X0.387500X-0.050000X0.387500X0.050000X-0.387500X0.050000X0*%
%TD*%
%TA.AperFunction,SMDPad,CuDef*%
%ADD54RoundRect,0.050000X-0.050000X-0.387500X0.050000X-0.387500X0.050000X0.387500X-0.050000X0.387500X0*%
%TD*%
%TA.AperFunction,SMDPad,CuDef*%
%ADD55RoundRect,0.002500X-0.002500X-0.002500X0.002500X-0.002500X0.002500X0.002500X-0.002500X0.002500X0*%
%TD*%
%TA.AperFunction,SMDPad,CuDef*%
%ADD56R,5.600000X5.600000*%
%TD*%
%TA.AperFunction,SMDPad,CuDef*%
%ADD57O,1.500000X0.800000*%
%TD*%
%TA.AperFunction,SMDPad,CuDef*%
%ADD58R,0.450000X0.600000*%
%TD*%
%TA.AperFunction,SMDPad,CuDef*%
%ADD59RoundRect,0.150000X0.150000X-0.587500X0.150000X0.587500X-0.150000X0.587500X-0.150000X-0.587500X0*%
%TD*%
%TA.AperFunction,SMDPad,CuDef*%
%ADD60RoundRect,0.250000X0.350000X0.450000X-0.350000X0.450000X-0.350000X-0.450000X0.350000X-0.450000X0*%
%TD*%
%TA.AperFunction,SMDPad,CuDef*%
%ADD61R,1.500000X0.600000*%
%TD*%
%TA.AperFunction,SMDPad,CuDef*%
%ADD62R,1.500000X0.800000*%
%TD*%
%TA.AperFunction,SMDPad,CuDef*%
%ADD63R,1.100000X0.510000*%
%TD*%
%TA.AperFunction,SMDPad,CuDef*%
%ADD64RoundRect,0.250000X-0.475000X0.337500X-0.475000X-0.337500X0.475000X-0.337500X0.475000X0.337500X0*%
%TD*%
%TA.AperFunction,SMDPad,CuDef*%
%ADD65R,2.100000X1.400000*%
%TD*%
%TA.AperFunction,SMDPad,CuDef*%
%ADD66RoundRect,0.250000X-0.337500X-0.475000X0.337500X-0.475000X0.337500X0.475000X-0.337500X0.475000X0*%
%TD*%
%TA.AperFunction,SMDPad,CuDef*%
%ADD67R,2.195000X2.195000*%
%TD*%
%TA.AperFunction,ViaPad*%
%ADD68C,0.600000*%
%TD*%
%TA.AperFunction,ViaPad*%
%ADD69C,0.800000*%
%TD*%
%TA.AperFunction,ViaPad*%
%ADD70C,0.700000*%
%TD*%
%TA.AperFunction,Conductor*%
%ADD71C,0.150000*%
%TD*%
%TA.AperFunction,Conductor*%
%ADD72C,0.510000*%
%TD*%
%TA.AperFunction,Conductor*%
%ADD73C,0.250000*%
%TD*%
%TA.AperFunction,Conductor*%
%ADD74C,0.200000*%
%TD*%
%TA.AperFunction,Conductor*%
%ADD75C,0.300000*%
%TD*%
%TA.AperFunction,Conductor*%
%ADD76C,0.400000*%
%TD*%
%TA.AperFunction,Conductor*%
%ADD77C,0.350000*%
%TD*%
%TA.AperFunction,Conductor*%
%ADD78C,0.320000*%
%TD*%
G04 APERTURE END LIST*
D10*
X183928070Y-82140000D02*
G75*
G03*
X183928070Y-82140000I-258070J0D01*
G01*
D11*
%TO.P,EIC5,1*%
%TO.N,Net-(EIC5-Pad1)*%
X179277500Y-125010000D03*
%TO.P,EIC5,2*%
%TO.N,GND*%
X180827500Y-125010000D03*
%TD*%
D12*
%TO.P,Fuse1,1*%
%TO.N,5V0*%
X164960000Y-74780000D03*
%TO.P,Fuse1,2*%
%TO.N,5V0F*%
X162160000Y-74780000D03*
%TD*%
D13*
%TO.P,E2C4,1*%
%TO.N,3V3*%
X146039255Y-97300893D03*
%TO.P,E2C4,2*%
%TO.N,GND*%
X147939255Y-97300893D03*
%TD*%
D14*
%TO.P,TP2,1,1*%
%TO.N,GND*%
X173230000Y-81880000D03*
%TD*%
D15*
%TO.P,IDR1,1*%
%TO.N,GPIO8_I2C_SDA*%
X163824255Y-95640893D03*
%TO.P,IDR1,2*%
%TO.N,3V3*%
X162174255Y-95640893D03*
%TD*%
D11*
%TO.P,EIC6,1*%
%TO.N,Net-(EIC6-Pad1)*%
X179247500Y-126380000D03*
%TO.P,EIC6,2*%
%TO.N,GND*%
X180797500Y-126380000D03*
%TD*%
D15*
%TO.P,QR1,1*%
%TO.N,Net-(CH340K1-Pad4)*%
X132655000Y-76580000D03*
%TO.P,QR1,2*%
%TO.N,Net-(Q1-Pad1)*%
X131005000Y-76580000D03*
%TD*%
D16*
%TO.P,EiD1a2,1,K*%
%TO.N,PREVGH*%
X167492500Y-125500000D03*
%TO.P,EiD1a2,2,A*%
%TO.N,Net-(EIC7-Pad2)*%
X165392500Y-125500000D03*
%TD*%
D17*
%TO.P,IMU1,1,SDO/SA0*%
%TO.N,unconnected-(IMU1-Pad1)*%
X158494255Y-99160893D03*
%TO.P,IMU1,2,SDX*%
%TO.N,unconnected-(IMU1-Pad2)*%
X158494255Y-99660893D03*
%TO.P,IMU1,3,SCX*%
%TO.N,unconnected-(IMU1-Pad3)*%
X158494255Y-100160893D03*
%TO.P,IMU1,4,INT1*%
%TO.N,unconnected-(IMU1-Pad4)*%
X158494255Y-100660893D03*
D18*
%TO.P,IMU1,5,VDDIO*%
%TO.N,3V3*%
X159169255Y-100835893D03*
%TO.P,IMU1,6,GND*%
%TO.N,GND*%
X159669255Y-100835893D03*
%TO.P,IMU1,7,GND*%
X160169255Y-100835893D03*
D17*
%TO.P,IMU1,8,VDD*%
%TO.N,3V3*%
X160844255Y-100660893D03*
%TO.P,IMU1,9,INT2*%
%TO.N,unconnected-(IMU1-Pad9)*%
X160844255Y-100160893D03*
%TO.P,IMU1,10,NC*%
%TO.N,unconnected-(IMU1-Pad10)*%
X160844255Y-99660893D03*
%TO.P,IMU1,11,NC*%
%TO.N,unconnected-(IMU1-Pad11)*%
X160844255Y-99160893D03*
D18*
%TO.P,IMU1,12,CS*%
%TO.N,IMU_CS_IO21*%
X160169255Y-98985893D03*
%TO.P,IMU1,13,SCL*%
%TO.N,GPIO9_I2C_SCL*%
X159669255Y-98985893D03*
%TO.P,IMU1,14,SDA*%
%TO.N,GPIO8_I2C_SDA*%
X159169255Y-98985893D03*
%TD*%
D19*
%TO.P,UL1,1,VCCA*%
%TO.N,3V3*%
X136840000Y-107485000D03*
D20*
%TO.P,UL1,2,A1*%
%TO.N,DOUT_ADS2_3V3_IO06*%
X137815000Y-106760000D03*
%TO.P,UL1,3,A2*%
%TO.N,CLK_ADS_3V3_IO05*%
X137815000Y-106260000D03*
%TO.P,UL1,4,A3*%
%TO.N,SCLK_COMMON_3V3_IO04*%
X137815000Y-105760000D03*
%TO.P,UL1,5,A4*%
%TO.N,DOUT_ADS_3V3_IO02*%
X137815000Y-105260000D03*
%TO.P,UL1,6,NC*%
%TO.N,unconnected-(UL1-Pad6)*%
X137815000Y-104760000D03*
D19*
%TO.P,UL1,7,GND*%
%TO.N,GND*%
X136840000Y-104035000D03*
%TO.P,UL1,8,OE*%
%TO.N,Net-(UL1-Pad8)*%
X135340000Y-104035000D03*
D20*
%TO.P,UL1,9,NC*%
%TO.N,unconnected-(UL1-Pad9)*%
X134365000Y-104760000D03*
%TO.P,UL1,10,B4*%
%TO.N,DOUT_ADS_5V0*%
X134365000Y-105260000D03*
%TO.P,UL1,11,B3*%
%TO.N,SCLK_ADS_COMMON_5V0*%
X134365000Y-105760000D03*
%TO.P,UL1,12,B2*%
%TO.N,CLK_ADS_5V0*%
X134365000Y-106260000D03*
%TO.P,UL1,13,B1*%
%TO.N,DOUT_ADS2_5V0*%
X134365000Y-106760000D03*
D19*
%TO.P,UL1,14,VCCB*%
%TO.N,5V0*%
X135340000Y-107485000D03*
D21*
%TO.P,UL1,15,Pad*%
%TO.N,GND*%
X136090000Y-105760000D03*
%TD*%
D22*
%TO.P,E2C3,1*%
%TO.N,GND*%
X148729255Y-85435893D03*
%TO.P,E2C3,2*%
%TO.N,3V3*%
X148729255Y-86985893D03*
%TD*%
D23*
%TO.P,SHT1,1,SDA*%
%TO.N,GPIO8_I2C_SDA*%
X152570000Y-135562500D03*
%TO.P,SHT1,2,ADDR*%
%TO.N,GND*%
X152570000Y-135062500D03*
%TO.P,SHT1,3,ALERT*%
%TO.N,unconnected-(SHT1-Pad3)*%
X152570000Y-134562500D03*
%TO.P,SHT1,4,SCL*%
%TO.N,GPIO9_I2C_SCL*%
X152570000Y-134062500D03*
%TO.P,SHT1,5,VDD*%
%TO.N,3V3*%
X150170000Y-134062500D03*
%TO.P,SHT1,6,~{RESET}*%
%TO.N,unconnected-(SHT1-Pad6)*%
X150170000Y-134562500D03*
%TO.P,SHT1,7,R*%
%TO.N,unconnected-(SHT1-Pad7)*%
X150170000Y-135062500D03*
%TO.P,SHT1,8,VSS*%
%TO.N,GND*%
X150170000Y-135562500D03*
D24*
%TO.P,SHT1,9,VSS*%
X151370000Y-134812500D03*
%TD*%
D25*
%TO.P,EIQ1,1*%
%TO.N,GDR*%
X161892500Y-124800000D03*
%TO.P,EIQ1,2*%
%TO.N,RESE*%
X161892500Y-126100000D03*
%TO.P,EIQ1,3*%
%TO.N,Net-(EIC7-Pad2)*%
X163892500Y-125450000D03*
%TD*%
D26*
%TO.P,ADS2,1,+VIN*%
%TO.N,IN_ADS2_A*%
X135950000Y-121535000D03*
%TO.P,ADS2,2,-VIN*%
X134680000Y-121535000D03*
%TO.P,ADS2,3,+VDD*%
%TO.N,5V0*%
X133410000Y-121535000D03*
%TO.P,ADS2,4,CLK*%
%TO.N,CLK_ADS2_3V3_IO07*%
X132140000Y-121535000D03*
%TO.P,ADS2,5,DOUT/~{DRDY}*%
%TO.N,DOUT_ADS2_5V0*%
X132140000Y-126475000D03*
%TO.P,ADS2,6,SCLK*%
%TO.N,SCLK_ADS_COMMON_5V0*%
X133410000Y-126475000D03*
%TO.P,ADS2,7,GND*%
%TO.N,GND_EN_ADS2*%
X134680000Y-126475000D03*
%TO.P,ADS2,8,VREF*%
%TO.N,5V0*%
X135950000Y-126475000D03*
%TD*%
D27*
%TO.P,AR2,1*%
%TO.N,3V3*%
X180290245Y-75230821D03*
%TO.P,AR2,2*%
%TO.N,Net-(AR1-Pad1)*%
X180290245Y-77230821D03*
%TD*%
D28*
%TO.P,EHC2,1*%
%TO.N,IN_ADS_A+*%
X137920000Y-111340000D03*
%TO.P,EHC2,2*%
%TO.N,IN_ADS_A-*%
X135420000Y-111340000D03*
%TD*%
D11*
%TO.P,EIC4,1*%
%TO.N,Net-(EIC4-Pad1)*%
X179397500Y-118250000D03*
%TO.P,EIC4,2*%
%TO.N,GND*%
X180947500Y-118250000D03*
%TD*%
D29*
%TO.P,CHC1,1*%
%TO.N,Net-(CH340K1-Pad7)*%
X137085000Y-74010000D03*
%TO.P,CHC1,2*%
%TO.N,GND*%
X135535000Y-74010000D03*
%TD*%
D16*
%TO.P,EHD1,1,K*%
%TO.N,Net-(EHC1-Pad1)*%
X141830000Y-109610000D03*
%TO.P,EHD1,2,A*%
%TO.N,IN_ADS_A-*%
X139730000Y-109610000D03*
%TD*%
D11*
%TO.P,EIC2,1*%
%TO.N,Net-(EIC2-Pad1)*%
X179237500Y-129260000D03*
%TO.P,EIC2,2*%
%TO.N,GND*%
X180787500Y-129260000D03*
%TD*%
D29*
%TO.P,E2C10,1*%
%TO.N,Net-(E2C10-Pad1)*%
X148094255Y-100810893D03*
%TO.P,E2C10,2*%
%TO.N,GND*%
X146544255Y-100810893D03*
%TD*%
D30*
%TO.P,J1,A1B12,GND*%
%TO.N,GND*%
X158430000Y-77845000D03*
%TO.P,J1,A4B9,VBUS*%
%TO.N,5V0F*%
X157630000Y-77845000D03*
D31*
%TO.P,J1,A5,CC1*%
%TO.N,Net-(J1-PadA5)*%
X156430000Y-77845000D03*
%TO.P,J1,A6,DP1*%
%TO.N,USB_D+*%
X155430000Y-77845000D03*
%TO.P,J1,A7,DN1*%
%TO.N,USB_D-*%
X154930000Y-77845000D03*
%TO.P,J1,A8,SBU1*%
%TO.N,unconnected-(J1-PadA8)*%
X153930000Y-77845000D03*
D30*
%TO.P,J1,B1A12,GND*%
%TO.N,GND*%
X151930000Y-77845000D03*
%TO.P,J1,B4A9,VBUS*%
%TO.N,5V0F*%
X152730000Y-77845000D03*
D31*
%TO.P,J1,B5,CC2*%
%TO.N,Net-(J1-PadB5)*%
X153430000Y-77845000D03*
%TO.P,J1,B6,DP2*%
%TO.N,USB_D+*%
X154430000Y-77845000D03*
%TO.P,J1,B7,DN2*%
%TO.N,USB_D-*%
X155930000Y-77845000D03*
%TO.P,J1,B8,SBU2*%
%TO.N,unconnected-(J1-PadB8)*%
X156930000Y-77845000D03*
D32*
%TO.P,J1,S1,SHIELD*%
%TO.N,Earth*%
X159500000Y-76930000D03*
%TO.P,J1,S2,SHIELD*%
X150860000Y-76930000D03*
%TO.P,J1,S3,SHIELD*%
X159500000Y-72750000D03*
%TO.P,J1,S4,SHIELD*%
X150860000Y-72750000D03*
%TD*%
D33*
%TO.P,EC3,1*%
%TO.N,Net-(EC3-Pad1)*%
X142710000Y-88265000D03*
%TO.P,EC3,2*%
%TO.N,GND*%
X142710000Y-86715000D03*
%TD*%
D34*
%TO.P,ADS5_MTRR1,1*%
%TO.N,GND*%
X124410000Y-115165000D03*
%TO.P,ADS5_MTRR1,2*%
%TO.N,3V3_EN_ADS_IO01*%
X124410000Y-116815000D03*
%TD*%
D29*
%TO.P,E2C7,1*%
%TO.N,Net-(E2C7-Pad1)*%
X148324255Y-89780893D03*
%TO.P,E2C7,2*%
%TO.N,GND*%
X146774255Y-89780893D03*
%TD*%
D14*
%TO.P,TP1,1,1*%
%TO.N,3V3*%
X172200000Y-75500000D03*
%TD*%
D35*
%TO.P,EIL1,1,1*%
%TO.N,3V3*%
X161560000Y-127790000D03*
%TO.P,EIL1,2,2*%
%TO.N,Net-(EIC7-Pad2)*%
X163685000Y-127790000D03*
%TD*%
D11*
%TO.P,ADSC1,1*%
%TO.N,5V0*%
X129135000Y-106530000D03*
%TO.P,ADSC1,2*%
%TO.N,GND*%
X130685000Y-106530000D03*
%TD*%
D15*
%TO.P,LR2,1*%
%TO.N,LED_R_IO13*%
X159005000Y-131280000D03*
%TO.P,LR2,2*%
%TO.N,Net-(LED2-Pad3)*%
X157355000Y-131280000D03*
%TD*%
D11*
%TO.P,EC2,1*%
%TO.N,Net-(ANT1-Pad1)*%
X138935000Y-86550000D03*
%TO.P,EC2,2*%
%TO.N,GND*%
X140485000Y-86550000D03*
%TD*%
D29*
%TO.P,E2C11,1*%
%TO.N,Net-(E2C11-Pad1)*%
X148744255Y-83650893D03*
%TO.P,E2C11,2*%
%TO.N,GND*%
X147194255Y-83650893D03*
%TD*%
D36*
%TO.P,AL1,1,1*%
%TO.N,3V3*%
X177270245Y-73960821D03*
%TO.P,AL1,2,2*%
%TO.N,Net-(AL1-Pad2)*%
X177270245Y-76760821D03*
%TD*%
D15*
%TO.P,USBR1,1*%
%TO.N,Net-(J1-PadA5)*%
X147945000Y-80190000D03*
%TO.P,USBR1,2*%
%TO.N,GND*%
X146295000Y-80190000D03*
%TD*%
D37*
%TO.P,ADS5_MTRR2,1*%
%TO.N,GND*%
X124640000Y-127552500D03*
%TO.P,ADS5_MTRR2,2*%
%TO.N,3V3_EN_ADS2_IO10*%
X124640000Y-125902500D03*
%TD*%
D11*
%TO.P,E2C14,1*%
%TO.N,Net-(E2C14-Pad1)*%
X154354255Y-83600893D03*
%TO.P,E2C14,2*%
%TO.N,GND*%
X155904255Y-83600893D03*
%TD*%
D38*
%TO.P,UL1R1,1*%
%TO.N,3V3*%
X132115000Y-103230000D03*
%TO.P,UL1R1,2*%
%TO.N,Net-(UL1-Pad8)*%
X133765000Y-103230000D03*
%TD*%
D39*
%TO.P,SMA1,1*%
%TO.N,IN_ADS2_A*%
X154680000Y-108340000D03*
%TO.P,SMA1,2*%
%TO.N,N/C*%
X153410000Y-107070000D03*
X153410000Y-109610000D03*
X155950000Y-107070000D03*
X155950000Y-109610000D03*
%TD*%
D16*
%TO.P,EHD2,1,K*%
%TO.N,IN_ADS_A+*%
X139680000Y-113010000D03*
%TO.P,EHD2,2,A*%
%TO.N,Net-(EHC1-Pad1)*%
X141780000Y-113010000D03*
%TD*%
D33*
%TO.P,SHC1,1*%
%TO.N,GND*%
X148740000Y-135555000D03*
%TO.P,SHC1,2*%
%TO.N,3V3*%
X148740000Y-134005000D03*
%TD*%
D40*
%TO.P,E2CY1,1,1*%
%TO.N,Net-(E2C9-Pad1)*%
X151829255Y-98780893D03*
%TO.P,E2CY1,2,2*%
%TO.N,GND*%
X149629255Y-98780893D03*
%TO.P,E2CY1,3,3*%
%TO.N,Net-(E2C10-Pad1)*%
X149629255Y-100580893D03*
%TO.P,E2CY1,4,4*%
%TO.N,GND*%
X151829255Y-100580893D03*
%TD*%
D33*
%TO.P,E2C8,1*%
%TO.N,3V3*%
X157329255Y-85155893D03*
%TO.P,E2C8,2*%
%TO.N,GND*%
X157329255Y-83605893D03*
%TD*%
D41*
%TO.P,LED2,1,GA*%
%TO.N,LED_G_IO14*%
X157450000Y-135220000D03*
%TO.P,LED2,2,BA*%
%TO.N,LED_B_IO17*%
X160630000Y-135230000D03*
%TO.P,LED2,3,RA*%
%TO.N,Net-(LED2-Pad3)*%
X157450000Y-134080000D03*
%TO.P,LED2,4,K*%
%TO.N,3V3*%
X160640000Y-134110000D03*
%TD*%
D15*
%TO.P,EIR1,1*%
%TO.N,RESE*%
X171437500Y-117010000D03*
%TO.P,EIR1,2*%
%TO.N,GND*%
X169787500Y-117010000D03*
%TD*%
D28*
%TO.P,EHC1,1*%
%TO.N,Net-(EHC1-Pad1)*%
X145390000Y-110970000D03*
%TO.P,EHC1,2*%
%TO.N,IN_ADS2_A*%
X147890000Y-110970000D03*
%TD*%
D42*
%TO.P,U1,1*%
%TO.N,N/C*%
X168209255Y-100775893D03*
%TO.P,U1,2*%
X168209255Y-99505893D03*
%TO.P,U1,3*%
X168209255Y-98235893D03*
%TO.P,U1,4,GND*%
%TO.N,GND*%
X168209255Y-96965893D03*
%TO.P,U1,5,SDA*%
%TO.N,GPIO8_I2C_SDA*%
X163269255Y-96965893D03*
%TO.P,U1,6,SCL*%
%TO.N,GPIO9_I2C_SCL*%
X163269255Y-98235893D03*
%TO.P,U1,7*%
%TO.N,N/C*%
X163269255Y-99505893D03*
%TO.P,U1,8,VCC*%
%TO.N,3V3*%
X163269255Y-100775893D03*
D43*
%TO.P,U1,9,EXP*%
%TO.N,unconnected-(U1-Pad9)*%
X165669255Y-98920893D03*
%TD*%
D44*
%TO.P,ES1,1,GND*%
%TO.N,GND*%
X144510000Y-85060000D03*
D45*
X144530000Y-95650000D03*
D46*
X157240000Y-82410000D03*
X157250000Y-101940000D03*
D47*
X169850000Y-92160000D03*
%TD*%
D29*
%TO.P,EIC9,1*%
%TO.N,PREVGL*%
X171112500Y-127930000D03*
%TO.P,EIC9,2*%
%TO.N,GND*%
X169562500Y-127930000D03*
%TD*%
D11*
%TO.P,CHC2,1*%
%TO.N,3V3*%
X139025000Y-78480000D03*
%TO.P,CHC2,2*%
%TO.N,GND*%
X140575000Y-78480000D03*
%TD*%
D48*
%TO.P,ADS1,1,+VIN*%
%TO.N,IN_ADS_A+*%
X131960000Y-112675000D03*
%TO.P,ADS1,2,-VIN*%
%TO.N,IN_ADS_A-*%
X131960000Y-111405000D03*
%TO.P,ADS1,3,+VDD*%
%TO.N,5V0*%
X131960000Y-110135000D03*
%TO.P,ADS1,4,CLK*%
%TO.N,CLK_ADS_5V0*%
X131960000Y-108865000D03*
%TO.P,ADS1,5,DOUT/~{DRDY}*%
%TO.N,DOUT_ADS_5V0*%
X127020000Y-108865000D03*
%TO.P,ADS1,6,SCLK*%
%TO.N,SCLK_ADS_COMMON_5V0*%
X127020000Y-110135000D03*
%TO.P,ADS1,7,GND*%
%TO.N,GND_EN_ADS*%
X127020000Y-111405000D03*
%TO.P,ADS1,8,VREF*%
%TO.N,5V0*%
X127020000Y-112675000D03*
%TD*%
D11*
%TO.P,EIC1,1*%
%TO.N,Net-(EIC1-Pad1)*%
X179217500Y-127820000D03*
%TO.P,EIC1,2*%
%TO.N,GND*%
X180767500Y-127820000D03*
%TD*%
D15*
%TO.P,USBR2,1*%
%TO.N,Net-(J1-PadB5)*%
X148005000Y-78700000D03*
%TO.P,USBR2,2*%
%TO.N,GND*%
X146355000Y-78700000D03*
%TD*%
D11*
%TO.P,EC1,1*%
%TO.N,GND*%
X146435000Y-94150000D03*
%TO.P,EC1,2*%
%TO.N,CHIP_EN*%
X147985000Y-94150000D03*
%TD*%
D40*
%TO.P,E2CY2,1,1*%
%TO.N,Net-(E2C11-Pad1)*%
X150449255Y-85370893D03*
%TO.P,E2CY2,2,2*%
%TO.N,GND*%
X152649255Y-85370893D03*
%TO.P,E2CY2,3,3*%
%TO.N,Net-(E2C14-Pad1)*%
X152649255Y-83570893D03*
%TO.P,E2CY2,4,4*%
%TO.N,GND*%
X150449255Y-83570893D03*
%TD*%
D15*
%TO.P,ADSR2,1*%
%TO.N,CLK_ADS2_3V3_IO07*%
X130305000Y-121360000D03*
%TO.P,ADSR2,2*%
%TO.N,3V3*%
X128655000Y-121360000D03*
%TD*%
D49*
%TO.P,E2C1,1*%
%TO.N,GND*%
X147079255Y-85030893D03*
%TO.P,E2C1,2*%
%TO.N,3V3*%
X147079255Y-86930893D03*
%TD*%
D11*
%TO.P,E2C5,1*%
%TO.N,3V3*%
X146365000Y-95600000D03*
%TO.P,E2C5,2*%
%TO.N,GND*%
X147915000Y-95600000D03*
%TD*%
%TO.P,IMUC1,1*%
%TO.N,GND*%
X159634255Y-96580893D03*
%TO.P,IMUC1,2*%
%TO.N,3V3*%
X161184255Y-96580893D03*
%TD*%
D50*
%TO.P,Q1,1,G*%
%TO.N,Net-(Q1-Pad1)*%
X130950000Y-78660000D03*
%TO.P,Q1,2,S*%
%TO.N,Net-(CH340K1-Pad6)*%
X129050000Y-78660000D03*
%TO.P,Q1,3,D*%
%TO.N,CHIP_EN*%
X130000000Y-80535000D03*
%TD*%
D51*
%TO.P,AU1,1,FB*%
%TO.N,Net-(AR1-Pad1)*%
X178230245Y-78463321D03*
%TO.P,AU1,2,GND*%
%TO.N,GND*%
X177280245Y-78463321D03*
%TO.P,AU1,3,SW*%
%TO.N,Net-(AL1-Pad2)*%
X176330245Y-78473321D03*
%TO.P,AU1,4,VIN_SW*%
%TO.N,5V0*%
X176330245Y-81613321D03*
%TO.P,AU1,5,VIN_A*%
X177280245Y-81603321D03*
%TO.P,AU1,6,EN*%
X178230245Y-81613321D03*
D52*
%TO.P,AU1,7*%
%TO.N,N/C*%
X177280245Y-80033321D03*
%TD*%
D38*
%TO.P,ADSR1,1*%
%TO.N,GND*%
X128605000Y-123040000D03*
%TO.P,ADSR1,2*%
%TO.N,CLK_ADS2_3V3_IO07*%
X130255000Y-123040000D03*
%TD*%
D13*
%TO.P,ADSC2,1*%
%TO.N,5V0*%
X128970000Y-104520000D03*
%TO.P,ADSC2,2*%
%TO.N,GND*%
X130870000Y-104520000D03*
%TD*%
D53*
%TO.P,ESP32S1,1,LNA_IN/RF*%
%TO.N,Net-(EC3-Pad1)*%
X152421755Y-89460893D03*
%TO.P,ESP32S1,2,VDD3P3*%
%TO.N,Net-(E2C7-Pad1)*%
X152421755Y-89860893D03*
%TO.P,ESP32S1,3,VDD3P3*%
X152421755Y-90260893D03*
%TO.P,ESP32S1,4,CHIP_PU/RESET*%
%TO.N,CHIP_EN*%
X152421755Y-90660893D03*
%TO.P,ESP32S1,5,GPIO0/BOOT*%
%TO.N,ESP_GPIO0_BOOT-DTR*%
X152421755Y-91060893D03*
%TO.P,ESP32S1,6,GPIO1/ADC1_CH0*%
%TO.N,3V3_EN_ADS_IO01*%
X152421755Y-91460893D03*
%TO.P,ESP32S1,7,GPIO2/ADC1_CH1*%
%TO.N,DOUT_ADS_3V3_IO02*%
X152421755Y-91860893D03*
%TO.P,ESP32S1,8,GPIO3/ADC1_CH2*%
%TO.N,GND*%
X152421755Y-92260893D03*
%TO.P,ESP32S1,9,GPIO4/ADC1_CH3*%
%TO.N,SCLK_COMMON_3V3_IO04*%
X152421755Y-92660893D03*
%TO.P,ESP32S1,10,GPIO5/ADC1_CH4*%
%TO.N,CLK_ADS_3V3_IO05*%
X152421755Y-93060893D03*
%TO.P,ESP32S1,11,GPIO6/ADC1_CH5*%
%TO.N,DOUT_ADS2_3V3_IO06*%
X152421755Y-93460893D03*
%TO.P,ESP32S1,12,GPIO7/ADC1_CH6*%
%TO.N,CLK_ADS2_3V3_IO07*%
X152421755Y-93860893D03*
%TO.P,ESP32S1,13,GPIO8/ADC1_CH7*%
%TO.N,GPIO8_I2C_SDA*%
X152421755Y-94260893D03*
%TO.P,ESP32S1,14,GPIO9/ADC1_CH8*%
%TO.N,GPIO9_I2C_SCL*%
X152421755Y-94660893D03*
D54*
%TO.P,ESP32S1,15,GPIO10/ADC1_CH9*%
%TO.N,3V3_EN_ADS2_IO10*%
X153259255Y-95498393D03*
%TO.P,ESP32S1,16,GPIO11/ADC2_CH0*%
%TO.N,unconnected-(ESP32S1-Pad16)*%
X153659255Y-95498393D03*
%TO.P,ESP32S1,17,GPIO12/ADC2_CH1*%
%TO.N,unconnected-(ESP32S1-Pad17)*%
X154059255Y-95498393D03*
%TO.P,ESP32S1,18,GPIO13/ADC2_CH2*%
%TO.N,LED_R_IO13*%
X154459255Y-95498393D03*
%TO.P,ESP32S1,19,GPIO14/ADC2_CH3*%
%TO.N,LED_G_IO14*%
X154859255Y-95498393D03*
%TO.P,ESP32S1,20,VDD3P3_RTC*%
%TO.N,3V3*%
X155259255Y-95498393D03*
%TO.P,ESP32S1,21,GPIO15/ADC2_CH4/XTAL_32K_P*%
%TO.N,Net-(E2C9-Pad1)*%
X155659255Y-95498393D03*
%TO.P,ESP32S1,22,GPIO16/ADC2_CH5/XTAL_32K_N*%
%TO.N,Net-(E2C10-Pad1)*%
X156059255Y-95498393D03*
%TO.P,ESP32S1,23,GPIO17/ADC2_CH6/DAC_2*%
%TO.N,LED_B_IO17*%
X156459255Y-95498393D03*
%TO.P,ESP32S1,24,GPIO18/ADC2_CH7/DAC_1*%
%TO.N,BUZZER_IO18*%
X156859255Y-95498393D03*
%TO.P,ESP32S1,25,GPIO19/USB_D-/ADC2_CH8*%
%TO.N,ESP2_USB_D-*%
X157259255Y-95498393D03*
%TO.P,ESP32S1,26,GPIO20/USB_D+/ADC2_CH9*%
%TO.N,ESP2_USB_D+*%
X157659255Y-95498393D03*
%TO.P,ESP32S1,27,GPIO21*%
%TO.N,IMU_CS_IO21*%
X158059255Y-95498393D03*
%TO.P,ESP32S1,28,SPI_CS1/GPIO26*%
%TO.N,SPICS1_E2*%
X158459255Y-95498393D03*
D53*
%TO.P,ESP32S1,29,VDD_SPI*%
%TO.N,ESP2_VDD_SPI*%
X159296755Y-94660893D03*
%TO.P,ESP32S1,30,SPIHD/GPIO27*%
%TO.N,SPIHD_E2*%
X159296755Y-94260893D03*
%TO.P,ESP32S1,31,SPIWP/GPIO28*%
%TO.N,SPIWP_E2*%
X159296755Y-93860893D03*
%TO.P,ESP32S1,32,SPICS0/GPIO29*%
%TO.N,SPICS0_E2*%
X159296755Y-93460893D03*
%TO.P,ESP32S1,33,SPICLK/GPIO30*%
%TO.N,SPICLK_E2*%
X159296755Y-93060893D03*
%TO.P,ESP32S1,34,SPIQ/GPIO31*%
%TO.N,SPIQ_E2*%
X159296755Y-92660893D03*
D55*
%TO.P,ESP32S1,35,SPID/GPIO32*%
%TO.N,SPID_E2*%
X159296755Y-92260893D03*
D53*
%TO.P,ESP32S1,36,SPICLK_N/GPIO48*%
%TO.N,unconnected-(ESP32S1-Pad36)*%
X159296755Y-91860893D03*
%TO.P,ESP32S1,37,SPICLK_P/GPIO47*%
%TO.N,unconnected-(ESP32S1-Pad37)*%
X159296755Y-91460893D03*
%TO.P,ESP32S1,38,GPIO33*%
%TO.N,LCD_RST_IO13*%
X159296755Y-91060893D03*
%TO.P,ESP32S1,39,GPIO34*%
%TO.N,LCD_DC_IO14*%
X159296755Y-90660893D03*
%TO.P,ESP32S1,40,GPIO35*%
%TO.N,LCD_BUSY_IO17*%
X159296755Y-90260893D03*
%TO.P,ESP32S1,41,GPIO36*%
%TO.N,LCD_CS_IO12*%
X159296755Y-89860893D03*
%TO.P,ESP32S1,42,GPIO37*%
%TO.N,LCD_MOSI_IO11*%
X159296755Y-89460893D03*
D54*
%TO.P,ESP32S1,43,GPIO38*%
%TO.N,unconnected-(ESP32S1-Pad43)*%
X158459255Y-88623393D03*
%TO.P,ESP32S1,44,MTCK/JTAG/GPIO39*%
%TO.N,unconnected-(ESP32S1-Pad44)*%
X158059255Y-88623393D03*
%TO.P,ESP32S1,45,MTDO/JTAG/GPIO40*%
%TO.N,unconnected-(ESP32S1-Pad45)*%
X157659255Y-88623393D03*
%TO.P,ESP32S1,46,VDD3P3_CPU*%
%TO.N,3V3*%
X157259255Y-88623393D03*
%TO.P,ESP32S1,47,MTDI/JTAG/GPIO41*%
%TO.N,unconnected-(ESP32S1-Pad47)*%
X156859255Y-88623393D03*
%TO.P,ESP32S1,48,MTMS/JTAG/GPIO42*%
%TO.N,unconnected-(ESP32S1-Pad48)*%
X156459255Y-88623393D03*
%TO.P,ESP32S1,49,U0TXD/PROG/GPIO43*%
%TO.N,Net-(E2R1-Pad2)*%
X156059255Y-88623393D03*
%TO.P,ESP32S1,50,U0RXD/PROG/GPIO44*%
%TO.N,RXD0*%
X155659255Y-88623393D03*
%TO.P,ESP32S1,51,GPIO45*%
%TO.N,GND*%
X155259255Y-88623393D03*
%TO.P,ESP32S1,52,GPIO46*%
%TO.N,ESP_GPIO0_BOOT-DTR*%
X154859255Y-88623393D03*
%TO.P,ESP32S1,53,XTAL_N*%
%TO.N,Net-(E2C14-Pad1)*%
X154459255Y-88623393D03*
%TO.P,ESP32S1,54,XTAL_P*%
%TO.N,Net-(E2C11-Pad1)*%
X154059255Y-88623393D03*
%TO.P,ESP32S1,55,VDDA*%
%TO.N,3V3*%
X153659255Y-88623393D03*
%TO.P,ESP32S1,56,VDDA*%
X153259255Y-88623393D03*
D56*
%TO.P,ESP32S1,57,GND*%
%TO.N,GND*%
X155859255Y-92060893D03*
%TD*%
D34*
%TO.P,E2R1,1*%
%TO.N,TXD0*%
X158839255Y-84125893D03*
%TO.P,E2R1,2*%
%TO.N,Net-(E2R1-Pad2)*%
X158839255Y-85775893D03*
%TD*%
D29*
%TO.P,EIC8,1*%
%TO.N,PREVGH*%
X171082500Y-126560000D03*
%TO.P,EIC8,2*%
%TO.N,GND*%
X169532500Y-126560000D03*
%TD*%
D34*
%TO.P,QR2,1*%
%TO.N,Net-(CH340K1-Pad6)*%
X134680000Y-75355000D03*
%TO.P,QR2,2*%
%TO.N,Net-(Q2-Pad1)*%
X134680000Y-77005000D03*
%TD*%
D57*
%TO.P,ICSP1,1,Pin_1*%
%TO.N,5V0F*%
X125230500Y-85575000D03*
%TO.P,ICSP1,2,Pin_2*%
%TO.N,GND*%
X125230500Y-84305000D03*
%TO.P,ICSP1,3,Pin_3*%
%TO.N,TXD0*%
X125230500Y-83035000D03*
%TO.P,ICSP1,4,Pin_4*%
%TO.N,RXD0*%
X125230500Y-81765000D03*
%TD*%
D58*
%TO.P,EiD1a3,1,K*%
%TO.N,GND*%
X167342500Y-127390000D03*
%TO.P,EiD1a3,2,A*%
%TO.N,Net-(EIC7-Pad1)*%
X167342500Y-129490000D03*
%TD*%
D14*
%TO.P,TP3,1,1*%
%TO.N,5V0*%
X166760000Y-72990000D03*
%TD*%
D59*
%TO.P,ADS2_MTRT1,1*%
%TO.N,3V3_EN_ADS2_IO10*%
X126140000Y-127135000D03*
%TO.P,ADS2_MTRT1,2*%
%TO.N,GND*%
X128040000Y-127135000D03*
%TO.P,ADS2_MTRT1,3*%
%TO.N,GND_EN_ADS2*%
X127090000Y-125260000D03*
%TD*%
D60*
%TO.P,AR1,1*%
%TO.N,Net-(AR1-Pad1)*%
X182390245Y-79110821D03*
%TO.P,AR1,2*%
%TO.N,GND*%
X180390245Y-79110821D03*
%TD*%
D13*
%TO.P,E2C2,1*%
%TO.N,3V3*%
X146049255Y-99170893D03*
%TO.P,E2C2,2*%
%TO.N,GND*%
X147949255Y-99170893D03*
%TD*%
D38*
%TO.P,IDR2,1*%
%TO.N,3V3*%
X165134255Y-95630893D03*
%TO.P,IDR2,2*%
%TO.N,GPIO9_I2C_SCL*%
X166784255Y-95630893D03*
%TD*%
D29*
%TO.P,EIC3,1*%
%TO.N,Net-(EIC3-Pad1)*%
X171347500Y-118760000D03*
%TO.P,EIC3,2*%
%TO.N,GND*%
X169797500Y-118760000D03*
%TD*%
D33*
%TO.P,E2C9,1*%
%TO.N,Net-(E2C9-Pad1)*%
X153469255Y-100605893D03*
%TO.P,E2C9,2*%
%TO.N,GND*%
X153469255Y-99055893D03*
%TD*%
D61*
%TO.P,J2,1,Pin_1*%
%TO.N,unconnected-(J2-Pad1)*%
X173902500Y-116670000D03*
%TO.P,J2,2,Pin_2*%
%TO.N,GDR*%
X176702500Y-117170000D03*
%TO.P,J2,3,Pin_3*%
%TO.N,RESE*%
X173902500Y-117670000D03*
%TO.P,J2,4,Pin_4*%
%TO.N,Net-(EIC4-Pad1)*%
X176702500Y-118170000D03*
%TO.P,J2,5,Pin_5*%
%TO.N,Net-(EIC3-Pad1)*%
X173902500Y-118670000D03*
%TO.P,J2,6,Pin_6*%
%TO.N,GPIO9_I2C_SCL*%
X176702500Y-119170000D03*
%TO.P,J2,7,Pin_7*%
%TO.N,GPIO8_I2C_SDA*%
X173902500Y-119670000D03*
%TO.P,J2,8,Pin_8*%
%TO.N,GND*%
X176702500Y-120170000D03*
%TO.P,J2,9,Pin_9*%
%TO.N,LCD_BUSY_IO17*%
X173902500Y-120670000D03*
%TO.P,J2,10,Pin_10*%
%TO.N,LCD_RST_IO13*%
X176702500Y-121170000D03*
%TO.P,J2,11,Pin_11*%
%TO.N,LCD_DC_IO14*%
X173902500Y-121670000D03*
%TO.P,J2,12,Pin_12*%
%TO.N,LCD_CS_IO12*%
X176702500Y-122170000D03*
%TO.P,J2,13,Pin_13*%
%TO.N,SCLK_COMMON_3V3_IO04*%
X173902500Y-122670000D03*
%TO.P,J2,14,Pin_14*%
%TO.N,LCD_MOSI_IO11*%
X176702500Y-123170000D03*
%TO.P,J2,15,Pin_15*%
%TO.N,3V3*%
X173902500Y-123670000D03*
%TO.P,J2,16,Pin_16*%
X176702500Y-124170000D03*
%TO.P,J2,17,Pin_17*%
%TO.N,GND*%
X173902500Y-124670000D03*
%TO.P,J2,18,Pin_18*%
%TO.N,Net-(EIC5-Pad1)*%
X176702500Y-125170000D03*
%TO.P,J2,19,Pin_19*%
%TO.N,unconnected-(J2-Pad19)*%
X173902500Y-125670000D03*
%TO.P,J2,20,Pin_20*%
%TO.N,Net-(EIC6-Pad1)*%
X176702500Y-126170000D03*
%TO.P,J2,21,Pin_21*%
%TO.N,PREVGH*%
X173902500Y-126670000D03*
%TO.P,J2,22,Pin_22*%
%TO.N,Net-(EIC1-Pad1)*%
X176702500Y-127170000D03*
%TO.P,J2,23,Pin_23*%
%TO.N,PREVGL*%
X173902500Y-127670000D03*
%TO.P,J2,24,Pin_24*%
%TO.N,Net-(EIC2-Pad1)*%
X176702500Y-128170000D03*
D62*
%TO.P,J2,S1*%
%TO.N,N/C*%
X176702500Y-115670000D03*
%TO.P,J2,S2*%
X173902500Y-115670000D03*
%TO.P,J2,S3*%
X176702500Y-129170000D03*
%TO.P,J2,S4*%
X173902500Y-129170000D03*
%TD*%
D63*
%TO.P,CH340K1,1,UD+*%
%TO.N,USB_D+*%
X144110000Y-77000000D03*
%TO.P,CH340K1,2,UD-*%
%TO.N,USB_D-*%
X144110000Y-76000000D03*
%TO.P,CH340K1,3,GND*%
%TO.N,GND*%
X144110000Y-75000000D03*
%TO.P,CH340K1,4,~{DTR}*%
%TO.N,Net-(CH340K1-Pad4)*%
X144110000Y-74000000D03*
%TO.P,CH340K1,5,~{CTS}*%
%TO.N,unconnected-(CH340K1-Pad5)*%
X144110000Y-73000000D03*
%TO.P,CH340K1,6,RTS*%
%TO.N,Net-(CH340K1-Pad6)*%
X139010000Y-73000000D03*
%TO.P,CH340K1,7,VCC*%
%TO.N,Net-(CH340K1-Pad7)*%
X139010000Y-74000000D03*
%TO.P,CH340K1,8,TXD*%
%TO.N,RXD0*%
X139010000Y-75000000D03*
%TO.P,CH340K1,9,RXD*%
%TO.N,TXD0*%
X139010000Y-76000000D03*
%TO.P,CH340K1,10,V3*%
%TO.N,3V3*%
X139010000Y-77000000D03*
%TD*%
D33*
%TO.P,EIC7,1*%
%TO.N,Net-(EIC7-Pad1)*%
X165332500Y-129360000D03*
%TO.P,EIC7,2*%
%TO.N,Net-(EIC7-Pad2)*%
X165332500Y-127810000D03*
%TD*%
D64*
%TO.P,AC1,1*%
%TO.N,3V3*%
X174350000Y-74032500D03*
%TO.P,AC1,2*%
%TO.N,GND*%
X174350000Y-76107500D03*
%TD*%
D29*
%TO.P,E2C6,1*%
%TO.N,3V3*%
X150924255Y-97380893D03*
%TO.P,E2C6,2*%
%TO.N,GND*%
X149374255Y-97380893D03*
%TD*%
D35*
%TO.P,EL1,1,1*%
%TO.N,Net-(ANT1-Pad1)*%
X138807500Y-88230000D03*
%TO.P,EL1,2,2*%
%TO.N,Net-(EC3-Pad1)*%
X140932500Y-88230000D03*
%TD*%
D65*
%TO.P,ANT1,1,1*%
%TO.N,Net-(ANT1-Pad1)*%
X134970000Y-88370500D03*
%TO.P,ANT1,2,2*%
%TO.N,unconnected-(ANT1-Pad2)*%
X134970000Y-97870500D03*
%TD*%
D59*
%TO.P,ADS5_MTRT1,1*%
%TO.N,3V3_EN_ADS_IO01*%
X125870000Y-116437500D03*
%TO.P,ADS5_MTRT1,2*%
%TO.N,GND*%
X127770000Y-116437500D03*
%TO.P,ADS5_MTRT1,3*%
%TO.N,GND_EN_ADS*%
X126820000Y-114562500D03*
%TD*%
D38*
%TO.P,ER1,1*%
%TO.N,3V3*%
X145744255Y-92760893D03*
%TO.P,ER1,2*%
%TO.N,CHIP_EN*%
X147394255Y-92760893D03*
%TD*%
D15*
%TO.P,E2R2,1*%
%TO.N,3V3*%
X155984255Y-85000893D03*
%TO.P,E2R2,2*%
%TO.N,ESP_GPIO0_BOOT-DTR*%
X154334255Y-85000893D03*
%TD*%
D16*
%TO.P,EiD1a1,1,K*%
%TO.N,Net-(EIC7-Pad1)*%
X169452500Y-129630000D03*
%TO.P,EiD1a1,2,A*%
%TO.N,PREVGL*%
X171552500Y-129630000D03*
%TD*%
D66*
%TO.P,AC2,1*%
%TO.N,5V0*%
X179262745Y-83590821D03*
%TO.P,AC2,2*%
%TO.N,GND*%
X181337745Y-83590821D03*
%TD*%
D50*
%TO.P,Q2,1,G*%
%TO.N,Net-(Q2-Pad1)*%
X134610000Y-78700000D03*
%TO.P,Q2,2,S*%
%TO.N,Net-(CH340K1-Pad4)*%
X132710000Y-78700000D03*
%TO.P,Q2,3,D*%
%TO.N,ESP_GPIO0_BOOT-DTR*%
X133660000Y-80575000D03*
%TD*%
D67*
%TO.P,BZ1,1,-*%
%TO.N,BUZZER_IO18*%
X185100000Y-103440000D03*
%TO.P,BZ1,2,+*%
%TO.N,GND*%
X185100000Y-96040000D03*
%TO.P,BZ1,3*%
%TO.N,N/C*%
X177700000Y-96040000D03*
%TD*%
D35*
%TO.P,E2L1,1,1*%
%TO.N,3V3*%
X145726755Y-91260893D03*
%TO.P,E2L1,2,2*%
%TO.N,Net-(E2C7-Pad1)*%
X147851755Y-91260893D03*
%TD*%
D68*
%TO.N,*%
X156929255Y-86150893D03*
X157179255Y-86950893D03*
%TO.N,3V3*%
X157519255Y-101050893D03*
D69*
X170960000Y-85160000D03*
D68*
X162509255Y-102999255D03*
D69*
X148989255Y-96300893D03*
X172372500Y-123620000D03*
D68*
X161699255Y-100790893D03*
D69*
X130120000Y-83510000D03*
X178782500Y-123840000D03*
D68*
X154533755Y-86020893D03*
X127300000Y-122540000D03*
D69*
X145549255Y-96040893D03*
D68*
X138615000Y-107485000D03*
D69*
X161760000Y-130000000D03*
X145439255Y-102999255D03*
D68*
X127320000Y-128854500D03*
D69*
X170960000Y-96640000D03*
D68*
X141980000Y-105740000D03*
X161274984Y-97559199D03*
D69*
X166480000Y-119770000D03*
D68*
X148850000Y-133050000D03*
D69*
X145679255Y-86890893D03*
D68*
X132660000Y-104440000D03*
D69*
X138565000Y-79645000D03*
X145439255Y-100730893D03*
X147272951Y-81462951D03*
X145589255Y-89690893D03*
D68*
%TO.N,GND*%
X130780000Y-105620000D03*
D69*
X157860000Y-94160000D03*
X158390000Y-79190000D03*
X145450000Y-75010000D03*
D68*
X154469255Y-98960893D03*
D69*
X168612500Y-127250000D03*
X180822500Y-123970000D03*
X186880000Y-96000000D03*
X151860000Y-79170000D03*
X171890000Y-86150000D03*
D68*
X129450000Y-124060000D03*
D69*
X179440000Y-80170000D03*
X127130000Y-117630000D03*
X169722500Y-117890000D03*
X136090000Y-105760000D03*
D70*
X151629288Y-88716359D03*
D69*
X153989255Y-90190893D03*
X142200000Y-75010000D03*
D68*
X154500000Y-101860000D03*
D70*
X180805000Y-119375000D03*
D69*
X168422500Y-131880000D03*
D68*
X130630000Y-126620000D03*
X128515000Y-128465000D03*
D69*
X134570000Y-74020000D03*
D68*
X158880000Y-96530000D03*
D69*
X172800000Y-96880000D03*
D68*
X155860000Y-134380000D03*
D69*
X172790000Y-94220000D03*
%TO.N,5V0*%
X137900000Y-103190000D03*
X171880000Y-87900000D03*
X171880000Y-97630000D03*
X129665000Y-111205000D03*
D68*
X128380000Y-105690000D03*
%TO.N,BUZZER_IO18*%
X155679255Y-101120893D03*
X169910000Y-105824500D03*
%TO.N,Net-(E2R1-Pad2)*%
X156020268Y-86041906D03*
X158809255Y-86680893D03*
%TO.N,CHIP_EN*%
X149150000Y-91250000D03*
D69*
X130000000Y-82200000D03*
D68*
%TO.N,GPIO8_I2C_SDA*%
X172592500Y-119670000D03*
X153847487Y-135427487D03*
X154570000Y-132960000D03*
X160454255Y-97635893D03*
X150360000Y-105705500D03*
X150921314Y-95083767D03*
%TO.N,GPIO9_I2C_SCL*%
X151290000Y-105690000D03*
X151707852Y-95290143D03*
X154650000Y-134000000D03*
X179370000Y-120463000D03*
X159749255Y-98170893D03*
%TO.N,ESP2_USB_D-*%
X156329255Y-100350893D03*
%TO.N,ESP2_USB_D+*%
X157279255Y-100200893D03*
D69*
%TO.N,5V0F*%
X123410000Y-85320000D03*
X153580000Y-76270000D03*
X156660000Y-76250000D03*
D68*
%TO.N,IMU_CS_IO21*%
X159669255Y-99920893D03*
X158483755Y-98117455D03*
%TO.N,ESP_GPIO0_BOOT-DTR*%
X155014921Y-87590021D03*
X150129255Y-91380893D03*
D69*
X133660000Y-82140000D03*
D68*
%TO.N,RXD0*%
X155299611Y-86701638D03*
D69*
X126860000Y-79100000D03*
D70*
X136610000Y-77499500D03*
D68*
%TO.N,TXD0*%
X158839255Y-83400893D03*
D70*
X137640000Y-76850000D03*
D69*
X126770000Y-77890000D03*
D68*
%TO.N,3V3_EN_ADS_IO01*%
X149540000Y-92070000D03*
X141210000Y-102410000D03*
%TO.N,DOUT_ADS_3V3_IO02*%
X148567346Y-92694157D03*
X138947027Y-104858259D03*
%TO.N,CLK_ADS2_3V3_IO07*%
X150975488Y-94217126D03*
X130240000Y-122150000D03*
%TO.N,CLK_ADS_3V3_IO05*%
X140328258Y-105674500D03*
X148980000Y-94300000D03*
%TO.N,SCLK_COMMON_3V3_IO04*%
X169335734Y-113535734D03*
X149410000Y-93400000D03*
X139587937Y-105354500D03*
X170960000Y-121485500D03*
%TO.N,LCD_MOSI_IO11*%
X178062500Y-123090000D03*
X160590836Y-88992160D03*
%TO.N,LCD_CS_IO12*%
X178870000Y-122750000D03*
X160260000Y-89720000D03*
%TO.N,LCD_RST_IO13*%
X160283754Y-91760949D03*
X178702649Y-121803378D03*
%TO.N,LCD_DC_IO14*%
X169720000Y-120810000D03*
X160553927Y-91008479D03*
%TO.N,LCD_BUSY_IO17*%
X160845758Y-90264143D03*
X170139650Y-120129487D03*
D69*
%TO.N,Earth*%
X158670000Y-107950000D03*
X169420000Y-106990000D03*
X148200000Y-108250000D03*
X151030000Y-110350000D03*
X174130000Y-106540000D03*
X161870000Y-108020000D03*
D68*
%TO.N,DOUT_ADS2_5V0*%
X132360000Y-123280000D03*
X133260000Y-107850000D03*
%TO.N,unconnected-(ESP32S1-Pad16)*%
X152647806Y-96425393D03*
%TO.N,unconnected-(ESP32S1-Pad17)*%
X153279255Y-97020893D03*
%TO.N,unconnected-(ESP32S1-Pad43)*%
X159956622Y-88417660D03*
%TO.N,SCLK_ADS_COMMON_5V0*%
X128560000Y-110100000D03*
X124195000Y-110265000D03*
%TO.N,DOUT_ADS2_3V3_IO06*%
X139980000Y-106610000D03*
X149490000Y-94930000D03*
%TO.N,LED_R_IO13*%
X159110000Y-128240000D03*
X154094755Y-96876913D03*
%TO.N,LED_G_IO14*%
X154669255Y-97581393D03*
X159850000Y-128860000D03*
%TO.N,LED_B_IO17*%
X160857500Y-129152500D03*
X154956338Y-100747976D03*
%TO.N,3V3_EN_ADS2_IO10*%
X151924243Y-96074221D03*
X127438767Y-123894500D03*
%TD*%
D71*
%TO.N,3V3*%
X162174255Y-95640893D02*
X162174255Y-95345745D01*
D72*
X148906781Y-96342853D02*
X149014821Y-96450893D01*
D73*
X160640000Y-134110000D02*
X161080000Y-134110000D01*
D71*
X164780000Y-94820000D02*
X165134255Y-95174255D01*
D74*
X140275000Y-107485000D02*
X138615000Y-107485000D01*
D72*
X145889255Y-87100893D02*
X145679255Y-86890893D01*
D75*
X153409255Y-87790893D02*
X152749255Y-87790893D01*
X170130000Y-112940000D02*
X168350000Y-111160000D01*
D72*
X145449255Y-93430745D02*
X145449255Y-95310893D01*
D73*
X160590000Y-134240000D02*
X160720000Y-134110000D01*
D75*
X157329255Y-85155893D02*
X157329255Y-85560893D01*
D72*
X146049255Y-99480745D02*
X146049255Y-99170893D01*
D75*
X130120000Y-83510000D02*
X130120000Y-83520000D01*
D71*
X160590000Y-134240000D02*
X161130000Y-134240000D01*
D73*
X155279255Y-96300893D02*
X155279255Y-96880893D01*
D71*
X161073526Y-97559199D02*
X161174255Y-97659928D01*
X162874255Y-100790893D02*
X161629255Y-100790893D01*
X157619255Y-101280893D02*
X157539255Y-101200893D01*
D72*
X174350000Y-74032500D02*
X171777500Y-74032500D01*
D71*
X148797500Y-134062500D02*
X148740000Y-134005000D01*
X132115000Y-103755000D02*
X132620000Y-104260000D01*
D75*
X138565000Y-79645000D02*
X139025000Y-79185000D01*
D76*
X149329000Y-80795000D02*
X148661049Y-81462951D01*
D71*
X148740000Y-134005000D02*
X141075000Y-134005000D01*
D72*
X157174255Y-85000893D02*
X157329255Y-85155893D01*
X149014821Y-96450893D02*
X150359255Y-96450893D01*
D74*
X139025000Y-77015000D02*
X139010000Y-77000000D01*
D75*
X155319255Y-97910893D02*
X155319255Y-96920893D01*
D72*
X171777500Y-74032500D02*
X170960000Y-74850000D01*
D71*
X159169255Y-101000893D02*
X158889255Y-101280893D01*
D72*
X155984255Y-85000893D02*
X157174255Y-85000893D01*
D76*
X170990000Y-80790000D02*
X170985000Y-80795000D01*
D77*
X178817101Y-74099848D02*
X179851025Y-75133772D01*
D72*
X170960000Y-74850000D02*
X170960000Y-85160000D01*
X145449255Y-95310893D02*
X145449255Y-95690893D01*
D71*
X158889255Y-101280893D02*
X157619255Y-101280893D01*
D74*
X155259255Y-95498393D02*
X155259255Y-96340893D01*
D71*
X128435500Y-129970000D02*
X127320000Y-128854500D01*
D72*
X145899255Y-95690893D02*
X145549255Y-96040893D01*
D73*
X155279255Y-96880893D02*
X155319255Y-96920893D01*
X153449255Y-87830893D02*
X153449255Y-87850893D01*
D71*
X161174255Y-96760893D02*
X162174255Y-95760893D01*
D75*
X139025000Y-79185000D02*
X139025000Y-78480000D01*
D71*
X161699255Y-100790893D02*
X161639255Y-100730893D01*
D75*
X154999255Y-98230893D02*
X155319255Y-97910893D01*
D74*
X141980000Y-105740000D02*
X141980000Y-105780000D01*
D75*
X168350000Y-111160000D02*
X168350000Y-106180000D01*
X168350000Y-106180000D02*
X169355000Y-105175000D01*
X166480000Y-119770000D02*
X166250000Y-119770000D01*
D72*
X149949255Y-87100893D02*
X145889255Y-87100893D01*
D75*
X157329255Y-85560893D02*
X157959255Y-86190893D01*
X170130000Y-114030000D02*
X170130000Y-112940000D01*
D73*
X148740000Y-134005000D02*
X148740000Y-133160000D01*
D71*
X161639255Y-100730893D02*
X160749255Y-100730893D01*
X128655000Y-121360000D02*
X128610000Y-121360000D01*
X159169255Y-100835893D02*
X159169255Y-101000893D01*
X163149255Y-100775893D02*
X164054255Y-100775893D01*
D75*
X166480000Y-117680000D02*
X170130000Y-114030000D01*
D72*
X150924255Y-97015893D02*
X150924255Y-97380893D01*
D74*
X141980000Y-105780000D02*
X140275000Y-107485000D01*
X178452500Y-124170000D02*
X176702500Y-124170000D01*
X136840000Y-107485000D02*
X138615000Y-107485000D01*
D72*
X145439255Y-100090745D02*
X146049255Y-99480745D01*
X146249255Y-95915893D02*
X146249255Y-98685893D01*
D71*
X160749255Y-100730893D02*
X160654255Y-100635893D01*
D75*
X166480000Y-119770000D02*
X166480000Y-117680000D01*
X171470000Y-96130000D02*
X170960000Y-96640000D01*
D72*
X170960000Y-96640000D02*
X170960000Y-102340000D01*
X151384174Y-87838893D02*
X151229989Y-87684708D01*
D71*
X162174255Y-95345745D02*
X162700000Y-94820000D01*
D76*
X148661049Y-81462951D02*
X147272951Y-81462951D01*
D75*
X153559255Y-98230893D02*
X154999255Y-98230893D01*
D71*
X132115000Y-103230000D02*
X132115000Y-103755000D01*
D72*
X154974255Y-86020893D02*
X155994255Y-85000893D01*
D77*
X177254949Y-74099848D02*
X178817101Y-74099848D01*
D72*
X145814255Y-92770893D02*
X145814255Y-93065745D01*
D71*
X157259255Y-88623393D02*
X157259255Y-87936326D01*
D75*
X170988784Y-105175000D02*
X173550000Y-102613784D01*
D72*
X145660000Y-92696638D02*
X145660000Y-89761638D01*
D71*
X127430000Y-122540000D02*
X127300000Y-122540000D01*
D73*
X148740000Y-133160000D02*
X148850000Y-133050000D01*
D71*
X157259255Y-87936326D02*
X157939255Y-87256326D01*
D73*
X161760000Y-127990000D02*
X161560000Y-127790000D01*
D74*
X153259255Y-88623393D02*
X153259255Y-88040893D01*
X139025000Y-78480000D02*
X139025000Y-77015000D01*
D72*
X146394255Y-95690893D02*
X145899255Y-95690893D01*
D74*
X178782500Y-123840000D02*
X178452500Y-124170000D01*
D72*
X170960000Y-102340000D02*
X170300745Y-102999255D01*
D75*
X173110661Y-96130000D02*
X171470000Y-96130000D01*
D76*
X170985000Y-80795000D02*
X149329000Y-80795000D01*
D71*
X157939255Y-87256326D02*
X157939255Y-87050893D01*
D72*
X145449255Y-95310893D02*
X145449255Y-95940893D01*
X145439255Y-100730893D02*
X145439255Y-100090745D01*
D75*
X130600000Y-83040000D02*
X135170000Y-83040000D01*
D77*
X174421679Y-73960821D02*
X177270245Y-73960821D01*
D72*
X145449255Y-95940893D02*
X145549255Y-96040893D01*
D74*
X153259255Y-88040893D02*
X153449255Y-87850893D01*
D75*
X157959255Y-86190893D02*
X157959255Y-87100893D01*
D77*
X174350000Y-74032500D02*
X174421679Y-73960821D01*
D72*
X170300745Y-102999255D02*
X145439255Y-102999255D01*
D74*
X173902500Y-123670000D02*
X172422500Y-123670000D01*
D72*
X150924255Y-97460893D02*
X150924255Y-97380893D01*
D71*
X162174255Y-95760893D02*
X162174255Y-95640893D01*
X162700000Y-94820000D02*
X164780000Y-94820000D01*
D75*
X173550000Y-96569339D02*
X173110661Y-96130000D01*
D72*
X154533755Y-86020893D02*
X154974255Y-86020893D01*
D73*
X161760000Y-133430000D02*
X161760000Y-127990000D01*
D72*
X145734255Y-92770893D02*
X145660000Y-92696638D01*
D71*
X128610000Y-121360000D02*
X127430000Y-122540000D01*
D75*
X135170000Y-83040000D02*
X138565000Y-79645000D01*
D71*
X172323500Y-74032500D02*
X172200000Y-74156000D01*
D75*
X130120000Y-83520000D02*
X130600000Y-83040000D01*
X152709255Y-97380893D02*
X153559255Y-98230893D01*
D74*
X153449255Y-87850893D02*
X153659255Y-88060893D01*
D71*
X165134255Y-95174255D02*
X165134255Y-95630893D01*
D73*
X161080000Y-134110000D02*
X161760000Y-133430000D01*
D72*
X152699255Y-87838893D02*
X151384174Y-87838893D01*
D71*
X137040000Y-129970000D02*
X128435500Y-129970000D01*
D74*
X153659255Y-88060893D02*
X153659255Y-88623393D01*
D71*
X150170000Y-134062500D02*
X148797500Y-134062500D01*
D72*
X150359255Y-96450893D02*
X150924255Y-97015893D01*
D75*
X153449255Y-87830893D02*
X153409255Y-87790893D01*
D76*
X161280000Y-97549517D02*
X161280000Y-96650482D01*
D75*
X150924255Y-97380893D02*
X152709255Y-97380893D01*
D72*
X145449255Y-95690893D02*
X146394255Y-95690893D01*
D74*
X172422500Y-123670000D02*
X172372500Y-123620000D01*
D72*
X145660000Y-89761638D02*
X145589255Y-89690893D01*
D75*
X169355000Y-105175000D02*
X170988784Y-105175000D01*
X173550000Y-102613784D02*
X173550000Y-96569339D01*
D71*
X141075000Y-134005000D02*
X137040000Y-129970000D01*
X172200000Y-74156000D02*
X172200000Y-75500000D01*
D72*
X145814255Y-93065745D02*
X145449255Y-93430745D01*
X151232514Y-87684704D02*
G75*
G03*
X149949255Y-87100894I-1424814J-1429596D01*
G01*
D74*
%TO.N,GND*%
X134580000Y-74010000D02*
X134570000Y-74020000D01*
D76*
X144510000Y-80940000D02*
X142050000Y-78480000D01*
D71*
X148747500Y-135562500D02*
X148740000Y-135555000D01*
D74*
X145440000Y-75000000D02*
X145450000Y-75010000D01*
D71*
X124980000Y-128280000D02*
X124640000Y-127940000D01*
X146295000Y-80190000D02*
X146355000Y-80130000D01*
D75*
X175392500Y-130940000D02*
X174452500Y-131880000D01*
D78*
X149089255Y-88882864D02*
X146857284Y-88882864D01*
D75*
X132137918Y-74180000D02*
X134507918Y-71810000D01*
D74*
X153564255Y-98960893D02*
X153469255Y-99055893D01*
X155769255Y-97220893D02*
X155769255Y-98097289D01*
D75*
X172870000Y-94140000D02*
X184410000Y-94140000D01*
X147079255Y-85030893D02*
X147079255Y-83765893D01*
D74*
X136840000Y-104035000D02*
X136840000Y-105010000D01*
D71*
X173300000Y-81950000D02*
X175225000Y-81950000D01*
D75*
X146324255Y-100985893D02*
X146324255Y-101910893D01*
D74*
X169562500Y-127930000D02*
X169562500Y-127250000D01*
X130685000Y-105025000D02*
X130870000Y-104840000D01*
D75*
X184410000Y-94140000D02*
X185100000Y-94830000D01*
D78*
X144747136Y-88882864D02*
X144530000Y-89100000D01*
D75*
X125230500Y-84305000D02*
X124435000Y-84305000D01*
D74*
X150726229Y-86522885D02*
X149841247Y-86522885D01*
X124025000Y-115165000D02*
X124200000Y-115165000D01*
D75*
X176702500Y-120170000D02*
X175702500Y-120170000D01*
D71*
X158359255Y-101850893D02*
X158449255Y-101940893D01*
D76*
X144510000Y-85060000D02*
X144510000Y-80940000D01*
D75*
X134507918Y-71810000D02*
X144425000Y-71810000D01*
X174452500Y-131880000D02*
X170602500Y-131880000D01*
D74*
X140575000Y-78480000D02*
X140575000Y-76645000D01*
D78*
X149590213Y-87812864D02*
X149587349Y-87810000D01*
D75*
X149374255Y-98545893D02*
X149769255Y-98940893D01*
X128040000Y-127990000D02*
X128515000Y-128465000D01*
X150809255Y-95980893D02*
X150812428Y-95980893D01*
D76*
X171890000Y-86150000D02*
X169850000Y-86150000D01*
D71*
X128060000Y-127155000D02*
X128040000Y-127135000D01*
X159669255Y-100925893D02*
X159669255Y-101855893D01*
D75*
X186840000Y-96040000D02*
X185100000Y-96040000D01*
X151880000Y-79150000D02*
X151860000Y-79170000D01*
X123430000Y-83300000D02*
X123430000Y-79980000D01*
X178130000Y-120170000D02*
X176702500Y-120170000D01*
D72*
X169320000Y-104570000D02*
X169740000Y-104570000D01*
D75*
X123430000Y-79980000D02*
X129230000Y-74180000D01*
D74*
X124020000Y-117630000D02*
X123620000Y-117230000D01*
D75*
X157329255Y-83378393D02*
X157329255Y-82403393D01*
D78*
X151294302Y-88820034D02*
X150870947Y-88396679D01*
D72*
X142705908Y-103960000D02*
X143315908Y-104570000D01*
X138490000Y-103960000D02*
X142705908Y-103960000D01*
D74*
X169727500Y-117070000D02*
X169727500Y-118630000D01*
X153469255Y-99055893D02*
X153469255Y-98780893D01*
D71*
X168294255Y-96970893D02*
X169849255Y-96970893D01*
X146260000Y-80225000D02*
X146295000Y-80190000D01*
D75*
X180827500Y-123975000D02*
X180822500Y-123970000D01*
D72*
X172800000Y-102508184D02*
X170738184Y-104570000D01*
D74*
X149841247Y-86522885D02*
X148754255Y-85435893D01*
X169562500Y-127250000D02*
X168612500Y-127250000D01*
D78*
X140615000Y-86680000D02*
X140485000Y-86550000D01*
D75*
X158380000Y-79180000D02*
X158390000Y-79190000D01*
D76*
X177270000Y-78545000D02*
X177270000Y-79795000D01*
D75*
X147159255Y-83408393D02*
X147159255Y-82433393D01*
D71*
X146320000Y-82400000D02*
X146320000Y-80515000D01*
D74*
X135535000Y-74010000D02*
X134580000Y-74010000D01*
D78*
X175262250Y-77019750D02*
X174350000Y-76107500D01*
D75*
X175392500Y-120480000D02*
X175392500Y-124300000D01*
X147949255Y-99170893D02*
X147949255Y-97310893D01*
D71*
X155560000Y-134680000D02*
X153510000Y-134680000D01*
D74*
X144110000Y-75000000D02*
X145440000Y-75000000D01*
D75*
X145450000Y-72835000D02*
X145450000Y-75010000D01*
X147944255Y-95690893D02*
X147899255Y-95690893D01*
X151969255Y-100740893D02*
X151569255Y-100740893D01*
D76*
X180260000Y-79750000D02*
X180260000Y-78980000D01*
D75*
X180822500Y-121112500D02*
X179072500Y-121112500D01*
D74*
X142200000Y-75020000D02*
X142200000Y-75010000D01*
D75*
X148339255Y-98780893D02*
X147949255Y-99170893D01*
D71*
X175242000Y-78272000D02*
X175270000Y-78300000D01*
X127820000Y-128280000D02*
X124980000Y-128280000D01*
D75*
X157329255Y-83605893D02*
X155909255Y-83605893D01*
D74*
X168612500Y-127250000D02*
X168252500Y-127250000D01*
D75*
X128605000Y-123225000D02*
X130630000Y-125250000D01*
D71*
X124640000Y-127940000D02*
X124640000Y-127552500D01*
X128605000Y-123040000D02*
X128605000Y-123225000D01*
D75*
X149299916Y-95550893D02*
X149594586Y-95845563D01*
D74*
X136975000Y-103900000D02*
X138630000Y-103900000D01*
D75*
X149594586Y-95845563D02*
X150673925Y-95845563D01*
X171412500Y-131880000D02*
X168422500Y-131880000D01*
X150812428Y-95980893D02*
X151712428Y-96880893D01*
D71*
X158940893Y-96580893D02*
X158930000Y-96570000D01*
D75*
X149374255Y-97460893D02*
X149374255Y-98545893D01*
D78*
X144530000Y-89100000D02*
X144530000Y-95650000D01*
X175262250Y-84807750D02*
X175262250Y-77019750D01*
D71*
X153510000Y-134680000D02*
X153127500Y-135062500D01*
D75*
X151844255Y-100595893D02*
X151829255Y-100580893D01*
D78*
X149320848Y-88899069D02*
X149090213Y-88882864D01*
D71*
X160159255Y-100925893D02*
X160159255Y-101855893D01*
D75*
X147939255Y-95695893D02*
X147944255Y-95690893D01*
X175392500Y-124300000D02*
X175392500Y-124310000D01*
D76*
X142050000Y-78480000D02*
X140575000Y-78480000D01*
D75*
X130630000Y-125250000D02*
X130630000Y-126620000D01*
X144425000Y-71810000D02*
X145450000Y-72835000D01*
D71*
X155259255Y-88623393D02*
X155259255Y-91460893D01*
D74*
X168112500Y-127390000D02*
X167342500Y-127390000D01*
D71*
X155259255Y-91460893D02*
X155859255Y-92060893D01*
D76*
X179440000Y-80170000D02*
X179840000Y-80170000D01*
X179840000Y-80170000D02*
X180260000Y-79750000D01*
D74*
X180787500Y-129260000D02*
X180787500Y-125050000D01*
D75*
X147939255Y-97300893D02*
X147939255Y-95695893D01*
D76*
X175322250Y-80180000D02*
X176697750Y-80180000D01*
D74*
X140575000Y-76645000D02*
X142200000Y-75020000D01*
D71*
X150405000Y-135570000D02*
X150855000Y-135570000D01*
D72*
X170738184Y-104570000D02*
X169320000Y-104570000D01*
D75*
X152649255Y-85370893D02*
X152249255Y-85370893D01*
D74*
X123620000Y-117230000D02*
X123620000Y-115570000D01*
D71*
X155659255Y-92260893D02*
X155859255Y-92060893D01*
D75*
X173180000Y-84860000D02*
X180700000Y-84860000D01*
X158380000Y-77932500D02*
X158380000Y-79180000D01*
X172790000Y-94220000D02*
X172870000Y-94140000D01*
X171890000Y-86150000D02*
X173180000Y-84860000D01*
X151680893Y-100580893D02*
X149880893Y-98780893D01*
X180700000Y-84860000D02*
X181337745Y-84222255D01*
X148729255Y-85435893D02*
X148444255Y-85435893D01*
D71*
X151785000Y-135090000D02*
X152235000Y-135090000D01*
D75*
X129230000Y-74180000D02*
X132137918Y-74180000D01*
X175392500Y-124310000D02*
X175032500Y-124670000D01*
X148444255Y-85435893D02*
X148039255Y-85030893D01*
D71*
X128040000Y-127135000D02*
X128040000Y-128060000D01*
D74*
X153469255Y-98780893D02*
X152519255Y-97830893D01*
D75*
X155909255Y-83605893D02*
X155904255Y-83600893D01*
X179072500Y-121112500D02*
X178130000Y-120170000D01*
X180827500Y-125010000D02*
X180827500Y-123975000D01*
X180947500Y-118250000D02*
X181060000Y-118250000D01*
D74*
X152742148Y-87200893D02*
X152136362Y-87200893D01*
D71*
X152421755Y-92260893D02*
X155659255Y-92260893D01*
D75*
X152249255Y-85370893D02*
X150449255Y-83570893D01*
X180830000Y-123962500D02*
X180822500Y-123970000D01*
X181337745Y-84222255D02*
X181337745Y-83590821D01*
D78*
X149587349Y-87810000D02*
X144470000Y-87810000D01*
D75*
X147899255Y-95690893D02*
X146394255Y-94185893D01*
D71*
X128040000Y-128060000D02*
X127820000Y-128280000D01*
D72*
X172800000Y-96880000D02*
X172800000Y-102508184D01*
D74*
X136840000Y-104035000D02*
X136975000Y-103900000D01*
X123620000Y-115570000D02*
X124025000Y-115165000D01*
D75*
X150673925Y-95845563D02*
X150809255Y-95980893D01*
D76*
X177833212Y-80170000D02*
X179440000Y-80170000D01*
D74*
X169562500Y-127250000D02*
X169562500Y-126590000D01*
D75*
X147949255Y-97310893D02*
X147939255Y-97300893D01*
X146394255Y-94185893D02*
X146394255Y-94180893D01*
D74*
X130685000Y-106530000D02*
X130685000Y-105025000D01*
D78*
X142545000Y-86550000D02*
X142710000Y-86715000D01*
D74*
X152519255Y-97830893D02*
X151679255Y-97830893D01*
D75*
X180947500Y-118250000D02*
X180830000Y-118367500D01*
D74*
X169562500Y-126590000D02*
X169532500Y-126560000D01*
X168252500Y-127250000D02*
X168112500Y-127390000D01*
D75*
X149629255Y-98780893D02*
X148339255Y-98780893D01*
X151880000Y-77932500D02*
X151880000Y-79150000D01*
D74*
X127740000Y-117077500D02*
X127740000Y-117180000D01*
X155769255Y-98097289D02*
X154905651Y-98960893D01*
X127130000Y-117630000D02*
X124020000Y-117630000D01*
D78*
X151294302Y-88820034D02*
X152558396Y-88820034D01*
D71*
X153127500Y-135062500D02*
X152570000Y-135062500D01*
X159634255Y-96580893D02*
X158940893Y-96580893D01*
D75*
X151712428Y-96880893D02*
X152179255Y-96880893D01*
D74*
X180787500Y-125050000D02*
X180827500Y-125010000D01*
D75*
X148084255Y-95550893D02*
X149299916Y-95550893D01*
X147944255Y-95690893D02*
X148084255Y-95550893D01*
D71*
X146355000Y-80130000D02*
X146355000Y-78700000D01*
D75*
X128040000Y-127135000D02*
X128040000Y-127990000D01*
X143597500Y-99910000D02*
X144522500Y-99910000D01*
D72*
X143315908Y-104570000D02*
X169320000Y-104570000D01*
D74*
X147944255Y-95690893D02*
X148034255Y-95600893D01*
D75*
X149880893Y-98780893D02*
X149629255Y-98780893D01*
D74*
X127740000Y-117180000D02*
X127290000Y-117630000D01*
X146774255Y-89780893D02*
X146774255Y-88965893D01*
D75*
X175392500Y-124300000D02*
X175392500Y-130940000D01*
D74*
X154905651Y-98960893D02*
X153564255Y-98960893D01*
D71*
X150170000Y-135562500D02*
X148747500Y-135562500D01*
D78*
X175250000Y-84820000D02*
X175262250Y-84807750D01*
D74*
X136840000Y-105010000D02*
X136090000Y-105760000D01*
D75*
X124435000Y-84305000D02*
X123430000Y-83300000D01*
X175032500Y-124670000D02*
X173902500Y-124670000D01*
X185100000Y-94830000D02*
X185100000Y-96040000D01*
D78*
X146857284Y-88882864D02*
X144747136Y-88882864D01*
D75*
X147079255Y-83765893D02*
X147194255Y-83650893D01*
D71*
X173230000Y-81880000D02*
X173300000Y-81950000D01*
D75*
X148039255Y-85030893D02*
X147079255Y-85030893D01*
D71*
X155860000Y-134380000D02*
X155560000Y-134680000D01*
D75*
X186880000Y-96000000D02*
X186840000Y-96040000D01*
D73*
X147944255Y-95690893D02*
X148269255Y-95690893D01*
D75*
X180830000Y-118367500D02*
X180830000Y-123962500D01*
D74*
X127290000Y-117630000D02*
X127130000Y-117630000D01*
X146774255Y-88965893D02*
X146857284Y-88882864D01*
X151429255Y-86908000D02*
X151335041Y-86813786D01*
X169787500Y-117010000D02*
X169727500Y-117070000D01*
D75*
X175702500Y-120170000D02*
X175392500Y-120480000D01*
X146329255Y-100790893D02*
X147949255Y-99170893D01*
D74*
X138630000Y-103900000D02*
X138690000Y-103960000D01*
D75*
X150399255Y-83408393D02*
X150399255Y-82433393D01*
X151829255Y-100580893D02*
X151680893Y-100580893D01*
D74*
X151429276Y-86907979D02*
G75*
G03*
X152136362Y-87200893I707124J707079D01*
G01*
D78*
X150209644Y-89303365D02*
G75*
G03*
X149320848Y-88899070I-986744J-990135D01*
G01*
D74*
X151335031Y-86813796D02*
G75*
G03*
X150726229Y-86522886I-721631J-727704D01*
G01*
D78*
X150873457Y-88396690D02*
G75*
G03*
X149590213Y-87812864I-1424757J-1429410D01*
G01*
D72*
%TO.N,5V0*%
X174010000Y-85770000D02*
X171880000Y-87900000D01*
D75*
X179990000Y-82150000D02*
X179262745Y-82877255D01*
X133410000Y-123030000D02*
X133410000Y-121540000D01*
D74*
X135050000Y-115590000D02*
X133080000Y-113620000D01*
D76*
X177270000Y-83070000D02*
X177280000Y-83080000D01*
D74*
X133080000Y-113620000D02*
X130630000Y-113620000D01*
D72*
X142940000Y-103190000D02*
X137900000Y-103190000D01*
D76*
X176320000Y-81632500D02*
X176320000Y-82600000D01*
D72*
X170444092Y-103860000D02*
X143610000Y-103860000D01*
D75*
X180130000Y-72900000D02*
X168690000Y-72900000D01*
X183590000Y-82150000D02*
X179990000Y-82150000D01*
X128195000Y-112675000D02*
X127020000Y-112675000D01*
D74*
X133410000Y-121535000D02*
X133410000Y-120570000D01*
D76*
X128970000Y-104520000D02*
X128970000Y-106365000D01*
D74*
X128970000Y-105750000D02*
X128830000Y-105610000D01*
D72*
X171880000Y-102424092D02*
X170444092Y-103860000D01*
D75*
X183700000Y-82260000D02*
X183700000Y-76470000D01*
D72*
X143610000Y-103860000D02*
X142940000Y-103190000D01*
D74*
X135050000Y-118930000D02*
X135050000Y-115590000D01*
D72*
X181470000Y-85770000D02*
X174010000Y-85770000D01*
X183700000Y-82260000D02*
X183700000Y-83540000D01*
D74*
X128830000Y-105610000D02*
X128420000Y-105610000D01*
D76*
X179320000Y-83462500D02*
X179172500Y-83610000D01*
D74*
X128970000Y-105910000D02*
X128970000Y-105750000D01*
D75*
X130735000Y-110135000D02*
X129665000Y-111205000D01*
D72*
X183700000Y-83540000D02*
X181470000Y-85770000D01*
D76*
X178418750Y-83080000D02*
X177280000Y-83080000D01*
D75*
X183700000Y-76470000D02*
X180130000Y-72900000D01*
D71*
X166760000Y-73240000D02*
X167520000Y-74000000D01*
D75*
X135950000Y-125570000D02*
X134365000Y-123985000D01*
X129665000Y-111205000D02*
X128195000Y-112675000D01*
X168690000Y-72900000D02*
X166810000Y-74780000D01*
D74*
X133410000Y-120570000D02*
X135050000Y-118930000D01*
X135340000Y-107485000D02*
X135340000Y-108285000D01*
D76*
X176800000Y-83080000D02*
X177280000Y-83080000D01*
X178220000Y-81840000D02*
X178220000Y-83080000D01*
D75*
X166810000Y-74780000D02*
X165210000Y-74780000D01*
D76*
X176320000Y-82600000D02*
X176800000Y-83080000D01*
D75*
X135950000Y-126480000D02*
X135950000Y-125570000D01*
X131960000Y-110135000D02*
X130735000Y-110135000D01*
D76*
X178418750Y-83080000D02*
X178841250Y-83080000D01*
D75*
X179262745Y-82877255D02*
X179262745Y-83590821D01*
X183700000Y-82260000D02*
X183590000Y-82150000D01*
X134365000Y-123985000D02*
X133410000Y-123030000D01*
D72*
X171880000Y-97630000D02*
X171880000Y-102424092D01*
D74*
X133490000Y-110135000D02*
X131960000Y-110135000D01*
X130630000Y-113620000D02*
X129665000Y-112655000D01*
D76*
X178215000Y-81835000D02*
X178220000Y-81840000D01*
D71*
X166760000Y-72990000D02*
X166760000Y-73240000D01*
D74*
X135340000Y-108285000D02*
X133490000Y-110135000D01*
D76*
X128970000Y-106365000D02*
X129135000Y-106530000D01*
X177270000Y-81850000D02*
X177270000Y-83070000D01*
D74*
X129665000Y-112655000D02*
X129665000Y-111205000D01*
D77*
%TO.N,Net-(AL1-Pad2)*%
X176320000Y-77132472D02*
X176320000Y-78127529D01*
%TO.N,Net-(AR1-Pad1)*%
X179814949Y-77569848D02*
X179254949Y-77569848D01*
X179254949Y-77569848D02*
X178599946Y-78224851D01*
X178599946Y-78224851D02*
X178249943Y-78224851D01*
X179814949Y-77569848D02*
X180064949Y-77569848D01*
D78*
X179851025Y-77133772D02*
X181373196Y-77133772D01*
X182390245Y-78150821D02*
X182390245Y-79110821D01*
X181373196Y-77133772D02*
X182390245Y-78150821D01*
D71*
%TO.N,BUZZER_IO18*%
X157194255Y-98687541D02*
X155679255Y-100202541D01*
X156859255Y-95498393D02*
X156859255Y-96285971D01*
X155679255Y-100202541D02*
X155679255Y-101120893D01*
X156859255Y-96285971D02*
X157194255Y-96620971D01*
X170940324Y-105824500D02*
X172924824Y-103840000D01*
X184700000Y-103840000D02*
X185100000Y-103440000D01*
X172924824Y-103840000D02*
X184700000Y-103840000D01*
X169910000Y-105824500D02*
X170940324Y-105824500D01*
X157194255Y-96620971D02*
X157194255Y-98687541D01*
D74*
%TO.N,Net-(CH340K1-Pad4)*%
X132710000Y-76635000D02*
X132655000Y-76580000D01*
X132655000Y-74299314D02*
X134694314Y-72260000D01*
X132655000Y-76580000D02*
X132655000Y-74299314D01*
X134694314Y-72260000D02*
X140530000Y-72260000D01*
X140530000Y-72260000D02*
X142270000Y-74000000D01*
X142270000Y-74000000D02*
X144110000Y-74000000D01*
X132710000Y-78700000D02*
X132710000Y-76635000D01*
%TO.N,Net-(CH340K1-Pad6)*%
X133760000Y-73760000D02*
X134520000Y-73000000D01*
X129530000Y-78660000D02*
X129050000Y-78660000D01*
X133760000Y-76400000D02*
X133760000Y-73760000D01*
X133760000Y-75970000D02*
X133760000Y-76400000D01*
X133760000Y-79101104D02*
X133123604Y-79737500D01*
X133123604Y-79737500D02*
X130607500Y-79737500D01*
X134680000Y-75355000D02*
X134375000Y-75355000D01*
X134375000Y-75355000D02*
X133760000Y-75970000D01*
X133760000Y-76400000D02*
X133760000Y-79101104D01*
X134520000Y-73000000D02*
X139010000Y-73000000D01*
X130607500Y-79737500D02*
X129530000Y-78660000D01*
%TO.N,Net-(CH340K1-Pad7)*%
X137095000Y-74000000D02*
X137085000Y-74010000D01*
X139010000Y-74000000D02*
X137095000Y-74000000D01*
D72*
%TO.N,Net-(E2C7-Pad1)*%
X147729255Y-90840893D02*
X147729255Y-91418393D01*
D74*
X152421755Y-89860893D02*
X151719255Y-89860893D01*
D72*
X149573068Y-89600893D02*
X149983068Y-90010893D01*
X149983068Y-90010893D02*
X150659255Y-90010893D01*
D74*
X151739255Y-90260893D02*
X152421755Y-90260893D01*
X151719255Y-89860893D02*
X151529255Y-90050893D01*
D72*
X148324255Y-90245893D02*
X147729255Y-90840893D01*
X148504255Y-89600893D02*
X149573068Y-89600893D01*
D74*
X151529255Y-90050893D02*
X151739255Y-90260893D01*
D75*
X150699255Y-90050893D02*
X150659255Y-90010893D01*
D72*
X148324255Y-89780893D02*
X148504255Y-89600893D01*
D75*
X151529255Y-90050893D02*
X150699255Y-90050893D01*
D72*
X148324255Y-89780893D02*
X148324255Y-90245893D01*
D71*
%TO.N,Net-(E2C9-Pad1)*%
X155679255Y-95518393D02*
X155679255Y-96590893D01*
X155679255Y-96590893D02*
X156144255Y-97055893D01*
D75*
X153469255Y-100479255D02*
X153469255Y-100605893D01*
D71*
X153790981Y-100605893D02*
X153469255Y-100605893D01*
X156144255Y-98252619D02*
X153790981Y-100605893D01*
X156144255Y-97055893D02*
X156144255Y-98252619D01*
D75*
X151829255Y-98780893D02*
X151829255Y-98839255D01*
X151829255Y-98839255D02*
X153469255Y-100479255D01*
D71*
X155659255Y-95498393D02*
X155679255Y-95518393D01*
%TO.N,Net-(E2C10-Pad1)*%
X156494255Y-98397593D02*
X154319255Y-100572593D01*
X156059255Y-95498393D02*
X156059255Y-96475919D01*
X156059255Y-96475919D02*
X156494255Y-96910919D01*
X150449255Y-101400893D02*
X149629255Y-100580893D01*
X154319255Y-101060893D02*
X153979255Y-101400893D01*
D76*
X148094255Y-100810893D02*
X149699255Y-100810893D01*
D71*
X153979255Y-101400893D02*
X150449255Y-101400893D01*
X156494255Y-96910919D02*
X156494255Y-98397593D01*
X154319255Y-100572593D02*
X154319255Y-101060893D01*
D76*
X149699255Y-100810893D02*
X149769255Y-100740893D01*
D71*
%TO.N,Net-(E2C11-Pad1)*%
X152598362Y-86370000D02*
X151448362Y-86370000D01*
D76*
X148744255Y-83865893D02*
X150309255Y-85430893D01*
D71*
X151448362Y-86370000D02*
X150829255Y-85750893D01*
X154059255Y-88623393D02*
X154059255Y-87830893D01*
X150829255Y-85750893D02*
X150829255Y-85370893D01*
X154059255Y-87830893D02*
X152598362Y-86370000D01*
%TO.N,ESP2_VDD_SPI*%
X159296755Y-94660893D02*
X161199107Y-94660893D01*
X161199107Y-94660893D02*
X161200000Y-94660000D01*
%TO.N,Net-(E2C14-Pad1)*%
X154459255Y-87735919D02*
X153609255Y-86885919D01*
X153609255Y-86885919D02*
X153609255Y-86120893D01*
X153609255Y-83610893D02*
X153609255Y-86255919D01*
X154459255Y-88623393D02*
X154459255Y-87735919D01*
D76*
X154224255Y-83600893D02*
X152679255Y-83600893D01*
D71*
%TO.N,Net-(E2R1-Pad2)*%
X156059255Y-86080893D02*
X156059255Y-88126274D01*
X158839255Y-86490893D02*
X158809255Y-86520893D01*
X158839255Y-85775893D02*
X158839255Y-86490893D01*
X156059255Y-88623393D02*
X156059255Y-88126274D01*
X156020268Y-86041906D02*
X156059255Y-86080893D01*
X156059255Y-88130893D02*
X156059255Y-88126274D01*
D78*
%TO.N,Net-(EC3-Pad1)*%
X151060089Y-89360034D02*
X150636734Y-88936679D01*
X140967500Y-88265000D02*
X140932500Y-88230000D01*
X142710000Y-88265000D02*
X140967500Y-88265000D01*
D74*
X152421755Y-89460893D02*
X151479255Y-89460893D01*
D78*
X142769107Y-88350893D02*
X142760000Y-88360000D01*
X140987755Y-88285255D02*
X140932500Y-88230000D01*
X149225042Y-88350893D02*
X142769107Y-88350893D01*
X151479255Y-89460893D02*
X151366362Y-89460893D01*
X150639236Y-88936698D02*
G75*
G03*
X149225042Y-88350893I-1414236J-1414202D01*
G01*
X151060107Y-89360009D02*
G75*
G03*
X151366362Y-89460892I311393J430009D01*
G01*
D71*
%TO.N,CHIP_EN*%
X147944255Y-94095893D02*
X147394255Y-93545893D01*
X147394255Y-92760893D02*
X147394255Y-92475893D01*
X149829255Y-90660893D02*
X152421755Y-90660893D01*
X147944255Y-94180893D02*
X147944255Y-94095893D01*
X147720148Y-92150000D02*
X148340148Y-92150000D01*
X147394255Y-93545893D02*
X147394255Y-92760893D01*
D74*
X130000000Y-80535000D02*
X130000000Y-82200000D01*
D71*
X147394255Y-92475893D02*
X147720148Y-92150000D01*
X148340148Y-92150000D02*
X149829255Y-90660893D01*
D74*
%TO.N,Net-(EIC1-Pad1)*%
X177722500Y-127170000D02*
X178092500Y-127540000D01*
X179217500Y-127540000D02*
X179257500Y-127500000D01*
X176702500Y-127170000D02*
X177722500Y-127170000D01*
X178092500Y-127540000D02*
X179217500Y-127540000D01*
%TO.N,Net-(EIC2-Pad1)*%
X177712500Y-128170000D02*
X178482500Y-128940000D01*
X176702500Y-128170000D02*
X177712500Y-128170000D01*
X178482500Y-128940000D02*
X179277500Y-128940000D01*
%TO.N,Net-(EIC3-Pad1)*%
X173902500Y-118670000D02*
X171317500Y-118670000D01*
X171317500Y-118670000D02*
X171277500Y-118630000D01*
%TO.N,Net-(EIC4-Pad1)*%
X179397500Y-118250000D02*
X179317500Y-118170000D01*
X179317500Y-118170000D02*
X176702500Y-118170000D01*
%TO.N,Net-(EIC5-Pad1)*%
X177662500Y-125170000D02*
X178142500Y-124690000D01*
X178142500Y-124690000D02*
X179317500Y-124690000D01*
X176702500Y-125170000D02*
X177662500Y-125170000D01*
%TO.N,Net-(EIC6-Pad1)*%
X179177500Y-126170000D02*
X179287500Y-126060000D01*
X176702500Y-126170000D02*
X179177500Y-126170000D01*
%TO.N,Net-(EIC7-Pad1)*%
X167342500Y-129490000D02*
X165462500Y-129490000D01*
X169452500Y-129630000D02*
X167482500Y-129630000D01*
X165462500Y-129490000D02*
X165332500Y-129360000D01*
X167482500Y-129630000D02*
X167342500Y-129490000D01*
%TO.N,Net-(EIC7-Pad2)*%
X164632500Y-125500000D02*
X163942500Y-125500000D01*
X163942500Y-125500000D02*
X163892500Y-125450000D01*
X164632500Y-126130000D02*
X163685000Y-127077500D01*
X165392500Y-125500000D02*
X164632500Y-125500000D01*
X165332500Y-127810000D02*
X165392500Y-127750000D01*
X164632500Y-125500000D02*
X164632500Y-126130000D01*
X165392500Y-127750000D02*
X165392500Y-125500000D01*
X163685000Y-127077500D02*
X163685000Y-127790000D01*
%TO.N,PREVGH*%
X172352500Y-126180000D02*
X171672500Y-125500000D01*
X173902500Y-126670000D02*
X172602500Y-126670000D01*
X172352500Y-126490000D02*
X172352500Y-126180000D01*
X171152500Y-126490000D02*
X171082500Y-126560000D01*
X172422500Y-126490000D02*
X172352500Y-126490000D01*
X172602500Y-126670000D02*
X172422500Y-126490000D01*
X171672500Y-125500000D02*
X167492500Y-125500000D01*
X172352500Y-126490000D02*
X171152500Y-126490000D01*
%TO.N,PREVGL*%
X172262500Y-127760000D02*
X172262500Y-129090000D01*
X171112500Y-127930000D02*
X172092500Y-127930000D01*
X172092500Y-127930000D02*
X172262500Y-127760000D01*
X172352500Y-127670000D02*
X173902500Y-127670000D01*
X172262500Y-129090000D02*
X171722500Y-129630000D01*
X171722500Y-129630000D02*
X171552500Y-129630000D01*
X172262500Y-127760000D02*
X172352500Y-127670000D01*
%TO.N,GDR*%
X162726814Y-124800000D02*
X161892500Y-124800000D01*
X175232500Y-116760000D02*
X175232500Y-115230000D01*
X168472500Y-116564314D02*
X168472500Y-119054314D01*
X175232500Y-115230000D02*
X174822500Y-114820000D01*
X169236814Y-115800000D02*
X168472500Y-116564314D01*
X170752500Y-115800000D02*
X169236814Y-115800000D01*
X176702500Y-117170000D02*
X175642500Y-117170000D01*
X175642500Y-117170000D02*
X175232500Y-116760000D01*
X168472500Y-119054314D02*
X162726814Y-124800000D01*
X174822500Y-114820000D02*
X171732500Y-114820000D01*
X171732500Y-114820000D02*
X170752500Y-115800000D01*
%TO.N,RESE*%
X161892500Y-126100000D02*
X161992500Y-126100000D01*
X169402500Y-116200000D02*
X170627500Y-116200000D01*
X168872500Y-119220000D02*
X168872500Y-116730000D01*
X168872500Y-116730000D02*
X169402500Y-116200000D01*
X172097500Y-117670000D02*
X173902500Y-117670000D01*
X170627500Y-116200000D02*
X172097500Y-117670000D01*
X161992500Y-126100000D02*
X168872500Y-119220000D01*
D71*
%TO.N,GPIO8_I2C_SDA*%
X150360000Y-105840000D02*
X150950000Y-106430000D01*
X162764255Y-96965893D02*
X163149255Y-96965893D01*
X162665026Y-105960000D02*
X165030000Y-108324974D01*
X151924636Y-94260893D02*
X152421755Y-94260893D01*
X163149255Y-96965893D02*
X163584255Y-96965893D01*
X156110000Y-128865026D02*
X156110000Y-131420000D01*
X161595949Y-98134199D02*
X162764255Y-96965893D01*
X150360000Y-105705500D02*
X150360000Y-105840000D01*
X150950000Y-106430000D02*
X151790000Y-106430000D01*
X152260000Y-105960000D02*
X162665026Y-105960000D01*
X156110000Y-131420000D02*
X154570000Y-132960000D01*
X159597099Y-97509876D02*
X159169255Y-97937720D01*
X151101762Y-95083767D02*
X151924636Y-94260893D01*
X159169255Y-97937720D02*
X159169255Y-98985893D01*
X160952561Y-98134199D02*
X161595949Y-98134199D01*
X160454255Y-97635893D02*
X160952561Y-98134199D01*
X163824255Y-96725893D02*
X163824255Y-95640893D01*
X153847487Y-135427487D02*
X153712474Y-135562500D01*
X165030000Y-119945026D02*
X156110000Y-128865026D01*
X160454255Y-97635893D02*
X160328238Y-97509876D01*
X150921314Y-95083767D02*
X151101762Y-95083767D01*
X165030000Y-108324974D02*
X165030000Y-119945026D01*
X151790000Y-106430000D02*
X152260000Y-105960000D01*
D74*
X173902500Y-119670000D02*
X172592500Y-119670000D01*
D71*
X163584255Y-96965893D02*
X163824255Y-96725893D01*
X160328238Y-97509876D02*
X159597099Y-97509876D01*
X153712474Y-135562500D02*
X152570000Y-135562500D01*
%TO.N,GPIO9_I2C_SCL*%
X160807586Y-98484199D02*
X161740924Y-98484199D01*
X165380000Y-108180000D02*
X162810000Y-105610000D01*
X151707852Y-95062296D02*
X152109255Y-94660893D01*
X162810000Y-105610000D02*
X151370000Y-105610000D01*
X164610000Y-97660000D02*
X164034107Y-98235893D01*
D74*
X178077000Y-119170000D02*
X179370000Y-120463000D01*
D71*
X154650000Y-134000000D02*
X154587500Y-134062500D01*
X152109255Y-94660893D02*
X152421755Y-94660893D01*
X166784255Y-95630893D02*
X166784255Y-96385745D01*
X160713387Y-98390000D02*
X160807586Y-98484199D01*
X166784255Y-96385745D02*
X166450000Y-96720000D01*
X165380000Y-120090000D02*
X165380000Y-108180000D01*
X166450000Y-96720000D02*
X164960000Y-96720000D01*
X164610000Y-97070000D02*
X164610000Y-97660000D01*
X160395189Y-98390000D02*
X160713387Y-98390000D01*
X159647738Y-98084876D02*
X160090065Y-98084876D01*
X154587500Y-134062500D02*
X152570000Y-134062500D01*
X156460000Y-129010000D02*
X165380000Y-120090000D01*
X154650000Y-134000000D02*
X156460000Y-132190000D01*
X164960000Y-96720000D02*
X164610000Y-97070000D01*
D74*
X176702500Y-119170000D02*
X178077000Y-119170000D01*
D71*
X151707852Y-95290143D02*
X151707852Y-95062296D01*
X164034107Y-98235893D02*
X163269255Y-98235893D01*
X161740924Y-98484199D02*
X161989229Y-98235893D01*
X161989229Y-98235893D02*
X163724157Y-98235893D01*
X151370000Y-105610000D02*
X151290000Y-105690000D01*
X159669255Y-98207126D02*
X159669255Y-98914660D01*
X156460000Y-132190000D02*
X156460000Y-129010000D01*
X160090065Y-98084876D02*
X160395189Y-98390000D01*
%TO.N,ESP2_USB_D-*%
X157559255Y-98817515D02*
X156349255Y-100027515D01*
X156349255Y-100027515D02*
X156349255Y-100340893D01*
X157259255Y-96190997D02*
X157559255Y-96490997D01*
X157559255Y-96490997D02*
X157559255Y-98817515D01*
X157259255Y-95498393D02*
X157259255Y-96190997D01*
%TO.N,ESP2_USB_D+*%
X157659255Y-96096023D02*
X157909255Y-96346023D01*
X157280000Y-100200148D02*
X157279255Y-100200893D01*
X157909255Y-96346023D02*
X157909255Y-98210893D01*
X157909255Y-98962489D02*
X157280000Y-99591744D01*
X157280000Y-99591744D02*
X157280000Y-100200148D01*
X157909255Y-98210893D02*
X157909255Y-98962489D01*
X157659255Y-95498393D02*
X157659255Y-96096023D01*
X157909255Y-98210893D02*
X157909255Y-98660893D01*
%TO.N,SPICS1_E2*%
X158459255Y-95498393D02*
X160111755Y-95498393D01*
%TO.N,SPIHD_E2*%
X161079107Y-94260893D02*
X161080000Y-94260000D01*
X159296755Y-94260893D02*
X161079107Y-94260893D01*
%TO.N,SPIWP_E2*%
X161159107Y-93860893D02*
X161160000Y-93860000D01*
X159296755Y-93860893D02*
X161159107Y-93860893D01*
%TO.N,SPICS0_E2*%
X159296755Y-93460893D02*
X161059107Y-93460893D01*
X161059107Y-93460893D02*
X161060000Y-93460000D01*
%TO.N,SPICLK_E2*%
X161160000Y-93060000D02*
X161159107Y-93060893D01*
X159296755Y-93060893D02*
X161159107Y-93060893D01*
%TO.N,SPIQ_E2*%
X159296755Y-92660893D02*
X159305862Y-92670000D01*
X159305862Y-92670000D02*
X161240000Y-92670000D01*
%TO.N,unconnected-(ESP32S1-Pad44)*%
X158274636Y-87910893D02*
X158749255Y-87910893D01*
X158059255Y-88126274D02*
X158274636Y-87910893D01*
X158059255Y-88623393D02*
X158059255Y-88126274D01*
%TO.N,unconnected-(ESP32S1-Pad45)*%
X157659255Y-88031300D02*
X158129662Y-87560893D01*
X158129662Y-87560893D02*
X158779255Y-87560893D01*
X157659255Y-88623393D02*
X157659255Y-88031300D01*
%TO.N,unconnected-(ESP32S1-Pad47)*%
X156859255Y-87330893D02*
X157259255Y-86930893D01*
X156859255Y-88623393D02*
X156859255Y-87330893D01*
%TO.N,unconnected-(ESP32S1-Pad48)*%
X156459255Y-88623393D02*
X156459255Y-86620893D01*
X156459255Y-86620893D02*
X156909255Y-86170893D01*
D75*
%TO.N,5V0F*%
X123665000Y-85575000D02*
X125230500Y-85575000D01*
X152680000Y-77170000D02*
X152680000Y-77932500D01*
X153580000Y-76270000D02*
X152680000Y-77170000D01*
X157580000Y-77932500D02*
X157580000Y-77170000D01*
X158130000Y-74780000D02*
X162410000Y-74780000D01*
X157580000Y-77170000D02*
X156660000Y-76250000D01*
X123410000Y-85320000D02*
X123665000Y-85575000D01*
X156660000Y-76250000D02*
X158130000Y-74780000D01*
D71*
%TO.N,IMU_CS_IO21*%
X158259255Y-96195512D02*
X158259255Y-97892955D01*
X160159255Y-98970893D02*
X160159255Y-99430893D01*
X158059255Y-95498393D02*
X158059255Y-96001048D01*
X160159255Y-99430893D02*
X159669255Y-99920893D01*
X158064791Y-96001048D02*
X158259255Y-96195512D01*
X158059255Y-96001048D02*
X158064791Y-96001048D01*
X158259255Y-97892955D02*
X158483755Y-98117455D01*
D75*
%TO.N,IN_ADS_A+*%
X138040000Y-111490000D02*
X136870000Y-112660000D01*
D72*
X138930000Y-111490000D02*
X138040000Y-111490000D01*
D75*
X131975000Y-112660000D02*
X131960000Y-112675000D01*
D72*
X139680000Y-112240000D02*
X138930000Y-111490000D01*
D75*
X136870000Y-112660000D02*
X131975000Y-112660000D01*
D72*
X139680000Y-112960000D02*
X139680000Y-112240000D01*
%TO.N,IN_ADS_A-*%
X135175000Y-111405000D02*
X136980000Y-109600000D01*
D75*
X131960000Y-111405000D02*
X135175000Y-111405000D01*
D72*
X136980000Y-109600000D02*
X139730000Y-109600000D01*
D74*
%TO.N,Net-(Q1-Pad1)*%
X130950000Y-76635000D02*
X131005000Y-76580000D01*
X130950000Y-78660000D02*
X130950000Y-76635000D01*
%TO.N,Net-(Q2-Pad1)*%
X134610000Y-77075000D02*
X134610000Y-78700000D01*
X134680000Y-77005000D02*
X134610000Y-77075000D01*
D71*
%TO.N,ESP_GPIO0_BOOT-DTR*%
X154808331Y-87590021D02*
X153959255Y-86740945D01*
D74*
X133660000Y-82140000D02*
X133720000Y-82200000D01*
X133660000Y-80575000D02*
X133660000Y-82140000D01*
D71*
X154069255Y-85265893D02*
X154344255Y-85265893D01*
X153959255Y-86740945D02*
X153959255Y-85375893D01*
X153959255Y-85375893D02*
X154069255Y-85265893D01*
X155014921Y-87590021D02*
X154808331Y-87590021D01*
X154859255Y-88623393D02*
X154859255Y-87630893D01*
X150449255Y-91060893D02*
X152421755Y-91060893D01*
X150129255Y-91380893D02*
X150449255Y-91060893D01*
%TO.N,RXD0*%
X155639255Y-87990893D02*
X155659255Y-88010893D01*
X155300000Y-86701638D02*
X155639255Y-87040893D01*
D74*
X136610000Y-76690000D02*
X138300000Y-75000000D01*
D71*
X155299611Y-86701638D02*
X155300000Y-86701638D01*
D74*
X136610000Y-77499500D02*
X136610000Y-76690000D01*
X138300000Y-75000000D02*
X139010000Y-75000000D01*
D71*
X155639255Y-87040893D02*
X155639255Y-87990893D01*
D74*
X125230500Y-80729500D02*
X126860000Y-79100000D01*
D71*
X155659255Y-88623393D02*
X155659255Y-88031300D01*
D74*
X125230500Y-81765000D02*
X125230500Y-80729500D01*
%TO.N,TXD0*%
X124535000Y-83035000D02*
X123880000Y-82380000D01*
X137640000Y-76850000D02*
X137640000Y-76640000D01*
X123880000Y-82380000D02*
X123880000Y-80780000D01*
D71*
X158839255Y-84125893D02*
X158839255Y-83370893D01*
D74*
X137640000Y-76640000D02*
X138280000Y-76000000D01*
X125230500Y-83035000D02*
X124535000Y-83035000D01*
D71*
X158839255Y-83370893D02*
X158829255Y-83360893D01*
D74*
X138280000Y-76000000D02*
X139010000Y-76000000D01*
X123880000Y-80780000D02*
X126770000Y-77890000D01*
D75*
%TO.N,Net-(EHC1-Pad1)*%
X141780000Y-112960000D02*
X141760000Y-112940000D01*
X141760000Y-109670000D02*
X141830000Y-109600000D01*
D72*
X143180000Y-112960000D02*
X141780000Y-112960000D01*
X141760000Y-112940000D02*
X141760000Y-109670000D01*
X145140000Y-111000000D02*
X143180000Y-112960000D01*
D74*
%TO.N,USB_D+*%
X148170000Y-77000000D02*
X150050000Y-75120000D01*
X154750000Y-78980000D02*
X155250000Y-78980000D01*
X154440000Y-77932500D02*
X154440000Y-78670000D01*
X154440000Y-78670000D02*
X154750000Y-78980000D01*
X150050000Y-75120000D02*
X153840000Y-75120000D01*
X154430000Y-75710000D02*
X154430000Y-77845000D01*
X155250000Y-78980000D02*
X155440000Y-78790000D01*
X144110000Y-77000000D02*
X148170000Y-77000000D01*
X153840000Y-75120000D02*
X154430000Y-75710000D01*
X155440000Y-78790000D02*
X155440000Y-77932500D01*
%TO.N,USB_D-*%
X148240000Y-76000000D02*
X149520000Y-74720000D01*
X155620000Y-76760000D02*
X155250000Y-76760000D01*
X155880000Y-77932500D02*
X155880000Y-77020000D01*
X154880000Y-77030000D02*
X155150000Y-76760000D01*
X155360000Y-75860000D02*
X155360000Y-76760000D01*
X144110000Y-76000000D02*
X148240000Y-76000000D01*
X155150000Y-76760000D02*
X155250000Y-76760000D01*
X154880000Y-77932500D02*
X154880000Y-77030000D01*
X154220000Y-74720000D02*
X155360000Y-75860000D01*
X149520000Y-74720000D02*
X154220000Y-74720000D01*
X155880000Y-77020000D02*
X155620000Y-76760000D01*
%TO.N,CLK_ADS_5V0*%
X131960000Y-108000000D02*
X133700000Y-106260000D01*
X131960000Y-108865000D02*
X131960000Y-108000000D01*
X133700000Y-106260000D02*
X134365000Y-106260000D01*
%TO.N,DOUT_ADS_5V0*%
X133470000Y-105260000D02*
X131200000Y-107530000D01*
X134365000Y-105260000D02*
X133470000Y-105260000D01*
X128935000Y-108865000D02*
X127020000Y-108865000D01*
X131200000Y-107530000D02*
X130270000Y-107530000D01*
X130270000Y-107530000D02*
X128935000Y-108865000D01*
%TO.N,GND_EN_ADS*%
X126005000Y-111405000D02*
X127020000Y-111405000D01*
X125650000Y-113392500D02*
X125650000Y-111760000D01*
X125650000Y-111760000D02*
X126005000Y-111405000D01*
X126790000Y-114532500D02*
X125650000Y-113392500D01*
D78*
%TO.N,Net-(ANT1-Pad1)*%
X138797000Y-88219500D02*
X134800000Y-88219500D01*
X138860000Y-87980000D02*
X138860000Y-86617500D01*
X138807500Y-88230000D02*
X138797000Y-88219500D01*
D71*
%TO.N,Net-(LED2-Pad3)*%
X157400000Y-134210000D02*
X157400000Y-131295000D01*
X157400000Y-131295000D02*
X157445000Y-131250000D01*
%TO.N,Net-(UL1-Pad8)*%
X135340000Y-103740000D02*
X134830000Y-103230000D01*
X135340000Y-104035000D02*
X135340000Y-103740000D01*
X134830000Y-103230000D02*
X133765000Y-103230000D01*
D75*
%TO.N,3V3_EN_ADS_IO01*%
X125870000Y-116437500D02*
X125677500Y-116630000D01*
D74*
X125250000Y-109870000D02*
X125250000Y-108950000D01*
X125250000Y-114225685D02*
X125250000Y-109870000D01*
D71*
X150939359Y-91460893D02*
X150330252Y-92070000D01*
D75*
X125677500Y-116630000D02*
X124385000Y-116630000D01*
D74*
X125890000Y-114865686D02*
X125250000Y-114225685D01*
X125890000Y-116417500D02*
X125890000Y-114865686D01*
D71*
X150330252Y-92070000D02*
X149540000Y-92070000D01*
D73*
X128990000Y-102430000D02*
X141190000Y-102430000D01*
D74*
X125870000Y-116437500D02*
X125890000Y-116417500D01*
D73*
X141190000Y-102430000D02*
X141210000Y-102410000D01*
X125250000Y-106170000D02*
X128990000Y-102430000D01*
X125250000Y-109870000D02*
X125250000Y-106170000D01*
D71*
X152421755Y-91460893D02*
X150939359Y-91460893D01*
D75*
X124385000Y-116630000D02*
X124200000Y-116815000D01*
D71*
%TO.N,DOUT_ADS_3V3_IO02*%
X151034333Y-91860893D02*
X150201069Y-92694157D01*
X150201069Y-92694157D02*
X148567346Y-92694157D01*
X152421755Y-91860893D02*
X151034333Y-91860893D01*
X138947027Y-104858259D02*
X138545286Y-105260000D01*
X138545286Y-105260000D02*
X137815000Y-105260000D01*
%TO.N,Net-(J1-PadA5)*%
X155600000Y-79570000D02*
X156430000Y-78740000D01*
X148075000Y-80320000D02*
X152614975Y-80320000D01*
X152614975Y-80320000D02*
X153364974Y-79570000D01*
X156430000Y-78740000D02*
X156430000Y-77845000D01*
X153364974Y-79570000D02*
X155600000Y-79570000D01*
X147945000Y-80190000D02*
X148075000Y-80320000D01*
%TO.N,Net-(J1-PadB5)*%
X149770000Y-79970000D02*
X148500000Y-78700000D01*
X153430000Y-77845000D02*
X153430000Y-79010000D01*
X148500000Y-78700000D02*
X148005000Y-78700000D01*
X153430000Y-79010000D02*
X152470000Y-79970000D01*
X152470000Y-79970000D02*
X149770000Y-79970000D01*
%TO.N,CLK_ADS2_3V3_IO07*%
X132140000Y-121540000D02*
X131820000Y-121540000D01*
X130255000Y-123040000D02*
X130255000Y-121410000D01*
X131820000Y-121540000D02*
X131210000Y-122150000D01*
X130260000Y-122150000D02*
X130260000Y-121405000D01*
X151331721Y-93860893D02*
X150975488Y-94217126D01*
X152421755Y-93860893D02*
X151331721Y-93860893D01*
X130255000Y-121410000D02*
X130305000Y-121360000D01*
X130260000Y-121405000D02*
X130305000Y-121360000D01*
X131210000Y-122150000D02*
X130260000Y-122150000D01*
%TO.N,CLK_ADS_3V3_IO05*%
X140328258Y-105674500D02*
X140305500Y-105674500D01*
X139140000Y-106260000D02*
X137815000Y-106260000D01*
X150824281Y-93060893D02*
X149605174Y-94280000D01*
X152421755Y-93060893D02*
X150824281Y-93060893D01*
X139400000Y-106000000D02*
X139140000Y-106260000D01*
X140305500Y-105674500D02*
X139980000Y-106000000D01*
X139980000Y-106000000D02*
X139400000Y-106000000D01*
X149605174Y-94280000D02*
X149010000Y-94280000D01*
D74*
%TO.N,SCLK_COMMON_3V3_IO04*%
X172432500Y-122670000D02*
X173902500Y-122670000D01*
D71*
X165730000Y-108035026D02*
X165730000Y-109940000D01*
D74*
X170960000Y-121485500D02*
X171074500Y-121600000D01*
D71*
X151673173Y-105260000D02*
X162954974Y-105260000D01*
X138990000Y-105760000D02*
X137815000Y-105760000D01*
X150729307Y-92660893D02*
X152421755Y-92660893D01*
X151512673Y-105099500D02*
X151673173Y-105260000D01*
X149990200Y-93400000D02*
X150729307Y-92660893D01*
X169325734Y-113535734D02*
X169335734Y-113535734D01*
X162954974Y-105260000D02*
X165730000Y-108035026D01*
X139395500Y-105354500D02*
X138990000Y-105760000D01*
X139842937Y-105099500D02*
X151512673Y-105099500D01*
X139587937Y-105354500D02*
X139395500Y-105354500D01*
D74*
X171074500Y-121600000D02*
X171362500Y-121600000D01*
D71*
X139587937Y-105354500D02*
X139842937Y-105099500D01*
X165730000Y-109940000D02*
X169325734Y-113535734D01*
D74*
X171362500Y-121600000D02*
X172432500Y-122670000D01*
D71*
X149410000Y-93400000D02*
X149990200Y-93400000D01*
D74*
%TO.N,LCD_MOSI_IO11*%
X177982500Y-123170000D02*
X176702500Y-123170000D01*
D71*
X159705934Y-89460893D02*
X159296755Y-89460893D01*
X160590836Y-88992160D02*
X160437996Y-89145000D01*
X160021827Y-89145000D02*
X159705934Y-89460893D01*
D74*
X178062500Y-123090000D02*
X177982500Y-123170000D01*
D71*
X160437996Y-89145000D02*
X160021827Y-89145000D01*
D74*
%TO.N,LCD_CS_IO12*%
X176892500Y-122360000D02*
X178480000Y-122360000D01*
X176702500Y-122170000D02*
X176892500Y-122360000D01*
D71*
X160049107Y-89860893D02*
X160190000Y-89720000D01*
D74*
X178480000Y-122360000D02*
X178870000Y-122750000D01*
D71*
X159296755Y-89860893D02*
X160049107Y-89860893D01*
%TO.N,LCD_RST_IO13*%
X160009255Y-91486450D02*
X160009255Y-91276274D01*
X160283754Y-91760949D02*
X160009255Y-91486450D01*
D74*
X178626027Y-121880000D02*
X178060000Y-121880000D01*
X177350000Y-121170000D02*
X176702500Y-121170000D01*
D71*
X160009255Y-91276274D02*
X159793874Y-91060893D01*
X160283754Y-91760949D02*
X160290000Y-91754703D01*
X159793874Y-91060893D02*
X159296755Y-91060893D01*
D74*
X178702649Y-121803378D02*
X178626027Y-121880000D01*
X178060000Y-121880000D02*
X177350000Y-121170000D01*
%TO.N,LCD_DC_IO14*%
X171330000Y-120810000D02*
X172190000Y-121670000D01*
X169720000Y-120810000D02*
X171330000Y-120810000D01*
D71*
X160206341Y-90660893D02*
X159296755Y-90660893D01*
D74*
X172190000Y-121670000D02*
X173902500Y-121670000D01*
D71*
X160553927Y-91008479D02*
X160206341Y-90660893D01*
%TO.N,LCD_BUSY_IO17*%
X160785000Y-90295000D02*
X160800000Y-90280000D01*
D74*
X170139650Y-120129487D02*
X171215173Y-120129487D01*
X171755686Y-120670000D02*
X173902500Y-120670000D01*
X171215173Y-120129487D02*
X171755686Y-120670000D01*
D71*
X159815000Y-90295000D02*
X160785000Y-90295000D01*
X159301440Y-90280000D02*
X159798559Y-90280000D01*
D76*
%TO.N,IN_ADS2_A*%
X134680000Y-121540000D02*
X134680000Y-120820000D01*
X134680000Y-120820000D02*
X135290000Y-120210000D01*
X135550000Y-119950000D02*
X135290000Y-120210000D01*
X135950000Y-120870000D02*
X135290000Y-120210000D01*
D72*
X150150000Y-108340000D02*
X154680000Y-108340000D01*
D76*
X135550000Y-116430000D02*
X135550000Y-119950000D01*
X135950000Y-121540000D02*
X135950000Y-120870000D01*
D72*
X147640000Y-110850000D02*
X150150000Y-108340000D01*
D76*
X137100000Y-114880000D02*
X135550000Y-116430000D01*
D72*
X147640000Y-111000000D02*
X147640000Y-110850000D01*
D76*
X147890000Y-110970000D02*
X143980000Y-114880000D01*
X143980000Y-114880000D02*
X137100000Y-114880000D01*
D72*
%TO.N,Earth*%
X161870000Y-108020000D02*
X158740000Y-108020000D01*
X169420000Y-106990000D02*
X170140000Y-106990000D01*
X158740000Y-108020000D02*
X158670000Y-107950000D01*
X173680000Y-106990000D02*
X174130000Y-106540000D01*
X169420000Y-106990000D02*
X173680000Y-106990000D01*
D74*
%TO.N,DOUT_ADS2_5V0*%
X134365000Y-106760000D02*
X134140000Y-106760000D01*
D71*
X132140000Y-126475000D02*
X132140000Y-123500000D01*
X133295000Y-107830000D02*
X133270000Y-107830000D01*
X132140000Y-123500000D02*
X132360000Y-123280000D01*
X134365000Y-106760000D02*
X133295000Y-107830000D01*
D75*
%TO.N,GND_EN_ADS2*%
X130760000Y-128500000D02*
X129090000Y-126830000D01*
X129090000Y-126830000D02*
X129090000Y-125460000D01*
X134680000Y-126480000D02*
X134680000Y-128060000D01*
X134240000Y-128500000D02*
X130760000Y-128500000D01*
X134680000Y-128060000D02*
X134240000Y-128500000D01*
X129090000Y-125460000D02*
X128377500Y-124747500D01*
X128377500Y-124747500D02*
X127050000Y-124747500D01*
D71*
%TO.N,unconnected-(ESP32S1-Pad16)*%
X153659255Y-95995512D02*
X153229374Y-96425393D01*
X153659255Y-95498393D02*
X153659255Y-95995512D01*
X153229374Y-96425393D02*
X152647806Y-96425393D01*
%TO.N,unconnected-(ESP32S1-Pad17)*%
X154059255Y-95498393D02*
X154059255Y-96090486D01*
X154059255Y-96090486D02*
X153139255Y-97010486D01*
%TO.N,unconnected-(ESP32S1-Pad43)*%
X158459255Y-88623393D02*
X159750889Y-88623393D01*
X159750889Y-88623393D02*
X159956622Y-88417660D01*
D74*
%TO.N,SCLK_ADS_COMMON_5V0*%
X133634314Y-105760000D02*
X131464314Y-107930000D01*
D71*
X123110000Y-111350000D02*
X124195000Y-110265000D01*
D74*
X128525000Y-110135000D02*
X127020000Y-110135000D01*
D71*
X129730000Y-125370000D02*
X127680000Y-123320000D01*
X133410000Y-127770000D02*
X133105000Y-128075000D01*
X124370000Y-123320000D02*
X123110000Y-122060000D01*
X133410000Y-126475000D02*
X133410000Y-127770000D01*
X127680000Y-123320000D02*
X124370000Y-123320000D01*
X123110000Y-122060000D02*
X123110000Y-111350000D01*
D74*
X131464314Y-107930000D02*
X130730000Y-107930000D01*
D71*
X133105000Y-128075000D02*
X130936040Y-128075000D01*
X129730000Y-126868960D02*
X129730000Y-125370000D01*
X130936040Y-128075000D02*
X129730000Y-126868960D01*
D74*
X130730000Y-107930000D02*
X128525000Y-110135000D01*
X134365000Y-105760000D02*
X133634314Y-105760000D01*
D71*
%TO.N,DOUT_ADS2_3V3_IO06*%
X139830000Y-106760000D02*
X137815000Y-106760000D01*
X150919107Y-93460893D02*
X149450000Y-94930000D01*
X152421755Y-93460893D02*
X150919107Y-93460893D01*
X139980000Y-106610000D02*
X139830000Y-106760000D01*
%TO.N,LED_R_IO13*%
X154459255Y-95498393D02*
X154459255Y-96185460D01*
X159110000Y-128240000D02*
X159095000Y-128255000D01*
X154459255Y-96185460D02*
X154094755Y-96549960D01*
X154094755Y-96549960D02*
X154094755Y-96895393D01*
X159095000Y-128255000D02*
X159095000Y-131250000D01*
%TO.N,LED_G_IO14*%
X159220000Y-134360000D02*
X158360000Y-135220000D01*
X159220000Y-133515026D02*
X159220000Y-134360000D01*
X159850000Y-128860000D02*
X159850000Y-129310000D01*
X154859255Y-96280435D02*
X154859255Y-95498393D01*
X158360000Y-135220000D02*
X157450000Y-135220000D01*
X154669255Y-97581393D02*
X154669255Y-96470435D01*
X159850000Y-129310000D02*
X160507500Y-129967500D01*
X160507500Y-132227526D02*
X159220000Y-133515026D01*
X154669255Y-96470435D02*
X154859255Y-96280435D01*
X160507500Y-129967500D02*
X160507500Y-132227526D01*
%TO.N,LED_B_IO17*%
X159970000Y-135360000D02*
X160580000Y-135360000D01*
X160857500Y-129152500D02*
X160857500Y-132372500D01*
X159570000Y-134960000D02*
X159970000Y-135360000D01*
X155039255Y-100347567D02*
X155039255Y-100780893D01*
X156459255Y-96380945D02*
X156844255Y-96765945D01*
X156844255Y-96765945D02*
X156844255Y-97885893D01*
X156844255Y-98542567D02*
X155039255Y-100347567D01*
X156459255Y-95498393D02*
X156459255Y-96380945D01*
X159570000Y-133660000D02*
X159570000Y-134960000D01*
X156844255Y-97885893D02*
X156844255Y-98542567D01*
X160857500Y-132372500D02*
X159570000Y-133660000D01*
X156844255Y-97885893D02*
X156844255Y-98440893D01*
%TO.N,3V3_EN_ADS2_IO10*%
X126140000Y-126400000D02*
X125642500Y-125902500D01*
X126140000Y-127135000D02*
X126140000Y-126400000D01*
X125642500Y-125902500D02*
X124640000Y-125902500D01*
X153259255Y-95498393D02*
X153259255Y-95840893D01*
X153259255Y-95840893D02*
X153249255Y-95850893D01*
X127438767Y-123894500D02*
X126585500Y-123894500D01*
X153249255Y-95850893D02*
X152147571Y-95850893D01*
X152147571Y-95850893D02*
X151924243Y-96074221D01*
X126585500Y-123894500D02*
X124640000Y-125840000D01*
X124640000Y-125840000D02*
X124640000Y-125902500D01*
%TD*%
%TA.AperFunction,Conductor*%
%TO.N,Earth*%
G36*
X159655675Y-106355502D02*
G01*
X159702168Y-106409158D01*
X159713549Y-106460410D01*
X159778882Y-114015267D01*
X159759470Y-114083559D01*
X159706218Y-114130514D01*
X159652312Y-114142356D01*
X145792286Y-114079140D01*
X145724258Y-114058827D01*
X145678010Y-114004960D01*
X145668227Y-113934641D01*
X145698014Y-113870195D01*
X145703743Y-113864070D01*
X147496136Y-112071676D01*
X147558446Y-112037652D01*
X147608375Y-112036918D01*
X147788024Y-112070500D01*
X147788027Y-112070500D01*
X147991974Y-112070500D01*
X147991976Y-112070500D01*
X148192456Y-112033024D01*
X148382637Y-111959348D01*
X148556041Y-111851981D01*
X148706764Y-111714579D01*
X148829673Y-111551821D01*
X148920582Y-111369250D01*
X148976397Y-111173083D01*
X148995215Y-110970000D01*
X148976397Y-110766917D01*
X148920582Y-110570750D01*
X148889275Y-110507877D01*
X148876818Y-110437985D01*
X148904125Y-110372450D01*
X148912953Y-110362641D01*
X150343193Y-108932402D01*
X150405503Y-108898379D01*
X150432286Y-108895500D01*
X152541377Y-108895500D01*
X152609498Y-108915502D01*
X152655991Y-108969158D01*
X152666095Y-109039432D01*
X152650496Y-109084500D01*
X152564450Y-109233535D01*
X152564447Y-109233542D01*
X152504655Y-109417562D01*
X152484430Y-109610000D01*
X152504655Y-109802437D01*
X152564447Y-109986457D01*
X152564451Y-109986465D01*
X152661195Y-110154032D01*
X152661196Y-110154034D01*
X152661198Y-110154036D01*
X152756882Y-110260304D01*
X152790673Y-110297833D01*
X152947210Y-110411564D01*
X152947212Y-110411565D01*
X152947215Y-110411567D01*
X153123983Y-110490269D01*
X153313252Y-110530500D01*
X153313256Y-110530500D01*
X153506744Y-110530500D01*
X153506748Y-110530500D01*
X153696017Y-110490269D01*
X153872785Y-110411567D01*
X154029327Y-110297833D01*
X154158802Y-110154036D01*
X154255550Y-109986463D01*
X154315344Y-109802437D01*
X154335570Y-109610000D01*
X154315344Y-109417563D01*
X154308088Y-109395234D01*
X154306061Y-109324268D01*
X154342723Y-109263470D01*
X154406435Y-109232144D01*
X154454116Y-109233050D01*
X154583252Y-109260500D01*
X154583256Y-109260500D01*
X154776744Y-109260500D01*
X154776748Y-109260500D01*
X154905882Y-109233051D01*
X154976671Y-109238453D01*
X155033303Y-109281270D01*
X155057797Y-109347907D01*
X155051911Y-109395232D01*
X155044655Y-109417563D01*
X155024430Y-109609999D01*
X155044655Y-109802437D01*
X155104447Y-109986457D01*
X155104451Y-109986465D01*
X155201195Y-110154032D01*
X155201196Y-110154034D01*
X155201198Y-110154036D01*
X155296882Y-110260304D01*
X155330673Y-110297833D01*
X155487210Y-110411564D01*
X155487212Y-110411565D01*
X155487215Y-110411567D01*
X155663983Y-110490269D01*
X155853252Y-110530500D01*
X155853256Y-110530500D01*
X156046744Y-110530500D01*
X156046748Y-110530500D01*
X156236017Y-110490269D01*
X156412785Y-110411567D01*
X156569327Y-110297833D01*
X156698802Y-110154036D01*
X156795550Y-109986463D01*
X156855344Y-109802437D01*
X156875570Y-109610000D01*
X156855344Y-109417563D01*
X156855344Y-109417562D01*
X156795552Y-109233542D01*
X156795548Y-109233535D01*
X156730523Y-109120906D01*
X156698804Y-109065967D01*
X156698803Y-109065966D01*
X156698802Y-109065964D01*
X156569327Y-108922167D01*
X156569326Y-108922166D01*
X156412789Y-108808435D01*
X156236017Y-108729731D01*
X156236017Y-108729730D01*
X156046748Y-108689500D01*
X155853252Y-108689500D01*
X155792166Y-108702484D01*
X155724118Y-108716948D01*
X155653327Y-108711545D01*
X155596695Y-108668728D01*
X155572202Y-108602091D01*
X155578090Y-108554762D01*
X155585344Y-108532437D01*
X155586300Y-108523338D01*
X155605570Y-108340000D01*
X155585344Y-108147563D01*
X155578088Y-108125234D01*
X155576061Y-108054268D01*
X155612723Y-107993470D01*
X155676435Y-107962144D01*
X155724116Y-107963050D01*
X155853252Y-107990500D01*
X155853256Y-107990500D01*
X156046744Y-107990500D01*
X156046748Y-107990500D01*
X156236017Y-107950269D01*
X156412785Y-107871567D01*
X156569327Y-107757833D01*
X156698802Y-107614036D01*
X156795550Y-107446463D01*
X156855344Y-107262437D01*
X156875570Y-107070000D01*
X156855344Y-106877563D01*
X156833511Y-106810367D01*
X156795552Y-106693542D01*
X156795550Y-106693537D01*
X156697957Y-106524499D01*
X156681220Y-106455504D01*
X156704441Y-106388412D01*
X156760248Y-106344525D01*
X156807077Y-106335500D01*
X159587554Y-106335500D01*
X159655675Y-106355502D01*
G37*
%TD.AperFunction*%
%TA.AperFunction,Conductor*%
G36*
X149930984Y-106133860D02*
G01*
X149940257Y-106140334D01*
X150057159Y-106230036D01*
X150203238Y-106290544D01*
X150248663Y-106296524D01*
X150313591Y-106325246D01*
X150321313Y-106332351D01*
X150647702Y-106658740D01*
X150664089Y-106678918D01*
X150669915Y-106687836D01*
X150697878Y-106709600D01*
X150703725Y-106714763D01*
X150706482Y-106717520D01*
X150725495Y-106731094D01*
X150768811Y-106764809D01*
X150768815Y-106764810D01*
X150775742Y-106768559D01*
X150782795Y-106772007D01*
X150782798Y-106772007D01*
X150782801Y-106772010D01*
X150835403Y-106787670D01*
X150887340Y-106805500D01*
X150887342Y-106805500D01*
X150895081Y-106806792D01*
X150902912Y-106807768D01*
X150957756Y-106805500D01*
X151737989Y-106805500D01*
X151763847Y-106808181D01*
X151774268Y-106810367D01*
X151809436Y-106805983D01*
X151817226Y-106805500D01*
X151821107Y-106805500D01*
X151821114Y-106805500D01*
X151844140Y-106801657D01*
X151898626Y-106794866D01*
X151898627Y-106794865D01*
X151898630Y-106794865D01*
X151906136Y-106792630D01*
X151913604Y-106790065D01*
X151913610Y-106790065D01*
X151961877Y-106763944D01*
X152011211Y-106739826D01*
X152011213Y-106739823D01*
X152017603Y-106735261D01*
X152023819Y-106730422D01*
X152023826Y-106730419D01*
X152061008Y-106690028D01*
X152378632Y-106372404D01*
X152440945Y-106338379D01*
X152467728Y-106335500D01*
X152552923Y-106335500D01*
X152621044Y-106355502D01*
X152667537Y-106409158D01*
X152677641Y-106479432D01*
X152662043Y-106524499D01*
X152564449Y-106693537D01*
X152564447Y-106693542D01*
X152504655Y-106877562D01*
X152484430Y-107070000D01*
X152504655Y-107262437D01*
X152564447Y-107446457D01*
X152564450Y-107446464D01*
X152650496Y-107595500D01*
X152667234Y-107664496D01*
X152644013Y-107731587D01*
X152588206Y-107775474D01*
X152541377Y-107784500D01*
X150159495Y-107784500D01*
X150092659Y-107782217D01*
X150049285Y-107792785D01*
X150042946Y-107793990D01*
X149998723Y-107800068D01*
X149998716Y-107800070D01*
X149982171Y-107807257D01*
X149961813Y-107814103D01*
X149944295Y-107818372D01*
X149905390Y-107840246D01*
X149899614Y-107843115D01*
X149858657Y-107860906D01*
X149858655Y-107860907D01*
X149844668Y-107872287D01*
X149826910Y-107884373D01*
X149811195Y-107893209D01*
X149811193Y-107893211D01*
X149779623Y-107924779D01*
X149774834Y-107929101D01*
X149740204Y-107957275D01*
X149740201Y-107957278D01*
X149729800Y-107972013D01*
X149715960Y-107988442D01*
X147871807Y-109832596D01*
X147809497Y-109866620D01*
X147793764Y-109868311D01*
X147793825Y-109868962D01*
X147788032Y-109869498D01*
X147587542Y-109906976D01*
X147440189Y-109964060D01*
X147397363Y-109980652D01*
X147397362Y-109980652D01*
X147397361Y-109980653D01*
X147397351Y-109980658D01*
X147223960Y-110088017D01*
X147223959Y-110088018D01*
X147073234Y-110225421D01*
X146950329Y-110388175D01*
X146859416Y-110570754D01*
X146803603Y-110766915D01*
X146785373Y-110963657D01*
X146784785Y-110970000D01*
X146792665Y-111055039D01*
X146803603Y-111173084D01*
X146822213Y-111238490D01*
X146821617Y-111309484D01*
X146790118Y-111362066D01*
X146607382Y-111544802D01*
X146545070Y-111578828D01*
X146474255Y-111573763D01*
X146417419Y-111531216D01*
X146392608Y-111464696D01*
X146405496Y-111399546D01*
X146420582Y-111369250D01*
X146476397Y-111173083D01*
X146495215Y-110970000D01*
X146476397Y-110766917D01*
X146420582Y-110570750D01*
X146329673Y-110388179D01*
X146310373Y-110362621D01*
X146206765Y-110225421D01*
X146056040Y-110088018D01*
X146056039Y-110088017D01*
X145882648Y-109980658D01*
X145882641Y-109980654D01*
X145882637Y-109980652D01*
X145766132Y-109935518D01*
X145692457Y-109906976D01*
X145625629Y-109894484D01*
X145491976Y-109869500D01*
X145288024Y-109869500D01*
X145187783Y-109888238D01*
X145087542Y-109906976D01*
X144940189Y-109964060D01*
X144897363Y-109980652D01*
X144897362Y-109980652D01*
X144897361Y-109980653D01*
X144897351Y-109980658D01*
X144723960Y-110088017D01*
X144723959Y-110088018D01*
X144573234Y-110225421D01*
X144450329Y-110388175D01*
X144359416Y-110570754D01*
X144303603Y-110766915D01*
X144303602Y-110766917D01*
X144303603Y-110766917D01*
X144285564Y-110961599D01*
X144284785Y-110970002D01*
X144287775Y-111002278D01*
X144274141Y-111071953D01*
X144251407Y-111102995D01*
X142986807Y-112367596D01*
X142924497Y-112401620D01*
X142897714Y-112404500D01*
X142441500Y-112404500D01*
X142373379Y-112384498D01*
X142326886Y-112330842D01*
X142315500Y-112278500D01*
X142315500Y-110126661D01*
X142335502Y-110058540D01*
X142352401Y-110037569D01*
X142382206Y-110007765D01*
X142427585Y-109904991D01*
X142430500Y-109879865D01*
X142430499Y-109340136D01*
X142427585Y-109315009D01*
X142394828Y-109240821D01*
X142382206Y-109212234D01*
X142302767Y-109132795D01*
X142302765Y-109132794D01*
X142199989Y-109087414D01*
X142199990Y-109087414D01*
X142174868Y-109084500D01*
X141485140Y-109084500D01*
X141485133Y-109084501D01*
X141460009Y-109087414D01*
X141460005Y-109087416D01*
X141357234Y-109132793D01*
X141277795Y-109212232D01*
X141277794Y-109212234D01*
X141232414Y-109315009D01*
X141229500Y-109340129D01*
X141229500Y-109487101D01*
X141224828Y-109521094D01*
X141204500Y-109593644D01*
X141204500Y-112638411D01*
X141193765Y-112689303D01*
X141182414Y-112715009D01*
X141179500Y-112740130D01*
X141179500Y-113279859D01*
X141179501Y-113279866D01*
X141182414Y-113304990D01*
X141182416Y-113304994D01*
X141227793Y-113407765D01*
X141307232Y-113487204D01*
X141307234Y-113487205D01*
X141307235Y-113487206D01*
X141410009Y-113532585D01*
X141435135Y-113535500D01*
X142124864Y-113535499D01*
X142149991Y-113532585D01*
X142159333Y-113528459D01*
X142164371Y-113526236D01*
X142215265Y-113515500D01*
X143170488Y-113515500D01*
X143237341Y-113517784D01*
X143280711Y-113507213D01*
X143287053Y-113506008D01*
X143331281Y-113499930D01*
X143347828Y-113492742D01*
X143368186Y-113485896D01*
X143385703Y-113481628D01*
X143424614Y-113459749D01*
X143430379Y-113456885D01*
X143471343Y-113439093D01*
X143485326Y-113427715D01*
X143503092Y-113415623D01*
X143518809Y-113406787D01*
X143550370Y-113375224D01*
X143555163Y-113370899D01*
X143589797Y-113342723D01*
X143600200Y-113327983D01*
X143614037Y-113311557D01*
X144888959Y-112036634D01*
X144951269Y-112002611D01*
X145022084Y-112007675D01*
X145023550Y-112008232D01*
X145087544Y-112033024D01*
X145288024Y-112070500D01*
X145288026Y-112070500D01*
X145491974Y-112070500D01*
X145491976Y-112070500D01*
X145692456Y-112033024D01*
X145832038Y-111978949D01*
X145902782Y-111972993D01*
X145965518Y-112006230D01*
X146000326Y-112068108D01*
X145996154Y-112138982D01*
X145966648Y-112185536D01*
X144117993Y-114034191D01*
X144055681Y-114068217D01*
X144028323Y-114071095D01*
X134103838Y-114025829D01*
X134035810Y-114005516D01*
X134015318Y-113988925D01*
X133513342Y-113486949D01*
X133479316Y-113424637D01*
X133476445Y-113396564D01*
X133478108Y-113235198D01*
X133498811Y-113167290D01*
X133552943Y-113121353D01*
X133604101Y-113110500D01*
X136841157Y-113110500D01*
X136848211Y-113110895D01*
X136887035Y-113115270D01*
X136887035Y-113115269D01*
X136887036Y-113115270D01*
X136887036Y-113115269D01*
X136912397Y-113110470D01*
X136945478Y-113104212D01*
X136976636Y-113099515D01*
X137004287Y-113095348D01*
X137004295Y-113095343D01*
X137012472Y-113092821D01*
X137020472Y-113090023D01*
X137073073Y-113062222D01*
X137090484Y-113053836D01*
X137126642Y-113036425D01*
X137126646Y-113036421D01*
X137133685Y-113031622D01*
X137140531Y-113026569D01*
X137140538Y-113026566D01*
X137182599Y-112984504D01*
X137226194Y-112944055D01*
X137226197Y-112944048D01*
X137232081Y-112936672D01*
X137232762Y-112937215D01*
X137242219Y-112924883D01*
X137694039Y-112473063D01*
X137756349Y-112439039D01*
X137806281Y-112438305D01*
X137818024Y-112440500D01*
X137818027Y-112440500D01*
X138021974Y-112440500D01*
X138021976Y-112440500D01*
X138222456Y-112403024D01*
X138412637Y-112329348D01*
X138586041Y-112221981D01*
X138586043Y-112221979D01*
X138586046Y-112221977D01*
X138649015Y-112164573D01*
X138712831Y-112133461D01*
X138783338Y-112141790D01*
X138822996Y-112168592D01*
X139087595Y-112433191D01*
X139121621Y-112495503D01*
X139124500Y-112522286D01*
X139124500Y-112593115D01*
X139113764Y-112644008D01*
X139082415Y-112715007D01*
X139082414Y-112715008D01*
X139079500Y-112740130D01*
X139079500Y-113279859D01*
X139079501Y-113279866D01*
X139082414Y-113304990D01*
X139082416Y-113304994D01*
X139127793Y-113407765D01*
X139207232Y-113487204D01*
X139207234Y-113487205D01*
X139207235Y-113487206D01*
X139310009Y-113532585D01*
X139335135Y-113535500D01*
X140024864Y-113535499D01*
X140049991Y-113532585D01*
X140152765Y-113487206D01*
X140232206Y-113407765D01*
X140277585Y-113304991D01*
X140280500Y-113279865D01*
X140280499Y-112740136D01*
X140277585Y-112715009D01*
X140246236Y-112644009D01*
X140235500Y-112593115D01*
X140235500Y-112249493D01*
X140237783Y-112182658D01*
X140228221Y-112143420D01*
X140227216Y-112139296D01*
X140226010Y-112132954D01*
X140224038Y-112118609D01*
X140219930Y-112088719D01*
X140212743Y-112072172D01*
X140205895Y-112051808D01*
X140201628Y-112034297D01*
X140179745Y-111995377D01*
X140176882Y-111989611D01*
X140159093Y-111948657D01*
X140147713Y-111934670D01*
X140135625Y-111916910D01*
X140126787Y-111901191D01*
X140095217Y-111869621D01*
X140090902Y-111864839D01*
X140070078Y-111839244D01*
X140062723Y-111830203D01*
X140047987Y-111819801D01*
X140031559Y-111805963D01*
X139329512Y-111103916D01*
X139283866Y-111055041D01*
X139283865Y-111055040D01*
X139283864Y-111055039D01*
X139245719Y-111031843D01*
X139240382Y-111028210D01*
X139204816Y-111001240D01*
X139188037Y-110994622D01*
X139168805Y-110985070D01*
X139153394Y-110975699D01*
X139153388Y-110975697D01*
X139110415Y-110963657D01*
X139104296Y-110961599D01*
X139062759Y-110945218D01*
X139044809Y-110943373D01*
X139023703Y-110939361D01*
X138998053Y-110932174D01*
X138998615Y-110930168D01*
X138944335Y-110905783D01*
X138913467Y-110866214D01*
X138859673Y-110758179D01*
X138859670Y-110758175D01*
X138736765Y-110595421D01*
X138586040Y-110458018D01*
X138586039Y-110458017D01*
X138473970Y-110388627D01*
X138426582Y-110335760D01*
X138415299Y-110265666D01*
X138443703Y-110200599D01*
X138502776Y-110161217D01*
X138540300Y-110155500D01*
X139768000Y-110155500D01*
X139768013Y-110155499D01*
X139889821Y-110138757D01*
X139889837Y-110138878D01*
X139914414Y-110135499D01*
X140074860Y-110135499D01*
X140074864Y-110135499D01*
X140099991Y-110132585D01*
X140202765Y-110087206D01*
X140282206Y-110007765D01*
X140327585Y-109904991D01*
X140330500Y-109879865D01*
X140330499Y-109340136D01*
X140327585Y-109315009D01*
X140294828Y-109240821D01*
X140282206Y-109212234D01*
X140202767Y-109132795D01*
X140202765Y-109132794D01*
X140099989Y-109087414D01*
X140099990Y-109087414D01*
X140074870Y-109084500D01*
X140074865Y-109084500D01*
X139966433Y-109084500D01*
X139932439Y-109079828D01*
X139806352Y-109044500D01*
X139806351Y-109044500D01*
X136989494Y-109044500D01*
X136922658Y-109042217D01*
X136879284Y-109052785D01*
X136872946Y-109053990D01*
X136828720Y-109060069D01*
X136828717Y-109060070D01*
X136812166Y-109067258D01*
X136791818Y-109074101D01*
X136774297Y-109078371D01*
X136774295Y-109078372D01*
X136735394Y-109100244D01*
X136729616Y-109103114D01*
X136688657Y-109120906D01*
X136674656Y-109132296D01*
X136656905Y-109144377D01*
X136641192Y-109153212D01*
X136641188Y-109153215D01*
X136609630Y-109184773D01*
X136604841Y-109189095D01*
X136570204Y-109217275D01*
X136570202Y-109217277D01*
X136559799Y-109232015D01*
X136545958Y-109248445D01*
X135591808Y-110202595D01*
X135529496Y-110236621D01*
X135502713Y-110239500D01*
X135318024Y-110239500D01*
X135217784Y-110258238D01*
X135117542Y-110276976D01*
X134970189Y-110334060D01*
X134927363Y-110350652D01*
X134927362Y-110350652D01*
X134927361Y-110350653D01*
X134927351Y-110350658D01*
X134753960Y-110458017D01*
X134753959Y-110458018D01*
X134603234Y-110595421D01*
X134480328Y-110758176D01*
X134480327Y-110758179D01*
X134417345Y-110884663D01*
X134369078Y-110936726D01*
X134304556Y-110954500D01*
X133628928Y-110954500D01*
X133560807Y-110934498D01*
X133514314Y-110880842D01*
X133502935Y-110827203D01*
X133504819Y-110644458D01*
X133525522Y-110576550D01*
X133579654Y-110530613D01*
X133611106Y-110521310D01*
X133615304Y-110520646D01*
X133634910Y-110510655D01*
X133653161Y-110503095D01*
X133674090Y-110496296D01*
X133691891Y-110483362D01*
X133708741Y-110473036D01*
X133728342Y-110463050D01*
X133743718Y-110447672D01*
X133743729Y-110447664D01*
X135652667Y-108538727D01*
X135652675Y-108538716D01*
X135668050Y-108523342D01*
X135678036Y-108503741D01*
X135688362Y-108486891D01*
X135701296Y-108469090D01*
X135708095Y-108448161D01*
X135715655Y-108429910D01*
X135725646Y-108410304D01*
X135729088Y-108388569D01*
X135733700Y-108369360D01*
X135740500Y-108348433D01*
X135740500Y-108221567D01*
X135740500Y-108221566D01*
X135740500Y-108090559D01*
X135751235Y-108039666D01*
X135777585Y-107979991D01*
X135780500Y-107954865D01*
X135780499Y-107211498D01*
X135800501Y-107143378D01*
X135854157Y-107096885D01*
X135906499Y-107085499D01*
X136273500Y-107085499D01*
X136341621Y-107105501D01*
X136388114Y-107159157D01*
X136399500Y-107211499D01*
X136399500Y-107954859D01*
X136399501Y-107954866D01*
X136402414Y-107979990D01*
X136402416Y-107979994D01*
X136447793Y-108082765D01*
X136527232Y-108162204D01*
X136527234Y-108162205D01*
X136527235Y-108162206D01*
X136630009Y-108207585D01*
X136630008Y-108207585D01*
X136634478Y-108208103D01*
X136655135Y-108210500D01*
X137024864Y-108210499D01*
X137049991Y-108207585D01*
X137152765Y-108162206D01*
X137232206Y-108082765D01*
X137277585Y-107979991D01*
X137277585Y-107979984D01*
X137278011Y-107978424D01*
X137278954Y-107976890D01*
X137281413Y-107971321D01*
X137282171Y-107971656D01*
X137315194Y-107917943D01*
X137379172Y-107887166D01*
X137399592Y-107885500D01*
X138107741Y-107885500D01*
X138175862Y-107905502D01*
X138184445Y-107911538D01*
X138308543Y-108006762D01*
X138312159Y-108009536D01*
X138458238Y-108070044D01*
X138615000Y-108090682D01*
X138771762Y-108070044D01*
X138917841Y-108009536D01*
X139043282Y-107913282D01*
X139043281Y-107913282D01*
X139045555Y-107911538D01*
X139111775Y-107885937D01*
X139122259Y-107885500D01*
X140338431Y-107885500D01*
X140338433Y-107885500D01*
X140359360Y-107878700D01*
X140378569Y-107874088D01*
X140400304Y-107870646D01*
X140419910Y-107860655D01*
X140438161Y-107853095D01*
X140459090Y-107846296D01*
X140476891Y-107833362D01*
X140493741Y-107823036D01*
X140513342Y-107813050D01*
X140528717Y-107797673D01*
X140528726Y-107797667D01*
X140732960Y-107593433D01*
X141950574Y-106375816D01*
X142012885Y-106341793D01*
X142023216Y-106339992D01*
X142136762Y-106325044D01*
X142282841Y-106264536D01*
X142381682Y-106188692D01*
X142447901Y-106163092D01*
X142457516Y-106162660D01*
X149862735Y-106114303D01*
X149930984Y-106133860D01*
G37*
%TD.AperFunction*%
%TD*%
%TA.AperFunction,Conductor*%
%TO.N,GND*%
G36*
X139557695Y-87108214D02*
G01*
X139614532Y-87150759D01*
X139620907Y-87160124D01*
X139681109Y-87257728D01*
X139681114Y-87257734D01*
X139802265Y-87378885D01*
X139802271Y-87378890D01*
X139948115Y-87468847D01*
X140110758Y-87522742D01*
X140110771Y-87522744D01*
X140211598Y-87533046D01*
X140277333Y-87559868D01*
X140318132Y-87617971D01*
X140321041Y-87688908D01*
X140311063Y-87715587D01*
X140310049Y-87717577D01*
X140294500Y-87815755D01*
X140294500Y-88644244D01*
X140310048Y-88742418D01*
X140370341Y-88860751D01*
X140464248Y-88954658D01*
X140523414Y-88984804D01*
X140582580Y-89014951D01*
X140680754Y-89030500D01*
X140680756Y-89030500D01*
X141184244Y-89030500D01*
X141184246Y-89030500D01*
X141282420Y-89014951D01*
X141400751Y-88954658D01*
X141494658Y-88860751D01*
X141554951Y-88742420D01*
X141556634Y-88731789D01*
X141587047Y-88667636D01*
X141647316Y-88630109D01*
X141681084Y-88625500D01*
X141974278Y-88625500D01*
X142042399Y-88645502D01*
X142086544Y-88694296D01*
X142092296Y-88705585D01*
X142105647Y-88731789D01*
X142111472Y-88743220D01*
X142206780Y-88838528D01*
X142326874Y-88899719D01*
X142426512Y-88915500D01*
X142426515Y-88915500D01*
X142993485Y-88915500D01*
X142993488Y-88915500D01*
X143093126Y-88899719D01*
X143213220Y-88838528D01*
X143303451Y-88748297D01*
X143365763Y-88714272D01*
X143392546Y-88711393D01*
X143821418Y-88711393D01*
X143889539Y-88731395D01*
X143936032Y-88785051D01*
X143946136Y-88855325D01*
X143921380Y-88914097D01*
X143898917Y-88943370D01*
X143898912Y-88943378D01*
X143837649Y-89091281D01*
X143822000Y-89210150D01*
X143822000Y-95450000D01*
X144526413Y-95450000D01*
X144526658Y-95850000D01*
X143822000Y-95850000D01*
X143822000Y-101254260D01*
X143801998Y-101322381D01*
X143748342Y-101368874D01*
X143697552Y-101380250D01*
X122572592Y-101640392D01*
X122504230Y-101621231D01*
X122457080Y-101568152D01*
X122445044Y-101515455D01*
X122427154Y-99368619D01*
X122446588Y-99300337D01*
X122499854Y-99253399D01*
X122552773Y-99241573D01*
X136530000Y-99200000D01*
X136541066Y-95838614D01*
X136564550Y-88705585D01*
X136584776Y-88637531D01*
X136638584Y-88591215D01*
X136690549Y-88580000D01*
X138051710Y-88580000D01*
X138119831Y-88600002D01*
X138166324Y-88653658D01*
X138176159Y-88686290D01*
X138185048Y-88742418D01*
X138245341Y-88860751D01*
X138339248Y-88954658D01*
X138398414Y-88984804D01*
X138457580Y-89014951D01*
X138555754Y-89030500D01*
X138555756Y-89030500D01*
X139059244Y-89030500D01*
X139059246Y-89030500D01*
X139157420Y-89014951D01*
X139275751Y-88954658D01*
X139369658Y-88860751D01*
X139429951Y-88742420D01*
X139445500Y-88644246D01*
X139445500Y-87815754D01*
X139429951Y-87717580D01*
X139385470Y-87630281D01*
X139369658Y-87599248D01*
X139275752Y-87505342D01*
X139272435Y-87502932D01*
X139269380Y-87498970D01*
X139268740Y-87498330D01*
X139268822Y-87498247D01*
X139229083Y-87446708D01*
X139220500Y-87400999D01*
X139220500Y-87323936D01*
X139240502Y-87255815D01*
X139289298Y-87211669D01*
X139293124Y-87209719D01*
X139293126Y-87209719D01*
X139413220Y-87148528D01*
X139424572Y-87137175D01*
X139486879Y-87103151D01*
X139557695Y-87108214D01*
G37*
%TD.AperFunction*%
%TA.AperFunction,Conductor*%
G36*
X144520000Y-84990000D02*
G01*
X144520166Y-85260000D01*
X143802000Y-85260000D01*
X143802000Y-86014549D01*
X143781998Y-86082670D01*
X143728342Y-86129163D01*
X143658068Y-86139267D01*
X143593488Y-86109773D01*
X143568759Y-86080696D01*
X143538890Y-86032271D01*
X143538885Y-86032265D01*
X143417734Y-85911114D01*
X143417728Y-85911109D01*
X143271884Y-85821152D01*
X143109241Y-85767257D01*
X143109229Y-85767255D01*
X143008852Y-85757000D01*
X142964000Y-85757000D01*
X142964000Y-86843000D01*
X142943998Y-86911121D01*
X142890342Y-86957614D01*
X142838000Y-86969000D01*
X141727000Y-86969000D01*
X141727000Y-86988852D01*
X141737255Y-87089229D01*
X141737257Y-87089241D01*
X141791152Y-87251884D01*
X141881109Y-87397728D01*
X141881114Y-87397734D01*
X142002265Y-87518885D01*
X142002274Y-87518892D01*
X142099874Y-87579092D01*
X142147353Y-87631877D01*
X142158756Y-87701952D01*
X142130464Y-87767068D01*
X142122826Y-87775426D01*
X142111472Y-87786780D01*
X142111471Y-87786780D01*
X142096144Y-87816863D01*
X142089022Y-87830842D01*
X142086545Y-87835703D01*
X142037797Y-87887318D01*
X141974278Y-87904500D01*
X141692170Y-87904500D01*
X141624049Y-87884498D01*
X141577556Y-87830842D01*
X141567721Y-87798210D01*
X141564112Y-87775426D01*
X141554951Y-87717580D01*
X141510470Y-87630281D01*
X141494658Y-87599248D01*
X141400753Y-87505343D01*
X141400748Y-87505339D01*
X141317135Y-87462736D01*
X141265520Y-87413988D01*
X141248455Y-87345073D01*
X141271356Y-87277871D01*
X141285249Y-87261370D01*
X141288887Y-87257731D01*
X141288890Y-87257728D01*
X141378847Y-87111884D01*
X141432742Y-86949241D01*
X141432744Y-86949229D01*
X141442999Y-86848852D01*
X141443000Y-86848852D01*
X141443000Y-86804000D01*
X140357000Y-86804000D01*
X140288879Y-86783998D01*
X140242386Y-86730342D01*
X140231000Y-86678000D01*
X140231000Y-86461000D01*
X141727000Y-86461000D01*
X142456000Y-86461000D01*
X142456000Y-85757000D01*
X142411147Y-85757000D01*
X142310770Y-85767255D01*
X142310758Y-85767257D01*
X142148115Y-85821152D01*
X142002271Y-85911109D01*
X142002265Y-85911114D01*
X141881114Y-86032265D01*
X141881109Y-86032271D01*
X141791152Y-86178115D01*
X141737257Y-86340758D01*
X141737255Y-86340770D01*
X141727000Y-86441147D01*
X141727000Y-86461000D01*
X140231000Y-86461000D01*
X140231000Y-85567000D01*
X140739000Y-85567000D01*
X140739000Y-86296000D01*
X141443000Y-86296000D01*
X141443000Y-86251147D01*
X141432744Y-86150770D01*
X141432742Y-86150758D01*
X141378847Y-85988115D01*
X141288890Y-85842271D01*
X141288885Y-85842265D01*
X141167734Y-85721114D01*
X141167728Y-85721109D01*
X141021884Y-85631152D01*
X140859241Y-85577257D01*
X140859229Y-85577255D01*
X140758852Y-85567000D01*
X140739000Y-85567000D01*
X140231000Y-85567000D01*
X140211147Y-85567000D01*
X140110770Y-85577255D01*
X140110758Y-85577257D01*
X139948115Y-85631152D01*
X139802271Y-85721109D01*
X139802265Y-85721114D01*
X139681114Y-85842265D01*
X139681109Y-85842271D01*
X139620907Y-85939875D01*
X139568121Y-85987353D01*
X139498046Y-85998756D01*
X139432930Y-85970463D01*
X139424571Y-85962823D01*
X139413219Y-85951471D01*
X139329585Y-85908858D01*
X139293126Y-85890281D01*
X139193488Y-85874500D01*
X138676512Y-85874500D01*
X138576874Y-85890281D01*
X138576872Y-85890281D01*
X138576872Y-85890282D01*
X138456780Y-85951471D01*
X138361471Y-86046780D01*
X138308486Y-86150770D01*
X138300281Y-86166874D01*
X138284500Y-86266512D01*
X138284500Y-86833488D01*
X138300281Y-86933126D01*
X138318560Y-86969000D01*
X138361471Y-87053219D01*
X138462595Y-87154343D01*
X138496621Y-87216655D01*
X138499500Y-87243438D01*
X138499500Y-87346476D01*
X138479498Y-87414597D01*
X138430703Y-87458743D01*
X138339249Y-87505341D01*
X138339246Y-87505343D01*
X138245341Y-87599248D01*
X138185048Y-87717581D01*
X138179485Y-87752710D01*
X138149073Y-87816863D01*
X138088805Y-87854390D01*
X138055036Y-87859000D01*
X136693752Y-87859000D01*
X136625631Y-87838998D01*
X136579138Y-87785342D01*
X136567753Y-87732585D01*
X136570000Y-87050000D01*
X136569999Y-87049999D01*
X127456341Y-86990820D01*
X127388351Y-86970376D01*
X127342208Y-86916420D01*
X127331164Y-86863662D01*
X127348837Y-84946077D01*
X127369466Y-84878147D01*
X127423548Y-84832151D01*
X127476077Y-84821248D01*
X144520000Y-84990000D01*
G37*
%TD.AperFunction*%
%TD*%
M02*
