%TF.GenerationSoftware,KiCad,Pcbnew,7.0.7*%
%TF.CreationDate,2023-09-24T11:57:48+02:00*%
%TF.ProjectId,RF Energy Harvesting LK-R37 Enclosure,52462045-6e65-4726-9779-204861727665,Beta R4*%
%TF.SameCoordinates,Original*%
%TF.FileFunction,Drillmap*%
%TF.FilePolarity,Positive*%
%FSLAX45Y45*%
G04 Gerber Fmt 4.5, Leading zero omitted, Abs format (unit mm)*
G04 Created by KiCad (PCBNEW 7.0.7) date 2023-09-24 11:57:48*
%MOMM*%
%LPD*%
G01*
G04 APERTURE LIST*
%ADD10C,0.200000*%
%ADD11C,0.040000*%
%ADD12C,0.065000*%
%ADD13C,0.080000*%
%ADD14C,0.084000*%
G04 APERTURE END LIST*
D10*
D11*
X12321000Y-8512000D02*
X12361000Y-8552000D01*
X12361000Y-8512000D02*
X12321000Y-8552000D01*
X12399500Y-11006500D02*
X12439500Y-11046500D01*
X12439500Y-11006500D02*
X12399500Y-11046500D01*
X12657000Y-7769000D02*
X12697000Y-7809000D01*
X12697000Y-7769000D02*
X12657000Y-7809000D01*
X12666000Y-7890000D02*
X12706000Y-7930000D01*
X12706000Y-7890000D02*
X12666000Y-7930000D01*
X12693000Y-11743000D02*
X12733000Y-11783000D01*
X12733000Y-11743000D02*
X12693000Y-11783000D01*
X12710000Y-12234000D02*
X12750000Y-12274000D01*
X12750000Y-12234000D02*
X12710000Y-12274000D01*
X12712000Y-12865450D02*
X12752000Y-12905450D01*
X12752000Y-12865450D02*
X12712000Y-12905450D01*
X12723877Y-12369450D02*
X12763877Y-12409450D01*
X12763877Y-12369450D02*
X12723877Y-12409450D01*
X12818000Y-10549000D02*
X12858000Y-10589000D01*
X12858000Y-10549000D02*
X12818000Y-10589000D01*
X12831500Y-12826500D02*
X12871500Y-12866500D01*
X12871500Y-12826500D02*
X12831500Y-12866500D01*
X12836000Y-10990000D02*
X12876000Y-11030000D01*
X12876000Y-10990000D02*
X12836000Y-11030000D01*
X12925000Y-12386000D02*
X12965000Y-12426000D01*
X12965000Y-12386000D02*
X12925000Y-12426000D01*
X12946500Y-11100500D02*
X12986500Y-11140500D01*
X12986500Y-11100500D02*
X12946500Y-11140500D01*
X12980000Y-8200000D02*
X13020000Y-8240000D01*
X13020000Y-8200000D02*
X12980000Y-8240000D01*
X12992000Y-8331000D02*
X13032000Y-8371000D01*
X13032000Y-8331000D02*
X12992000Y-8371000D01*
X13004000Y-12195000D02*
X13044000Y-12235000D01*
X13044000Y-12195000D02*
X13004000Y-12235000D01*
X13043000Y-12642000D02*
X13083000Y-12682000D01*
X13083000Y-12642000D02*
X13043000Y-12682000D01*
X13058000Y-10542000D02*
X13098000Y-10582000D01*
X13098000Y-10542000D02*
X13058000Y-10582000D01*
X13216000Y-12308000D02*
X13256000Y-12348000D01*
X13256000Y-12308000D02*
X13216000Y-12348000D01*
X13246000Y-10424000D02*
X13286000Y-10464000D01*
X13286000Y-10424000D02*
X13246000Y-10464000D01*
X13306000Y-10765000D02*
X13346000Y-10805000D01*
X13346000Y-10765000D02*
X13306000Y-10805000D01*
X13346000Y-8194000D02*
X13386000Y-8234000D01*
X13386000Y-8194000D02*
X13346000Y-8234000D01*
X13437000Y-7382000D02*
X13477000Y-7422000D01*
X13477000Y-7382000D02*
X13437000Y-7422000D01*
X13589000Y-10556000D02*
X13629000Y-10596000D01*
X13629000Y-10556000D02*
X13589000Y-10596000D01*
X13641000Y-7729950D02*
X13681000Y-7769950D01*
X13681000Y-7729950D02*
X13641000Y-7769950D01*
X13744000Y-7665000D02*
X13784000Y-7705000D01*
X13784000Y-7665000D02*
X13744000Y-7705000D01*
X13770000Y-10299000D02*
X13810000Y-10339000D01*
X13810000Y-10299000D02*
X13770000Y-10339000D01*
X13836500Y-7944500D02*
X13876500Y-7984500D01*
X13876500Y-7944500D02*
X13836500Y-7984500D01*
X13841500Y-10728500D02*
X13881500Y-10768500D01*
X13881500Y-10728500D02*
X13841500Y-10768500D01*
X13874703Y-10465826D02*
X13914703Y-10505826D01*
X13914703Y-10465826D02*
X13874703Y-10505826D01*
X13938794Y-10515450D02*
X13978794Y-10555450D01*
X13978794Y-10515450D02*
X13938794Y-10555450D01*
X13978000Y-10641000D02*
X14018000Y-10681000D01*
X14018000Y-10641000D02*
X13978000Y-10681000D01*
X14012826Y-10547450D02*
X14052826Y-10587450D01*
X14052826Y-10547450D02*
X14012826Y-10587450D01*
X14101000Y-10221000D02*
X14141000Y-10261000D01*
X14141000Y-10221000D02*
X14101000Y-10261000D01*
X14178000Y-10554000D02*
X14218000Y-10594000D01*
X14218000Y-10554000D02*
X14178000Y-10594000D01*
X14200000Y-7481000D02*
X14240000Y-7521000D01*
X14240000Y-7481000D02*
X14200000Y-7521000D01*
X14523925Y-10053089D02*
X14563925Y-10093089D01*
X14563925Y-10053089D02*
X14523925Y-10093089D01*
X14523925Y-10279926D02*
X14563925Y-10319926D01*
X14563925Y-10279926D02*
X14523925Y-10319926D01*
X14525000Y-7481000D02*
X14565000Y-7521000D01*
X14565000Y-7481000D02*
X14525000Y-7521000D01*
X14534925Y-9584089D02*
X14574925Y-9624089D01*
X14574925Y-9584089D02*
X14534925Y-9624089D01*
X14538925Y-8949089D02*
X14578925Y-8989089D01*
X14578925Y-8949089D02*
X14538925Y-8989089D01*
X14547925Y-8669089D02*
X14587925Y-8709089D01*
X14587925Y-8669089D02*
X14547925Y-8709089D01*
X14707295Y-8126295D02*
X14747295Y-8166295D01*
X14747295Y-8126295D02*
X14707295Y-8166295D01*
X14800000Y-10805000D02*
X14840000Y-10845000D01*
X14840000Y-10805000D02*
X14800000Y-10845000D01*
X14836735Y-9249416D02*
X14876735Y-9289416D01*
X14876735Y-9249416D02*
X14836735Y-9289416D01*
X14865000Y-13285000D02*
X14905000Y-13325000D01*
X14905000Y-13285000D02*
X14865000Y-13325000D01*
X14878000Y-9410000D02*
X14918000Y-9450000D01*
X14918000Y-9410000D02*
X14878000Y-9450000D01*
X14878925Y-9610089D02*
X14918925Y-9650089D01*
X14918925Y-9610089D02*
X14878925Y-9650089D01*
X14895000Y-9105000D02*
X14935000Y-9145000D01*
X14935000Y-9105000D02*
X14895000Y-9145000D01*
X14921000Y-9320000D02*
X14961000Y-9360000D01*
X14961000Y-9320000D02*
X14921000Y-9360000D01*
X14929000Y-9473000D02*
X14969000Y-9513000D01*
X14969000Y-9473000D02*
X14929000Y-9513000D01*
X14934000Y-9187000D02*
X14974000Y-9227000D01*
X14974000Y-9187000D02*
X14934000Y-9227000D01*
X14992925Y-9118089D02*
X15032925Y-9158089D01*
X15032925Y-9118089D02*
X14992925Y-9158089D01*
X15016000Y-10550550D02*
X15056000Y-10590550D01*
X15056000Y-10550550D02*
X15016000Y-10590550D01*
X15072131Y-9488377D02*
X15112131Y-9528377D01*
X15112131Y-9488377D02*
X15072131Y-9528377D01*
X15077549Y-9401713D02*
X15117549Y-9441713D01*
X15117549Y-9401713D02*
X15077549Y-9441713D01*
X15083000Y-11015000D02*
X15123000Y-11055000D01*
X15123000Y-11015000D02*
X15083000Y-11055000D01*
X15109000Y-10549000D02*
X15149000Y-10589000D01*
X15149000Y-10549000D02*
X15109000Y-10589000D01*
X15142929Y-8851636D02*
X15182929Y-8891636D01*
X15182929Y-8851636D02*
X15142929Y-8891636D01*
X15150785Y-9509014D02*
X15190785Y-9549014D01*
X15190785Y-9509014D02*
X15150785Y-9549014D01*
X15166000Y-7897000D02*
X15206000Y-7937000D01*
X15206000Y-7897000D02*
X15166000Y-7937000D01*
X15172424Y-9587422D02*
X15212424Y-9627422D01*
X15212424Y-9587422D02*
X15172424Y-9627422D01*
X15244781Y-9622539D02*
X15284781Y-9662539D01*
X15284781Y-9622539D02*
X15244781Y-9662539D01*
X15307925Y-9682089D02*
X15347925Y-9722089D01*
X15347925Y-9682089D02*
X15307925Y-9722089D01*
X15338000Y-7607000D02*
X15378000Y-7647000D01*
X15378000Y-7607000D02*
X15338000Y-7647000D01*
X15364749Y-13522749D02*
X15404749Y-13562749D01*
X15404749Y-13522749D02*
X15364749Y-13562749D01*
X15378925Y-8999089D02*
X15418925Y-9039089D01*
X15418925Y-8999089D02*
X15378925Y-9039089D01*
X15389475Y-9667691D02*
X15429475Y-9707691D01*
X15429475Y-9667691D02*
X15389475Y-9707691D01*
X15426925Y-9876089D02*
X15466925Y-9916089D01*
X15466925Y-9876089D02*
X15426925Y-9916089D01*
X15430000Y-10166000D02*
X15470000Y-10206000D01*
X15470000Y-10166000D02*
X15430000Y-10206000D01*
X15433375Y-8582089D02*
X15473375Y-8622089D01*
X15473375Y-8582089D02*
X15433375Y-8622089D01*
X15437000Y-13276000D02*
X15477000Y-13316000D01*
X15477000Y-13276000D02*
X15437000Y-13316000D01*
X15445000Y-13380000D02*
X15485000Y-13420000D01*
X15485000Y-13380000D02*
X15445000Y-13420000D01*
X15446925Y-9738139D02*
X15486925Y-9778139D01*
X15486925Y-9738139D02*
X15446925Y-9778139D01*
X15475634Y-10054798D02*
X15515634Y-10094798D01*
X15515634Y-10054798D02*
X15475634Y-10094798D01*
X15481492Y-8739002D02*
X15521492Y-8779002D01*
X15521492Y-8739002D02*
X15481492Y-8779002D01*
X15509961Y-8650164D02*
X15549961Y-8690164D01*
X15549961Y-8650164D02*
X15509961Y-8690164D01*
X15547925Y-10092089D02*
X15587925Y-10132089D01*
X15587925Y-10092089D02*
X15547925Y-10132089D01*
X15566000Y-13418000D02*
X15606000Y-13458000D01*
X15606000Y-13418000D02*
X15566000Y-13458000D01*
X15582027Y-8584191D02*
X15622027Y-8624191D01*
X15622027Y-8584191D02*
X15582027Y-8624191D01*
X15612925Y-10015089D02*
X15652925Y-10055089D01*
X15652925Y-10015089D02*
X15612925Y-10055089D01*
X15646000Y-7605000D02*
X15686000Y-7645000D01*
X15686000Y-7605000D02*
X15646000Y-7645000D01*
X15672925Y-8595089D02*
X15712925Y-8635089D01*
X15712925Y-8595089D02*
X15672925Y-8635089D01*
X15697925Y-8675089D02*
X15737925Y-8715089D01*
X15737925Y-8675089D02*
X15697925Y-8715089D01*
X15707925Y-10000089D02*
X15747925Y-10040089D01*
X15747925Y-10000089D02*
X15707925Y-10040089D01*
X15731925Y-10085089D02*
X15771925Y-10125089D01*
X15771925Y-10085089D02*
X15731925Y-10125089D01*
X15766000Y-9396000D02*
X15806000Y-9436000D01*
X15806000Y-9396000D02*
X15766000Y-9436000D01*
X15819000Y-7899000D02*
X15859000Y-7939000D01*
X15859000Y-7899000D02*
X15819000Y-7939000D01*
X15828375Y-9791746D02*
X15868375Y-9831746D01*
X15868375Y-9791746D02*
X15828375Y-9831746D01*
X15847000Y-10775000D02*
X15887000Y-10815000D01*
X15887000Y-10775000D02*
X15847000Y-10815000D01*
X15860925Y-8648089D02*
X15900925Y-8688089D01*
X15900925Y-8648089D02*
X15860925Y-8688089D01*
X15863925Y-8320089D02*
X15903925Y-8360089D01*
X15903925Y-8320089D02*
X15863925Y-8360089D01*
X15868000Y-9633000D02*
X15908000Y-9673000D01*
X15908000Y-9633000D02*
X15868000Y-9673000D01*
X15891000Y-12804000D02*
X15931000Y-12844000D01*
X15931000Y-12804000D02*
X15891000Y-12844000D01*
X15946925Y-9972089D02*
X15986925Y-10012089D01*
X15986925Y-9972089D02*
X15946925Y-10012089D01*
X15954925Y-9797089D02*
X15994925Y-9837089D01*
X15994925Y-9797089D02*
X15954925Y-9837089D01*
X15965000Y-12866000D02*
X16005000Y-12906000D01*
X16005000Y-12866000D02*
X15965000Y-12906000D01*
X15975662Y-8821766D02*
X16015662Y-8861766D01*
X16015662Y-8821766D02*
X15975662Y-8861766D01*
X16006000Y-8952000D02*
X16046000Y-8992000D01*
X16046000Y-8952000D02*
X16006000Y-8992000D01*
X16008375Y-9156095D02*
X16048375Y-9196095D01*
X16048375Y-9156095D02*
X16008375Y-9196095D01*
X16025425Y-9743589D02*
X16065425Y-9783589D01*
X16065425Y-9743589D02*
X16025425Y-9783589D01*
X16035393Y-9080848D02*
X16075393Y-9120848D01*
X16075393Y-9080848D02*
X16035393Y-9120848D01*
X16039084Y-8879216D02*
X16079084Y-8919216D01*
X16079084Y-8879216D02*
X16039084Y-8919216D01*
X16064576Y-9006414D02*
X16104576Y-9046414D01*
X16104576Y-9006414D02*
X16064576Y-9046414D01*
X16065750Y-12895250D02*
X16105750Y-12935250D01*
X16105750Y-12895250D02*
X16065750Y-12935250D01*
X16107498Y-9735920D02*
X16147498Y-9775920D01*
X16147498Y-9735920D02*
X16107498Y-9775920D01*
X16149925Y-10059089D02*
X16189925Y-10099089D01*
X16189925Y-10059089D02*
X16149925Y-10099089D01*
X16156000Y-12980000D02*
X16196000Y-13020000D01*
X16196000Y-12980000D02*
X16156000Y-13020000D01*
X16167000Y-10782000D02*
X16207000Y-10822000D01*
X16207000Y-10782000D02*
X16167000Y-10822000D01*
X16230925Y-10279926D02*
X16270925Y-10319926D01*
X16270925Y-10279926D02*
X16230925Y-10319926D01*
X16628000Y-11957000D02*
X16668000Y-11997000D01*
X16668000Y-11957000D02*
X16628000Y-11997000D01*
X16822250Y-13168000D02*
X16862250Y-13208000D01*
X16862250Y-13168000D02*
X16822250Y-13208000D01*
X16841250Y-12705000D02*
X16881250Y-12745000D01*
X16881250Y-12705000D02*
X16841250Y-12745000D01*
X16913573Y-11333573D02*
X16953573Y-11373573D01*
X16953573Y-11333573D02*
X16913573Y-11373573D01*
X16922000Y-10679000D02*
X16962000Y-10719000D01*
X16962000Y-10679000D02*
X16922000Y-10719000D01*
X16952000Y-12061000D02*
X16992000Y-12101000D01*
X16992000Y-12061000D02*
X16952000Y-12101000D01*
X16952250Y-11769000D02*
X16992250Y-11809000D01*
X16992250Y-11769000D02*
X16952250Y-11809000D01*
X16971000Y-10562450D02*
X17011000Y-10602450D01*
X17011000Y-10562450D02*
X16971000Y-10602450D01*
X16993965Y-11992949D02*
X17033965Y-12032949D01*
X17033965Y-11992949D02*
X16993965Y-12032949D01*
X17076000Y-8496000D02*
X17116000Y-8536000D01*
X17116000Y-8496000D02*
X17076000Y-8536000D01*
X17076000Y-9644000D02*
X17116000Y-9684000D01*
X17116000Y-9644000D02*
X17076000Y-9684000D01*
X17076000Y-12128550D02*
X17116000Y-12168550D01*
X17116000Y-12128550D02*
X17076000Y-12168550D01*
X17168000Y-8770000D02*
X17208000Y-8810000D01*
X17208000Y-8770000D02*
X17168000Y-8810000D01*
X17168000Y-9743000D02*
X17208000Y-9783000D01*
X17208000Y-9743000D02*
X17168000Y-9783000D01*
X17169000Y-8595000D02*
X17209000Y-8635000D01*
X17209000Y-8595000D02*
X17169000Y-8635000D01*
X17217250Y-12342000D02*
X17257250Y-12382000D01*
X17257250Y-12342000D02*
X17217250Y-12382000D01*
X17239250Y-11947000D02*
X17279250Y-11987000D01*
X17279250Y-11947000D02*
X17239250Y-11987000D01*
X17259000Y-9402000D02*
X17299000Y-9442000D01*
X17299000Y-9402000D02*
X17259000Y-9442000D01*
X17260000Y-9668000D02*
X17300000Y-9708000D01*
X17300000Y-9668000D02*
X17260000Y-9708000D01*
X17393000Y-10634000D02*
X17433000Y-10674000D01*
X17433000Y-10634000D02*
X17393000Y-10674000D01*
X17786250Y-12289000D02*
X17826250Y-12329000D01*
X17826250Y-12289000D02*
X17786250Y-12329000D01*
X17850265Y-12160338D02*
X17890265Y-12200338D01*
X17890265Y-12160338D02*
X17850265Y-12200338D01*
X17858250Y-12364000D02*
X17898250Y-12404000D01*
X17898250Y-12364000D02*
X17858250Y-12404000D01*
X17867000Y-12255000D02*
X17907000Y-12295000D01*
X17907000Y-12255000D02*
X17867000Y-12295000D01*
X17917000Y-12026300D02*
X17957000Y-12066300D01*
X17957000Y-12026300D02*
X17917000Y-12066300D01*
X17924000Y-7997000D02*
X17964000Y-8037000D01*
X17964000Y-7997000D02*
X17924000Y-8037000D01*
X18060500Y-11917500D02*
X18100500Y-11957500D01*
X18100500Y-11917500D02*
X18060500Y-11957500D01*
X18062250Y-12377000D02*
X18102250Y-12417000D01*
X18102250Y-12377000D02*
X18062250Y-12417000D01*
X18668000Y-9580000D02*
X18708000Y-9620000D01*
X18708000Y-9580000D02*
X18668000Y-9620000D01*
D12*
X15118500Y-7275000D02*
G75*
G03*
X15118500Y-7275000I-32500J0D01*
G01*
D10*
X15118500Y-7305000D02*
X15118500Y-7245000D01*
X15118500Y-7245000D02*
G75*
G03*
X15053500Y-7245000I-32500J0D01*
G01*
X15053500Y-7245000D02*
X15053500Y-7305000D01*
X15053500Y-7305000D02*
G75*
G03*
X15118500Y-7305000I32500J0D01*
G01*
D12*
X15118500Y-7693000D02*
G75*
G03*
X15118500Y-7693000I-32500J0D01*
G01*
D10*
X15118500Y-7748000D02*
X15118500Y-7638000D01*
X15118500Y-7638000D02*
G75*
G03*
X15053500Y-7638000I-32500J0D01*
G01*
X15053500Y-7638000D02*
X15053500Y-7748000D01*
X15053500Y-7748000D02*
G75*
G03*
X15118500Y-7748000I32500J0D01*
G01*
D12*
X15982500Y-7275000D02*
G75*
G03*
X15982500Y-7275000I-32500J0D01*
G01*
D10*
X15982500Y-7305000D02*
X15982500Y-7245000D01*
X15982500Y-7245000D02*
G75*
G03*
X15917500Y-7245000I-32500J0D01*
G01*
X15917500Y-7245000D02*
X15917500Y-7305000D01*
X15917500Y-7305000D02*
G75*
G03*
X15982500Y-7305000I32500J0D01*
G01*
D12*
X15982500Y-7693000D02*
G75*
G03*
X15982500Y-7693000I-32500J0D01*
G01*
D10*
X15982500Y-7748000D02*
X15982500Y-7638000D01*
X15982500Y-7638000D02*
G75*
G03*
X15917500Y-7638000I-32500J0D01*
G01*
X15917500Y-7638000D02*
X15917500Y-7748000D01*
X15917500Y-7748000D02*
G75*
G03*
X15982500Y-7748000I32500J0D01*
G01*
D13*
X13542000Y-11094000D02*
X13542000Y-11174000D01*
X13502000Y-11134000D02*
X13582000Y-11134000D01*
X13792000Y-11094000D02*
X13792000Y-11174000D01*
X13752000Y-11134000D02*
X13832000Y-11134000D01*
X14539000Y-11057000D02*
X14539000Y-11137000D01*
X14499000Y-11097000D02*
X14579000Y-11097000D01*
X14789000Y-11057000D02*
X14789000Y-11137000D01*
X14749000Y-11097000D02*
X14829000Y-11097000D01*
D14*
X15370699Y-10736699D02*
X15370699Y-10677301D01*
X15311301Y-10677301D01*
X15311301Y-10736699D01*
X15370699Y-10736699D01*
X15370699Y-10990699D02*
X15370699Y-10931301D01*
X15311301Y-10931301D01*
X15311301Y-10990699D01*
X15370699Y-10990699D01*
X15497699Y-10863699D02*
X15497699Y-10804301D01*
X15438301Y-10804301D01*
X15438301Y-10863699D01*
X15497699Y-10863699D01*
X15624699Y-10736699D02*
X15624699Y-10677301D01*
X15565301Y-10677301D01*
X15565301Y-10736699D01*
X15624699Y-10736699D01*
X15624699Y-10990699D02*
X15624699Y-10931301D01*
X15565301Y-10931301D01*
X15565301Y-10990699D01*
X15624699Y-10990699D01*
D10*
X12487040Y-14000483D02*
X12487040Y-13800483D01*
X12487040Y-13800483D02*
X12534659Y-13800483D01*
X12534659Y-13800483D02*
X12563231Y-13810007D01*
X12563231Y-13810007D02*
X12582279Y-13829055D01*
X12582279Y-13829055D02*
X12591802Y-13848102D01*
X12591802Y-13848102D02*
X12601326Y-13886198D01*
X12601326Y-13886198D02*
X12601326Y-13914769D01*
X12601326Y-13914769D02*
X12591802Y-13952864D01*
X12591802Y-13952864D02*
X12582279Y-13971912D01*
X12582279Y-13971912D02*
X12563231Y-13990960D01*
X12563231Y-13990960D02*
X12534659Y-14000483D01*
X12534659Y-14000483D02*
X12487040Y-14000483D01*
X12687040Y-14000483D02*
X12687040Y-13867150D01*
X12687040Y-13905245D02*
X12696564Y-13886198D01*
X12696564Y-13886198D02*
X12706088Y-13876674D01*
X12706088Y-13876674D02*
X12725136Y-13867150D01*
X12725136Y-13867150D02*
X12744183Y-13867150D01*
X12810850Y-14000483D02*
X12810850Y-13867150D01*
X12810850Y-13800483D02*
X12801326Y-13810007D01*
X12801326Y-13810007D02*
X12810850Y-13819531D01*
X12810850Y-13819531D02*
X12820374Y-13810007D01*
X12820374Y-13810007D02*
X12810850Y-13800483D01*
X12810850Y-13800483D02*
X12810850Y-13819531D01*
X12934659Y-14000483D02*
X12915612Y-13990960D01*
X12915612Y-13990960D02*
X12906088Y-13971912D01*
X12906088Y-13971912D02*
X12906088Y-13800483D01*
X13039421Y-14000483D02*
X13020374Y-13990960D01*
X13020374Y-13990960D02*
X13010850Y-13971912D01*
X13010850Y-13971912D02*
X13010850Y-13800483D01*
X13267993Y-14000483D02*
X13267993Y-13800483D01*
X13267993Y-13800483D02*
X13334660Y-13943340D01*
X13334660Y-13943340D02*
X13401326Y-13800483D01*
X13401326Y-13800483D02*
X13401326Y-14000483D01*
X13582279Y-14000483D02*
X13582279Y-13895721D01*
X13582279Y-13895721D02*
X13572755Y-13876674D01*
X13572755Y-13876674D02*
X13553707Y-13867150D01*
X13553707Y-13867150D02*
X13515612Y-13867150D01*
X13515612Y-13867150D02*
X13496564Y-13876674D01*
X13582279Y-13990960D02*
X13563231Y-14000483D01*
X13563231Y-14000483D02*
X13515612Y-14000483D01*
X13515612Y-14000483D02*
X13496564Y-13990960D01*
X13496564Y-13990960D02*
X13487040Y-13971912D01*
X13487040Y-13971912D02*
X13487040Y-13952864D01*
X13487040Y-13952864D02*
X13496564Y-13933817D01*
X13496564Y-13933817D02*
X13515612Y-13924293D01*
X13515612Y-13924293D02*
X13563231Y-13924293D01*
X13563231Y-13924293D02*
X13582279Y-13914769D01*
X13677517Y-13867150D02*
X13677517Y-14067150D01*
X13677517Y-13876674D02*
X13696564Y-13867150D01*
X13696564Y-13867150D02*
X13734660Y-13867150D01*
X13734660Y-13867150D02*
X13753707Y-13876674D01*
X13753707Y-13876674D02*
X13763231Y-13886198D01*
X13763231Y-13886198D02*
X13772755Y-13905245D01*
X13772755Y-13905245D02*
X13772755Y-13962388D01*
X13772755Y-13962388D02*
X13763231Y-13981436D01*
X13763231Y-13981436D02*
X13753707Y-13990960D01*
X13753707Y-13990960D02*
X13734660Y-14000483D01*
X13734660Y-14000483D02*
X13696564Y-14000483D01*
X13696564Y-14000483D02*
X13677517Y-13990960D01*
X13858469Y-13981436D02*
X13867993Y-13990960D01*
X13867993Y-13990960D02*
X13858469Y-14000483D01*
X13858469Y-14000483D02*
X13848945Y-13990960D01*
X13848945Y-13990960D02*
X13858469Y-13981436D01*
X13858469Y-13981436D02*
X13858469Y-14000483D01*
X13858469Y-13876674D02*
X13867993Y-13886198D01*
X13867993Y-13886198D02*
X13858469Y-13895721D01*
X13858469Y-13895721D02*
X13848945Y-13886198D01*
X13848945Y-13886198D02*
X13858469Y-13876674D01*
X13858469Y-13876674D02*
X13858469Y-13895721D01*
D11*
X12186264Y-14309000D02*
X12226264Y-14349000D01*
X12226264Y-14309000D02*
X12186264Y-14349000D01*
D10*
X12525136Y-14220483D02*
X12544183Y-14220483D01*
X12544183Y-14220483D02*
X12563231Y-14230007D01*
X12563231Y-14230007D02*
X12572755Y-14239531D01*
X12572755Y-14239531D02*
X12582279Y-14258579D01*
X12582279Y-14258579D02*
X12591802Y-14296674D01*
X12591802Y-14296674D02*
X12591802Y-14344293D01*
X12591802Y-14344293D02*
X12582279Y-14382388D01*
X12582279Y-14382388D02*
X12572755Y-14401436D01*
X12572755Y-14401436D02*
X12563231Y-14410960D01*
X12563231Y-14410960D02*
X12544183Y-14420483D01*
X12544183Y-14420483D02*
X12525136Y-14420483D01*
X12525136Y-14420483D02*
X12506088Y-14410960D01*
X12506088Y-14410960D02*
X12496564Y-14401436D01*
X12496564Y-14401436D02*
X12487040Y-14382388D01*
X12487040Y-14382388D02*
X12477517Y-14344293D01*
X12477517Y-14344293D02*
X12477517Y-14296674D01*
X12477517Y-14296674D02*
X12487040Y-14258579D01*
X12487040Y-14258579D02*
X12496564Y-14239531D01*
X12496564Y-14239531D02*
X12506088Y-14230007D01*
X12506088Y-14230007D02*
X12525136Y-14220483D01*
X12677517Y-14401436D02*
X12687040Y-14410960D01*
X12687040Y-14410960D02*
X12677517Y-14420483D01*
X12677517Y-14420483D02*
X12667993Y-14410960D01*
X12667993Y-14410960D02*
X12677517Y-14401436D01*
X12677517Y-14401436D02*
X12677517Y-14420483D01*
X12858469Y-14287150D02*
X12858469Y-14420483D01*
X12810850Y-14210960D02*
X12763231Y-14353817D01*
X12763231Y-14353817D02*
X12887040Y-14353817D01*
X13001326Y-14220483D02*
X13020374Y-14220483D01*
X13020374Y-14220483D02*
X13039421Y-14230007D01*
X13039421Y-14230007D02*
X13048945Y-14239531D01*
X13048945Y-14239531D02*
X13058469Y-14258579D01*
X13058469Y-14258579D02*
X13067993Y-14296674D01*
X13067993Y-14296674D02*
X13067993Y-14344293D01*
X13067993Y-14344293D02*
X13058469Y-14382388D01*
X13058469Y-14382388D02*
X13048945Y-14401436D01*
X13048945Y-14401436D02*
X13039421Y-14410960D01*
X13039421Y-14410960D02*
X13020374Y-14420483D01*
X13020374Y-14420483D02*
X13001326Y-14420483D01*
X13001326Y-14420483D02*
X12982279Y-14410960D01*
X12982279Y-14410960D02*
X12972755Y-14401436D01*
X12972755Y-14401436D02*
X12963231Y-14382388D01*
X12963231Y-14382388D02*
X12953707Y-14344293D01*
X12953707Y-14344293D02*
X12953707Y-14296674D01*
X12953707Y-14296674D02*
X12963231Y-14258579D01*
X12963231Y-14258579D02*
X12972755Y-14239531D01*
X12972755Y-14239531D02*
X12982279Y-14230007D01*
X12982279Y-14230007D02*
X13001326Y-14220483D01*
X13191802Y-14220483D02*
X13210850Y-14220483D01*
X13210850Y-14220483D02*
X13229898Y-14230007D01*
X13229898Y-14230007D02*
X13239421Y-14239531D01*
X13239421Y-14239531D02*
X13248945Y-14258579D01*
X13248945Y-14258579D02*
X13258469Y-14296674D01*
X13258469Y-14296674D02*
X13258469Y-14344293D01*
X13258469Y-14344293D02*
X13248945Y-14382388D01*
X13248945Y-14382388D02*
X13239421Y-14401436D01*
X13239421Y-14401436D02*
X13229898Y-14410960D01*
X13229898Y-14410960D02*
X13210850Y-14420483D01*
X13210850Y-14420483D02*
X13191802Y-14420483D01*
X13191802Y-14420483D02*
X13172755Y-14410960D01*
X13172755Y-14410960D02*
X13163231Y-14401436D01*
X13163231Y-14401436D02*
X13153707Y-14382388D01*
X13153707Y-14382388D02*
X13144183Y-14344293D01*
X13144183Y-14344293D02*
X13144183Y-14296674D01*
X13144183Y-14296674D02*
X13153707Y-14258579D01*
X13153707Y-14258579D02*
X13163231Y-14239531D01*
X13163231Y-14239531D02*
X13172755Y-14230007D01*
X13172755Y-14230007D02*
X13191802Y-14220483D01*
X13344183Y-14420483D02*
X13344183Y-14287150D01*
X13344183Y-14306198D02*
X13353707Y-14296674D01*
X13353707Y-14296674D02*
X13372755Y-14287150D01*
X13372755Y-14287150D02*
X13401326Y-14287150D01*
X13401326Y-14287150D02*
X13420374Y-14296674D01*
X13420374Y-14296674D02*
X13429898Y-14315721D01*
X13429898Y-14315721D02*
X13429898Y-14420483D01*
X13429898Y-14315721D02*
X13439421Y-14296674D01*
X13439421Y-14296674D02*
X13458469Y-14287150D01*
X13458469Y-14287150D02*
X13487040Y-14287150D01*
X13487040Y-14287150D02*
X13506088Y-14296674D01*
X13506088Y-14296674D02*
X13515612Y-14315721D01*
X13515612Y-14315721D02*
X13515612Y-14420483D01*
X13610850Y-14420483D02*
X13610850Y-14287150D01*
X13610850Y-14306198D02*
X13620374Y-14296674D01*
X13620374Y-14296674D02*
X13639421Y-14287150D01*
X13639421Y-14287150D02*
X13667993Y-14287150D01*
X13667993Y-14287150D02*
X13687041Y-14296674D01*
X13687041Y-14296674D02*
X13696564Y-14315721D01*
X13696564Y-14315721D02*
X13696564Y-14420483D01*
X13696564Y-14315721D02*
X13706088Y-14296674D01*
X13706088Y-14296674D02*
X13725136Y-14287150D01*
X13725136Y-14287150D02*
X13753707Y-14287150D01*
X13753707Y-14287150D02*
X13772755Y-14296674D01*
X13772755Y-14296674D02*
X13782279Y-14315721D01*
X13782279Y-14315721D02*
X13782279Y-14420483D01*
X14172755Y-14210960D02*
X14001326Y-14468102D01*
X14429898Y-14220483D02*
X14448945Y-14220483D01*
X14448945Y-14220483D02*
X14467993Y-14230007D01*
X14467993Y-14230007D02*
X14477517Y-14239531D01*
X14477517Y-14239531D02*
X14487041Y-14258579D01*
X14487041Y-14258579D02*
X14496564Y-14296674D01*
X14496564Y-14296674D02*
X14496564Y-14344293D01*
X14496564Y-14344293D02*
X14487041Y-14382388D01*
X14487041Y-14382388D02*
X14477517Y-14401436D01*
X14477517Y-14401436D02*
X14467993Y-14410960D01*
X14467993Y-14410960D02*
X14448945Y-14420483D01*
X14448945Y-14420483D02*
X14429898Y-14420483D01*
X14429898Y-14420483D02*
X14410850Y-14410960D01*
X14410850Y-14410960D02*
X14401326Y-14401436D01*
X14401326Y-14401436D02*
X14391803Y-14382388D01*
X14391803Y-14382388D02*
X14382279Y-14344293D01*
X14382279Y-14344293D02*
X14382279Y-14296674D01*
X14382279Y-14296674D02*
X14391803Y-14258579D01*
X14391803Y-14258579D02*
X14401326Y-14239531D01*
X14401326Y-14239531D02*
X14410850Y-14230007D01*
X14410850Y-14230007D02*
X14429898Y-14220483D01*
X14582279Y-14401436D02*
X14591803Y-14410960D01*
X14591803Y-14410960D02*
X14582279Y-14420483D01*
X14582279Y-14420483D02*
X14572755Y-14410960D01*
X14572755Y-14410960D02*
X14582279Y-14401436D01*
X14582279Y-14401436D02*
X14582279Y-14420483D01*
X14715612Y-14220483D02*
X14734660Y-14220483D01*
X14734660Y-14220483D02*
X14753707Y-14230007D01*
X14753707Y-14230007D02*
X14763231Y-14239531D01*
X14763231Y-14239531D02*
X14772755Y-14258579D01*
X14772755Y-14258579D02*
X14782279Y-14296674D01*
X14782279Y-14296674D02*
X14782279Y-14344293D01*
X14782279Y-14344293D02*
X14772755Y-14382388D01*
X14772755Y-14382388D02*
X14763231Y-14401436D01*
X14763231Y-14401436D02*
X14753707Y-14410960D01*
X14753707Y-14410960D02*
X14734660Y-14420483D01*
X14734660Y-14420483D02*
X14715612Y-14420483D01*
X14715612Y-14420483D02*
X14696564Y-14410960D01*
X14696564Y-14410960D02*
X14687041Y-14401436D01*
X14687041Y-14401436D02*
X14677517Y-14382388D01*
X14677517Y-14382388D02*
X14667993Y-14344293D01*
X14667993Y-14344293D02*
X14667993Y-14296674D01*
X14667993Y-14296674D02*
X14677517Y-14258579D01*
X14677517Y-14258579D02*
X14687041Y-14239531D01*
X14687041Y-14239531D02*
X14696564Y-14230007D01*
X14696564Y-14230007D02*
X14715612Y-14220483D01*
X14972755Y-14420483D02*
X14858469Y-14420483D01*
X14915612Y-14420483D02*
X14915612Y-14220483D01*
X14915612Y-14220483D02*
X14896564Y-14249055D01*
X14896564Y-14249055D02*
X14877517Y-14268102D01*
X14877517Y-14268102D02*
X14858469Y-14277626D01*
X15153707Y-14220483D02*
X15058469Y-14220483D01*
X15058469Y-14220483D02*
X15048945Y-14315721D01*
X15048945Y-14315721D02*
X15058469Y-14306198D01*
X15058469Y-14306198D02*
X15077517Y-14296674D01*
X15077517Y-14296674D02*
X15125136Y-14296674D01*
X15125136Y-14296674D02*
X15144184Y-14306198D01*
X15144184Y-14306198D02*
X15153707Y-14315721D01*
X15153707Y-14315721D02*
X15163231Y-14334769D01*
X15163231Y-14334769D02*
X15163231Y-14382388D01*
X15163231Y-14382388D02*
X15153707Y-14401436D01*
X15153707Y-14401436D02*
X15144184Y-14410960D01*
X15144184Y-14410960D02*
X15125136Y-14420483D01*
X15125136Y-14420483D02*
X15077517Y-14420483D01*
X15077517Y-14420483D02*
X15058469Y-14410960D01*
X15058469Y-14410960D02*
X15048945Y-14401436D01*
X15229898Y-14220483D02*
X15363231Y-14220483D01*
X15363231Y-14220483D02*
X15277517Y-14420483D01*
X15429898Y-14220483D02*
X15429898Y-14258579D01*
X15506088Y-14220483D02*
X15506088Y-14258579D01*
X15801327Y-14496674D02*
X15791803Y-14487150D01*
X15791803Y-14487150D02*
X15772755Y-14458579D01*
X15772755Y-14458579D02*
X15763231Y-14439531D01*
X15763231Y-14439531D02*
X15753707Y-14410960D01*
X15753707Y-14410960D02*
X15744184Y-14363340D01*
X15744184Y-14363340D02*
X15744184Y-14325245D01*
X15744184Y-14325245D02*
X15753707Y-14277626D01*
X15753707Y-14277626D02*
X15763231Y-14249055D01*
X15763231Y-14249055D02*
X15772755Y-14230007D01*
X15772755Y-14230007D02*
X15791803Y-14201436D01*
X15791803Y-14201436D02*
X15801327Y-14191912D01*
X15982279Y-14420483D02*
X15867993Y-14420483D01*
X15925136Y-14420483D02*
X15925136Y-14220483D01*
X15925136Y-14220483D02*
X15906088Y-14249055D01*
X15906088Y-14249055D02*
X15887041Y-14268102D01*
X15887041Y-14268102D02*
X15867993Y-14277626D01*
X16048946Y-14220483D02*
X16172755Y-14220483D01*
X16172755Y-14220483D02*
X16106088Y-14296674D01*
X16106088Y-14296674D02*
X16134660Y-14296674D01*
X16134660Y-14296674D02*
X16153707Y-14306198D01*
X16153707Y-14306198D02*
X16163231Y-14315721D01*
X16163231Y-14315721D02*
X16172755Y-14334769D01*
X16172755Y-14334769D02*
X16172755Y-14382388D01*
X16172755Y-14382388D02*
X16163231Y-14401436D01*
X16163231Y-14401436D02*
X16153707Y-14410960D01*
X16153707Y-14410960D02*
X16134660Y-14420483D01*
X16134660Y-14420483D02*
X16077517Y-14420483D01*
X16077517Y-14420483D02*
X16058469Y-14410960D01*
X16058469Y-14410960D02*
X16048946Y-14401436D01*
X16267993Y-14420483D02*
X16306088Y-14420483D01*
X16306088Y-14420483D02*
X16325136Y-14410960D01*
X16325136Y-14410960D02*
X16334660Y-14401436D01*
X16334660Y-14401436D02*
X16353707Y-14372864D01*
X16353707Y-14372864D02*
X16363231Y-14334769D01*
X16363231Y-14334769D02*
X16363231Y-14258579D01*
X16363231Y-14258579D02*
X16353707Y-14239531D01*
X16353707Y-14239531D02*
X16344184Y-14230007D01*
X16344184Y-14230007D02*
X16325136Y-14220483D01*
X16325136Y-14220483D02*
X16287041Y-14220483D01*
X16287041Y-14220483D02*
X16267993Y-14230007D01*
X16267993Y-14230007D02*
X16258469Y-14239531D01*
X16258469Y-14239531D02*
X16248946Y-14258579D01*
X16248946Y-14258579D02*
X16248946Y-14306198D01*
X16248946Y-14306198D02*
X16258469Y-14325245D01*
X16258469Y-14325245D02*
X16267993Y-14334769D01*
X16267993Y-14334769D02*
X16287041Y-14344293D01*
X16287041Y-14344293D02*
X16325136Y-14344293D01*
X16325136Y-14344293D02*
X16344184Y-14334769D01*
X16344184Y-14334769D02*
X16353707Y-14325245D01*
X16353707Y-14325245D02*
X16363231Y-14306198D01*
X16601327Y-14420483D02*
X16601327Y-14220483D01*
X16687041Y-14420483D02*
X16687041Y-14315721D01*
X16687041Y-14315721D02*
X16677517Y-14296674D01*
X16677517Y-14296674D02*
X16658469Y-14287150D01*
X16658469Y-14287150D02*
X16629898Y-14287150D01*
X16629898Y-14287150D02*
X16610850Y-14296674D01*
X16610850Y-14296674D02*
X16601327Y-14306198D01*
X16810850Y-14420483D02*
X16791803Y-14410960D01*
X16791803Y-14410960D02*
X16782279Y-14401436D01*
X16782279Y-14401436D02*
X16772755Y-14382388D01*
X16772755Y-14382388D02*
X16772755Y-14325245D01*
X16772755Y-14325245D02*
X16782279Y-14306198D01*
X16782279Y-14306198D02*
X16791803Y-14296674D01*
X16791803Y-14296674D02*
X16810850Y-14287150D01*
X16810850Y-14287150D02*
X16839422Y-14287150D01*
X16839422Y-14287150D02*
X16858470Y-14296674D01*
X16858470Y-14296674D02*
X16867993Y-14306198D01*
X16867993Y-14306198D02*
X16877517Y-14325245D01*
X16877517Y-14325245D02*
X16877517Y-14382388D01*
X16877517Y-14382388D02*
X16867993Y-14401436D01*
X16867993Y-14401436D02*
X16858470Y-14410960D01*
X16858470Y-14410960D02*
X16839422Y-14420483D01*
X16839422Y-14420483D02*
X16810850Y-14420483D01*
X16991803Y-14420483D02*
X16972755Y-14410960D01*
X16972755Y-14410960D02*
X16963231Y-14391912D01*
X16963231Y-14391912D02*
X16963231Y-14220483D01*
X17144184Y-14410960D02*
X17125136Y-14420483D01*
X17125136Y-14420483D02*
X17087041Y-14420483D01*
X17087041Y-14420483D02*
X17067993Y-14410960D01*
X17067993Y-14410960D02*
X17058470Y-14391912D01*
X17058470Y-14391912D02*
X17058470Y-14315721D01*
X17058470Y-14315721D02*
X17067993Y-14296674D01*
X17067993Y-14296674D02*
X17087041Y-14287150D01*
X17087041Y-14287150D02*
X17125136Y-14287150D01*
X17125136Y-14287150D02*
X17144184Y-14296674D01*
X17144184Y-14296674D02*
X17153708Y-14315721D01*
X17153708Y-14315721D02*
X17153708Y-14334769D01*
X17153708Y-14334769D02*
X17058470Y-14353817D01*
X17229898Y-14410960D02*
X17248946Y-14420483D01*
X17248946Y-14420483D02*
X17287041Y-14420483D01*
X17287041Y-14420483D02*
X17306089Y-14410960D01*
X17306089Y-14410960D02*
X17315612Y-14391912D01*
X17315612Y-14391912D02*
X17315612Y-14382388D01*
X17315612Y-14382388D02*
X17306089Y-14363340D01*
X17306089Y-14363340D02*
X17287041Y-14353817D01*
X17287041Y-14353817D02*
X17258470Y-14353817D01*
X17258470Y-14353817D02*
X17239422Y-14344293D01*
X17239422Y-14344293D02*
X17229898Y-14325245D01*
X17229898Y-14325245D02*
X17229898Y-14315721D01*
X17229898Y-14315721D02*
X17239422Y-14296674D01*
X17239422Y-14296674D02*
X17258470Y-14287150D01*
X17258470Y-14287150D02*
X17287041Y-14287150D01*
X17287041Y-14287150D02*
X17306089Y-14296674D01*
X17382279Y-14496674D02*
X17391803Y-14487150D01*
X17391803Y-14487150D02*
X17410851Y-14458579D01*
X17410851Y-14458579D02*
X17420374Y-14439531D01*
X17420374Y-14439531D02*
X17429898Y-14410960D01*
X17429898Y-14410960D02*
X17439422Y-14363340D01*
X17439422Y-14363340D02*
X17439422Y-14325245D01*
X17439422Y-14325245D02*
X17429898Y-14277626D01*
X17429898Y-14277626D02*
X17420374Y-14249055D01*
X17420374Y-14249055D02*
X17410851Y-14230007D01*
X17410851Y-14230007D02*
X17391803Y-14201436D01*
X17391803Y-14201436D02*
X17382279Y-14191912D01*
D12*
X12226264Y-14593000D02*
G75*
G03*
X12226264Y-14593000I-32500J0D01*
G01*
D10*
X12525136Y-14484483D02*
X12544183Y-14484483D01*
X12544183Y-14484483D02*
X12563231Y-14494007D01*
X12563231Y-14494007D02*
X12572755Y-14503531D01*
X12572755Y-14503531D02*
X12582279Y-14522579D01*
X12582279Y-14522579D02*
X12591802Y-14560674D01*
X12591802Y-14560674D02*
X12591802Y-14608293D01*
X12591802Y-14608293D02*
X12582279Y-14646388D01*
X12582279Y-14646388D02*
X12572755Y-14665436D01*
X12572755Y-14665436D02*
X12563231Y-14674960D01*
X12563231Y-14674960D02*
X12544183Y-14684483D01*
X12544183Y-14684483D02*
X12525136Y-14684483D01*
X12525136Y-14684483D02*
X12506088Y-14674960D01*
X12506088Y-14674960D02*
X12496564Y-14665436D01*
X12496564Y-14665436D02*
X12487040Y-14646388D01*
X12487040Y-14646388D02*
X12477517Y-14608293D01*
X12477517Y-14608293D02*
X12477517Y-14560674D01*
X12477517Y-14560674D02*
X12487040Y-14522579D01*
X12487040Y-14522579D02*
X12496564Y-14503531D01*
X12496564Y-14503531D02*
X12506088Y-14494007D01*
X12506088Y-14494007D02*
X12525136Y-14484483D01*
X12677517Y-14665436D02*
X12687040Y-14674960D01*
X12687040Y-14674960D02*
X12677517Y-14684483D01*
X12677517Y-14684483D02*
X12667993Y-14674960D01*
X12667993Y-14674960D02*
X12677517Y-14665436D01*
X12677517Y-14665436D02*
X12677517Y-14684483D01*
X12858469Y-14484483D02*
X12820374Y-14484483D01*
X12820374Y-14484483D02*
X12801326Y-14494007D01*
X12801326Y-14494007D02*
X12791802Y-14503531D01*
X12791802Y-14503531D02*
X12772755Y-14532102D01*
X12772755Y-14532102D02*
X12763231Y-14570198D01*
X12763231Y-14570198D02*
X12763231Y-14646388D01*
X12763231Y-14646388D02*
X12772755Y-14665436D01*
X12772755Y-14665436D02*
X12782279Y-14674960D01*
X12782279Y-14674960D02*
X12801326Y-14684483D01*
X12801326Y-14684483D02*
X12839421Y-14684483D01*
X12839421Y-14684483D02*
X12858469Y-14674960D01*
X12858469Y-14674960D02*
X12867993Y-14665436D01*
X12867993Y-14665436D02*
X12877517Y-14646388D01*
X12877517Y-14646388D02*
X12877517Y-14598769D01*
X12877517Y-14598769D02*
X12867993Y-14579721D01*
X12867993Y-14579721D02*
X12858469Y-14570198D01*
X12858469Y-14570198D02*
X12839421Y-14560674D01*
X12839421Y-14560674D02*
X12801326Y-14560674D01*
X12801326Y-14560674D02*
X12782279Y-14570198D01*
X12782279Y-14570198D02*
X12772755Y-14579721D01*
X12772755Y-14579721D02*
X12763231Y-14598769D01*
X13058469Y-14484483D02*
X12963231Y-14484483D01*
X12963231Y-14484483D02*
X12953707Y-14579721D01*
X12953707Y-14579721D02*
X12963231Y-14570198D01*
X12963231Y-14570198D02*
X12982279Y-14560674D01*
X12982279Y-14560674D02*
X13029898Y-14560674D01*
X13029898Y-14560674D02*
X13048945Y-14570198D01*
X13048945Y-14570198D02*
X13058469Y-14579721D01*
X13058469Y-14579721D02*
X13067993Y-14598769D01*
X13067993Y-14598769D02*
X13067993Y-14646388D01*
X13067993Y-14646388D02*
X13058469Y-14665436D01*
X13058469Y-14665436D02*
X13048945Y-14674960D01*
X13048945Y-14674960D02*
X13029898Y-14684483D01*
X13029898Y-14684483D02*
X12982279Y-14684483D01*
X12982279Y-14684483D02*
X12963231Y-14674960D01*
X12963231Y-14674960D02*
X12953707Y-14665436D01*
X13191802Y-14484483D02*
X13210850Y-14484483D01*
X13210850Y-14484483D02*
X13229898Y-14494007D01*
X13229898Y-14494007D02*
X13239421Y-14503531D01*
X13239421Y-14503531D02*
X13248945Y-14522579D01*
X13248945Y-14522579D02*
X13258469Y-14560674D01*
X13258469Y-14560674D02*
X13258469Y-14608293D01*
X13258469Y-14608293D02*
X13248945Y-14646388D01*
X13248945Y-14646388D02*
X13239421Y-14665436D01*
X13239421Y-14665436D02*
X13229898Y-14674960D01*
X13229898Y-14674960D02*
X13210850Y-14684483D01*
X13210850Y-14684483D02*
X13191802Y-14684483D01*
X13191802Y-14684483D02*
X13172755Y-14674960D01*
X13172755Y-14674960D02*
X13163231Y-14665436D01*
X13163231Y-14665436D02*
X13153707Y-14646388D01*
X13153707Y-14646388D02*
X13144183Y-14608293D01*
X13144183Y-14608293D02*
X13144183Y-14560674D01*
X13144183Y-14560674D02*
X13153707Y-14522579D01*
X13153707Y-14522579D02*
X13163231Y-14503531D01*
X13163231Y-14503531D02*
X13172755Y-14494007D01*
X13172755Y-14494007D02*
X13191802Y-14484483D01*
X13344183Y-14684483D02*
X13344183Y-14551150D01*
X13344183Y-14570198D02*
X13353707Y-14560674D01*
X13353707Y-14560674D02*
X13372755Y-14551150D01*
X13372755Y-14551150D02*
X13401326Y-14551150D01*
X13401326Y-14551150D02*
X13420374Y-14560674D01*
X13420374Y-14560674D02*
X13429898Y-14579721D01*
X13429898Y-14579721D02*
X13429898Y-14684483D01*
X13429898Y-14579721D02*
X13439421Y-14560674D01*
X13439421Y-14560674D02*
X13458469Y-14551150D01*
X13458469Y-14551150D02*
X13487040Y-14551150D01*
X13487040Y-14551150D02*
X13506088Y-14560674D01*
X13506088Y-14560674D02*
X13515612Y-14579721D01*
X13515612Y-14579721D02*
X13515612Y-14684483D01*
X13610850Y-14684483D02*
X13610850Y-14551150D01*
X13610850Y-14570198D02*
X13620374Y-14560674D01*
X13620374Y-14560674D02*
X13639421Y-14551150D01*
X13639421Y-14551150D02*
X13667993Y-14551150D01*
X13667993Y-14551150D02*
X13687041Y-14560674D01*
X13687041Y-14560674D02*
X13696564Y-14579721D01*
X13696564Y-14579721D02*
X13696564Y-14684483D01*
X13696564Y-14579721D02*
X13706088Y-14560674D01*
X13706088Y-14560674D02*
X13725136Y-14551150D01*
X13725136Y-14551150D02*
X13753707Y-14551150D01*
X13753707Y-14551150D02*
X13772755Y-14560674D01*
X13772755Y-14560674D02*
X13782279Y-14579721D01*
X13782279Y-14579721D02*
X13782279Y-14684483D01*
X14172755Y-14474960D02*
X14001326Y-14732102D01*
X14429898Y-14484483D02*
X14448945Y-14484483D01*
X14448945Y-14484483D02*
X14467993Y-14494007D01*
X14467993Y-14494007D02*
X14477517Y-14503531D01*
X14477517Y-14503531D02*
X14487041Y-14522579D01*
X14487041Y-14522579D02*
X14496564Y-14560674D01*
X14496564Y-14560674D02*
X14496564Y-14608293D01*
X14496564Y-14608293D02*
X14487041Y-14646388D01*
X14487041Y-14646388D02*
X14477517Y-14665436D01*
X14477517Y-14665436D02*
X14467993Y-14674960D01*
X14467993Y-14674960D02*
X14448945Y-14684483D01*
X14448945Y-14684483D02*
X14429898Y-14684483D01*
X14429898Y-14684483D02*
X14410850Y-14674960D01*
X14410850Y-14674960D02*
X14401326Y-14665436D01*
X14401326Y-14665436D02*
X14391803Y-14646388D01*
X14391803Y-14646388D02*
X14382279Y-14608293D01*
X14382279Y-14608293D02*
X14382279Y-14560674D01*
X14382279Y-14560674D02*
X14391803Y-14522579D01*
X14391803Y-14522579D02*
X14401326Y-14503531D01*
X14401326Y-14503531D02*
X14410850Y-14494007D01*
X14410850Y-14494007D02*
X14429898Y-14484483D01*
X14582279Y-14665436D02*
X14591803Y-14674960D01*
X14591803Y-14674960D02*
X14582279Y-14684483D01*
X14582279Y-14684483D02*
X14572755Y-14674960D01*
X14572755Y-14674960D02*
X14582279Y-14665436D01*
X14582279Y-14665436D02*
X14582279Y-14684483D01*
X14715612Y-14484483D02*
X14734660Y-14484483D01*
X14734660Y-14484483D02*
X14753707Y-14494007D01*
X14753707Y-14494007D02*
X14763231Y-14503531D01*
X14763231Y-14503531D02*
X14772755Y-14522579D01*
X14772755Y-14522579D02*
X14782279Y-14560674D01*
X14782279Y-14560674D02*
X14782279Y-14608293D01*
X14782279Y-14608293D02*
X14772755Y-14646388D01*
X14772755Y-14646388D02*
X14763231Y-14665436D01*
X14763231Y-14665436D02*
X14753707Y-14674960D01*
X14753707Y-14674960D02*
X14734660Y-14684483D01*
X14734660Y-14684483D02*
X14715612Y-14684483D01*
X14715612Y-14684483D02*
X14696564Y-14674960D01*
X14696564Y-14674960D02*
X14687041Y-14665436D01*
X14687041Y-14665436D02*
X14677517Y-14646388D01*
X14677517Y-14646388D02*
X14667993Y-14608293D01*
X14667993Y-14608293D02*
X14667993Y-14560674D01*
X14667993Y-14560674D02*
X14677517Y-14522579D01*
X14677517Y-14522579D02*
X14687041Y-14503531D01*
X14687041Y-14503531D02*
X14696564Y-14494007D01*
X14696564Y-14494007D02*
X14715612Y-14484483D01*
X14858469Y-14503531D02*
X14867993Y-14494007D01*
X14867993Y-14494007D02*
X14887041Y-14484483D01*
X14887041Y-14484483D02*
X14934660Y-14484483D01*
X14934660Y-14484483D02*
X14953707Y-14494007D01*
X14953707Y-14494007D02*
X14963231Y-14503531D01*
X14963231Y-14503531D02*
X14972755Y-14522579D01*
X14972755Y-14522579D02*
X14972755Y-14541626D01*
X14972755Y-14541626D02*
X14963231Y-14570198D01*
X14963231Y-14570198D02*
X14848945Y-14684483D01*
X14848945Y-14684483D02*
X14972755Y-14684483D01*
X15153707Y-14484483D02*
X15058469Y-14484483D01*
X15058469Y-14484483D02*
X15048945Y-14579721D01*
X15048945Y-14579721D02*
X15058469Y-14570198D01*
X15058469Y-14570198D02*
X15077517Y-14560674D01*
X15077517Y-14560674D02*
X15125136Y-14560674D01*
X15125136Y-14560674D02*
X15144184Y-14570198D01*
X15144184Y-14570198D02*
X15153707Y-14579721D01*
X15153707Y-14579721D02*
X15163231Y-14598769D01*
X15163231Y-14598769D02*
X15163231Y-14646388D01*
X15163231Y-14646388D02*
X15153707Y-14665436D01*
X15153707Y-14665436D02*
X15144184Y-14674960D01*
X15144184Y-14674960D02*
X15125136Y-14684483D01*
X15125136Y-14684483D02*
X15077517Y-14684483D01*
X15077517Y-14684483D02*
X15058469Y-14674960D01*
X15058469Y-14674960D02*
X15048945Y-14665436D01*
X15334660Y-14484483D02*
X15296564Y-14484483D01*
X15296564Y-14484483D02*
X15277517Y-14494007D01*
X15277517Y-14494007D02*
X15267993Y-14503531D01*
X15267993Y-14503531D02*
X15248945Y-14532102D01*
X15248945Y-14532102D02*
X15239422Y-14570198D01*
X15239422Y-14570198D02*
X15239422Y-14646388D01*
X15239422Y-14646388D02*
X15248945Y-14665436D01*
X15248945Y-14665436D02*
X15258469Y-14674960D01*
X15258469Y-14674960D02*
X15277517Y-14684483D01*
X15277517Y-14684483D02*
X15315612Y-14684483D01*
X15315612Y-14684483D02*
X15334660Y-14674960D01*
X15334660Y-14674960D02*
X15344184Y-14665436D01*
X15344184Y-14665436D02*
X15353707Y-14646388D01*
X15353707Y-14646388D02*
X15353707Y-14598769D01*
X15353707Y-14598769D02*
X15344184Y-14579721D01*
X15344184Y-14579721D02*
X15334660Y-14570198D01*
X15334660Y-14570198D02*
X15315612Y-14560674D01*
X15315612Y-14560674D02*
X15277517Y-14560674D01*
X15277517Y-14560674D02*
X15258469Y-14570198D01*
X15258469Y-14570198D02*
X15248945Y-14579721D01*
X15248945Y-14579721D02*
X15239422Y-14598769D01*
X15429898Y-14484483D02*
X15429898Y-14522579D01*
X15506088Y-14484483D02*
X15506088Y-14522579D01*
X15801327Y-14760674D02*
X15791803Y-14751150D01*
X15791803Y-14751150D02*
X15772755Y-14722579D01*
X15772755Y-14722579D02*
X15763231Y-14703531D01*
X15763231Y-14703531D02*
X15753707Y-14674960D01*
X15753707Y-14674960D02*
X15744184Y-14627340D01*
X15744184Y-14627340D02*
X15744184Y-14589245D01*
X15744184Y-14589245D02*
X15753707Y-14541626D01*
X15753707Y-14541626D02*
X15763231Y-14513055D01*
X15763231Y-14513055D02*
X15772755Y-14494007D01*
X15772755Y-14494007D02*
X15791803Y-14465436D01*
X15791803Y-14465436D02*
X15801327Y-14455912D01*
X15915612Y-14484483D02*
X15934660Y-14484483D01*
X15934660Y-14484483D02*
X15953707Y-14494007D01*
X15953707Y-14494007D02*
X15963231Y-14503531D01*
X15963231Y-14503531D02*
X15972755Y-14522579D01*
X15972755Y-14522579D02*
X15982279Y-14560674D01*
X15982279Y-14560674D02*
X15982279Y-14608293D01*
X15982279Y-14608293D02*
X15972755Y-14646388D01*
X15972755Y-14646388D02*
X15963231Y-14665436D01*
X15963231Y-14665436D02*
X15953707Y-14674960D01*
X15953707Y-14674960D02*
X15934660Y-14684483D01*
X15934660Y-14684483D02*
X15915612Y-14684483D01*
X15915612Y-14684483D02*
X15896565Y-14674960D01*
X15896565Y-14674960D02*
X15887041Y-14665436D01*
X15887041Y-14665436D02*
X15877517Y-14646388D01*
X15877517Y-14646388D02*
X15867993Y-14608293D01*
X15867993Y-14608293D02*
X15867993Y-14560674D01*
X15867993Y-14560674D02*
X15877517Y-14522579D01*
X15877517Y-14522579D02*
X15887041Y-14503531D01*
X15887041Y-14503531D02*
X15896565Y-14494007D01*
X15896565Y-14494007D02*
X15915612Y-14484483D01*
X16220374Y-14684483D02*
X16220374Y-14484483D01*
X16306088Y-14684483D02*
X16306088Y-14579721D01*
X16306088Y-14579721D02*
X16296565Y-14560674D01*
X16296565Y-14560674D02*
X16277517Y-14551150D01*
X16277517Y-14551150D02*
X16248946Y-14551150D01*
X16248946Y-14551150D02*
X16229898Y-14560674D01*
X16229898Y-14560674D02*
X16220374Y-14570198D01*
X16429898Y-14684483D02*
X16410850Y-14674960D01*
X16410850Y-14674960D02*
X16401327Y-14665436D01*
X16401327Y-14665436D02*
X16391803Y-14646388D01*
X16391803Y-14646388D02*
X16391803Y-14589245D01*
X16391803Y-14589245D02*
X16401327Y-14570198D01*
X16401327Y-14570198D02*
X16410850Y-14560674D01*
X16410850Y-14560674D02*
X16429898Y-14551150D01*
X16429898Y-14551150D02*
X16458469Y-14551150D01*
X16458469Y-14551150D02*
X16477517Y-14560674D01*
X16477517Y-14560674D02*
X16487041Y-14570198D01*
X16487041Y-14570198D02*
X16496565Y-14589245D01*
X16496565Y-14589245D02*
X16496565Y-14646388D01*
X16496565Y-14646388D02*
X16487041Y-14665436D01*
X16487041Y-14665436D02*
X16477517Y-14674960D01*
X16477517Y-14674960D02*
X16458469Y-14684483D01*
X16458469Y-14684483D02*
X16429898Y-14684483D01*
X16610850Y-14684483D02*
X16591803Y-14674960D01*
X16591803Y-14674960D02*
X16582279Y-14655912D01*
X16582279Y-14655912D02*
X16582279Y-14484483D01*
X16763231Y-14674960D02*
X16744184Y-14684483D01*
X16744184Y-14684483D02*
X16706088Y-14684483D01*
X16706088Y-14684483D02*
X16687041Y-14674960D01*
X16687041Y-14674960D02*
X16677517Y-14655912D01*
X16677517Y-14655912D02*
X16677517Y-14579721D01*
X16677517Y-14579721D02*
X16687041Y-14560674D01*
X16687041Y-14560674D02*
X16706088Y-14551150D01*
X16706088Y-14551150D02*
X16744184Y-14551150D01*
X16744184Y-14551150D02*
X16763231Y-14560674D01*
X16763231Y-14560674D02*
X16772755Y-14579721D01*
X16772755Y-14579721D02*
X16772755Y-14598769D01*
X16772755Y-14598769D02*
X16677517Y-14617817D01*
X16848946Y-14674960D02*
X16867993Y-14684483D01*
X16867993Y-14684483D02*
X16906089Y-14684483D01*
X16906089Y-14684483D02*
X16925136Y-14674960D01*
X16925136Y-14674960D02*
X16934660Y-14655912D01*
X16934660Y-14655912D02*
X16934660Y-14646388D01*
X16934660Y-14646388D02*
X16925136Y-14627340D01*
X16925136Y-14627340D02*
X16906089Y-14617817D01*
X16906089Y-14617817D02*
X16877517Y-14617817D01*
X16877517Y-14617817D02*
X16858470Y-14608293D01*
X16858470Y-14608293D02*
X16848946Y-14589245D01*
X16848946Y-14589245D02*
X16848946Y-14579721D01*
X16848946Y-14579721D02*
X16858470Y-14560674D01*
X16858470Y-14560674D02*
X16877517Y-14551150D01*
X16877517Y-14551150D02*
X16906089Y-14551150D01*
X16906089Y-14551150D02*
X16925136Y-14560674D01*
X17172755Y-14608293D02*
X17325136Y-14608293D01*
X17248946Y-14684483D02*
X17248946Y-14532102D01*
X17658470Y-14551150D02*
X17658470Y-14684483D01*
X17610851Y-14474960D02*
X17563232Y-14617817D01*
X17563232Y-14617817D02*
X17687041Y-14617817D01*
X17906089Y-14674960D02*
X17925136Y-14684483D01*
X17925136Y-14684483D02*
X17963232Y-14684483D01*
X17963232Y-14684483D02*
X17982279Y-14674960D01*
X17982279Y-14674960D02*
X17991803Y-14655912D01*
X17991803Y-14655912D02*
X17991803Y-14646388D01*
X17991803Y-14646388D02*
X17982279Y-14627340D01*
X17982279Y-14627340D02*
X17963232Y-14617817D01*
X17963232Y-14617817D02*
X17934660Y-14617817D01*
X17934660Y-14617817D02*
X17915613Y-14608293D01*
X17915613Y-14608293D02*
X17906089Y-14589245D01*
X17906089Y-14589245D02*
X17906089Y-14579721D01*
X17906089Y-14579721D02*
X17915613Y-14560674D01*
X17915613Y-14560674D02*
X17934660Y-14551150D01*
X17934660Y-14551150D02*
X17963232Y-14551150D01*
X17963232Y-14551150D02*
X17982279Y-14560674D01*
X18106089Y-14684483D02*
X18087041Y-14674960D01*
X18087041Y-14674960D02*
X18077517Y-14655912D01*
X18077517Y-14655912D02*
X18077517Y-14484483D01*
X18210851Y-14684483D02*
X18191803Y-14674960D01*
X18191803Y-14674960D02*
X18182279Y-14665436D01*
X18182279Y-14665436D02*
X18172755Y-14646388D01*
X18172755Y-14646388D02*
X18172755Y-14589245D01*
X18172755Y-14589245D02*
X18182279Y-14570198D01*
X18182279Y-14570198D02*
X18191803Y-14560674D01*
X18191803Y-14560674D02*
X18210851Y-14551150D01*
X18210851Y-14551150D02*
X18239422Y-14551150D01*
X18239422Y-14551150D02*
X18258470Y-14560674D01*
X18258470Y-14560674D02*
X18267994Y-14570198D01*
X18267994Y-14570198D02*
X18277517Y-14589245D01*
X18277517Y-14589245D02*
X18277517Y-14646388D01*
X18277517Y-14646388D02*
X18267994Y-14665436D01*
X18267994Y-14665436D02*
X18258470Y-14674960D01*
X18258470Y-14674960D02*
X18239422Y-14684483D01*
X18239422Y-14684483D02*
X18210851Y-14684483D01*
X18334660Y-14551150D02*
X18410851Y-14551150D01*
X18363232Y-14484483D02*
X18363232Y-14655912D01*
X18363232Y-14655912D02*
X18372755Y-14674960D01*
X18372755Y-14674960D02*
X18391803Y-14684483D01*
X18391803Y-14684483D02*
X18410851Y-14684483D01*
X18467994Y-14674960D02*
X18487041Y-14684483D01*
X18487041Y-14684483D02*
X18525136Y-14684483D01*
X18525136Y-14684483D02*
X18544184Y-14674960D01*
X18544184Y-14674960D02*
X18553708Y-14655912D01*
X18553708Y-14655912D02*
X18553708Y-14646388D01*
X18553708Y-14646388D02*
X18544184Y-14627340D01*
X18544184Y-14627340D02*
X18525136Y-14617817D01*
X18525136Y-14617817D02*
X18496565Y-14617817D01*
X18496565Y-14617817D02*
X18477517Y-14608293D01*
X18477517Y-14608293D02*
X18467994Y-14589245D01*
X18467994Y-14589245D02*
X18467994Y-14579721D01*
X18467994Y-14579721D02*
X18477517Y-14560674D01*
X18477517Y-14560674D02*
X18496565Y-14551150D01*
X18496565Y-14551150D02*
X18525136Y-14551150D01*
X18525136Y-14551150D02*
X18544184Y-14560674D01*
X18620375Y-14760674D02*
X18629898Y-14751150D01*
X18629898Y-14751150D02*
X18648946Y-14722579D01*
X18648946Y-14722579D02*
X18658470Y-14703531D01*
X18658470Y-14703531D02*
X18667994Y-14674960D01*
X18667994Y-14674960D02*
X18677517Y-14627340D01*
X18677517Y-14627340D02*
X18677517Y-14589245D01*
X18677517Y-14589245D02*
X18667994Y-14541626D01*
X18667994Y-14541626D02*
X18658470Y-14513055D01*
X18658470Y-14513055D02*
X18648946Y-14494007D01*
X18648946Y-14494007D02*
X18629898Y-14465436D01*
X18629898Y-14465436D02*
X18620375Y-14455912D01*
D13*
X12186264Y-14817000D02*
X12186264Y-14897000D01*
X12146264Y-14857000D02*
X12226264Y-14857000D01*
D10*
X12525136Y-14748483D02*
X12544183Y-14748483D01*
X12544183Y-14748483D02*
X12563231Y-14758007D01*
X12563231Y-14758007D02*
X12572755Y-14767531D01*
X12572755Y-14767531D02*
X12582279Y-14786579D01*
X12582279Y-14786579D02*
X12591802Y-14824674D01*
X12591802Y-14824674D02*
X12591802Y-14872293D01*
X12591802Y-14872293D02*
X12582279Y-14910388D01*
X12582279Y-14910388D02*
X12572755Y-14929436D01*
X12572755Y-14929436D02*
X12563231Y-14938960D01*
X12563231Y-14938960D02*
X12544183Y-14948483D01*
X12544183Y-14948483D02*
X12525136Y-14948483D01*
X12525136Y-14948483D02*
X12506088Y-14938960D01*
X12506088Y-14938960D02*
X12496564Y-14929436D01*
X12496564Y-14929436D02*
X12487040Y-14910388D01*
X12487040Y-14910388D02*
X12477517Y-14872293D01*
X12477517Y-14872293D02*
X12477517Y-14824674D01*
X12477517Y-14824674D02*
X12487040Y-14786579D01*
X12487040Y-14786579D02*
X12496564Y-14767531D01*
X12496564Y-14767531D02*
X12506088Y-14758007D01*
X12506088Y-14758007D02*
X12525136Y-14748483D01*
X12677517Y-14929436D02*
X12687040Y-14938960D01*
X12687040Y-14938960D02*
X12677517Y-14948483D01*
X12677517Y-14948483D02*
X12667993Y-14938960D01*
X12667993Y-14938960D02*
X12677517Y-14929436D01*
X12677517Y-14929436D02*
X12677517Y-14948483D01*
X12801326Y-14834198D02*
X12782279Y-14824674D01*
X12782279Y-14824674D02*
X12772755Y-14815150D01*
X12772755Y-14815150D02*
X12763231Y-14796102D01*
X12763231Y-14796102D02*
X12763231Y-14786579D01*
X12763231Y-14786579D02*
X12772755Y-14767531D01*
X12772755Y-14767531D02*
X12782279Y-14758007D01*
X12782279Y-14758007D02*
X12801326Y-14748483D01*
X12801326Y-14748483D02*
X12839421Y-14748483D01*
X12839421Y-14748483D02*
X12858469Y-14758007D01*
X12858469Y-14758007D02*
X12867993Y-14767531D01*
X12867993Y-14767531D02*
X12877517Y-14786579D01*
X12877517Y-14786579D02*
X12877517Y-14796102D01*
X12877517Y-14796102D02*
X12867993Y-14815150D01*
X12867993Y-14815150D02*
X12858469Y-14824674D01*
X12858469Y-14824674D02*
X12839421Y-14834198D01*
X12839421Y-14834198D02*
X12801326Y-14834198D01*
X12801326Y-14834198D02*
X12782279Y-14843721D01*
X12782279Y-14843721D02*
X12772755Y-14853245D01*
X12772755Y-14853245D02*
X12763231Y-14872293D01*
X12763231Y-14872293D02*
X12763231Y-14910388D01*
X12763231Y-14910388D02*
X12772755Y-14929436D01*
X12772755Y-14929436D02*
X12782279Y-14938960D01*
X12782279Y-14938960D02*
X12801326Y-14948483D01*
X12801326Y-14948483D02*
X12839421Y-14948483D01*
X12839421Y-14948483D02*
X12858469Y-14938960D01*
X12858469Y-14938960D02*
X12867993Y-14929436D01*
X12867993Y-14929436D02*
X12877517Y-14910388D01*
X12877517Y-14910388D02*
X12877517Y-14872293D01*
X12877517Y-14872293D02*
X12867993Y-14853245D01*
X12867993Y-14853245D02*
X12858469Y-14843721D01*
X12858469Y-14843721D02*
X12839421Y-14834198D01*
X13001326Y-14748483D02*
X13020374Y-14748483D01*
X13020374Y-14748483D02*
X13039421Y-14758007D01*
X13039421Y-14758007D02*
X13048945Y-14767531D01*
X13048945Y-14767531D02*
X13058469Y-14786579D01*
X13058469Y-14786579D02*
X13067993Y-14824674D01*
X13067993Y-14824674D02*
X13067993Y-14872293D01*
X13067993Y-14872293D02*
X13058469Y-14910388D01*
X13058469Y-14910388D02*
X13048945Y-14929436D01*
X13048945Y-14929436D02*
X13039421Y-14938960D01*
X13039421Y-14938960D02*
X13020374Y-14948483D01*
X13020374Y-14948483D02*
X13001326Y-14948483D01*
X13001326Y-14948483D02*
X12982279Y-14938960D01*
X12982279Y-14938960D02*
X12972755Y-14929436D01*
X12972755Y-14929436D02*
X12963231Y-14910388D01*
X12963231Y-14910388D02*
X12953707Y-14872293D01*
X12953707Y-14872293D02*
X12953707Y-14824674D01*
X12953707Y-14824674D02*
X12963231Y-14786579D01*
X12963231Y-14786579D02*
X12972755Y-14767531D01*
X12972755Y-14767531D02*
X12982279Y-14758007D01*
X12982279Y-14758007D02*
X13001326Y-14748483D01*
X13191802Y-14748483D02*
X13210850Y-14748483D01*
X13210850Y-14748483D02*
X13229898Y-14758007D01*
X13229898Y-14758007D02*
X13239421Y-14767531D01*
X13239421Y-14767531D02*
X13248945Y-14786579D01*
X13248945Y-14786579D02*
X13258469Y-14824674D01*
X13258469Y-14824674D02*
X13258469Y-14872293D01*
X13258469Y-14872293D02*
X13248945Y-14910388D01*
X13248945Y-14910388D02*
X13239421Y-14929436D01*
X13239421Y-14929436D02*
X13229898Y-14938960D01*
X13229898Y-14938960D02*
X13210850Y-14948483D01*
X13210850Y-14948483D02*
X13191802Y-14948483D01*
X13191802Y-14948483D02*
X13172755Y-14938960D01*
X13172755Y-14938960D02*
X13163231Y-14929436D01*
X13163231Y-14929436D02*
X13153707Y-14910388D01*
X13153707Y-14910388D02*
X13144183Y-14872293D01*
X13144183Y-14872293D02*
X13144183Y-14824674D01*
X13144183Y-14824674D02*
X13153707Y-14786579D01*
X13153707Y-14786579D02*
X13163231Y-14767531D01*
X13163231Y-14767531D02*
X13172755Y-14758007D01*
X13172755Y-14758007D02*
X13191802Y-14748483D01*
X13344183Y-14948483D02*
X13344183Y-14815150D01*
X13344183Y-14834198D02*
X13353707Y-14824674D01*
X13353707Y-14824674D02*
X13372755Y-14815150D01*
X13372755Y-14815150D02*
X13401326Y-14815150D01*
X13401326Y-14815150D02*
X13420374Y-14824674D01*
X13420374Y-14824674D02*
X13429898Y-14843721D01*
X13429898Y-14843721D02*
X13429898Y-14948483D01*
X13429898Y-14843721D02*
X13439421Y-14824674D01*
X13439421Y-14824674D02*
X13458469Y-14815150D01*
X13458469Y-14815150D02*
X13487040Y-14815150D01*
X13487040Y-14815150D02*
X13506088Y-14824674D01*
X13506088Y-14824674D02*
X13515612Y-14843721D01*
X13515612Y-14843721D02*
X13515612Y-14948483D01*
X13610850Y-14948483D02*
X13610850Y-14815150D01*
X13610850Y-14834198D02*
X13620374Y-14824674D01*
X13620374Y-14824674D02*
X13639421Y-14815150D01*
X13639421Y-14815150D02*
X13667993Y-14815150D01*
X13667993Y-14815150D02*
X13687041Y-14824674D01*
X13687041Y-14824674D02*
X13696564Y-14843721D01*
X13696564Y-14843721D02*
X13696564Y-14948483D01*
X13696564Y-14843721D02*
X13706088Y-14824674D01*
X13706088Y-14824674D02*
X13725136Y-14815150D01*
X13725136Y-14815150D02*
X13753707Y-14815150D01*
X13753707Y-14815150D02*
X13772755Y-14824674D01*
X13772755Y-14824674D02*
X13782279Y-14843721D01*
X13782279Y-14843721D02*
X13782279Y-14948483D01*
X14172755Y-14738960D02*
X14001326Y-14996102D01*
X14429898Y-14748483D02*
X14448945Y-14748483D01*
X14448945Y-14748483D02*
X14467993Y-14758007D01*
X14467993Y-14758007D02*
X14477517Y-14767531D01*
X14477517Y-14767531D02*
X14487041Y-14786579D01*
X14487041Y-14786579D02*
X14496564Y-14824674D01*
X14496564Y-14824674D02*
X14496564Y-14872293D01*
X14496564Y-14872293D02*
X14487041Y-14910388D01*
X14487041Y-14910388D02*
X14477517Y-14929436D01*
X14477517Y-14929436D02*
X14467993Y-14938960D01*
X14467993Y-14938960D02*
X14448945Y-14948483D01*
X14448945Y-14948483D02*
X14429898Y-14948483D01*
X14429898Y-14948483D02*
X14410850Y-14938960D01*
X14410850Y-14938960D02*
X14401326Y-14929436D01*
X14401326Y-14929436D02*
X14391803Y-14910388D01*
X14391803Y-14910388D02*
X14382279Y-14872293D01*
X14382279Y-14872293D02*
X14382279Y-14824674D01*
X14382279Y-14824674D02*
X14391803Y-14786579D01*
X14391803Y-14786579D02*
X14401326Y-14767531D01*
X14401326Y-14767531D02*
X14410850Y-14758007D01*
X14410850Y-14758007D02*
X14429898Y-14748483D01*
X14582279Y-14929436D02*
X14591803Y-14938960D01*
X14591803Y-14938960D02*
X14582279Y-14948483D01*
X14582279Y-14948483D02*
X14572755Y-14938960D01*
X14572755Y-14938960D02*
X14582279Y-14929436D01*
X14582279Y-14929436D02*
X14582279Y-14948483D01*
X14715612Y-14748483D02*
X14734660Y-14748483D01*
X14734660Y-14748483D02*
X14753707Y-14758007D01*
X14753707Y-14758007D02*
X14763231Y-14767531D01*
X14763231Y-14767531D02*
X14772755Y-14786579D01*
X14772755Y-14786579D02*
X14782279Y-14824674D01*
X14782279Y-14824674D02*
X14782279Y-14872293D01*
X14782279Y-14872293D02*
X14772755Y-14910388D01*
X14772755Y-14910388D02*
X14763231Y-14929436D01*
X14763231Y-14929436D02*
X14753707Y-14938960D01*
X14753707Y-14938960D02*
X14734660Y-14948483D01*
X14734660Y-14948483D02*
X14715612Y-14948483D01*
X14715612Y-14948483D02*
X14696564Y-14938960D01*
X14696564Y-14938960D02*
X14687041Y-14929436D01*
X14687041Y-14929436D02*
X14677517Y-14910388D01*
X14677517Y-14910388D02*
X14667993Y-14872293D01*
X14667993Y-14872293D02*
X14667993Y-14824674D01*
X14667993Y-14824674D02*
X14677517Y-14786579D01*
X14677517Y-14786579D02*
X14687041Y-14767531D01*
X14687041Y-14767531D02*
X14696564Y-14758007D01*
X14696564Y-14758007D02*
X14715612Y-14748483D01*
X14848945Y-14748483D02*
X14972755Y-14748483D01*
X14972755Y-14748483D02*
X14906088Y-14824674D01*
X14906088Y-14824674D02*
X14934660Y-14824674D01*
X14934660Y-14824674D02*
X14953707Y-14834198D01*
X14953707Y-14834198D02*
X14963231Y-14843721D01*
X14963231Y-14843721D02*
X14972755Y-14862769D01*
X14972755Y-14862769D02*
X14972755Y-14910388D01*
X14972755Y-14910388D02*
X14963231Y-14929436D01*
X14963231Y-14929436D02*
X14953707Y-14938960D01*
X14953707Y-14938960D02*
X14934660Y-14948483D01*
X14934660Y-14948483D02*
X14877517Y-14948483D01*
X14877517Y-14948483D02*
X14858469Y-14938960D01*
X14858469Y-14938960D02*
X14848945Y-14929436D01*
X15163231Y-14948483D02*
X15048945Y-14948483D01*
X15106088Y-14948483D02*
X15106088Y-14748483D01*
X15106088Y-14748483D02*
X15087041Y-14777055D01*
X15087041Y-14777055D02*
X15067993Y-14796102D01*
X15067993Y-14796102D02*
X15048945Y-14805626D01*
X15344184Y-14748483D02*
X15248945Y-14748483D01*
X15248945Y-14748483D02*
X15239422Y-14843721D01*
X15239422Y-14843721D02*
X15248945Y-14834198D01*
X15248945Y-14834198D02*
X15267993Y-14824674D01*
X15267993Y-14824674D02*
X15315612Y-14824674D01*
X15315612Y-14824674D02*
X15334660Y-14834198D01*
X15334660Y-14834198D02*
X15344184Y-14843721D01*
X15344184Y-14843721D02*
X15353707Y-14862769D01*
X15353707Y-14862769D02*
X15353707Y-14910388D01*
X15353707Y-14910388D02*
X15344184Y-14929436D01*
X15344184Y-14929436D02*
X15334660Y-14938960D01*
X15334660Y-14938960D02*
X15315612Y-14948483D01*
X15315612Y-14948483D02*
X15267993Y-14948483D01*
X15267993Y-14948483D02*
X15248945Y-14938960D01*
X15248945Y-14938960D02*
X15239422Y-14929436D01*
X15429898Y-14748483D02*
X15429898Y-14786579D01*
X15506088Y-14748483D02*
X15506088Y-14786579D01*
X15801327Y-15024674D02*
X15791803Y-15015150D01*
X15791803Y-15015150D02*
X15772755Y-14986579D01*
X15772755Y-14986579D02*
X15763231Y-14967531D01*
X15763231Y-14967531D02*
X15753707Y-14938960D01*
X15753707Y-14938960D02*
X15744184Y-14891340D01*
X15744184Y-14891340D02*
X15744184Y-14853245D01*
X15744184Y-14853245D02*
X15753707Y-14805626D01*
X15753707Y-14805626D02*
X15763231Y-14777055D01*
X15763231Y-14777055D02*
X15772755Y-14758007D01*
X15772755Y-14758007D02*
X15791803Y-14729436D01*
X15791803Y-14729436D02*
X15801327Y-14719912D01*
X15963231Y-14815150D02*
X15963231Y-14948483D01*
X15915612Y-14738960D02*
X15867993Y-14881817D01*
X15867993Y-14881817D02*
X15991803Y-14881817D01*
X16220374Y-14948483D02*
X16220374Y-14748483D01*
X16306088Y-14948483D02*
X16306088Y-14843721D01*
X16306088Y-14843721D02*
X16296565Y-14824674D01*
X16296565Y-14824674D02*
X16277517Y-14815150D01*
X16277517Y-14815150D02*
X16248946Y-14815150D01*
X16248946Y-14815150D02*
X16229898Y-14824674D01*
X16229898Y-14824674D02*
X16220374Y-14834198D01*
X16429898Y-14948483D02*
X16410850Y-14938960D01*
X16410850Y-14938960D02*
X16401327Y-14929436D01*
X16401327Y-14929436D02*
X16391803Y-14910388D01*
X16391803Y-14910388D02*
X16391803Y-14853245D01*
X16391803Y-14853245D02*
X16401327Y-14834198D01*
X16401327Y-14834198D02*
X16410850Y-14824674D01*
X16410850Y-14824674D02*
X16429898Y-14815150D01*
X16429898Y-14815150D02*
X16458469Y-14815150D01*
X16458469Y-14815150D02*
X16477517Y-14824674D01*
X16477517Y-14824674D02*
X16487041Y-14834198D01*
X16487041Y-14834198D02*
X16496565Y-14853245D01*
X16496565Y-14853245D02*
X16496565Y-14910388D01*
X16496565Y-14910388D02*
X16487041Y-14929436D01*
X16487041Y-14929436D02*
X16477517Y-14938960D01*
X16477517Y-14938960D02*
X16458469Y-14948483D01*
X16458469Y-14948483D02*
X16429898Y-14948483D01*
X16610850Y-14948483D02*
X16591803Y-14938960D01*
X16591803Y-14938960D02*
X16582279Y-14919912D01*
X16582279Y-14919912D02*
X16582279Y-14748483D01*
X16763231Y-14938960D02*
X16744184Y-14948483D01*
X16744184Y-14948483D02*
X16706088Y-14948483D01*
X16706088Y-14948483D02*
X16687041Y-14938960D01*
X16687041Y-14938960D02*
X16677517Y-14919912D01*
X16677517Y-14919912D02*
X16677517Y-14843721D01*
X16677517Y-14843721D02*
X16687041Y-14824674D01*
X16687041Y-14824674D02*
X16706088Y-14815150D01*
X16706088Y-14815150D02*
X16744184Y-14815150D01*
X16744184Y-14815150D02*
X16763231Y-14824674D01*
X16763231Y-14824674D02*
X16772755Y-14843721D01*
X16772755Y-14843721D02*
X16772755Y-14862769D01*
X16772755Y-14862769D02*
X16677517Y-14881817D01*
X16848946Y-14938960D02*
X16867993Y-14948483D01*
X16867993Y-14948483D02*
X16906089Y-14948483D01*
X16906089Y-14948483D02*
X16925136Y-14938960D01*
X16925136Y-14938960D02*
X16934660Y-14919912D01*
X16934660Y-14919912D02*
X16934660Y-14910388D01*
X16934660Y-14910388D02*
X16925136Y-14891340D01*
X16925136Y-14891340D02*
X16906089Y-14881817D01*
X16906089Y-14881817D02*
X16877517Y-14881817D01*
X16877517Y-14881817D02*
X16858470Y-14872293D01*
X16858470Y-14872293D02*
X16848946Y-14853245D01*
X16848946Y-14853245D02*
X16848946Y-14843721D01*
X16848946Y-14843721D02*
X16858470Y-14824674D01*
X16858470Y-14824674D02*
X16877517Y-14815150D01*
X16877517Y-14815150D02*
X16906089Y-14815150D01*
X16906089Y-14815150D02*
X16925136Y-14824674D01*
X17001327Y-15024674D02*
X17010851Y-15015150D01*
X17010851Y-15015150D02*
X17029898Y-14986579D01*
X17029898Y-14986579D02*
X17039422Y-14967531D01*
X17039422Y-14967531D02*
X17048946Y-14938960D01*
X17048946Y-14938960D02*
X17058470Y-14891340D01*
X17058470Y-14891340D02*
X17058470Y-14853245D01*
X17058470Y-14853245D02*
X17048946Y-14805626D01*
X17048946Y-14805626D02*
X17039422Y-14777055D01*
X17039422Y-14777055D02*
X17029898Y-14758007D01*
X17029898Y-14758007D02*
X17010851Y-14729436D01*
X17010851Y-14729436D02*
X17001327Y-14719912D01*
D14*
X12213962Y-15150698D02*
X12213962Y-15091301D01*
X12154565Y-15091301D01*
X12154565Y-15150698D01*
X12213962Y-15150698D01*
D10*
X12525136Y-15012483D02*
X12544183Y-15012483D01*
X12544183Y-15012483D02*
X12563231Y-15022007D01*
X12563231Y-15022007D02*
X12572755Y-15031531D01*
X12572755Y-15031531D02*
X12582279Y-15050579D01*
X12582279Y-15050579D02*
X12591802Y-15088674D01*
X12591802Y-15088674D02*
X12591802Y-15136293D01*
X12591802Y-15136293D02*
X12582279Y-15174388D01*
X12582279Y-15174388D02*
X12572755Y-15193436D01*
X12572755Y-15193436D02*
X12563231Y-15202960D01*
X12563231Y-15202960D02*
X12544183Y-15212483D01*
X12544183Y-15212483D02*
X12525136Y-15212483D01*
X12525136Y-15212483D02*
X12506088Y-15202960D01*
X12506088Y-15202960D02*
X12496564Y-15193436D01*
X12496564Y-15193436D02*
X12487040Y-15174388D01*
X12487040Y-15174388D02*
X12477517Y-15136293D01*
X12477517Y-15136293D02*
X12477517Y-15088674D01*
X12477517Y-15088674D02*
X12487040Y-15050579D01*
X12487040Y-15050579D02*
X12496564Y-15031531D01*
X12496564Y-15031531D02*
X12506088Y-15022007D01*
X12506088Y-15022007D02*
X12525136Y-15012483D01*
X12677517Y-15193436D02*
X12687040Y-15202960D01*
X12687040Y-15202960D02*
X12677517Y-15212483D01*
X12677517Y-15212483D02*
X12667993Y-15202960D01*
X12667993Y-15202960D02*
X12677517Y-15193436D01*
X12677517Y-15193436D02*
X12677517Y-15212483D01*
X12801326Y-15098198D02*
X12782279Y-15088674D01*
X12782279Y-15088674D02*
X12772755Y-15079150D01*
X12772755Y-15079150D02*
X12763231Y-15060102D01*
X12763231Y-15060102D02*
X12763231Y-15050579D01*
X12763231Y-15050579D02*
X12772755Y-15031531D01*
X12772755Y-15031531D02*
X12782279Y-15022007D01*
X12782279Y-15022007D02*
X12801326Y-15012483D01*
X12801326Y-15012483D02*
X12839421Y-15012483D01*
X12839421Y-15012483D02*
X12858469Y-15022007D01*
X12858469Y-15022007D02*
X12867993Y-15031531D01*
X12867993Y-15031531D02*
X12877517Y-15050579D01*
X12877517Y-15050579D02*
X12877517Y-15060102D01*
X12877517Y-15060102D02*
X12867993Y-15079150D01*
X12867993Y-15079150D02*
X12858469Y-15088674D01*
X12858469Y-15088674D02*
X12839421Y-15098198D01*
X12839421Y-15098198D02*
X12801326Y-15098198D01*
X12801326Y-15098198D02*
X12782279Y-15107721D01*
X12782279Y-15107721D02*
X12772755Y-15117245D01*
X12772755Y-15117245D02*
X12763231Y-15136293D01*
X12763231Y-15136293D02*
X12763231Y-15174388D01*
X12763231Y-15174388D02*
X12772755Y-15193436D01*
X12772755Y-15193436D02*
X12782279Y-15202960D01*
X12782279Y-15202960D02*
X12801326Y-15212483D01*
X12801326Y-15212483D02*
X12839421Y-15212483D01*
X12839421Y-15212483D02*
X12858469Y-15202960D01*
X12858469Y-15202960D02*
X12867993Y-15193436D01*
X12867993Y-15193436D02*
X12877517Y-15174388D01*
X12877517Y-15174388D02*
X12877517Y-15136293D01*
X12877517Y-15136293D02*
X12867993Y-15117245D01*
X12867993Y-15117245D02*
X12858469Y-15107721D01*
X12858469Y-15107721D02*
X12839421Y-15098198D01*
X13048945Y-15079150D02*
X13048945Y-15212483D01*
X13001326Y-15002960D02*
X12953707Y-15145817D01*
X12953707Y-15145817D02*
X13077517Y-15145817D01*
X13191802Y-15012483D02*
X13210850Y-15012483D01*
X13210850Y-15012483D02*
X13229898Y-15022007D01*
X13229898Y-15022007D02*
X13239421Y-15031531D01*
X13239421Y-15031531D02*
X13248945Y-15050579D01*
X13248945Y-15050579D02*
X13258469Y-15088674D01*
X13258469Y-15088674D02*
X13258469Y-15136293D01*
X13258469Y-15136293D02*
X13248945Y-15174388D01*
X13248945Y-15174388D02*
X13239421Y-15193436D01*
X13239421Y-15193436D02*
X13229898Y-15202960D01*
X13229898Y-15202960D02*
X13210850Y-15212483D01*
X13210850Y-15212483D02*
X13191802Y-15212483D01*
X13191802Y-15212483D02*
X13172755Y-15202960D01*
X13172755Y-15202960D02*
X13163231Y-15193436D01*
X13163231Y-15193436D02*
X13153707Y-15174388D01*
X13153707Y-15174388D02*
X13144183Y-15136293D01*
X13144183Y-15136293D02*
X13144183Y-15088674D01*
X13144183Y-15088674D02*
X13153707Y-15050579D01*
X13153707Y-15050579D02*
X13163231Y-15031531D01*
X13163231Y-15031531D02*
X13172755Y-15022007D01*
X13172755Y-15022007D02*
X13191802Y-15012483D01*
X13344183Y-15212483D02*
X13344183Y-15079150D01*
X13344183Y-15098198D02*
X13353707Y-15088674D01*
X13353707Y-15088674D02*
X13372755Y-15079150D01*
X13372755Y-15079150D02*
X13401326Y-15079150D01*
X13401326Y-15079150D02*
X13420374Y-15088674D01*
X13420374Y-15088674D02*
X13429898Y-15107721D01*
X13429898Y-15107721D02*
X13429898Y-15212483D01*
X13429898Y-15107721D02*
X13439421Y-15088674D01*
X13439421Y-15088674D02*
X13458469Y-15079150D01*
X13458469Y-15079150D02*
X13487040Y-15079150D01*
X13487040Y-15079150D02*
X13506088Y-15088674D01*
X13506088Y-15088674D02*
X13515612Y-15107721D01*
X13515612Y-15107721D02*
X13515612Y-15212483D01*
X13610850Y-15212483D02*
X13610850Y-15079150D01*
X13610850Y-15098198D02*
X13620374Y-15088674D01*
X13620374Y-15088674D02*
X13639421Y-15079150D01*
X13639421Y-15079150D02*
X13667993Y-15079150D01*
X13667993Y-15079150D02*
X13687041Y-15088674D01*
X13687041Y-15088674D02*
X13696564Y-15107721D01*
X13696564Y-15107721D02*
X13696564Y-15212483D01*
X13696564Y-15107721D02*
X13706088Y-15088674D01*
X13706088Y-15088674D02*
X13725136Y-15079150D01*
X13725136Y-15079150D02*
X13753707Y-15079150D01*
X13753707Y-15079150D02*
X13772755Y-15088674D01*
X13772755Y-15088674D02*
X13782279Y-15107721D01*
X13782279Y-15107721D02*
X13782279Y-15212483D01*
X14172755Y-15002960D02*
X14001326Y-15260102D01*
X14429898Y-15012483D02*
X14448945Y-15012483D01*
X14448945Y-15012483D02*
X14467993Y-15022007D01*
X14467993Y-15022007D02*
X14477517Y-15031531D01*
X14477517Y-15031531D02*
X14487041Y-15050579D01*
X14487041Y-15050579D02*
X14496564Y-15088674D01*
X14496564Y-15088674D02*
X14496564Y-15136293D01*
X14496564Y-15136293D02*
X14487041Y-15174388D01*
X14487041Y-15174388D02*
X14477517Y-15193436D01*
X14477517Y-15193436D02*
X14467993Y-15202960D01*
X14467993Y-15202960D02*
X14448945Y-15212483D01*
X14448945Y-15212483D02*
X14429898Y-15212483D01*
X14429898Y-15212483D02*
X14410850Y-15202960D01*
X14410850Y-15202960D02*
X14401326Y-15193436D01*
X14401326Y-15193436D02*
X14391803Y-15174388D01*
X14391803Y-15174388D02*
X14382279Y-15136293D01*
X14382279Y-15136293D02*
X14382279Y-15088674D01*
X14382279Y-15088674D02*
X14391803Y-15050579D01*
X14391803Y-15050579D02*
X14401326Y-15031531D01*
X14401326Y-15031531D02*
X14410850Y-15022007D01*
X14410850Y-15022007D02*
X14429898Y-15012483D01*
X14582279Y-15193436D02*
X14591803Y-15202960D01*
X14591803Y-15202960D02*
X14582279Y-15212483D01*
X14582279Y-15212483D02*
X14572755Y-15202960D01*
X14572755Y-15202960D02*
X14582279Y-15193436D01*
X14582279Y-15193436D02*
X14582279Y-15212483D01*
X14715612Y-15012483D02*
X14734660Y-15012483D01*
X14734660Y-15012483D02*
X14753707Y-15022007D01*
X14753707Y-15022007D02*
X14763231Y-15031531D01*
X14763231Y-15031531D02*
X14772755Y-15050579D01*
X14772755Y-15050579D02*
X14782279Y-15088674D01*
X14782279Y-15088674D02*
X14782279Y-15136293D01*
X14782279Y-15136293D02*
X14772755Y-15174388D01*
X14772755Y-15174388D02*
X14763231Y-15193436D01*
X14763231Y-15193436D02*
X14753707Y-15202960D01*
X14753707Y-15202960D02*
X14734660Y-15212483D01*
X14734660Y-15212483D02*
X14715612Y-15212483D01*
X14715612Y-15212483D02*
X14696564Y-15202960D01*
X14696564Y-15202960D02*
X14687041Y-15193436D01*
X14687041Y-15193436D02*
X14677517Y-15174388D01*
X14677517Y-15174388D02*
X14667993Y-15136293D01*
X14667993Y-15136293D02*
X14667993Y-15088674D01*
X14667993Y-15088674D02*
X14677517Y-15050579D01*
X14677517Y-15050579D02*
X14687041Y-15031531D01*
X14687041Y-15031531D02*
X14696564Y-15022007D01*
X14696564Y-15022007D02*
X14715612Y-15012483D01*
X14848945Y-15012483D02*
X14972755Y-15012483D01*
X14972755Y-15012483D02*
X14906088Y-15088674D01*
X14906088Y-15088674D02*
X14934660Y-15088674D01*
X14934660Y-15088674D02*
X14953707Y-15098198D01*
X14953707Y-15098198D02*
X14963231Y-15107721D01*
X14963231Y-15107721D02*
X14972755Y-15126769D01*
X14972755Y-15126769D02*
X14972755Y-15174388D01*
X14972755Y-15174388D02*
X14963231Y-15193436D01*
X14963231Y-15193436D02*
X14953707Y-15202960D01*
X14953707Y-15202960D02*
X14934660Y-15212483D01*
X14934660Y-15212483D02*
X14877517Y-15212483D01*
X14877517Y-15212483D02*
X14858469Y-15202960D01*
X14858469Y-15202960D02*
X14848945Y-15193436D01*
X15039422Y-15012483D02*
X15163231Y-15012483D01*
X15163231Y-15012483D02*
X15096564Y-15088674D01*
X15096564Y-15088674D02*
X15125136Y-15088674D01*
X15125136Y-15088674D02*
X15144184Y-15098198D01*
X15144184Y-15098198D02*
X15153707Y-15107721D01*
X15153707Y-15107721D02*
X15163231Y-15126769D01*
X15163231Y-15126769D02*
X15163231Y-15174388D01*
X15163231Y-15174388D02*
X15153707Y-15193436D01*
X15153707Y-15193436D02*
X15144184Y-15202960D01*
X15144184Y-15202960D02*
X15125136Y-15212483D01*
X15125136Y-15212483D02*
X15067993Y-15212483D01*
X15067993Y-15212483D02*
X15048945Y-15202960D01*
X15048945Y-15202960D02*
X15039422Y-15193436D01*
X15353707Y-15212483D02*
X15239422Y-15212483D01*
X15296564Y-15212483D02*
X15296564Y-15012483D01*
X15296564Y-15012483D02*
X15277517Y-15041055D01*
X15277517Y-15041055D02*
X15258469Y-15060102D01*
X15258469Y-15060102D02*
X15239422Y-15069626D01*
X15429898Y-15012483D02*
X15429898Y-15050579D01*
X15506088Y-15012483D02*
X15506088Y-15050579D01*
X15801327Y-15288674D02*
X15791803Y-15279150D01*
X15791803Y-15279150D02*
X15772755Y-15250579D01*
X15772755Y-15250579D02*
X15763231Y-15231531D01*
X15763231Y-15231531D02*
X15753707Y-15202960D01*
X15753707Y-15202960D02*
X15744184Y-15155340D01*
X15744184Y-15155340D02*
X15744184Y-15117245D01*
X15744184Y-15117245D02*
X15753707Y-15069626D01*
X15753707Y-15069626D02*
X15763231Y-15041055D01*
X15763231Y-15041055D02*
X15772755Y-15022007D01*
X15772755Y-15022007D02*
X15791803Y-14993436D01*
X15791803Y-14993436D02*
X15801327Y-14983912D01*
X15972755Y-15012483D02*
X15877517Y-15012483D01*
X15877517Y-15012483D02*
X15867993Y-15107721D01*
X15867993Y-15107721D02*
X15877517Y-15098198D01*
X15877517Y-15098198D02*
X15896565Y-15088674D01*
X15896565Y-15088674D02*
X15944184Y-15088674D01*
X15944184Y-15088674D02*
X15963231Y-15098198D01*
X15963231Y-15098198D02*
X15972755Y-15107721D01*
X15972755Y-15107721D02*
X15982279Y-15126769D01*
X15982279Y-15126769D02*
X15982279Y-15174388D01*
X15982279Y-15174388D02*
X15972755Y-15193436D01*
X15972755Y-15193436D02*
X15963231Y-15202960D01*
X15963231Y-15202960D02*
X15944184Y-15212483D01*
X15944184Y-15212483D02*
X15896565Y-15212483D01*
X15896565Y-15212483D02*
X15877517Y-15202960D01*
X15877517Y-15202960D02*
X15867993Y-15193436D01*
X16220374Y-15212483D02*
X16220374Y-15012483D01*
X16306088Y-15212483D02*
X16306088Y-15107721D01*
X16306088Y-15107721D02*
X16296565Y-15088674D01*
X16296565Y-15088674D02*
X16277517Y-15079150D01*
X16277517Y-15079150D02*
X16248946Y-15079150D01*
X16248946Y-15079150D02*
X16229898Y-15088674D01*
X16229898Y-15088674D02*
X16220374Y-15098198D01*
X16429898Y-15212483D02*
X16410850Y-15202960D01*
X16410850Y-15202960D02*
X16401327Y-15193436D01*
X16401327Y-15193436D02*
X16391803Y-15174388D01*
X16391803Y-15174388D02*
X16391803Y-15117245D01*
X16391803Y-15117245D02*
X16401327Y-15098198D01*
X16401327Y-15098198D02*
X16410850Y-15088674D01*
X16410850Y-15088674D02*
X16429898Y-15079150D01*
X16429898Y-15079150D02*
X16458469Y-15079150D01*
X16458469Y-15079150D02*
X16477517Y-15088674D01*
X16477517Y-15088674D02*
X16487041Y-15098198D01*
X16487041Y-15098198D02*
X16496565Y-15117245D01*
X16496565Y-15117245D02*
X16496565Y-15174388D01*
X16496565Y-15174388D02*
X16487041Y-15193436D01*
X16487041Y-15193436D02*
X16477517Y-15202960D01*
X16477517Y-15202960D02*
X16458469Y-15212483D01*
X16458469Y-15212483D02*
X16429898Y-15212483D01*
X16610850Y-15212483D02*
X16591803Y-15202960D01*
X16591803Y-15202960D02*
X16582279Y-15183912D01*
X16582279Y-15183912D02*
X16582279Y-15012483D01*
X16763231Y-15202960D02*
X16744184Y-15212483D01*
X16744184Y-15212483D02*
X16706088Y-15212483D01*
X16706088Y-15212483D02*
X16687041Y-15202960D01*
X16687041Y-15202960D02*
X16677517Y-15183912D01*
X16677517Y-15183912D02*
X16677517Y-15107721D01*
X16677517Y-15107721D02*
X16687041Y-15088674D01*
X16687041Y-15088674D02*
X16706088Y-15079150D01*
X16706088Y-15079150D02*
X16744184Y-15079150D01*
X16744184Y-15079150D02*
X16763231Y-15088674D01*
X16763231Y-15088674D02*
X16772755Y-15107721D01*
X16772755Y-15107721D02*
X16772755Y-15126769D01*
X16772755Y-15126769D02*
X16677517Y-15145817D01*
X16848946Y-15202960D02*
X16867993Y-15212483D01*
X16867993Y-15212483D02*
X16906089Y-15212483D01*
X16906089Y-15212483D02*
X16925136Y-15202960D01*
X16925136Y-15202960D02*
X16934660Y-15183912D01*
X16934660Y-15183912D02*
X16934660Y-15174388D01*
X16934660Y-15174388D02*
X16925136Y-15155340D01*
X16925136Y-15155340D02*
X16906089Y-15145817D01*
X16906089Y-15145817D02*
X16877517Y-15145817D01*
X16877517Y-15145817D02*
X16858470Y-15136293D01*
X16858470Y-15136293D02*
X16848946Y-15117245D01*
X16848946Y-15117245D02*
X16848946Y-15107721D01*
X16848946Y-15107721D02*
X16858470Y-15088674D01*
X16858470Y-15088674D02*
X16877517Y-15079150D01*
X16877517Y-15079150D02*
X16906089Y-15079150D01*
X16906089Y-15079150D02*
X16925136Y-15088674D01*
X17001327Y-15288674D02*
X17010851Y-15279150D01*
X17010851Y-15279150D02*
X17029898Y-15250579D01*
X17029898Y-15250579D02*
X17039422Y-15231531D01*
X17039422Y-15231531D02*
X17048946Y-15202960D01*
X17048946Y-15202960D02*
X17058470Y-15155340D01*
X17058470Y-15155340D02*
X17058470Y-15117245D01*
X17058470Y-15117245D02*
X17048946Y-15069626D01*
X17048946Y-15069626D02*
X17039422Y-15041055D01*
X17039422Y-15041055D02*
X17029898Y-15022007D01*
X17029898Y-15022007D02*
X17010851Y-14993436D01*
X17010851Y-14993436D02*
X17001327Y-14983912D01*
M02*
