M48
; DRILL file {KiCad 7.0.7} date Sun Sep 24 11:57:49 2023
; FORMAT={-:-/ absolute / inch / decimal}
; #@! TF.CreationDate,2023-09-24T11:57:49+02:00
; #@! TF.GenerationSoftware,Kicad,Pcbnew,7.0.7
; #@! TF.FileFunction,Plated,1,2,PTH
FMAT,2
INCH
; #@! TA.AperFunction,Plated,PTH,ViaDrill
T1C0.0157
; #@! TA.AperFunction,Plated,PTH,ComponentDrill
T2C0.0256
; #@! TA.AperFunction,Plated,PTH,ComponentDrill
T3C0.0315
; #@! TA.AperFunction,Plated,PTH,ComponentDrill
T4C0.0331
%
G90
G05
T1
X4.8587Y-3.3591
X4.8896Y-4.3411
X4.9909Y-3.0665
X4.9945Y-3.1142
X5.0051Y-4.6311
X5.0118Y-4.8244
X5.0126Y-5.073
X5.0173Y-4.8777
X5.0543Y-4.161
X5.0596Y-5.0577
X5.0614Y-4.3346
X5.0965Y-4.8843
X5.1049Y-4.3781
X5.1181Y-3.2362
X5.1228Y-3.2878
X5.1276Y-4.8091
X5.1429Y-4.985
X5.1488Y-4.1583
X5.211Y-4.8535
X5.2228Y-4.1118
X5.2465Y-4.2461
X5.2622Y-3.2339
X5.298Y-2.9142
X5.3579Y-4.1638
X5.3783Y-3.0512
X5.4189Y-3.0256
X5.4291Y-4.0626
X5.4553Y-3.1356
X5.4573Y-4.2317
X5.4704Y-4.1283
X5.4956Y-4.1478
X5.511Y-4.1972
X5.5247Y-4.1604
X5.5594Y-4.0319
X5.5898Y-4.163
X5.5984Y-2.9531
X5.726Y-3.9658
X5.726Y-4.0551
X5.7264Y-2.9531
X5.7303Y-3.7811
X5.7319Y-3.5311
X5.7354Y-3.4209
X5.7981Y-3.2072
X5.8346Y-4.2618
X5.8491Y-3.6494
X5.8602Y-5.2382
X5.8654Y-3.7126
X5.8657Y-3.7914
X5.872Y-3.5925
X5.8823Y-3.6772
X5.8854Y-3.7374
X5.8874Y-3.6248
X5.9106Y-3.5977
X5.9197Y-4.1616
X5.9418Y-3.7435
X5.9439Y-3.7093
X5.9461Y-4.3445
X5.9563Y-4.161
X5.9697Y-3.4928
X5.9728Y-3.7516
X5.9787Y-3.1169
X5.9813Y-3.7824
X6.0098Y-3.7963
X6.0346Y-3.8197
X6.0465Y-3.0028
X6.057Y-5.3318
X6.0626Y-3.5508
X6.0667Y-3.8141
X6.0815Y-3.8961
X6.0827Y-4.0102
X6.084Y-3.3866
X6.0854Y-5.2346
X6.0886Y-5.2756
X6.0893Y-3.8418
X6.1006Y-3.9665
X6.1029Y-3.4484
X6.1142Y-3.4135
X6.1291Y-3.9811
X6.1362Y-5.2906
X6.1425Y-3.3875
X6.1547Y-3.9508
X6.1677Y-3.002
X6.1783Y-3.3918
X6.1882Y-3.4233
X6.1921Y-3.9449
X6.2015Y-3.9784
X6.215Y-3.7071
X6.2358Y-3.1177
X6.2395Y-3.8629
X6.2469Y-4.25
X6.2523Y-3.4126
X6.2535Y-3.2835
X6.2551Y-3.8004
X6.2642Y-5.0488
X6.2862Y-3.9339
X6.2893Y-3.865
X6.2933Y-5.0732
X6.2975Y-3.481
X6.3094Y-3.5323
X6.3104Y-3.6126
X6.3171Y-3.8439
X6.321Y-3.583
X6.3225Y-3.5036
X6.3325Y-3.5537
X6.333Y-5.0847
X6.3494Y-3.8409
X6.3661Y-3.9681
X6.3685Y-5.1181
X6.3728Y-4.2528
X6.398Y-4.0551
X6.5543Y-4.7154
X6.6308Y-5.1921
X6.6383Y-5.0098
X6.6668Y-4.4699
X6.6701Y-4.2122
X6.6819Y-4.7563
X6.682Y-4.6413
X6.6894Y-4.1663
X6.6984Y-4.7295
X6.7307Y-3.3528
X6.7307Y-3.8047
X6.7307Y-4.7829
X6.7669Y-3.4606
X6.7669Y-3.8437
X6.7673Y-3.3917
X6.7863Y-4.8669
X6.795Y-4.7114
X6.8028Y-3.7094
X6.8031Y-3.8142
X6.8555Y-4.1945
X7.0103Y-4.8461
X7.0355Y-4.7954
X7.0387Y-4.8756
X7.0421Y-4.8327
X7.0618Y-4.7426
X7.0646Y-3.1563
X7.1183Y-4.6998
X7.119Y-4.8807
X7.3575Y-3.7795
T3
X5.3315Y-4.3835
X5.4299Y-4.3835
X5.724Y-4.3689
X5.8224Y-4.3689
T4
X6.0398Y-4.2154
X6.0398Y-4.3154
X6.0898Y-4.2654
X6.1398Y-4.2154
X6.1398Y-4.3154
T2
G00X5.9394Y-2.876
M15
G01X5.9394Y-2.8524
M16
G05
G00X5.9394Y-3.0504
M15
G01X5.9394Y-3.0071
M16
G05
G00X6.2795Y-2.876
M15
G01X6.2795Y-2.8524
M16
G05
G00X6.2795Y-3.0504
M15
G01X6.2795Y-3.0071
M16
G05
T0
M30
