%TF.GenerationSoftware,KiCad,Pcbnew,7.0.7*%
%TF.CreationDate,2023-09-24T12:37:58+02:00*%
%TF.ProjectId,RF Energy Harvesting LK-R37 Enclosure,52462045-6e65-4726-9779-204861727665,Beta R4*%
%TF.SameCoordinates,Original*%
%TF.FileFunction,Copper,L1,Top*%
%TF.FilePolarity,Positive*%
%FSLAX46Y46*%
G04 Gerber Fmt 4.6, Leading zero omitted, Abs format (unit mm)*
G04 Created by KiCad (PCBNEW 7.0.7) date 2023-09-24 12:37:58*
%MOMM*%
%LPD*%
G01*
G04 APERTURE LIST*
G04 Aperture macros list*
%AMRoundRect*
0 Rectangle with rounded corners*
0 $1 Rounding radius*
0 $2 $3 $4 $5 $6 $7 $8 $9 X,Y pos of 4 corners*
0 Add a 4 corners polygon primitive as box body*
4,1,4,$2,$3,$4,$5,$6,$7,$8,$9,$2,$3,0*
0 Add four circle primitives for the rounded corners*
1,1,$1+$1,$2,$3*
1,1,$1+$1,$4,$5*
1,1,$1+$1,$6,$7*
1,1,$1+$1,$8,$9*
0 Add four rect primitives between the rounded corners*
20,1,$1+$1,$2,$3,$4,$5,0*
20,1,$1+$1,$4,$5,$6,$7,0*
20,1,$1+$1,$6,$7,$8,$9,0*
20,1,$1+$1,$8,$9,$2,$3,0*%
G04 Aperture macros list end*
%TA.AperFunction,NonConductor*%
%ADD10C,0.200000*%
%TD*%
%TA.AperFunction,SMDPad,CuDef*%
%ADD11RoundRect,0.250000X0.375000X0.625000X-0.375000X0.625000X-0.375000X-0.625000X0.375000X-0.625000X0*%
%TD*%
%TA.AperFunction,SMDPad,CuDef*%
%ADD12RoundRect,0.225000X-0.225000X-0.250000X0.225000X-0.250000X0.225000X0.250000X-0.225000X0.250000X0*%
%TD*%
%TA.AperFunction,SMDPad,CuDef*%
%ADD13RoundRect,0.250000X-0.250000X-0.475000X0.250000X-0.475000X0.250000X0.475000X-0.250000X0.475000X0*%
%TD*%
%TA.AperFunction,SMDPad,CuDef*%
%ADD14C,1.000000*%
%TD*%
%TA.AperFunction,SMDPad,CuDef*%
%ADD15RoundRect,0.200000X0.200000X0.275000X-0.200000X0.275000X-0.200000X-0.275000X0.200000X-0.275000X0*%
%TD*%
%TA.AperFunction,SMDPad,CuDef*%
%ADD16R,0.600000X0.450000*%
%TD*%
%TA.AperFunction,SMDPad,CuDef*%
%ADD17R,0.580000X0.350000*%
%TD*%
%TA.AperFunction,SMDPad,CuDef*%
%ADD18R,0.350000X0.580000*%
%TD*%
%TA.AperFunction,SMDPad,CuDef*%
%ADD19RoundRect,0.225000X-0.250000X0.225000X-0.250000X-0.225000X0.250000X-0.225000X0.250000X0.225000X0*%
%TD*%
%TA.AperFunction,SMDPad,CuDef*%
%ADD20R,0.800000X0.300000*%
%TD*%
%TA.AperFunction,SMDPad,CuDef*%
%ADD21R,1.200000X1.900000*%
%TD*%
%TA.AperFunction,SMDPad,CuDef*%
%ADD22R,0.700000X0.450000*%
%TD*%
%TA.AperFunction,SMDPad,CuDef*%
%ADD23RoundRect,0.250000X-0.450000X0.350000X-0.450000X-0.350000X0.450000X-0.350000X0.450000X0.350000X0*%
%TD*%
%TA.AperFunction,SMDPad,CuDef*%
%ADD24RoundRect,0.225000X0.225000X0.250000X-0.225000X0.250000X-0.225000X-0.250000X0.225000X-0.250000X0*%
%TD*%
%TA.AperFunction,ComponentPad*%
%ADD25R,1.600000X1.600000*%
%TD*%
%TA.AperFunction,ComponentPad*%
%ADD26C,1.600000*%
%TD*%
%TA.AperFunction,SMDPad,CuDef*%
%ADD27R,0.600000X1.450000*%
%TD*%
%TA.AperFunction,SMDPad,CuDef*%
%ADD28R,0.300000X1.450000*%
%TD*%
%TA.AperFunction,ComponentPad*%
%ADD29O,1.050000X2.100000*%
%TD*%
%TA.AperFunction,SMDPad,CuDef*%
%ADD30RoundRect,0.225000X0.250000X-0.225000X0.250000X0.225000X-0.250000X0.225000X-0.250000X-0.225000X0*%
%TD*%
%TA.AperFunction,SMDPad,CuDef*%
%ADD31RoundRect,0.218750X-0.218750X-0.381250X0.218750X-0.381250X0.218750X0.381250X-0.218750X0.381250X0*%
%TD*%
%TA.AperFunction,SMDPad,CuDef*%
%ADD32RoundRect,0.250000X-1.075000X0.375000X-1.075000X-0.375000X1.075000X-0.375000X1.075000X0.375000X0*%
%TD*%
%TA.AperFunction,SMDPad,CuDef*%
%ADD33R,1.300000X1.000000*%
%TD*%
%TA.AperFunction,SMDPad,CuDef*%
%ADD34RoundRect,0.124800X-0.475200X-0.275200X0.475200X-0.275200X0.475200X0.275200X-0.475200X0.275200X0*%
%TD*%
%TA.AperFunction,ComponentPad*%
%ADD35C,1.240000*%
%TD*%
%TA.AperFunction,SMDPad,CuDef*%
%ADD36RoundRect,0.041300X0.948700X0.253700X-0.948700X0.253700X-0.948700X-0.253700X0.948700X-0.253700X0*%
%TD*%
%TA.AperFunction,SMDPad,CuDef*%
%ADD37RoundRect,0.098350X0.604150X1.437900X-0.604150X1.437900X-0.604150X-1.437900X0.604150X-1.437900X0*%
%TD*%
%TA.AperFunction,SMDPad,CuDef*%
%ADD38RoundRect,0.100000X0.100000X-2.750000X0.100000X2.750000X-0.100000X2.750000X-0.100000X-2.750000X0*%
%TD*%
%TA.AperFunction,SMDPad,CuDef*%
%ADD39RoundRect,0.100000X0.100000X-6.400000X0.100000X6.400000X-0.100000X6.400000X-0.100000X-6.400000X0*%
%TD*%
%TA.AperFunction,SMDPad,CuDef*%
%ADD40RoundRect,0.100000X-12.650000X-0.100000X12.650000X-0.100000X12.650000X0.100000X-12.650000X0.100000X0*%
%TD*%
%TA.AperFunction,SMDPad,CuDef*%
%ADD41RoundRect,0.100000X0.100000X-9.850000X0.100000X9.850000X-0.100000X9.850000X-0.100000X-9.850000X0*%
%TD*%
%TA.AperFunction,SMDPad,CuDef*%
%ADD42RoundRect,0.250000X-0.475000X0.250000X-0.475000X-0.250000X0.475000X-0.250000X0.475000X0.250000X0*%
%TD*%
%TA.AperFunction,SMDPad,CuDef*%
%ADD43RoundRect,0.250000X0.787500X1.025000X-0.787500X1.025000X-0.787500X-1.025000X0.787500X-1.025000X0*%
%TD*%
%TA.AperFunction,SMDPad,CuDef*%
%ADD44RoundRect,0.150000X-0.150000X0.587500X-0.150000X-0.587500X0.150000X-0.587500X0.150000X0.587500X0*%
%TD*%
%TA.AperFunction,SMDPad,CuDef*%
%ADD45R,0.420000X1.100000*%
%TD*%
%TA.AperFunction,SMDPad,CuDef*%
%ADD46R,2.500000X1.600000*%
%TD*%
%TA.AperFunction,SMDPad,CuDef*%
%ADD47R,1.000000X0.300000*%
%TD*%
%TA.AperFunction,SMDPad,CuDef*%
%ADD48RoundRect,0.050000X-0.387500X-0.050000X0.387500X-0.050000X0.387500X0.050000X-0.387500X0.050000X0*%
%TD*%
%TA.AperFunction,SMDPad,CuDef*%
%ADD49RoundRect,0.050000X-0.050000X-0.387500X0.050000X-0.387500X0.050000X0.387500X-0.050000X0.387500X0*%
%TD*%
%TA.AperFunction,SMDPad,CuDef*%
%ADD50RoundRect,0.002500X-0.002500X-0.002500X0.002500X-0.002500X0.002500X0.002500X-0.002500X0.002500X0*%
%TD*%
%TA.AperFunction,SMDPad,CuDef*%
%ADD51R,5.600000X5.600000*%
%TD*%
%TA.AperFunction,SMDPad,CuDef*%
%ADD52RoundRect,0.200000X-0.275000X0.200000X-0.275000X-0.200000X0.275000X-0.200000X0.275000X0.200000X0*%
%TD*%
%TA.AperFunction,SMDPad,CuDef*%
%ADD53RoundRect,0.250000X-0.375000X-0.625000X0.375000X-0.625000X0.375000X0.625000X-0.375000X0.625000X0*%
%TD*%
%TA.AperFunction,SMDPad,CuDef*%
%ADD54O,1.500000X0.800000*%
%TD*%
%TA.AperFunction,SMDPad,CuDef*%
%ADD55R,0.450000X0.600000*%
%TD*%
%TA.AperFunction,SMDPad,CuDef*%
%ADD56RoundRect,0.250000X0.350000X0.450000X-0.350000X0.450000X-0.350000X-0.450000X0.350000X-0.450000X0*%
%TD*%
%TA.AperFunction,SMDPad,CuDef*%
%ADD57RoundRect,0.200000X-0.200000X-0.275000X0.200000X-0.275000X0.200000X0.275000X-0.200000X0.275000X0*%
%TD*%
%TA.AperFunction,SMDPad,CuDef*%
%ADD58RoundRect,0.250000X-0.787500X-1.025000X0.787500X-1.025000X0.787500X1.025000X-0.787500X1.025000X0*%
%TD*%
%TA.AperFunction,SMDPad,CuDef*%
%ADD59R,1.500000X0.600000*%
%TD*%
%TA.AperFunction,SMDPad,CuDef*%
%ADD60R,1.500000X0.800000*%
%TD*%
%TA.AperFunction,SMDPad,CuDef*%
%ADD61R,1.100000X0.510000*%
%TD*%
%TA.AperFunction,SMDPad,CuDef*%
%ADD62RoundRect,0.250000X-0.475000X0.337500X-0.475000X-0.337500X0.475000X-0.337500X0.475000X0.337500X0*%
%TD*%
%TA.AperFunction,SMDPad,CuDef*%
%ADD63R,2.100000X1.400000*%
%TD*%
%TA.AperFunction,SMDPad,CuDef*%
%ADD64RoundRect,0.250000X-0.337500X-0.475000X0.337500X-0.475000X0.337500X0.475000X-0.337500X0.475000X0*%
%TD*%
%TA.AperFunction,SMDPad,CuDef*%
%ADD65R,2.195000X2.195000*%
%TD*%
%TA.AperFunction,ViaPad*%
%ADD66C,0.600000*%
%TD*%
%TA.AperFunction,ViaPad*%
%ADD67C,0.800000*%
%TD*%
%TA.AperFunction,ViaPad*%
%ADD68C,0.700000*%
%TD*%
%TA.AperFunction,Conductor*%
%ADD69C,0.150000*%
%TD*%
%TA.AperFunction,Conductor*%
%ADD70C,0.510000*%
%TD*%
%TA.AperFunction,Conductor*%
%ADD71C,0.250000*%
%TD*%
%TA.AperFunction,Conductor*%
%ADD72C,0.300000*%
%TD*%
%TA.AperFunction,Conductor*%
%ADD73C,0.400000*%
%TD*%
%TA.AperFunction,Conductor*%
%ADD74C,0.200000*%
%TD*%
%TA.AperFunction,Conductor*%
%ADD75C,0.350000*%
%TD*%
%TA.AperFunction,Conductor*%
%ADD76C,0.320000*%
%TD*%
G04 APERTURE END LIST*
D10*
X183928070Y-82140000D02*
G75*
G03*
X183928070Y-82140000I-258070J0D01*
G01*
D11*
%TO.P,probeSS12_2,1,K*%
%TO.N,Net-(probeSS12_2-K)*%
X140320000Y-108910000D03*
%TO.P,probeSS12_2,2,A*%
%TO.N,Net-(probeSS12_1-K)*%
X137520000Y-108910000D03*
%TD*%
D12*
%TO.P,EIC5,1*%
%TO.N,Net-(J2-Pin_18)*%
X179277500Y-125010000D03*
%TO.P,EIC5,2*%
%TO.N,GND*%
X180827500Y-125010000D03*
%TD*%
D11*
%TO.P,Fuse1,1*%
%TO.N,5V0*%
X164960000Y-74780000D03*
%TO.P,Fuse1,2*%
%TO.N,5V0F*%
X162160000Y-74780000D03*
%TD*%
D13*
%TO.P,E2C4,1*%
%TO.N,3V3*%
X146039255Y-97300893D03*
%TO.P,E2C4,2*%
%TO.N,GND*%
X147939255Y-97300893D03*
%TD*%
D14*
%TO.P,TP2,1,1*%
%TO.N,GND*%
X173230000Y-81880000D03*
%TD*%
D15*
%TO.P,IDR1,1*%
%TO.N,GPIO8_I2C_SDA*%
X163824255Y-95640893D03*
%TO.P,IDR1,2*%
%TO.N,3V3*%
X162174255Y-95640893D03*
%TD*%
D12*
%TO.P,EIC6,1*%
%TO.N,Net-(J2-Pin_20)*%
X179247500Y-126380000D03*
%TO.P,EIC6,2*%
%TO.N,GND*%
X180797500Y-126380000D03*
%TD*%
D15*
%TO.P,QR1,1*%
%TO.N,Net-(CH340K1-~{DTR})*%
X132655000Y-76580000D03*
%TO.P,QR1,2*%
%TO.N,Net-(Q1-G)*%
X131005000Y-76580000D03*
%TD*%
D16*
%TO.P,EiD1a2,1,K*%
%TO.N,PREVGH*%
X167492500Y-125500000D03*
%TO.P,EiD1a2,2,A*%
%TO.N,Net-(EiD1a2-A)*%
X165392500Y-125500000D03*
%TD*%
D17*
%TO.P,IMU1,1,SDO/SA0*%
%TO.N,unconnected-(IMU1-SDO{slash}SA0-Pad1)*%
X158494255Y-99160893D03*
%TO.P,IMU1,2,SDX*%
%TO.N,unconnected-(IMU1-SDX-Pad2)*%
X158494255Y-99660893D03*
%TO.P,IMU1,3,SCX*%
%TO.N,unconnected-(IMU1-SCX-Pad3)*%
X158494255Y-100160893D03*
%TO.P,IMU1,4,INT1*%
%TO.N,unconnected-(IMU1-INT1-Pad4)*%
X158494255Y-100660893D03*
D18*
%TO.P,IMU1,5,VDDIO*%
%TO.N,3V3*%
X159169255Y-100835893D03*
%TO.P,IMU1,6,GND*%
%TO.N,GND*%
X159669255Y-100835893D03*
%TO.P,IMU1,7,GND*%
X160169255Y-100835893D03*
D17*
%TO.P,IMU1,8,VDD*%
%TO.N,3V3*%
X160844255Y-100660893D03*
%TO.P,IMU1,9,INT2*%
%TO.N,unconnected-(IMU1-INT2-Pad9)*%
X160844255Y-100160893D03*
%TO.P,IMU1,10,NC*%
%TO.N,unconnected-(IMU1-NC-Pad10)*%
X160844255Y-99660893D03*
%TO.P,IMU1,11,NC*%
%TO.N,unconnected-(IMU1-NC-Pad11)*%
X160844255Y-99160893D03*
D18*
%TO.P,IMU1,12,CS*%
%TO.N,IMU_CS_IO21*%
X160169255Y-98985893D03*
%TO.P,IMU1,13,SCL*%
%TO.N,GPIO9_I2C_SCL*%
X159669255Y-98985893D03*
%TO.P,IMU1,14,SDA*%
%TO.N,GPIO8_I2C_SDA*%
X159169255Y-98985893D03*
%TD*%
D19*
%TO.P,E2C3,1*%
%TO.N,GND*%
X148729255Y-85435893D03*
%TO.P,E2C3,2*%
%TO.N,3V3*%
X148729255Y-86985893D03*
%TD*%
D20*
%TO.P,SHT1,1,SDA*%
%TO.N,GPIO8_I2C_SDA*%
X152570000Y-135562500D03*
%TO.P,SHT1,2,ADDR*%
%TO.N,GND*%
X152570000Y-135062500D03*
%TO.P,SHT1,3,ALERT*%
%TO.N,unconnected-(SHT1-ALERT-Pad3)*%
X152570000Y-134562500D03*
%TO.P,SHT1,4,SCL*%
%TO.N,GPIO9_I2C_SCL*%
X152570000Y-134062500D03*
%TO.P,SHT1,5,VDD*%
%TO.N,3V3*%
X150170000Y-134062500D03*
%TO.P,SHT1,6,~{RESET}*%
%TO.N,unconnected-(SHT1-~{RESET}-Pad6)*%
X150170000Y-134562500D03*
%TO.P,SHT1,7,R*%
%TO.N,unconnected-(SHT1-R-Pad7)*%
X150170000Y-135062500D03*
%TO.P,SHT1,8,VSS*%
%TO.N,GND*%
X150170000Y-135562500D03*
D21*
%TO.P,SHT1,9,VSS*%
X151370000Y-134812500D03*
%TD*%
D22*
%TO.P,EIQ1,1*%
%TO.N,GDR*%
X161892500Y-124800000D03*
%TO.P,EIQ1,2*%
%TO.N,RESE*%
X161892500Y-126100000D03*
%TO.P,EIQ1,3*%
%TO.N,Net-(EiD1a2-A)*%
X163892500Y-125450000D03*
%TD*%
D23*
%TO.P,AR2,1*%
%TO.N,3V3*%
X180290245Y-75230821D03*
%TO.P,AR2,2*%
%TO.N,Net-(AU1-FB)*%
X180290245Y-77230821D03*
%TD*%
D12*
%TO.P,EIC4,1*%
%TO.N,Net-(J2-Pin_4)*%
X179397500Y-118250000D03*
%TO.P,EIC4,2*%
%TO.N,GND*%
X180947500Y-118250000D03*
%TD*%
D24*
%TO.P,CHC1,1*%
%TO.N,Net-(CH340K1-VCC)*%
X137085000Y-74010000D03*
%TO.P,CHC1,2*%
%TO.N,GND*%
X135535000Y-74010000D03*
%TD*%
D12*
%TO.P,EIC2,1*%
%TO.N,Net-(J2-Pin_24)*%
X179237500Y-129260000D03*
%TO.P,EIC2,2*%
%TO.N,GND*%
X180787500Y-129260000D03*
%TD*%
D24*
%TO.P,E2C10,1*%
%TO.N,Net-(ESP32S1-GPIO16{slash}ADC2_CH5{slash}XTAL_32K_N)*%
X148094255Y-100810893D03*
%TO.P,E2C10,2*%
%TO.N,GND*%
X146544255Y-100810893D03*
%TD*%
D25*
%TO.P,probeC4,1*%
%TO.N,Net-(probeSS12_1-K)*%
X133410000Y-110424888D03*
D26*
%TO.P,probeC4,2*%
%TO.N,IN_KTS1_ADS2_A-*%
X133410000Y-112924888D03*
%TD*%
D27*
%TO.P,J1,A1B12,GND*%
%TO.N,GND*%
X158430000Y-77845000D03*
%TO.P,J1,A4B9,VBUS*%
%TO.N,5V0F*%
X157630000Y-77845000D03*
D28*
%TO.P,J1,A5,CC1*%
%TO.N,Net-(J1-CC1)*%
X156430000Y-77845000D03*
%TO.P,J1,A6,DP1*%
%TO.N,USB_D+*%
X155430000Y-77845000D03*
%TO.P,J1,A7,DN1*%
%TO.N,USB_D-*%
X154930000Y-77845000D03*
%TO.P,J1,A8,SBU1*%
%TO.N,unconnected-(J1-SBU1-PadA8)*%
X153930000Y-77845000D03*
D27*
%TO.P,J1,B1A12,GND*%
%TO.N,GND*%
X151930000Y-77845000D03*
%TO.P,J1,B4A9,VBUS*%
%TO.N,5V0F*%
X152730000Y-77845000D03*
D28*
%TO.P,J1,B5,CC2*%
%TO.N,Net-(J1-CC2)*%
X153430000Y-77845000D03*
%TO.P,J1,B6,DP2*%
%TO.N,USB_D+*%
X154430000Y-77845000D03*
%TO.P,J1,B7,DN2*%
%TO.N,USB_D-*%
X155930000Y-77845000D03*
%TO.P,J1,B8,SBU2*%
%TO.N,unconnected-(J1-SBU2-PadB8)*%
X156930000Y-77845000D03*
D29*
%TO.P,J1,S1,SHIELD*%
%TO.N,Earth*%
X159500000Y-76930000D03*
%TO.P,J1,S2,SHIELD*%
X150860000Y-76930000D03*
%TO.P,J1,S3,SHIELD*%
X159500000Y-72750000D03*
%TO.P,J1,S4,SHIELD*%
X150860000Y-72750000D03*
%TD*%
D30*
%TO.P,EC3,1*%
%TO.N,Net-(ESP32S1-LNA_IN{slash}RF)*%
X142710000Y-88265000D03*
%TO.P,EC3,2*%
%TO.N,GND*%
X142710000Y-86715000D03*
%TD*%
D24*
%TO.P,E2C7,1*%
%TO.N,Net-(E2C7-Pad1)*%
X148324255Y-89780893D03*
%TO.P,E2C7,2*%
%TO.N,GND*%
X146774255Y-89780893D03*
%TD*%
D14*
%TO.P,TP1,1,1*%
%TO.N,3V3*%
X172200000Y-75500000D03*
%TD*%
D31*
%TO.P,EIL1,1,1*%
%TO.N,3V3*%
X161560000Y-127790000D03*
%TO.P,EIL1,2,2*%
%TO.N,Net-(EiD1a2-A)*%
X163685000Y-127790000D03*
%TD*%
D15*
%TO.P,LR2,1*%
%TO.N,LED_R_IO13*%
X159005000Y-131280000D03*
%TO.P,LR2,2*%
%TO.N,Net-(LED2-RA)*%
X157355000Y-131280000D03*
%TD*%
D12*
%TO.P,EC2,1*%
%TO.N,Net-(ANT1-Pad1)*%
X138935000Y-86550000D03*
%TO.P,EC2,2*%
%TO.N,GND*%
X140485000Y-86550000D03*
%TD*%
D24*
%TO.P,E2C11,1*%
%TO.N,Net-(ESP32S1-XTAL_P)*%
X148744255Y-83650893D03*
%TO.P,E2C11,2*%
%TO.N,GND*%
X147194255Y-83650893D03*
%TD*%
D32*
%TO.P,AL1,1,1*%
%TO.N,3V3*%
X177270245Y-73960821D03*
%TO.P,AL1,2,2*%
%TO.N,Net-(AU1-SW)*%
X177270245Y-76760821D03*
%TD*%
D15*
%TO.P,USBR1,1*%
%TO.N,Net-(J1-CC1)*%
X147945000Y-80190000D03*
%TO.P,USBR1,2*%
%TO.N,GND*%
X146295000Y-80190000D03*
%TD*%
D12*
%TO.P,E2C14,1*%
%TO.N,Net-(ESP32S1-XTAL_N)*%
X154354255Y-83600893D03*
%TO.P,E2C14,2*%
%TO.N,GND*%
X155904255Y-83600893D03*
%TD*%
D30*
%TO.P,SHC1,1*%
%TO.N,GND*%
X148740000Y-135555000D03*
%TO.P,SHC1,2*%
%TO.N,3V3*%
X148740000Y-134005000D03*
%TD*%
D33*
%TO.P,E2CY1,1,1*%
%TO.N,Net-(ESP32S1-GPIO15{slash}ADC2_CH4{slash}XTAL_32K_P)*%
X151829255Y-98780893D03*
%TO.P,E2CY1,2,2*%
%TO.N,GND*%
X149629255Y-98780893D03*
%TO.P,E2CY1,3,3*%
%TO.N,Net-(ESP32S1-GPIO16{slash}ADC2_CH5{slash}XTAL_32K_N)*%
X149629255Y-100580893D03*
%TO.P,E2CY1,4,4*%
%TO.N,GND*%
X151829255Y-100580893D03*
%TD*%
D30*
%TO.P,E2C8,1*%
%TO.N,3V3*%
X157329255Y-85155893D03*
%TO.P,E2C8,2*%
%TO.N,GND*%
X157329255Y-83605893D03*
%TD*%
D34*
%TO.P,LED2,1,GA*%
%TO.N,LED_G_IO14*%
X157450000Y-135220000D03*
%TO.P,LED2,2,BA*%
%TO.N,LED_B_IO17*%
X160630000Y-135230000D03*
%TO.P,LED2,3,RA*%
%TO.N,Net-(LED2-RA)*%
X157450000Y-134080000D03*
%TO.P,LED2,4,K*%
%TO.N,3V3*%
X160640000Y-134110000D03*
%TD*%
D15*
%TO.P,EIR1,1*%
%TO.N,RESE*%
X171437500Y-117010000D03*
%TO.P,EIR1,2*%
%TO.N,GND*%
X169787500Y-117010000D03*
%TD*%
D35*
%TO.P,SMA1,1*%
%TO.N,Net-(SMA1-Pad1)*%
X154670000Y-108360000D03*
%TO.P,SMA1,2*%
%TO.N,N/C*%
X153400000Y-107090000D03*
X153400000Y-109630000D03*
X155940000Y-107090000D03*
X155940000Y-109630000D03*
%TD*%
D36*
%TO.P,U1,1*%
%TO.N,N/C*%
X168209255Y-100775893D03*
%TO.P,U1,2*%
X168209255Y-99505893D03*
%TO.P,U1,3*%
X168209255Y-98235893D03*
%TO.P,U1,4,GND*%
%TO.N,GND*%
X168209255Y-96965893D03*
%TO.P,U1,5,SDA*%
%TO.N,GPIO8_I2C_SDA*%
X163269255Y-96965893D03*
%TO.P,U1,6,SCL*%
%TO.N,GPIO9_I2C_SCL*%
X163269255Y-98235893D03*
%TO.P,U1,7*%
%TO.N,N/C*%
X163269255Y-99505893D03*
%TO.P,U1,8,VCC*%
%TO.N,3V3*%
X163269255Y-100775893D03*
D37*
%TO.P,U1,9,EXP*%
%TO.N,unconnected-(U1-EXP-Pad9)*%
X165669255Y-98920893D03*
%TD*%
D38*
%TO.P,ES1,1,GND*%
%TO.N,GND*%
X144510000Y-85060000D03*
D39*
X144530000Y-95650000D03*
D40*
X157240000Y-82410000D03*
X157250000Y-101940000D03*
D41*
X169850000Y-92160000D03*
%TD*%
D24*
%TO.P,EIC9,1*%
%TO.N,PREVGL*%
X171112500Y-127930000D03*
%TO.P,EIC9,2*%
%TO.N,GND*%
X169562500Y-127930000D03*
%TD*%
D12*
%TO.P,CHC2,1*%
%TO.N,3V3*%
X139025000Y-78480000D03*
%TO.P,CHC2,2*%
%TO.N,GND*%
X140575000Y-78480000D03*
%TD*%
%TO.P,EIC1,1*%
%TO.N,Net-(J2-Pin_22)*%
X179217500Y-127820000D03*
%TO.P,EIC1,2*%
%TO.N,GND*%
X180767500Y-127820000D03*
%TD*%
D15*
%TO.P,USBR2,1*%
%TO.N,Net-(J1-CC2)*%
X148005000Y-78700000D03*
%TO.P,USBR2,2*%
%TO.N,GND*%
X146355000Y-78700000D03*
%TD*%
D12*
%TO.P,EC1,1*%
%TO.N,GND*%
X146435000Y-94150000D03*
%TO.P,EC1,2*%
%TO.N,CHIP_EN*%
X147985000Y-94150000D03*
%TD*%
D33*
%TO.P,E2CY2,1,1*%
%TO.N,Net-(ESP32S1-XTAL_P)*%
X150449255Y-85370893D03*
%TO.P,E2CY2,2,2*%
%TO.N,GND*%
X152649255Y-85370893D03*
%TO.P,E2CY2,3,3*%
%TO.N,Net-(ESP32S1-XTAL_N)*%
X152649255Y-83570893D03*
%TO.P,E2CY2,4,4*%
%TO.N,GND*%
X150449255Y-83570893D03*
%TD*%
D42*
%TO.P,E2C1,1*%
%TO.N,GND*%
X147079255Y-85030893D03*
%TO.P,E2C1,2*%
%TO.N,3V3*%
X147079255Y-86930893D03*
%TD*%
D12*
%TO.P,E2C5,1*%
%TO.N,3V3*%
X146365000Y-95600000D03*
%TO.P,E2C5,2*%
%TO.N,GND*%
X147915000Y-95600000D03*
%TD*%
D43*
%TO.P,probeC2,1*%
%TO.N,Net-(SMA1-Pad1)*%
X149450000Y-113310000D03*
%TO.P,probeC2,2*%
%TO.N,Net-(DMPprobeSS12_1-K)*%
X143225000Y-113310000D03*
%TD*%
D12*
%TO.P,IMUC1,1*%
%TO.N,GND*%
X159634255Y-96580893D03*
%TO.P,IMUC1,2*%
%TO.N,3V3*%
X161184255Y-96580893D03*
%TD*%
D44*
%TO.P,Q1,1,G*%
%TO.N,Net-(Q1-G)*%
X130950000Y-78660000D03*
%TO.P,Q1,2,S*%
%TO.N,Net-(CH340K1-RTS)*%
X129050000Y-78660000D03*
%TO.P,Q1,3,D*%
%TO.N,CHIP_EN*%
X130000000Y-80535000D03*
%TD*%
D45*
%TO.P,AU1,1,FB*%
%TO.N,Net-(AU1-FB)*%
X178230245Y-78463321D03*
%TO.P,AU1,2,GND*%
%TO.N,GND*%
X177280245Y-78463321D03*
%TO.P,AU1,3,SW*%
%TO.N,Net-(AU1-SW)*%
X176330245Y-78473321D03*
%TO.P,AU1,4,VIN_SW*%
%TO.N,5V0*%
X176330245Y-81613321D03*
%TO.P,AU1,5,VIN_A*%
X177280245Y-81603321D03*
%TO.P,AU1,6,EN*%
X178230245Y-81613321D03*
D46*
%TO.P,AU1,7*%
%TO.N,N/C*%
X177280245Y-80033321D03*
%TD*%
D47*
%TO.P,U2,1*%
%TO.N,GND*%
X133690000Y-125780000D03*
%TO.P,U2,2*%
%TO.N,ADS1155_ALERT_IO01*%
X133690000Y-125280000D03*
%TO.P,U2,3*%
%TO.N,GND*%
X133690000Y-124780000D03*
%TO.P,U2,4*%
%TO.N,unconnected-(U2-Pad4)*%
X133690000Y-124280000D03*
%TO.P,U2,5*%
%TO.N,IN_KTS1_ADS2_A+*%
X133690000Y-123780000D03*
%TO.P,U2,6*%
%TO.N,IN_KTS1_ADS2_A-*%
X129590000Y-123780000D03*
%TO.P,U2,7*%
%TO.N,unconnected-(U2-Pad7)*%
X129590000Y-124280000D03*
%TO.P,U2,8*%
%TO.N,3V3*%
X129590000Y-124780000D03*
%TO.P,U2,9*%
%TO.N,GPIO8_I2C_SDA*%
X129590000Y-125280000D03*
%TO.P,U2,10*%
%TO.N,GPIO9_I2C_SCL*%
X129590000Y-125780000D03*
%TD*%
D48*
%TO.P,ESP32S1,1,LNA_IN/RF*%
%TO.N,Net-(ESP32S1-LNA_IN{slash}RF)*%
X152421755Y-89460893D03*
%TO.P,ESP32S1,2,VDD3P3*%
%TO.N,Net-(E2C7-Pad1)*%
X152421755Y-89860893D03*
%TO.P,ESP32S1,3,VDD3P3*%
X152421755Y-90260893D03*
%TO.P,ESP32S1,4,CHIP_PU/RESET*%
%TO.N,CHIP_EN*%
X152421755Y-90660893D03*
%TO.P,ESP32S1,5,GPIO0/BOOT*%
%TO.N,ESP_GPIO0_BOOT-DTR*%
X152421755Y-91060893D03*
%TO.P,ESP32S1,6,GPIO1/ADC1_CH0*%
%TO.N,ADS1155_ALERT_IO01*%
X152421755Y-91460893D03*
%TO.P,ESP32S1,7,GPIO2/ADC1_CH1*%
%TO.N,unconnected-(ESP32S1-GPIO2{slash}ADC1_CH1-Pad7)*%
X152421755Y-91860893D03*
%TO.P,ESP32S1,8,GPIO3/ADC1_CH2*%
%TO.N,GND*%
X152421755Y-92260893D03*
%TO.P,ESP32S1,9,GPIO4/ADC1_CH3*%
%TO.N,unconnected-(ESP32S1-GPIO4{slash}ADC1_CH3-Pad9)*%
X152421755Y-92660893D03*
%TO.P,ESP32S1,10,GPIO5/ADC1_CH4*%
%TO.N,unconnected-(ESP32S1-GPIO5{slash}ADC1_CH4-Pad10)*%
X152421755Y-93060893D03*
%TO.P,ESP32S1,11,GPIO6/ADC1_CH5*%
%TO.N,unconnected-(ESP32S1-GPIO6{slash}ADC1_CH5-Pad11)*%
X152421755Y-93460893D03*
%TO.P,ESP32S1,12,GPIO7/ADC1_CH6*%
%TO.N,unconnected-(ESP32S1-GPIO7{slash}ADC1_CH6-Pad12)*%
X152421755Y-93860893D03*
%TO.P,ESP32S1,13,GPIO8/ADC1_CH7*%
%TO.N,GPIO8_I2C_SDA*%
X152421755Y-94260893D03*
%TO.P,ESP32S1,14,GPIO9/ADC1_CH8*%
%TO.N,GPIO9_I2C_SCL*%
X152421755Y-94660893D03*
D49*
%TO.P,ESP32S1,15,GPIO10/ADC1_CH9*%
%TO.N,unconnected-(ESP32S1-GPIO10{slash}ADC1_CH9-Pad15)*%
X153259255Y-95498393D03*
%TO.P,ESP32S1,16,GPIO11/ADC2_CH0*%
%TO.N,unconnected-(ESP32S1-GPIO11{slash}ADC2_CH0-Pad16)*%
X153659255Y-95498393D03*
%TO.P,ESP32S1,17,GPIO12/ADC2_CH1*%
%TO.N,unconnected-(ESP32S1-GPIO12{slash}ADC2_CH1-Pad17)*%
X154059255Y-95498393D03*
%TO.P,ESP32S1,18,GPIO13/ADC2_CH2*%
%TO.N,LED_R_IO13*%
X154459255Y-95498393D03*
%TO.P,ESP32S1,19,GPIO14/ADC2_CH3*%
%TO.N,LED_G_IO14*%
X154859255Y-95498393D03*
%TO.P,ESP32S1,20,VDD3P3_RTC*%
%TO.N,3V3*%
X155259255Y-95498393D03*
%TO.P,ESP32S1,21,GPIO15/ADC2_CH4/XTAL_32K_P*%
%TO.N,Net-(ESP32S1-GPIO15{slash}ADC2_CH4{slash}XTAL_32K_P)*%
X155659255Y-95498393D03*
%TO.P,ESP32S1,22,GPIO16/ADC2_CH5/XTAL_32K_N*%
%TO.N,Net-(ESP32S1-GPIO16{slash}ADC2_CH5{slash}XTAL_32K_N)*%
X156059255Y-95498393D03*
%TO.P,ESP32S1,23,GPIO17/ADC2_CH6/DAC_2*%
%TO.N,LED_B_IO17*%
X156459255Y-95498393D03*
%TO.P,ESP32S1,24,GPIO18/ADC2_CH7/DAC_1*%
%TO.N,BUZZER_IO18*%
X156859255Y-95498393D03*
%TO.P,ESP32S1,25,GPIO19/USB_D-/ADC2_CH8*%
%TO.N,ESP2_USB_D-*%
X157259255Y-95498393D03*
%TO.P,ESP32S1,26,GPIO20/USB_D+/ADC2_CH9*%
%TO.N,ESP2_USB_D+*%
X157659255Y-95498393D03*
%TO.P,ESP32S1,27,GPIO21*%
%TO.N,IMU_CS_IO21*%
X158059255Y-95498393D03*
%TO.P,ESP32S1,28,SPI_CS1/GPIO26*%
%TO.N,SPICS1_E2*%
X158459255Y-95498393D03*
D48*
%TO.P,ESP32S1,29,VDD_SPI*%
%TO.N,ESP2_VDD_SPI*%
X159296755Y-94660893D03*
%TO.P,ESP32S1,30,SPIHD/GPIO27*%
%TO.N,SPIHD_E2*%
X159296755Y-94260893D03*
%TO.P,ESP32S1,31,SPIWP/GPIO28*%
%TO.N,SPIWP_E2*%
X159296755Y-93860893D03*
%TO.P,ESP32S1,32,SPICS0/GPIO29*%
%TO.N,SPICS0_E2*%
X159296755Y-93460893D03*
%TO.P,ESP32S1,33,SPICLK/GPIO30*%
%TO.N,SPICLK_E2*%
X159296755Y-93060893D03*
%TO.P,ESP32S1,34,SPIQ/GPIO31*%
%TO.N,SPIQ_E2*%
X159296755Y-92660893D03*
D50*
%TO.P,ESP32S1,35,SPID/GPIO32*%
%TO.N,SPID_E2*%
X159296755Y-92260893D03*
D48*
%TO.P,ESP32S1,36,SPICLK_N/GPIO48*%
%TO.N,unconnected-(ESP32S1-SPICLK_N{slash}GPIO48-Pad36)*%
X159296755Y-91860893D03*
%TO.P,ESP32S1,37,SPICLK_P/GPIO47*%
%TO.N,unconnected-(ESP32S1-SPICLK_P{slash}GPIO47-Pad37)*%
X159296755Y-91460893D03*
%TO.P,ESP32S1,38,GPIO33*%
%TO.N,LCD_RST_IO13*%
X159296755Y-91060893D03*
%TO.P,ESP32S1,39,GPIO34*%
%TO.N,LCD_DC_IO14*%
X159296755Y-90660893D03*
%TO.P,ESP32S1,40,GPIO35*%
%TO.N,LCD_BUSY_IO17*%
X159296755Y-90260893D03*
%TO.P,ESP32S1,41,GPIO36*%
%TO.N,LCD_CS_IO12*%
X159296755Y-89860893D03*
%TO.P,ESP32S1,42,GPIO37*%
%TO.N,LCD_MOSI_IO11*%
X159296755Y-89460893D03*
D49*
%TO.P,ESP32S1,43,GPIO38*%
%TO.N,unconnected-(ESP32S1-GPIO38-Pad43)*%
X158459255Y-88623393D03*
%TO.P,ESP32S1,44,MTCK/JTAG/GPIO39*%
%TO.N,unconnected-(ESP32S1-MTCK{slash}JTAG{slash}GPIO39-Pad44)*%
X158059255Y-88623393D03*
%TO.P,ESP32S1,45,MTDO/JTAG/GPIO40*%
%TO.N,unconnected-(ESP32S1-MTDO{slash}JTAG{slash}GPIO40-Pad45)*%
X157659255Y-88623393D03*
%TO.P,ESP32S1,46,VDD3P3_CPU*%
%TO.N,3V3*%
X157259255Y-88623393D03*
%TO.P,ESP32S1,47,MTDI/JTAG/GPIO41*%
%TO.N,unconnected-(ESP32S1-MTDI{slash}JTAG{slash}GPIO41-Pad47)*%
X156859255Y-88623393D03*
%TO.P,ESP32S1,48,MTMS/JTAG/GPIO42*%
%TO.N,unconnected-(ESP32S1-MTMS{slash}JTAG{slash}GPIO42-Pad48)*%
X156459255Y-88623393D03*
%TO.P,ESP32S1,49,U0TXD/PROG/GPIO43*%
%TO.N,Net-(ESP32S1-U0TXD{slash}PROG{slash}GPIO43)*%
X156059255Y-88623393D03*
%TO.P,ESP32S1,50,U0RXD/PROG/GPIO44*%
%TO.N,RXD0*%
X155659255Y-88623393D03*
%TO.P,ESP32S1,51,GPIO45*%
%TO.N,GND*%
X155259255Y-88623393D03*
%TO.P,ESP32S1,52,GPIO46*%
%TO.N,ESP_GPIO0_BOOT-DTR*%
X154859255Y-88623393D03*
%TO.P,ESP32S1,53,XTAL_N*%
%TO.N,Net-(ESP32S1-XTAL_N)*%
X154459255Y-88623393D03*
%TO.P,ESP32S1,54,XTAL_P*%
%TO.N,Net-(ESP32S1-XTAL_P)*%
X154059255Y-88623393D03*
%TO.P,ESP32S1,55,VDDA*%
%TO.N,3V3*%
X153659255Y-88623393D03*
%TO.P,ESP32S1,56,VDDA*%
X153259255Y-88623393D03*
D51*
%TO.P,ESP32S1,57,GND*%
%TO.N,GND*%
X155859255Y-92060893D03*
%TD*%
D52*
%TO.P,E2R1,1*%
%TO.N,TXD0*%
X158839255Y-84125893D03*
%TO.P,E2R1,2*%
%TO.N,Net-(ESP32S1-U0TXD{slash}PROG{slash}GPIO43)*%
X158839255Y-85775893D03*
%TD*%
D24*
%TO.P,EIC8,1*%
%TO.N,PREVGH*%
X171082500Y-126560000D03*
%TO.P,EIC8,2*%
%TO.N,GND*%
X169532500Y-126560000D03*
%TD*%
D52*
%TO.P,QR2,1*%
%TO.N,Net-(CH340K1-RTS)*%
X134680000Y-75355000D03*
%TO.P,QR2,2*%
%TO.N,Net-(Q2-G)*%
X134680000Y-77005000D03*
%TD*%
D53*
%TO.P,probeSS12_1,1,K*%
%TO.N,Net-(probeSS12_1-K)*%
X137830000Y-111650000D03*
%TO.P,probeSS12_1,2,A*%
%TO.N,Net-(DMPprobeSS12_1-K)*%
X140630000Y-111650000D03*
%TD*%
D54*
%TO.P,ICSP1,1,Pin_1*%
%TO.N,5V0F*%
X125230500Y-85575000D03*
%TO.P,ICSP1,2,Pin_2*%
%TO.N,GND*%
X125230500Y-84305000D03*
%TO.P,ICSP1,3,Pin_3*%
%TO.N,TXD0*%
X125230500Y-83035000D03*
%TO.P,ICSP1,4,Pin_4*%
%TO.N,RXD0*%
X125230500Y-81765000D03*
%TD*%
D55*
%TO.P,EiD1a3,1,K*%
%TO.N,GND*%
X167342500Y-127390000D03*
%TO.P,EiD1a3,2,A*%
%TO.N,Net-(EiD1a1-K)*%
X167342500Y-129490000D03*
%TD*%
D14*
%TO.P,TP3,1,1*%
%TO.N,5V0*%
X166760000Y-72990000D03*
%TD*%
D53*
%TO.P,probeSS12_3,1,K*%
%TO.N,IN_KTS1_ADS2_A+*%
X137820000Y-105640000D03*
%TO.P,probeSS12_3,2,A*%
%TO.N,Net-(probeSS12_2-K)*%
X140620000Y-105640000D03*
%TD*%
D30*
%TO.P,EC4,1*%
%TO.N,GND*%
X127760000Y-126525000D03*
%TO.P,EC4,2*%
%TO.N,3V3*%
X127760000Y-124975000D03*
%TD*%
D56*
%TO.P,AR1,1*%
%TO.N,Net-(AU1-FB)*%
X182390245Y-79110821D03*
%TO.P,AR1,2*%
%TO.N,GND*%
X180390245Y-79110821D03*
%TD*%
D13*
%TO.P,E2C2,1*%
%TO.N,3V3*%
X146049255Y-99170893D03*
%TO.P,E2C2,2*%
%TO.N,GND*%
X147949255Y-99170893D03*
%TD*%
D57*
%TO.P,IDR2,1*%
%TO.N,3V3*%
X165134255Y-95630893D03*
%TO.P,IDR2,2*%
%TO.N,GPIO9_I2C_SCL*%
X166784255Y-95630893D03*
%TD*%
D24*
%TO.P,EIC3,1*%
%TO.N,Net-(J2-Pin_5)*%
X171347500Y-118760000D03*
%TO.P,EIC3,2*%
%TO.N,GND*%
X169797500Y-118760000D03*
%TD*%
D30*
%TO.P,E2C9,1*%
%TO.N,Net-(ESP32S1-GPIO15{slash}ADC2_CH4{slash}XTAL_32K_P)*%
X153469255Y-100605893D03*
%TO.P,E2C9,2*%
%TO.N,GND*%
X153469255Y-99055893D03*
%TD*%
D58*
%TO.P,probeC1,1*%
%TO.N,Net-(probeSS12_2-K)*%
X143305000Y-108160000D03*
%TO.P,probeC1,2*%
%TO.N,Net-(SMA1-Pad1)*%
X149530000Y-108160000D03*
%TD*%
D59*
%TO.P,J2,1,Pin_1*%
%TO.N,unconnected-(J2-Pin_1-Pad1)*%
X173902500Y-116670000D03*
%TO.P,J2,2,Pin_2*%
%TO.N,GDR*%
X176702500Y-117170000D03*
%TO.P,J2,3,Pin_3*%
%TO.N,RESE*%
X173902500Y-117670000D03*
%TO.P,J2,4,Pin_4*%
%TO.N,Net-(J2-Pin_4)*%
X176702500Y-118170000D03*
%TO.P,J2,5,Pin_5*%
%TO.N,Net-(J2-Pin_5)*%
X173902500Y-118670000D03*
%TO.P,J2,6,Pin_6*%
%TO.N,GPIO9_I2C_SCL*%
X176702500Y-119170000D03*
%TO.P,J2,7,Pin_7*%
%TO.N,GPIO8_I2C_SDA*%
X173902500Y-119670000D03*
%TO.P,J2,8,Pin_8*%
%TO.N,GND*%
X176702500Y-120170000D03*
%TO.P,J2,9,Pin_9*%
%TO.N,LCD_BUSY_IO17*%
X173902500Y-120670000D03*
%TO.P,J2,10,Pin_10*%
%TO.N,LCD_RST_IO13*%
X176702500Y-121170000D03*
%TO.P,J2,11,Pin_11*%
%TO.N,LCD_DC_IO14*%
X173902500Y-121670000D03*
%TO.P,J2,12,Pin_12*%
%TO.N,LCD_CS_IO12*%
X176702500Y-122170000D03*
%TO.P,J2,13,Pin_13*%
%TO.N,SCLK_COMMON_3V3_IO04*%
X173902500Y-122670000D03*
%TO.P,J2,14,Pin_14*%
%TO.N,LCD_MOSI_IO11*%
X176702500Y-123170000D03*
%TO.P,J2,15,Pin_15*%
%TO.N,3V3*%
X173902500Y-123670000D03*
%TO.P,J2,16,Pin_16*%
X176702500Y-124170000D03*
%TO.P,J2,17,Pin_17*%
%TO.N,GND*%
X173902500Y-124670000D03*
%TO.P,J2,18,Pin_18*%
%TO.N,Net-(J2-Pin_18)*%
X176702500Y-125170000D03*
%TO.P,J2,19,Pin_19*%
%TO.N,unconnected-(J2-Pin_19-Pad19)*%
X173902500Y-125670000D03*
%TO.P,J2,20,Pin_20*%
%TO.N,Net-(J2-Pin_20)*%
X176702500Y-126170000D03*
%TO.P,J2,21,Pin_21*%
%TO.N,PREVGH*%
X173902500Y-126670000D03*
%TO.P,J2,22,Pin_22*%
%TO.N,Net-(J2-Pin_22)*%
X176702500Y-127170000D03*
%TO.P,J2,23,Pin_23*%
%TO.N,PREVGL*%
X173902500Y-127670000D03*
%TO.P,J2,24,Pin_24*%
%TO.N,Net-(J2-Pin_24)*%
X176702500Y-128170000D03*
D60*
%TO.P,J2,S1*%
%TO.N,N/C*%
X176702500Y-115670000D03*
%TO.P,J2,S2*%
X173902500Y-115670000D03*
%TO.P,J2,S3*%
X176702500Y-129170000D03*
%TO.P,J2,S4*%
X173902500Y-129170000D03*
%TD*%
D61*
%TO.P,CH340K1,1,UD+*%
%TO.N,USB_D+*%
X144110000Y-77000000D03*
%TO.P,CH340K1,2,UD-*%
%TO.N,USB_D-*%
X144110000Y-76000000D03*
%TO.P,CH340K1,3,GND*%
%TO.N,GND*%
X144110000Y-75000000D03*
%TO.P,CH340K1,4,~{DTR}*%
%TO.N,Net-(CH340K1-~{DTR})*%
X144110000Y-74000000D03*
%TO.P,CH340K1,5,~{CTS}*%
%TO.N,unconnected-(CH340K1-~{CTS}-Pad5)*%
X144110000Y-73000000D03*
%TO.P,CH340K1,6,RTS*%
%TO.N,Net-(CH340K1-RTS)*%
X139010000Y-73000000D03*
%TO.P,CH340K1,7,VCC*%
%TO.N,Net-(CH340K1-VCC)*%
X139010000Y-74000000D03*
%TO.P,CH340K1,8,TXD*%
%TO.N,RXD0*%
X139010000Y-75000000D03*
%TO.P,CH340K1,9,RXD*%
%TO.N,TXD0*%
X139010000Y-76000000D03*
%TO.P,CH340K1,10,V3*%
%TO.N,3V3*%
X139010000Y-77000000D03*
%TD*%
D30*
%TO.P,EIC7,1*%
%TO.N,Net-(EiD1a1-K)*%
X165332500Y-129360000D03*
%TO.P,EIC7,2*%
%TO.N,Net-(EiD1a2-A)*%
X165332500Y-127810000D03*
%TD*%
D62*
%TO.P,AC1,1*%
%TO.N,3V3*%
X174350000Y-74032500D03*
%TO.P,AC1,2*%
%TO.N,GND*%
X174350000Y-76107500D03*
%TD*%
D24*
%TO.P,E2C6,1*%
%TO.N,3V3*%
X150924255Y-97380893D03*
%TO.P,E2C6,2*%
%TO.N,GND*%
X149374255Y-97380893D03*
%TD*%
D31*
%TO.P,EL1,1,1*%
%TO.N,Net-(ANT1-Pad1)*%
X138807500Y-88230000D03*
%TO.P,EL1,2,2*%
%TO.N,Net-(ESP32S1-LNA_IN{slash}RF)*%
X140932500Y-88230000D03*
%TD*%
D63*
%TO.P,ANT1,1,1*%
%TO.N,Net-(ANT1-Pad1)*%
X134970000Y-88370500D03*
%TO.P,ANT1,2,2*%
%TO.N,unconnected-(ANT1-Pad2)*%
X134970000Y-97870500D03*
%TD*%
D57*
%TO.P,ER1,1*%
%TO.N,3V3*%
X145744255Y-92760893D03*
%TO.P,ER1,2*%
%TO.N,CHIP_EN*%
X147394255Y-92760893D03*
%TD*%
D15*
%TO.P,E2R2,1*%
%TO.N,3V3*%
X155984255Y-85000893D03*
%TO.P,E2R2,2*%
%TO.N,ESP_GPIO0_BOOT-DTR*%
X154334255Y-85000893D03*
%TD*%
D16*
%TO.P,EiD1a1,1,K*%
%TO.N,Net-(EiD1a1-K)*%
X169452500Y-129630000D03*
%TO.P,EiD1a1,2,A*%
%TO.N,PREVGL*%
X171552500Y-129630000D03*
%TD*%
D64*
%TO.P,AC2,1*%
%TO.N,5V0*%
X179262745Y-83590821D03*
%TO.P,AC2,2*%
%TO.N,GND*%
X181337745Y-83590821D03*
%TD*%
D11*
%TO.P,DMPprobeSS12_1,1,K*%
%TO.N,Net-(DMPprobeSS12_1-K)*%
X140520000Y-114640000D03*
%TO.P,DMPprobeSS12_1,2,A*%
%TO.N,IN_KTS1_ADS2_A-*%
X137720000Y-114640000D03*
%TD*%
D25*
%TO.P,probeC3,1*%
%TO.N,IN_KTS1_ADS2_A+*%
X133780000Y-103390000D03*
D26*
%TO.P,probeC3,2*%
%TO.N,Net-(probeSS12_1-K)*%
X133780000Y-105890000D03*
%TD*%
D44*
%TO.P,Q2,1,G*%
%TO.N,Net-(Q2-G)*%
X134610000Y-78700000D03*
%TO.P,Q2,2,S*%
%TO.N,Net-(CH340K1-~{DTR})*%
X132710000Y-78700000D03*
%TO.P,Q2,3,D*%
%TO.N,ESP_GPIO0_BOOT-DTR*%
X133660000Y-80575000D03*
%TD*%
D65*
%TO.P,BZ1,1,-*%
%TO.N,BUZZER_IO18*%
X185100000Y-103440000D03*
%TO.P,BZ1,2,+*%
%TO.N,GND*%
X185100000Y-96040000D03*
%TO.P,BZ1,3*%
%TO.N,N/C*%
X177700000Y-96040000D03*
%TD*%
D31*
%TO.P,E2L1,1,1*%
%TO.N,3V3*%
X145726755Y-91260893D03*
%TO.P,E2L1,2,2*%
%TO.N,Net-(E2C7-Pad1)*%
X147851755Y-91260893D03*
%TD*%
D66*
%TO.N,*%
X156929255Y-86150893D03*
X157179255Y-86950893D03*
%TO.N,3V3*%
X157519255Y-101050893D03*
D67*
X170960000Y-85160000D03*
D66*
X162509255Y-102999255D03*
D67*
X148989255Y-96300893D03*
X172372500Y-123620000D03*
D66*
X161699255Y-100790893D03*
D67*
X130120000Y-83510000D03*
X178782500Y-123840000D03*
D66*
X154533755Y-86020893D03*
D67*
X145549255Y-96040893D03*
X161760000Y-130000000D03*
X145439255Y-102999255D03*
X170960000Y-96640000D03*
D66*
X161274984Y-97559199D03*
D67*
X166480000Y-119770000D03*
D66*
X148850000Y-133050000D03*
D67*
X145679255Y-86890893D03*
X138565000Y-79645000D03*
X145439255Y-100730893D03*
X147272951Y-81462951D03*
X145589255Y-89690893D03*
%TO.N,GND*%
X157860000Y-94160000D03*
X158390000Y-79190000D03*
X133740000Y-126780000D03*
X145450000Y-75010000D03*
D66*
X154469255Y-98960893D03*
D67*
X168612500Y-127250000D03*
X129520000Y-126910000D03*
X180822500Y-123970000D03*
X186880000Y-96000000D03*
X151860000Y-79170000D03*
X171890000Y-86150000D03*
X179440000Y-80170000D03*
X169722500Y-117890000D03*
D68*
X151629288Y-88716359D03*
D67*
X153989255Y-90190893D03*
X142200000Y-75010000D03*
D66*
X154500000Y-101860000D03*
D68*
X180805000Y-119375000D03*
D67*
X168422500Y-131880000D03*
X134570000Y-74020000D03*
D66*
X158880000Y-96530000D03*
D67*
X172800000Y-96880000D03*
D66*
X155860000Y-134380000D03*
D67*
X172790000Y-94220000D03*
%TO.N,5V0*%
X171880000Y-87900000D03*
X171880000Y-97630000D03*
D66*
%TO.N,BUZZER_IO18*%
X155679255Y-101120893D03*
X169910000Y-105824500D03*
D67*
%TO.N,IN_KTS1_ADS2_A-*%
X127490000Y-112960000D03*
D66*
%TO.N,CHIP_EN*%
X149150000Y-91250000D03*
D67*
X130000000Y-82200000D03*
D66*
%TO.N,Net-(ESP32S1-U0TXD{slash}PROG{slash}GPIO43)*%
X156020268Y-86041906D03*
X158809255Y-86680893D03*
%TO.N,GPIO8_I2C_SDA*%
X172592500Y-119670000D03*
X153847487Y-135427487D03*
X153970000Y-132960000D03*
X160454255Y-97635893D03*
X150360000Y-105705500D03*
X150921314Y-95083767D03*
%TO.N,GPIO9_I2C_SCL*%
X151290000Y-105690000D03*
X151707852Y-95290143D03*
X154650000Y-134000000D03*
X179370000Y-120463000D03*
X159749255Y-98170893D03*
%TO.N,ESP2_USB_D-*%
X156329255Y-100350893D03*
%TO.N,ESP2_USB_D+*%
X157279255Y-100200893D03*
%TO.N,unconnected-(ESP32S1-GPIO11{slash}ADC2_CH0-Pad16)*%
X152647806Y-96425393D03*
%TO.N,unconnected-(ESP32S1-GPIO12{slash}ADC2_CH1-Pad17)*%
X153279255Y-97020893D03*
D67*
%TO.N,5V0F*%
X123410000Y-85320000D03*
X153580000Y-76270000D03*
X156660000Y-76250000D03*
D66*
%TO.N,unconnected-(ESP32S1-GPIO38-Pad43)*%
X159956622Y-88417660D03*
%TO.N,IMU_CS_IO21*%
X159669255Y-99920893D03*
X158483755Y-98117455D03*
%TO.N,ESP_GPIO0_BOOT-DTR*%
X155014921Y-87590021D03*
X150129255Y-91380893D03*
D67*
X133660000Y-82140000D03*
D66*
%TO.N,RXD0*%
X155299611Y-86701638D03*
D67*
X126860000Y-79100000D03*
D68*
X136610000Y-77499500D03*
D66*
%TO.N,TXD0*%
X158839255Y-83400893D03*
D68*
X137640000Y-76850000D03*
D67*
X126770000Y-77890000D03*
D66*
%TO.N,SCLK_COMMON_3V3_IO04*%
X169335734Y-113535734D03*
X170960000Y-121485500D03*
%TO.N,LCD_MOSI_IO11*%
X178062500Y-123090000D03*
X160590836Y-88992160D03*
%TO.N,LCD_CS_IO12*%
X178870000Y-122750000D03*
X160260000Y-89720000D03*
%TO.N,LCD_RST_IO13*%
X160283754Y-91760949D03*
X178702649Y-121803378D03*
%TO.N,LCD_DC_IO14*%
X169720000Y-120810000D03*
X160553927Y-91008479D03*
%TO.N,LCD_BUSY_IO17*%
X160845758Y-90264143D03*
X170139650Y-120129487D03*
D67*
%TO.N,Earth*%
X158670000Y-107950000D03*
X169420000Y-106990000D03*
X151620000Y-107240000D03*
X153390000Y-111420000D03*
X174130000Y-106540000D03*
X161870000Y-108020000D03*
D66*
%TO.N,LED_R_IO13*%
X159110000Y-128240000D03*
X154094755Y-96876913D03*
%TO.N,LED_G_IO14*%
X154669255Y-97581393D03*
X159850000Y-128860000D03*
%TO.N,LED_B_IO17*%
X160857500Y-129152500D03*
X154956338Y-100747976D03*
D67*
%TO.N,ADS1155_ALERT_IO01*%
X135070000Y-125290000D03*
D66*
X149540000Y-92070000D03*
%TO.N,unconnected-(ESP32S1-GPIO2{slash}ADC1_CH1-Pad7)*%
X148567346Y-92694157D03*
%TO.N,unconnected-(ESP32S1-GPIO4{slash}ADC1_CH3-Pad9)*%
X149410000Y-93400000D03*
%TO.N,unconnected-(ESP32S1-GPIO5{slash}ADC1_CH4-Pad10)*%
X148980000Y-94300000D03*
%TO.N,unconnected-(ESP32S1-GPIO6{slash}ADC1_CH5-Pad11)*%
X149490000Y-94930000D03*
%TO.N,unconnected-(ESP32S1-GPIO7{slash}ADC1_CH6-Pad12)*%
X150975488Y-94217126D03*
%TO.N,unconnected-(ESP32S1-GPIO10{slash}ADC1_CH9-Pad15)*%
X151924243Y-96074221D03*
%TD*%
D69*
%TO.N,3V3*%
X162174255Y-95640893D02*
X162174255Y-95345745D01*
D70*
X148906781Y-96342853D02*
X149014821Y-96450893D01*
D71*
X160640000Y-134110000D02*
X161080000Y-134110000D01*
D69*
X164780000Y-94820000D02*
X165134255Y-95174255D01*
D70*
X145889255Y-87100893D02*
X145679255Y-86890893D01*
D72*
X153409255Y-87790893D02*
X152749255Y-87790893D01*
X170130000Y-112940000D02*
X168350000Y-111160000D01*
D70*
X145449255Y-93430745D02*
X145449255Y-95310893D01*
D71*
X160590000Y-134240000D02*
X160720000Y-134110000D01*
D69*
X148740000Y-134005000D02*
X148740000Y-131110660D01*
D72*
X157329255Y-85155893D02*
X157329255Y-85560893D01*
D70*
X146049255Y-99480745D02*
X146049255Y-99170893D01*
D72*
X130120000Y-83510000D02*
X130120000Y-83520000D01*
D69*
X127590000Y-127750000D02*
X126900000Y-127060000D01*
X160590000Y-134240000D02*
X161130000Y-134240000D01*
D71*
X155279255Y-96300893D02*
X155279255Y-96880893D01*
D69*
X161073526Y-97559199D02*
X161174255Y-97659928D01*
X132994340Y-128995000D02*
X131749340Y-127750000D01*
X162874255Y-100790893D02*
X161629255Y-100790893D01*
X157619255Y-101280893D02*
X157539255Y-101200893D01*
D70*
X174350000Y-74032500D02*
X171777500Y-74032500D01*
D69*
X148797500Y-134062500D02*
X148740000Y-134005000D01*
D72*
X138565000Y-79645000D02*
X139025000Y-79185000D01*
D73*
X149329000Y-80795000D02*
X148661049Y-81462951D01*
D70*
X157174255Y-85000893D02*
X157329255Y-85155893D01*
X149014821Y-96450893D02*
X150359255Y-96450893D01*
D74*
X139025000Y-77015000D02*
X139010000Y-77000000D01*
D72*
X155319255Y-97910893D02*
X155319255Y-96920893D01*
D70*
X171777500Y-74032500D02*
X170960000Y-74850000D01*
D69*
X159169255Y-101000893D02*
X158889255Y-101280893D01*
D70*
X155984255Y-85000893D02*
X157174255Y-85000893D01*
D73*
X170990000Y-80790000D02*
X170985000Y-80795000D01*
D75*
X178817101Y-74099848D02*
X179851025Y-75133772D01*
D70*
X170960000Y-74850000D02*
X170960000Y-85160000D01*
X145449255Y-95310893D02*
X145449255Y-95690893D01*
D69*
X158889255Y-101280893D02*
X157619255Y-101280893D01*
D74*
X155259255Y-95498393D02*
X155259255Y-96340893D01*
D70*
X145899255Y-95690893D02*
X145549255Y-96040893D01*
D71*
X155279255Y-96880893D02*
X155319255Y-96920893D01*
D69*
X146624340Y-128995000D02*
X132994340Y-128995000D01*
D71*
X153449255Y-87830893D02*
X153449255Y-87850893D01*
D69*
X161174255Y-96760893D02*
X162174255Y-95760893D01*
D72*
X139025000Y-79185000D02*
X139025000Y-78480000D01*
D69*
X148740000Y-131110660D02*
X146624340Y-128995000D01*
X161699255Y-100790893D02*
X161639255Y-100730893D01*
D72*
X154999255Y-98230893D02*
X155319255Y-97910893D01*
X168350000Y-111160000D02*
X168350000Y-106180000D01*
X168350000Y-106180000D02*
X169355000Y-105175000D01*
X166480000Y-119770000D02*
X166250000Y-119770000D01*
D70*
X149949255Y-87100893D02*
X145889255Y-87100893D01*
D72*
X157329255Y-85560893D02*
X157959255Y-86190893D01*
X170130000Y-114030000D02*
X170130000Y-112940000D01*
D71*
X148740000Y-134005000D02*
X148740000Y-133160000D01*
D69*
X161639255Y-100730893D02*
X160749255Y-100730893D01*
X159169255Y-100835893D02*
X159169255Y-101000893D01*
X163149255Y-100775893D02*
X164054255Y-100775893D01*
D72*
X166480000Y-117680000D02*
X170130000Y-114030000D01*
D70*
X150924255Y-97015893D02*
X150924255Y-97380893D01*
D74*
X178452500Y-124170000D02*
X176702500Y-124170000D01*
D70*
X145439255Y-100090745D02*
X146049255Y-99480745D01*
X146249255Y-95915893D02*
X146249255Y-98685893D01*
D69*
X160749255Y-100730893D02*
X160654255Y-100635893D01*
X131749340Y-127750000D02*
X127590000Y-127750000D01*
D72*
X166480000Y-119770000D02*
X166480000Y-117680000D01*
X171470000Y-96130000D02*
X170960000Y-96640000D01*
D70*
X170960000Y-96640000D02*
X170960000Y-102340000D01*
X151384174Y-87838893D02*
X151229989Y-87684708D01*
D69*
X126900000Y-127060000D02*
X126900000Y-125210000D01*
X162174255Y-95345745D02*
X162700000Y-94820000D01*
D73*
X148661049Y-81462951D02*
X147272951Y-81462951D01*
D72*
X153559255Y-98230893D02*
X154999255Y-98230893D01*
D70*
X154974255Y-86020893D02*
X155994255Y-85000893D01*
D75*
X177254949Y-74099848D02*
X178817101Y-74099848D01*
D69*
X126900000Y-125210000D02*
X127330000Y-124780000D01*
D70*
X145814255Y-92770893D02*
X145814255Y-93065745D01*
D69*
X157259255Y-88623393D02*
X157259255Y-87936326D01*
D72*
X170988784Y-105175000D02*
X173550000Y-102613784D01*
D70*
X145660000Y-92696638D02*
X145660000Y-89761638D01*
D71*
X148740000Y-133160000D02*
X148850000Y-133050000D01*
D69*
X157259255Y-87936326D02*
X157939255Y-87256326D01*
D71*
X161760000Y-127990000D02*
X161560000Y-127790000D01*
D74*
X153259255Y-88623393D02*
X153259255Y-88040893D01*
X139025000Y-78480000D02*
X139025000Y-77015000D01*
D70*
X146394255Y-95690893D02*
X145899255Y-95690893D01*
D74*
X178782500Y-123840000D02*
X178452500Y-124170000D01*
D70*
X170960000Y-102340000D02*
X170300745Y-102999255D01*
D72*
X173110661Y-96130000D02*
X171470000Y-96130000D01*
D73*
X170985000Y-80795000D02*
X149329000Y-80795000D01*
D69*
X157939255Y-87256326D02*
X157939255Y-87050893D01*
D70*
X145449255Y-95310893D02*
X145449255Y-95940893D01*
X145439255Y-100730893D02*
X145439255Y-100090745D01*
D72*
X130600000Y-83040000D02*
X135170000Y-83040000D01*
D75*
X174421679Y-73960821D02*
X177270245Y-73960821D01*
D70*
X145449255Y-95940893D02*
X145549255Y-96040893D01*
D74*
X153259255Y-88040893D02*
X153449255Y-87850893D01*
D72*
X157959255Y-86190893D02*
X157959255Y-87100893D01*
D75*
X174350000Y-74032500D02*
X174421679Y-73960821D01*
D70*
X170300745Y-102999255D02*
X145439255Y-102999255D01*
D69*
X127330000Y-124780000D02*
X129590000Y-124780000D01*
D74*
X173902500Y-123670000D02*
X172422500Y-123670000D01*
D70*
X150924255Y-97460893D02*
X150924255Y-97380893D01*
D69*
X162174255Y-95760893D02*
X162174255Y-95640893D01*
X162700000Y-94820000D02*
X164780000Y-94820000D01*
D72*
X173550000Y-96569339D02*
X173110661Y-96130000D01*
D70*
X154533755Y-86020893D02*
X154974255Y-86020893D01*
D71*
X161760000Y-133430000D02*
X161760000Y-127990000D01*
D70*
X145734255Y-92770893D02*
X145660000Y-92696638D01*
D72*
X135170000Y-83040000D02*
X138565000Y-79645000D01*
D69*
X172323500Y-74032500D02*
X172200000Y-74156000D01*
D72*
X130120000Y-83520000D02*
X130600000Y-83040000D01*
X152709255Y-97380893D02*
X153559255Y-98230893D01*
D74*
X153449255Y-87850893D02*
X153659255Y-88060893D01*
D69*
X165134255Y-95174255D02*
X165134255Y-95630893D01*
D71*
X161080000Y-134110000D02*
X161760000Y-133430000D01*
D70*
X152699255Y-87838893D02*
X151384174Y-87838893D01*
D74*
X153659255Y-88060893D02*
X153659255Y-88623393D01*
D69*
X150170000Y-134062500D02*
X148797500Y-134062500D01*
D70*
X150359255Y-96450893D02*
X150924255Y-97015893D01*
D72*
X153449255Y-87830893D02*
X153409255Y-87790893D01*
D73*
X161280000Y-97549517D02*
X161280000Y-96650482D01*
D72*
X150924255Y-97380893D02*
X152709255Y-97380893D01*
D70*
X145449255Y-95690893D02*
X146394255Y-95690893D01*
D74*
X172422500Y-123670000D02*
X172372500Y-123620000D01*
D70*
X145660000Y-89761638D02*
X145589255Y-89690893D01*
D72*
X169355000Y-105175000D02*
X170988784Y-105175000D01*
X173550000Y-102613784D02*
X173550000Y-96569339D01*
D69*
X172200000Y-74156000D02*
X172200000Y-75500000D01*
D70*
X145814255Y-93065745D02*
X145449255Y-93430745D01*
X151232514Y-87684704D02*
G75*
G03*
X149949255Y-87100894I-1424814J-1429596D01*
G01*
D74*
%TO.N,GND*%
X134580000Y-74010000D02*
X134570000Y-74020000D01*
D73*
X144510000Y-80940000D02*
X142050000Y-78480000D01*
D69*
X148747500Y-135562500D02*
X148740000Y-135555000D01*
D74*
X145440000Y-75000000D02*
X145450000Y-75010000D01*
D69*
X146295000Y-80190000D02*
X146355000Y-80130000D01*
D72*
X175392500Y-130940000D02*
X174452500Y-131880000D01*
D76*
X149089255Y-88882864D02*
X146857284Y-88882864D01*
D72*
X132137918Y-74180000D02*
X134507918Y-71810000D01*
D74*
X153564255Y-98960893D02*
X153469255Y-99055893D01*
X155769255Y-97220893D02*
X155769255Y-98097289D01*
D69*
X129460000Y-126850000D02*
X128085000Y-126850000D01*
D72*
X172870000Y-94140000D02*
X184410000Y-94140000D01*
X147079255Y-85030893D02*
X147079255Y-83765893D01*
D69*
X173300000Y-81950000D02*
X175225000Y-81950000D01*
D72*
X146324255Y-100985893D02*
X146324255Y-101910893D01*
D74*
X169562500Y-127930000D02*
X169562500Y-127250000D01*
D72*
X184410000Y-94140000D02*
X185100000Y-94830000D01*
D69*
X132680000Y-125780000D02*
X132490000Y-125590000D01*
D76*
X144747136Y-88882864D02*
X144530000Y-89100000D01*
D72*
X125230500Y-84305000D02*
X124435000Y-84305000D01*
D74*
X150726229Y-86522885D02*
X149841247Y-86522885D01*
D72*
X176702500Y-120170000D02*
X175702500Y-120170000D01*
D69*
X158359255Y-101850893D02*
X158449255Y-101940893D01*
D73*
X144510000Y-85060000D02*
X144510000Y-80940000D01*
D72*
X134507918Y-71810000D02*
X144425000Y-71810000D01*
X174452500Y-131880000D02*
X170602500Y-131880000D01*
D74*
X140575000Y-78480000D02*
X140575000Y-76645000D01*
D76*
X149590213Y-87812864D02*
X149587349Y-87810000D01*
D69*
X133690000Y-125780000D02*
X132680000Y-125780000D01*
D72*
X149374255Y-98545893D02*
X149769255Y-98940893D01*
X150809255Y-95980893D02*
X150812428Y-95980893D01*
D73*
X171890000Y-86150000D02*
X169850000Y-86150000D01*
D69*
X159669255Y-100925893D02*
X159669255Y-101855893D01*
D72*
X186840000Y-96040000D02*
X185100000Y-96040000D01*
X151880000Y-79150000D02*
X151860000Y-79170000D01*
X123430000Y-83300000D02*
X123430000Y-79980000D01*
X178130000Y-120170000D02*
X176702500Y-120170000D01*
D70*
X169320000Y-104570000D02*
X169740000Y-104570000D01*
D72*
X123430000Y-79980000D02*
X129230000Y-74180000D01*
X157329255Y-83378393D02*
X157329255Y-82403393D01*
D69*
X132490000Y-125590000D02*
X132490000Y-125020000D01*
D76*
X151294302Y-88820034D02*
X150870947Y-88396679D01*
D69*
X133740000Y-126780000D02*
X133690000Y-126800000D01*
D74*
X169727500Y-117070000D02*
X169727500Y-118630000D01*
X153469255Y-99055893D02*
X153469255Y-98780893D01*
D69*
X168294255Y-96970893D02*
X169849255Y-96970893D01*
X129580000Y-126850000D02*
X129520000Y-126910000D01*
X146260000Y-80225000D02*
X146295000Y-80190000D01*
X128085000Y-126850000D02*
X127760000Y-126525000D01*
D72*
X180827500Y-123975000D02*
X180822500Y-123970000D01*
D70*
X172800000Y-102508184D02*
X170738184Y-104570000D01*
D74*
X149841247Y-86522885D02*
X148754255Y-85435893D01*
X169562500Y-127250000D02*
X168612500Y-127250000D01*
D76*
X140615000Y-86680000D02*
X140485000Y-86550000D01*
D72*
X158380000Y-79180000D02*
X158390000Y-79190000D01*
D73*
X177270000Y-78545000D02*
X177270000Y-79795000D01*
D74*
X146779670Y-128620000D02*
X133149670Y-128620000D01*
D72*
X147159255Y-83408393D02*
X147159255Y-82433393D01*
D69*
X146320000Y-82400000D02*
X146320000Y-80515000D01*
D74*
X135535000Y-74010000D02*
X134580000Y-74010000D01*
D76*
X175262250Y-77019750D02*
X174350000Y-76107500D01*
D72*
X175392500Y-120480000D02*
X175392500Y-124300000D01*
X147949255Y-99170893D02*
X147949255Y-97310893D01*
D69*
X155560000Y-134680000D02*
X153510000Y-134680000D01*
D74*
X144110000Y-75000000D02*
X145440000Y-75000000D01*
D72*
X145450000Y-72835000D02*
X145450000Y-75010000D01*
X147944255Y-95690893D02*
X147899255Y-95690893D01*
X151969255Y-100740893D02*
X151569255Y-100740893D01*
D73*
X180260000Y-79750000D02*
X180260000Y-78980000D01*
D69*
X133740000Y-125830000D02*
X133740000Y-126780000D01*
D72*
X180822500Y-121112500D02*
X179072500Y-121112500D01*
D74*
X142200000Y-75020000D02*
X142200000Y-75010000D01*
D72*
X148339255Y-98780893D02*
X147949255Y-99170893D01*
D69*
X175242000Y-78272000D02*
X175270000Y-78300000D01*
D72*
X157329255Y-83605893D02*
X155909255Y-83605893D01*
D74*
X168612500Y-127250000D02*
X168252500Y-127250000D01*
D72*
X149299916Y-95550893D02*
X149594586Y-95845563D01*
X149594586Y-95845563D02*
X150673925Y-95845563D01*
X171412500Y-131880000D02*
X168422500Y-131880000D01*
X150812428Y-95980893D02*
X151712428Y-96880893D01*
D69*
X129520000Y-126910000D02*
X129460000Y-126850000D01*
X158940893Y-96580893D02*
X158930000Y-96570000D01*
D72*
X149374255Y-97460893D02*
X149374255Y-98545893D01*
D76*
X144530000Y-89100000D02*
X144530000Y-95650000D01*
D74*
X131439670Y-126910000D02*
X129520000Y-126910000D01*
D76*
X175262250Y-84807750D02*
X175262250Y-77019750D01*
D69*
X153510000Y-134680000D02*
X153127500Y-135062500D01*
D72*
X151844255Y-100595893D02*
X151829255Y-100580893D01*
D76*
X149320848Y-88899069D02*
X149090213Y-88882864D01*
D69*
X160159255Y-100925893D02*
X160159255Y-101855893D01*
D72*
X147939255Y-95695893D02*
X147944255Y-95690893D01*
X175392500Y-124300000D02*
X175392500Y-124310000D01*
D73*
X142050000Y-78480000D02*
X140575000Y-78480000D01*
D72*
X144425000Y-71810000D02*
X145450000Y-72835000D01*
D69*
X155259255Y-88623393D02*
X155259255Y-91460893D01*
D74*
X168112500Y-127390000D02*
X167342500Y-127390000D01*
D69*
X155259255Y-91460893D02*
X155859255Y-92060893D01*
D73*
X179440000Y-80170000D02*
X179840000Y-80170000D01*
X179840000Y-80170000D02*
X180260000Y-79750000D01*
D74*
X180787500Y-129260000D02*
X180787500Y-125050000D01*
D72*
X147939255Y-97300893D02*
X147939255Y-95695893D01*
D73*
X175322250Y-80180000D02*
X176697750Y-80180000D01*
D74*
X151370000Y-133210330D02*
X146779670Y-128620000D01*
X140575000Y-76645000D02*
X142200000Y-75020000D01*
D69*
X150405000Y-135570000D02*
X150855000Y-135570000D01*
D70*
X170738184Y-104570000D02*
X169320000Y-104570000D01*
D72*
X152649255Y-85370893D02*
X152249255Y-85370893D01*
D69*
X155659255Y-92260893D02*
X155859255Y-92060893D01*
D72*
X173180000Y-84860000D02*
X180700000Y-84860000D01*
X158380000Y-77932500D02*
X158380000Y-79180000D01*
X172790000Y-94220000D02*
X172870000Y-94140000D01*
X171890000Y-86150000D02*
X173180000Y-84860000D01*
X151680893Y-100580893D02*
X149880893Y-98780893D01*
X180700000Y-84860000D02*
X181337745Y-84222255D01*
D74*
X151370000Y-134812500D02*
X151370000Y-133210330D01*
D72*
X148729255Y-85435893D02*
X148444255Y-85435893D01*
D69*
X151785000Y-135090000D02*
X152235000Y-135090000D01*
D72*
X129230000Y-74180000D02*
X132137918Y-74180000D01*
X175392500Y-124310000D02*
X175032500Y-124670000D01*
X148444255Y-85435893D02*
X148039255Y-85030893D01*
D74*
X153469255Y-98780893D02*
X152519255Y-97830893D01*
D72*
X155909255Y-83605893D02*
X155904255Y-83600893D01*
X179072500Y-121112500D02*
X178130000Y-120170000D01*
X180827500Y-125010000D02*
X180827500Y-123975000D01*
X180947500Y-118250000D02*
X181060000Y-118250000D01*
D74*
X152742148Y-87200893D02*
X152136362Y-87200893D01*
D69*
X132490000Y-125020000D02*
X132730000Y-124780000D01*
X152421755Y-92260893D02*
X155659255Y-92260893D01*
D72*
X152249255Y-85370893D02*
X150449255Y-83570893D01*
X180830000Y-123962500D02*
X180822500Y-123970000D01*
X181337745Y-84222255D02*
X181337745Y-83590821D01*
D76*
X149587349Y-87810000D02*
X144470000Y-87810000D01*
D72*
X147899255Y-95690893D02*
X146394255Y-94185893D01*
D70*
X172800000Y-96880000D02*
X172800000Y-102508184D01*
D69*
X133690000Y-125780000D02*
X133740000Y-125830000D01*
D72*
X150673925Y-95845563D02*
X150809255Y-95980893D01*
D73*
X177833212Y-80170000D02*
X179440000Y-80170000D01*
D74*
X169562500Y-127250000D02*
X169562500Y-126590000D01*
D72*
X147949255Y-97310893D02*
X147939255Y-97300893D01*
X146394255Y-94185893D02*
X146394255Y-94180893D01*
D76*
X142545000Y-86550000D02*
X142710000Y-86715000D01*
D74*
X152519255Y-97830893D02*
X151679255Y-97830893D01*
D72*
X180947500Y-118250000D02*
X180830000Y-118367500D01*
D74*
X169562500Y-126590000D02*
X169532500Y-126560000D01*
X168252500Y-127250000D02*
X168112500Y-127390000D01*
D72*
X149629255Y-98780893D02*
X148339255Y-98780893D01*
X151880000Y-77932500D02*
X151880000Y-79150000D01*
D74*
X155769255Y-98097289D02*
X154905651Y-98960893D01*
D76*
X151294302Y-88820034D02*
X152558396Y-88820034D01*
D69*
X153127500Y-135062500D02*
X152570000Y-135062500D01*
X159634255Y-96580893D02*
X158940893Y-96580893D01*
D72*
X151712428Y-96880893D02*
X152179255Y-96880893D01*
D74*
X180787500Y-125050000D02*
X180827500Y-125010000D01*
D72*
X148084255Y-95550893D02*
X149299916Y-95550893D01*
X147944255Y-95690893D02*
X148084255Y-95550893D01*
D69*
X146355000Y-80130000D02*
X146355000Y-78700000D01*
D72*
X143597500Y-99910000D02*
X144522500Y-99910000D01*
D70*
X143315908Y-104570000D02*
X169320000Y-104570000D01*
D74*
X147944255Y-95690893D02*
X148034255Y-95600893D01*
D72*
X149880893Y-98780893D02*
X149629255Y-98780893D01*
D74*
X146774255Y-89780893D02*
X146774255Y-88965893D01*
D72*
X175392500Y-124300000D02*
X175392500Y-130940000D01*
D74*
X154905651Y-98960893D02*
X153564255Y-98960893D01*
D69*
X150170000Y-135562500D02*
X148747500Y-135562500D01*
D76*
X175250000Y-84820000D02*
X175262250Y-84807750D01*
D74*
X133149670Y-128620000D02*
X131439670Y-126910000D01*
D72*
X124435000Y-84305000D02*
X123430000Y-83300000D01*
X175032500Y-124670000D02*
X173902500Y-124670000D01*
X185100000Y-94830000D02*
X185100000Y-96040000D01*
D76*
X146857284Y-88882864D02*
X144747136Y-88882864D01*
D72*
X147079255Y-83765893D02*
X147194255Y-83650893D01*
D69*
X173230000Y-81880000D02*
X173300000Y-81950000D01*
D72*
X148039255Y-85030893D02*
X147079255Y-85030893D01*
D69*
X155860000Y-134380000D02*
X155560000Y-134680000D01*
D72*
X186880000Y-96000000D02*
X186840000Y-96040000D01*
D71*
X147944255Y-95690893D02*
X148269255Y-95690893D01*
D72*
X180830000Y-118367500D02*
X180830000Y-123962500D01*
D74*
X146774255Y-88965893D02*
X146857284Y-88882864D01*
X151429255Y-86908000D02*
X151335041Y-86813786D01*
X169787500Y-117010000D02*
X169727500Y-117070000D01*
D69*
X132730000Y-124780000D02*
X133690000Y-124780000D01*
D72*
X175702500Y-120170000D02*
X175392500Y-120480000D01*
X146329255Y-100790893D02*
X147949255Y-99170893D01*
X150399255Y-83408393D02*
X150399255Y-82433393D01*
X151829255Y-100580893D02*
X151680893Y-100580893D01*
D74*
X151429276Y-86907979D02*
G75*
G03*
X152136362Y-87200893I707124J707079D01*
G01*
D76*
X150209644Y-89303365D02*
G75*
G03*
X149320848Y-88899070I-986744J-990135D01*
G01*
D74*
X151335031Y-86813796D02*
G75*
G03*
X150726229Y-86522886I-721631J-727704D01*
G01*
D76*
X150873457Y-88396690D02*
G75*
G03*
X149590213Y-87812864I-1424757J-1429410D01*
G01*
D70*
%TO.N,5V0*%
X174010000Y-85770000D02*
X171880000Y-87900000D01*
D72*
X179990000Y-82150000D02*
X179262745Y-82877255D01*
D73*
X177270000Y-83070000D02*
X177280000Y-83080000D01*
X176320000Y-81632500D02*
X176320000Y-82600000D01*
D70*
X170444092Y-103860000D02*
X143610000Y-103860000D01*
D72*
X180130000Y-72900000D02*
X168690000Y-72900000D01*
X183590000Y-82150000D02*
X179990000Y-82150000D01*
D70*
X171880000Y-102424092D02*
X170444092Y-103860000D01*
D72*
X183700000Y-82260000D02*
X183700000Y-76470000D01*
D70*
X181470000Y-85770000D02*
X174010000Y-85770000D01*
X183700000Y-82260000D02*
X183700000Y-83540000D01*
D73*
X179320000Y-83462500D02*
X179172500Y-83610000D01*
D70*
X183700000Y-83540000D02*
X181470000Y-85770000D01*
D73*
X178418750Y-83080000D02*
X177280000Y-83080000D01*
D72*
X183700000Y-76470000D02*
X180130000Y-72900000D01*
D69*
X166760000Y-73240000D02*
X167520000Y-74000000D01*
D72*
X168690000Y-72900000D02*
X166810000Y-74780000D01*
D73*
X176800000Y-83080000D02*
X177280000Y-83080000D01*
X178220000Y-81840000D02*
X178220000Y-83080000D01*
D72*
X166810000Y-74780000D02*
X165210000Y-74780000D01*
D73*
X176320000Y-82600000D02*
X176800000Y-83080000D01*
X178418750Y-83080000D02*
X178841250Y-83080000D01*
D72*
X179262745Y-82877255D02*
X179262745Y-83590821D01*
X183700000Y-82260000D02*
X183590000Y-82150000D01*
D70*
X171880000Y-97630000D02*
X171880000Y-102424092D01*
D73*
X178215000Y-81835000D02*
X178220000Y-81840000D01*
D69*
X166760000Y-72990000D02*
X166760000Y-73240000D01*
D73*
X177270000Y-81850000D02*
X177270000Y-83070000D01*
D75*
%TO.N,Net-(AU1-SW)*%
X176320000Y-77132472D02*
X176320000Y-78127529D01*
%TO.N,Net-(AU1-FB)*%
X179814949Y-77569848D02*
X179254949Y-77569848D01*
X179254949Y-77569848D02*
X178599946Y-78224851D01*
X178599946Y-78224851D02*
X178249943Y-78224851D01*
X179814949Y-77569848D02*
X180064949Y-77569848D01*
D76*
X179851025Y-77133772D02*
X181373196Y-77133772D01*
X182390245Y-78150821D02*
X182390245Y-79110821D01*
X181373196Y-77133772D02*
X182390245Y-78150821D01*
D69*
%TO.N,BUZZER_IO18*%
X157194255Y-98687541D02*
X155679255Y-100202541D01*
X156859255Y-95498393D02*
X156859255Y-96285971D01*
X155679255Y-100202541D02*
X155679255Y-101120893D01*
X156859255Y-96285971D02*
X157194255Y-96620971D01*
X170940324Y-105824500D02*
X172924824Y-103840000D01*
X184700000Y-103840000D02*
X185100000Y-103440000D01*
X172924824Y-103840000D02*
X184700000Y-103840000D01*
X169910000Y-105824500D02*
X170940324Y-105824500D01*
X157194255Y-96620971D02*
X157194255Y-98687541D01*
D74*
%TO.N,Net-(CH340K1-~{DTR})*%
X132710000Y-76635000D02*
X132655000Y-76580000D01*
X132655000Y-74299314D02*
X134694314Y-72260000D01*
X132655000Y-76580000D02*
X132655000Y-74299314D01*
X134694314Y-72260000D02*
X140530000Y-72260000D01*
X140530000Y-72260000D02*
X142270000Y-74000000D01*
X142270000Y-74000000D02*
X144110000Y-74000000D01*
X132710000Y-78700000D02*
X132710000Y-76635000D01*
%TO.N,Net-(CH340K1-RTS)*%
X133760000Y-73760000D02*
X134520000Y-73000000D01*
X129530000Y-78660000D02*
X129050000Y-78660000D01*
X133760000Y-76400000D02*
X133760000Y-73760000D01*
X133760000Y-75970000D02*
X133760000Y-76400000D01*
X133760000Y-79101104D02*
X133123604Y-79737500D01*
X133123604Y-79737500D02*
X130607500Y-79737500D01*
X134680000Y-75355000D02*
X134375000Y-75355000D01*
X134375000Y-75355000D02*
X133760000Y-75970000D01*
X133760000Y-76400000D02*
X133760000Y-79101104D01*
X134520000Y-73000000D02*
X139010000Y-73000000D01*
X130607500Y-79737500D02*
X129530000Y-78660000D01*
%TO.N,Net-(CH340K1-VCC)*%
X137095000Y-74000000D02*
X137085000Y-74010000D01*
X139010000Y-74000000D02*
X137095000Y-74000000D01*
D70*
%TO.N,Net-(E2C7-Pad1)*%
X147729255Y-90840893D02*
X147729255Y-91418393D01*
D74*
X152421755Y-89860893D02*
X151719255Y-89860893D01*
D70*
X149573068Y-89600893D02*
X149983068Y-90010893D01*
X149983068Y-90010893D02*
X150659255Y-90010893D01*
D74*
X151739255Y-90260893D02*
X152421755Y-90260893D01*
X151719255Y-89860893D02*
X151529255Y-90050893D01*
D70*
X148324255Y-90245893D02*
X147729255Y-90840893D01*
X148504255Y-89600893D02*
X149573068Y-89600893D01*
D74*
X151529255Y-90050893D02*
X151739255Y-90260893D01*
D72*
X150699255Y-90050893D02*
X150659255Y-90010893D01*
D70*
X148324255Y-89780893D02*
X148504255Y-89600893D01*
D72*
X151529255Y-90050893D02*
X150699255Y-90050893D01*
D70*
X148324255Y-89780893D02*
X148324255Y-90245893D01*
D76*
%TO.N,Net-(DMPprobeSS12_1-K)*%
X140670000Y-113020000D02*
X143630000Y-113020000D01*
X140630000Y-113060000D02*
X140670000Y-113020000D01*
X140630000Y-111650000D02*
X140630000Y-114530000D01*
X140630000Y-114530000D02*
X140520000Y-114640000D01*
%TO.N,IN_KTS1_ADS2_A-*%
X134914888Y-112924888D02*
X133410000Y-112924888D01*
D74*
X129590000Y-121320000D02*
X127410000Y-119140000D01*
X129590000Y-123780000D02*
X129590000Y-121320000D01*
D76*
X137720000Y-114640000D02*
X136630000Y-114640000D01*
X136630000Y-114640000D02*
X134914888Y-112924888D01*
D74*
X127410000Y-119140000D02*
X127410000Y-113040000D01*
X127490000Y-112960000D02*
X127410000Y-112930000D01*
X127410000Y-113040000D02*
X127490000Y-112960000D01*
D69*
%TO.N,Net-(ESP32S1-GPIO15{slash}ADC2_CH4{slash}XTAL_32K_P)*%
X155679255Y-95518393D02*
X155679255Y-96590893D01*
X155679255Y-96590893D02*
X156144255Y-97055893D01*
D72*
X153469255Y-100479255D02*
X153469255Y-100605893D01*
D69*
X153790981Y-100605893D02*
X153469255Y-100605893D01*
X156144255Y-98252619D02*
X153790981Y-100605893D01*
X156144255Y-97055893D02*
X156144255Y-98252619D01*
D72*
X151829255Y-98780893D02*
X151829255Y-98839255D01*
X151829255Y-98839255D02*
X153469255Y-100479255D01*
D69*
X155659255Y-95498393D02*
X155679255Y-95518393D01*
%TO.N,ESP2_VDD_SPI*%
X159296755Y-94660893D02*
X161199107Y-94660893D01*
X161199107Y-94660893D02*
X161200000Y-94660000D01*
%TO.N,Net-(ESP32S1-GPIO16{slash}ADC2_CH5{slash}XTAL_32K_N)*%
X156494255Y-98397593D02*
X154319255Y-100572593D01*
X156059255Y-95498393D02*
X156059255Y-96475919D01*
X156059255Y-96475919D02*
X156494255Y-96910919D01*
X150449255Y-101400893D02*
X149629255Y-100580893D01*
X154319255Y-101060893D02*
X153979255Y-101400893D01*
D73*
X148094255Y-100810893D02*
X149699255Y-100810893D01*
D69*
X153979255Y-101400893D02*
X150449255Y-101400893D01*
X156494255Y-96910919D02*
X156494255Y-98397593D01*
X154319255Y-100572593D02*
X154319255Y-101060893D01*
D73*
X149699255Y-100810893D02*
X149769255Y-100740893D01*
D69*
%TO.N,Net-(ESP32S1-XTAL_P)*%
X152598362Y-86370000D02*
X151448362Y-86370000D01*
D73*
X148744255Y-83865893D02*
X150309255Y-85430893D01*
D69*
X151448362Y-86370000D02*
X150829255Y-85750893D01*
X154059255Y-88623393D02*
X154059255Y-87830893D01*
X150829255Y-85750893D02*
X150829255Y-85370893D01*
X154059255Y-87830893D02*
X152598362Y-86370000D01*
%TO.N,Net-(ESP32S1-XTAL_N)*%
X154459255Y-87735919D02*
X153609255Y-86885919D01*
X153609255Y-86885919D02*
X153609255Y-86120893D01*
X153609255Y-83610893D02*
X153609255Y-86255919D01*
X154459255Y-88623393D02*
X154459255Y-87735919D01*
D73*
X154224255Y-83600893D02*
X152679255Y-83600893D01*
D69*
%TO.N,CHIP_EN*%
X147944255Y-94095893D02*
X147394255Y-93545893D01*
X147394255Y-92760893D02*
X147394255Y-92475893D01*
X149829255Y-90660893D02*
X152421755Y-90660893D01*
X147944255Y-94180893D02*
X147944255Y-94095893D01*
X147720148Y-92150000D02*
X148340148Y-92150000D01*
X147394255Y-93545893D02*
X147394255Y-92760893D01*
D74*
X130000000Y-80535000D02*
X130000000Y-82200000D01*
D69*
X147394255Y-92475893D02*
X147720148Y-92150000D01*
X148340148Y-92150000D02*
X149829255Y-90660893D01*
%TO.N,Net-(ESP32S1-U0TXD{slash}PROG{slash}GPIO43)*%
X156059255Y-86080893D02*
X156059255Y-88126274D01*
X158839255Y-86490893D02*
X158809255Y-86520893D01*
X158839255Y-85775893D02*
X158839255Y-86490893D01*
X156059255Y-88623393D02*
X156059255Y-88126274D01*
X156020268Y-86041906D02*
X156059255Y-86080893D01*
X156059255Y-88130893D02*
X156059255Y-88126274D01*
D76*
%TO.N,Net-(ESP32S1-LNA_IN{slash}RF)*%
X151060089Y-89360034D02*
X150636734Y-88936679D01*
X140967500Y-88265000D02*
X140932500Y-88230000D01*
X142710000Y-88265000D02*
X140967500Y-88265000D01*
D74*
X152421755Y-89460893D02*
X151479255Y-89460893D01*
D76*
X142769107Y-88350893D02*
X142760000Y-88360000D01*
X140987755Y-88285255D02*
X140932500Y-88230000D01*
X149225042Y-88350893D02*
X142769107Y-88350893D01*
X151479255Y-89460893D02*
X151366362Y-89460893D01*
X150639236Y-88936698D02*
G75*
G03*
X149225042Y-88350893I-1414236J-1414202D01*
G01*
X151060107Y-89360009D02*
G75*
G03*
X151366362Y-89460892I311393J430009D01*
G01*
D74*
%TO.N,Net-(J2-Pin_22)*%
X177722500Y-127170000D02*
X178092500Y-127540000D01*
X179217500Y-127540000D02*
X179257500Y-127500000D01*
X176702500Y-127170000D02*
X177722500Y-127170000D01*
X178092500Y-127540000D02*
X179217500Y-127540000D01*
%TO.N,Net-(J2-Pin_24)*%
X177712500Y-128170000D02*
X178482500Y-128940000D01*
X176702500Y-128170000D02*
X177712500Y-128170000D01*
X178482500Y-128940000D02*
X179277500Y-128940000D01*
%TO.N,Net-(J2-Pin_5)*%
X173902500Y-118670000D02*
X171317500Y-118670000D01*
X171317500Y-118670000D02*
X171277500Y-118630000D01*
%TO.N,Net-(J2-Pin_4)*%
X179397500Y-118250000D02*
X179317500Y-118170000D01*
X179317500Y-118170000D02*
X176702500Y-118170000D01*
%TO.N,Net-(J2-Pin_18)*%
X177662500Y-125170000D02*
X178142500Y-124690000D01*
X178142500Y-124690000D02*
X179317500Y-124690000D01*
X176702500Y-125170000D02*
X177662500Y-125170000D01*
%TO.N,Net-(J2-Pin_20)*%
X179177500Y-126170000D02*
X179287500Y-126060000D01*
X176702500Y-126170000D02*
X179177500Y-126170000D01*
%TO.N,PREVGH*%
X172352500Y-126180000D02*
X171672500Y-125500000D01*
X173902500Y-126670000D02*
X172602500Y-126670000D01*
X172352500Y-126490000D02*
X172352500Y-126180000D01*
X171152500Y-126490000D02*
X171082500Y-126560000D01*
X172422500Y-126490000D02*
X172352500Y-126490000D01*
X172602500Y-126670000D02*
X172422500Y-126490000D01*
X171672500Y-125500000D02*
X167492500Y-125500000D01*
X172352500Y-126490000D02*
X171152500Y-126490000D01*
%TO.N,PREVGL*%
X172262500Y-127760000D02*
X172262500Y-129090000D01*
X171112500Y-127930000D02*
X172092500Y-127930000D01*
X172092500Y-127930000D02*
X172262500Y-127760000D01*
X172352500Y-127670000D02*
X173902500Y-127670000D01*
X172262500Y-129090000D02*
X171722500Y-129630000D01*
X171722500Y-129630000D02*
X171552500Y-129630000D01*
X172262500Y-127760000D02*
X172352500Y-127670000D01*
%TO.N,GDR*%
X162726814Y-124800000D02*
X161892500Y-124800000D01*
X175232500Y-116760000D02*
X175232500Y-115230000D01*
X168472500Y-116564314D02*
X168472500Y-119054314D01*
X175232500Y-115230000D02*
X174822500Y-114820000D01*
X169236814Y-115800000D02*
X168472500Y-116564314D01*
X170752500Y-115800000D02*
X169236814Y-115800000D01*
X176702500Y-117170000D02*
X175642500Y-117170000D01*
X175642500Y-117170000D02*
X175232500Y-116760000D01*
X168472500Y-119054314D02*
X162726814Y-124800000D01*
X174822500Y-114820000D02*
X171732500Y-114820000D01*
X171732500Y-114820000D02*
X170752500Y-115800000D01*
%TO.N,RESE*%
X161892500Y-126100000D02*
X161992500Y-126100000D01*
X169402500Y-116200000D02*
X170627500Y-116200000D01*
X168872500Y-119220000D02*
X168872500Y-116730000D01*
X168872500Y-116730000D02*
X169402500Y-116200000D01*
X172097500Y-117670000D02*
X173902500Y-117670000D01*
X170627500Y-116200000D02*
X172097500Y-117670000D01*
X161992500Y-126100000D02*
X168872500Y-119220000D01*
D69*
%TO.N,GPIO8_I2C_SDA*%
X152260000Y-105960000D02*
X151790000Y-106430000D01*
X130900000Y-125280000D02*
X129590000Y-125280000D01*
X162764255Y-96965893D02*
X163149255Y-96965893D01*
X151924636Y-94260893D02*
X152421755Y-94260893D01*
X163149255Y-96965893D02*
X163584255Y-96965893D01*
X165030000Y-119945026D02*
X165030000Y-108324974D01*
X165030000Y-108324974D02*
X162665026Y-105960000D01*
X161595949Y-98134199D02*
X162764255Y-96965893D01*
X150950000Y-106430000D02*
X150360000Y-105840000D01*
X153970000Y-132960000D02*
X156110000Y-130820000D01*
X159597099Y-97509876D02*
X159169255Y-97937720D01*
X151101762Y-95083767D02*
X151924636Y-94260893D01*
X156110000Y-130820000D02*
X156110000Y-128865026D01*
X159169255Y-97937720D02*
X159169255Y-98985893D01*
X160952561Y-98134199D02*
X161595949Y-98134199D01*
X156110000Y-128865026D02*
X165030000Y-119945026D01*
X153970000Y-132960000D02*
X152144974Y-132960000D01*
X160454255Y-97635893D02*
X160952561Y-98134199D01*
X163824255Y-96725893D02*
X163824255Y-95640893D01*
X153847487Y-135427487D02*
X153712474Y-135562500D01*
X151790000Y-106430000D02*
X150950000Y-106430000D01*
X133515000Y-127895000D02*
X130900000Y-125280000D01*
X160454255Y-97635893D02*
X160328238Y-97509876D01*
X150360000Y-105840000D02*
X150360000Y-105705500D01*
X150921314Y-95083767D02*
X151101762Y-95083767D01*
D74*
X173902500Y-119670000D02*
X172592500Y-119670000D01*
D69*
X162665026Y-105960000D02*
X152260000Y-105960000D01*
X163584255Y-96965893D02*
X163824255Y-96725893D01*
X152144974Y-132960000D02*
X147079975Y-127895000D01*
X160328238Y-97509876D02*
X159597099Y-97509876D01*
X153712474Y-135562500D02*
X152570000Y-135562500D01*
X147079975Y-127895000D02*
X133515000Y-127895000D01*
%TO.N,GPIO9_I2C_SCL*%
X160807586Y-98484199D02*
X161740924Y-98484199D01*
X165380000Y-108180000D02*
X162810000Y-105610000D01*
X151707852Y-95062296D02*
X152109255Y-94660893D01*
X162810000Y-105610000D02*
X151370000Y-105610000D01*
X164610000Y-97660000D02*
X164034107Y-98235893D01*
D74*
X178077000Y-119170000D02*
X179370000Y-120463000D01*
D69*
X154650000Y-134000000D02*
X154587500Y-134062500D01*
X152109255Y-94660893D02*
X152421755Y-94660893D01*
X166784255Y-95630893D02*
X166784255Y-96385745D01*
X133305000Y-128245000D02*
X130840000Y-125780000D01*
X160713387Y-98390000D02*
X160807586Y-98484199D01*
X166784255Y-96385745D02*
X166450000Y-96720000D01*
X165380000Y-120090000D02*
X165380000Y-108180000D01*
X166450000Y-96720000D02*
X164960000Y-96720000D01*
X164610000Y-97070000D02*
X164610000Y-97660000D01*
X160395189Y-98390000D02*
X160713387Y-98390000D01*
X130840000Y-125780000D02*
X129590000Y-125780000D01*
X146935000Y-128245000D02*
X133305000Y-128245000D01*
X159647738Y-98084876D02*
X160090065Y-98084876D01*
X154587500Y-134062500D02*
X152570000Y-134062500D01*
X156460000Y-129010000D02*
X165380000Y-120090000D01*
X154650000Y-134000000D02*
X156460000Y-132190000D01*
X164960000Y-96720000D02*
X164610000Y-97070000D01*
X152570000Y-134062500D02*
X152570000Y-133880000D01*
X152570000Y-133880000D02*
X146935000Y-128245000D01*
D74*
X176702500Y-119170000D02*
X178077000Y-119170000D01*
D69*
X151707852Y-95290143D02*
X151707852Y-95062296D01*
X164034107Y-98235893D02*
X163269255Y-98235893D01*
X161740924Y-98484199D02*
X161989229Y-98235893D01*
X161989229Y-98235893D02*
X163724157Y-98235893D01*
X151370000Y-105610000D02*
X151290000Y-105690000D01*
X159669255Y-98207126D02*
X159669255Y-98914660D01*
X156460000Y-132190000D02*
X156460000Y-129010000D01*
X160090065Y-98084876D02*
X160395189Y-98390000D01*
%TO.N,ESP2_USB_D-*%
X157559255Y-98817515D02*
X156349255Y-100027515D01*
X156349255Y-100027515D02*
X156349255Y-100340893D01*
X157259255Y-96190997D02*
X157559255Y-96490997D01*
X157559255Y-96490997D02*
X157559255Y-98817515D01*
X157259255Y-95498393D02*
X157259255Y-96190997D01*
%TO.N,ESP2_USB_D+*%
X157659255Y-96096023D02*
X157909255Y-96346023D01*
X157280000Y-100200148D02*
X157279255Y-100200893D01*
X157909255Y-96346023D02*
X157909255Y-98210893D01*
X157909255Y-98962489D02*
X157280000Y-99591744D01*
X157280000Y-99591744D02*
X157280000Y-100200148D01*
X157909255Y-98210893D02*
X157909255Y-98962489D01*
X157659255Y-95498393D02*
X157659255Y-96096023D01*
X157909255Y-98210893D02*
X157909255Y-98660893D01*
%TO.N,SPICS1_E2*%
X158459255Y-95498393D02*
X160111755Y-95498393D01*
%TO.N,SPIHD_E2*%
X161079107Y-94260893D02*
X161080000Y-94260000D01*
X159296755Y-94260893D02*
X161079107Y-94260893D01*
%TO.N,SPIWP_E2*%
X161159107Y-93860893D02*
X161160000Y-93860000D01*
X159296755Y-93860893D02*
X161159107Y-93860893D01*
%TO.N,SPICS0_E2*%
X159296755Y-93460893D02*
X161059107Y-93460893D01*
X161059107Y-93460893D02*
X161060000Y-93460000D01*
%TO.N,SPICLK_E2*%
X161160000Y-93060000D02*
X161159107Y-93060893D01*
X159296755Y-93060893D02*
X161159107Y-93060893D01*
%TO.N,SPIQ_E2*%
X159296755Y-92660893D02*
X159305862Y-92670000D01*
X159305862Y-92670000D02*
X161240000Y-92670000D01*
D74*
%TO.N,Net-(EiD1a1-K)*%
X167342500Y-129490000D02*
X165462500Y-129490000D01*
X169452500Y-129630000D02*
X167482500Y-129630000D01*
X165462500Y-129490000D02*
X165332500Y-129360000D01*
X167482500Y-129630000D02*
X167342500Y-129490000D01*
%TO.N,Net-(EiD1a2-A)*%
X164632500Y-125500000D02*
X163942500Y-125500000D01*
X163942500Y-125500000D02*
X163892500Y-125450000D01*
X164632500Y-126130000D02*
X163685000Y-127077500D01*
X165392500Y-125500000D02*
X164632500Y-125500000D01*
X165332500Y-127810000D02*
X165392500Y-127750000D01*
X164632500Y-125500000D02*
X164632500Y-126130000D01*
X165392500Y-127750000D02*
X165392500Y-125500000D01*
X163685000Y-127077500D02*
X163685000Y-127790000D01*
D69*
%TO.N,unconnected-(ESP32S1-GPIO11{slash}ADC2_CH0-Pad16)*%
X153659255Y-95995512D02*
X153229374Y-96425393D01*
X153659255Y-95498393D02*
X153659255Y-95995512D01*
X153229374Y-96425393D02*
X152647806Y-96425393D01*
%TO.N,unconnected-(ESP32S1-GPIO12{slash}ADC2_CH1-Pad17)*%
X154059255Y-95498393D02*
X154059255Y-96090486D01*
X154059255Y-96090486D02*
X153139255Y-97010486D01*
D72*
%TO.N,5V0F*%
X123665000Y-85575000D02*
X125230500Y-85575000D01*
X152680000Y-77170000D02*
X152680000Y-77932500D01*
X153580000Y-76270000D02*
X152680000Y-77170000D01*
X157580000Y-77932500D02*
X157580000Y-77170000D01*
X158130000Y-74780000D02*
X162410000Y-74780000D01*
X157580000Y-77170000D02*
X156660000Y-76250000D01*
X123410000Y-85320000D02*
X123665000Y-85575000D01*
X156660000Y-76250000D02*
X158130000Y-74780000D01*
D69*
%TO.N,unconnected-(ESP32S1-GPIO38-Pad43)*%
X158459255Y-88623393D02*
X159750889Y-88623393D01*
X159750889Y-88623393D02*
X159956622Y-88417660D01*
%TO.N,unconnected-(ESP32S1-MTCK{slash}JTAG{slash}GPIO39-Pad44)*%
X158274636Y-87910893D02*
X158749255Y-87910893D01*
X158059255Y-88126274D02*
X158274636Y-87910893D01*
X158059255Y-88623393D02*
X158059255Y-88126274D01*
%TO.N,unconnected-(ESP32S1-MTDO{slash}JTAG{slash}GPIO40-Pad45)*%
X157659255Y-88031300D02*
X158129662Y-87560893D01*
X158129662Y-87560893D02*
X158779255Y-87560893D01*
X157659255Y-88623393D02*
X157659255Y-88031300D01*
%TO.N,unconnected-(ESP32S1-MTDI{slash}JTAG{slash}GPIO41-Pad47)*%
X156859255Y-87330893D02*
X157259255Y-86930893D01*
X156859255Y-88623393D02*
X156859255Y-87330893D01*
%TO.N,unconnected-(ESP32S1-MTMS{slash}JTAG{slash}GPIO42-Pad48)*%
X156459255Y-88623393D02*
X156459255Y-86620893D01*
X156459255Y-86620893D02*
X156909255Y-86170893D01*
%TO.N,IMU_CS_IO21*%
X158259255Y-96195512D02*
X158259255Y-97892955D01*
X160159255Y-98970893D02*
X160159255Y-99430893D01*
X158059255Y-95498393D02*
X158059255Y-96001048D01*
X160159255Y-99430893D02*
X159669255Y-99920893D01*
X158064791Y-96001048D02*
X158259255Y-96195512D01*
X158059255Y-96001048D02*
X158064791Y-96001048D01*
X158259255Y-97892955D02*
X158483755Y-98117455D01*
%TO.N,ESP_GPIO0_BOOT-DTR*%
X154808331Y-87590021D02*
X153959255Y-86740945D01*
D74*
X133660000Y-82140000D02*
X133720000Y-82200000D01*
X133660000Y-80575000D02*
X133660000Y-82140000D01*
D69*
X154069255Y-85265893D02*
X154344255Y-85265893D01*
X153959255Y-86740945D02*
X153959255Y-85375893D01*
X153959255Y-85375893D02*
X154069255Y-85265893D01*
X155014921Y-87590021D02*
X154808331Y-87590021D01*
X154859255Y-88623393D02*
X154859255Y-87630893D01*
X150449255Y-91060893D02*
X152421755Y-91060893D01*
X150129255Y-91380893D02*
X150449255Y-91060893D01*
%TO.N,Net-(J1-CC1)*%
X155600000Y-79570000D02*
X156430000Y-78740000D01*
X148075000Y-80320000D02*
X152614975Y-80320000D01*
X152614975Y-80320000D02*
X153364974Y-79570000D01*
X156430000Y-78740000D02*
X156430000Y-77845000D01*
X153364974Y-79570000D02*
X155600000Y-79570000D01*
X147945000Y-80190000D02*
X148075000Y-80320000D01*
%TO.N,Net-(J1-CC2)*%
X149770000Y-79970000D02*
X148500000Y-78700000D01*
X153430000Y-77845000D02*
X153430000Y-79010000D01*
X148500000Y-78700000D02*
X148005000Y-78700000D01*
X153430000Y-79010000D02*
X152470000Y-79970000D01*
X152470000Y-79970000D02*
X149770000Y-79970000D01*
%TO.N,RXD0*%
X155639255Y-87990893D02*
X155659255Y-88010893D01*
X155300000Y-86701638D02*
X155639255Y-87040893D01*
D74*
X136610000Y-76690000D02*
X138300000Y-75000000D01*
D69*
X155299611Y-86701638D02*
X155300000Y-86701638D01*
D74*
X136610000Y-77499500D02*
X136610000Y-76690000D01*
X138300000Y-75000000D02*
X139010000Y-75000000D01*
D69*
X155639255Y-87040893D02*
X155639255Y-87990893D01*
D74*
X125230500Y-80729500D02*
X126860000Y-79100000D01*
D69*
X155659255Y-88623393D02*
X155659255Y-88031300D01*
D74*
X125230500Y-81765000D02*
X125230500Y-80729500D01*
%TO.N,TXD0*%
X124535000Y-83035000D02*
X123880000Y-82380000D01*
X137640000Y-76850000D02*
X137640000Y-76640000D01*
X123880000Y-82380000D02*
X123880000Y-80780000D01*
D69*
X158839255Y-84125893D02*
X158839255Y-83370893D01*
D74*
X137640000Y-76640000D02*
X138280000Y-76000000D01*
X125230500Y-83035000D02*
X124535000Y-83035000D01*
D69*
X158839255Y-83370893D02*
X158829255Y-83360893D01*
D74*
X138280000Y-76000000D02*
X139010000Y-76000000D01*
X123880000Y-80780000D02*
X126770000Y-77890000D01*
%TO.N,USB_D+*%
X148170000Y-77000000D02*
X150050000Y-75120000D01*
X154750000Y-78980000D02*
X155250000Y-78980000D01*
X154440000Y-77932500D02*
X154440000Y-78670000D01*
X154440000Y-78670000D02*
X154750000Y-78980000D01*
X150050000Y-75120000D02*
X153840000Y-75120000D01*
X154430000Y-75710000D02*
X154430000Y-77845000D01*
X155250000Y-78980000D02*
X155440000Y-78790000D01*
X144110000Y-77000000D02*
X148170000Y-77000000D01*
X153840000Y-75120000D02*
X154430000Y-75710000D01*
X155440000Y-78790000D02*
X155440000Y-77932500D01*
%TO.N,USB_D-*%
X148240000Y-76000000D02*
X149520000Y-74720000D01*
X155620000Y-76760000D02*
X155250000Y-76760000D01*
X155880000Y-77932500D02*
X155880000Y-77020000D01*
X154880000Y-77030000D02*
X155150000Y-76760000D01*
X155360000Y-75860000D02*
X155360000Y-76760000D01*
X144110000Y-76000000D02*
X148240000Y-76000000D01*
X155150000Y-76760000D02*
X155250000Y-76760000D01*
X154880000Y-77932500D02*
X154880000Y-77030000D01*
X154220000Y-74720000D02*
X155360000Y-75860000D01*
X149520000Y-74720000D02*
X154220000Y-74720000D01*
X155880000Y-77020000D02*
X155620000Y-76760000D01*
D76*
%TO.N,Net-(ANT1-Pad1)*%
X138797000Y-88219500D02*
X134800000Y-88219500D01*
X138860000Y-87980000D02*
X138860000Y-86617500D01*
X138807500Y-88230000D02*
X138797000Y-88219500D01*
D69*
%TO.N,Net-(LED2-RA)*%
X157400000Y-134210000D02*
X157400000Y-131295000D01*
X157400000Y-131295000D02*
X157445000Y-131250000D01*
D76*
%TO.N,Net-(probeSS12_2-K)*%
X141320000Y-107150000D02*
X140620000Y-107150000D01*
X140620000Y-105640000D02*
X140620000Y-108920000D01*
X142260000Y-108090000D02*
X141320000Y-107150000D01*
D74*
%TO.N,SCLK_COMMON_3V3_IO04*%
X172432500Y-122670000D02*
X173902500Y-122670000D01*
X170960000Y-121485500D02*
X171074500Y-121600000D01*
D69*
X165730000Y-109940000D02*
X169325734Y-113535734D01*
X151512673Y-105099500D02*
X151673173Y-105260000D01*
X169325734Y-113535734D02*
X169335734Y-113535734D01*
X142859500Y-105099500D02*
X151512673Y-105099500D01*
X151673173Y-105260000D02*
X162954974Y-105260000D01*
X162954974Y-105260000D02*
X165730000Y-108035026D01*
D74*
X171074500Y-121600000D02*
X171362500Y-121600000D01*
D69*
X165730000Y-108035026D02*
X165730000Y-109940000D01*
D74*
X171362500Y-121600000D02*
X172432500Y-122670000D01*
%TO.N,LCD_MOSI_IO11*%
X177982500Y-123170000D02*
X176702500Y-123170000D01*
D69*
X159705934Y-89460893D02*
X159296755Y-89460893D01*
X160590836Y-88992160D02*
X160437996Y-89145000D01*
X160021827Y-89145000D02*
X159705934Y-89460893D01*
D74*
X178062500Y-123090000D02*
X177982500Y-123170000D01*
D69*
X160437996Y-89145000D02*
X160021827Y-89145000D01*
D74*
%TO.N,LCD_CS_IO12*%
X176892500Y-122360000D02*
X178480000Y-122360000D01*
X176702500Y-122170000D02*
X176892500Y-122360000D01*
D69*
X160049107Y-89860893D02*
X160190000Y-89720000D01*
D74*
X178480000Y-122360000D02*
X178870000Y-122750000D01*
D69*
X159296755Y-89860893D02*
X160049107Y-89860893D01*
%TO.N,LCD_RST_IO13*%
X160009255Y-91486450D02*
X160009255Y-91276274D01*
X160283754Y-91760949D02*
X160009255Y-91486450D01*
D74*
X178626027Y-121880000D02*
X178060000Y-121880000D01*
X177350000Y-121170000D02*
X176702500Y-121170000D01*
D69*
X160009255Y-91276274D02*
X159793874Y-91060893D01*
X160283754Y-91760949D02*
X160290000Y-91754703D01*
X159793874Y-91060893D02*
X159296755Y-91060893D01*
D74*
X178702649Y-121803378D02*
X178626027Y-121880000D01*
X178060000Y-121880000D02*
X177350000Y-121170000D01*
%TO.N,LCD_DC_IO14*%
X171330000Y-120810000D02*
X172190000Y-121670000D01*
X169720000Y-120810000D02*
X171330000Y-120810000D01*
D69*
X160206341Y-90660893D02*
X159296755Y-90660893D01*
D74*
X172190000Y-121670000D02*
X173902500Y-121670000D01*
D69*
X160553927Y-91008479D02*
X160206341Y-90660893D01*
%TO.N,LCD_BUSY_IO17*%
X160785000Y-90295000D02*
X160800000Y-90280000D01*
D74*
X170139650Y-120129487D02*
X171215173Y-120129487D01*
X171755686Y-120670000D02*
X173902500Y-120670000D01*
X171215173Y-120129487D02*
X171755686Y-120670000D01*
D69*
X159815000Y-90295000D02*
X160785000Y-90295000D01*
X159301440Y-90280000D02*
X159798559Y-90280000D01*
D70*
%TO.N,Earth*%
X161870000Y-108020000D02*
X158740000Y-108020000D01*
X169420000Y-106990000D02*
X170140000Y-106990000D01*
X158740000Y-108020000D02*
X158670000Y-107950000D01*
X173680000Y-106990000D02*
X174130000Y-106540000D01*
X169420000Y-106990000D02*
X173680000Y-106990000D01*
D74*
%TO.N,IN_KTS1_ADS2_A+*%
X127810000Y-118974314D02*
X127810000Y-114300000D01*
X131620000Y-103390000D02*
X133780000Y-103390000D01*
X132615686Y-123780000D02*
X127810000Y-118974314D01*
X127810000Y-114300000D02*
X128800000Y-113310000D01*
D76*
X137820000Y-105640000D02*
X135570000Y-103390000D01*
D74*
X133690000Y-123780000D02*
X132615686Y-123780000D01*
X128800000Y-113310000D02*
X128800000Y-106210000D01*
D69*
X132980000Y-103390000D02*
X133780000Y-103390000D01*
D74*
X128800000Y-106210000D02*
X131620000Y-103390000D01*
D76*
X135570000Y-103390000D02*
X133780000Y-103390000D01*
%TO.N,Net-(probeSS12_1-K)*%
X133780000Y-110054888D02*
X133410000Y-110424888D01*
X137520000Y-110220000D02*
X137315112Y-110424888D01*
X133780000Y-105890000D02*
X133780000Y-110054888D01*
X137520000Y-110220000D02*
X137520000Y-111340000D01*
X137520000Y-111340000D02*
X137830000Y-111650000D01*
X137520000Y-108910000D02*
X137520000Y-110220000D01*
X137315112Y-110424888D02*
X133410000Y-110424888D01*
D69*
%TO.N,LED_R_IO13*%
X154459255Y-95498393D02*
X154459255Y-96185460D01*
X159110000Y-128240000D02*
X159095000Y-128255000D01*
X154459255Y-96185460D02*
X154094755Y-96549960D01*
X154094755Y-96549960D02*
X154094755Y-96895393D01*
X159095000Y-128255000D02*
X159095000Y-131250000D01*
%TO.N,LED_G_IO14*%
X159220000Y-134360000D02*
X158360000Y-135220000D01*
X159220000Y-133515026D02*
X159220000Y-134360000D01*
X159850000Y-128860000D02*
X159850000Y-129310000D01*
X154859255Y-96280435D02*
X154859255Y-95498393D01*
X158360000Y-135220000D02*
X157450000Y-135220000D01*
X154669255Y-97581393D02*
X154669255Y-96470435D01*
X159850000Y-129310000D02*
X160507500Y-129967500D01*
X160507500Y-132227526D02*
X159220000Y-133515026D01*
X154669255Y-96470435D02*
X154859255Y-96280435D01*
X160507500Y-129967500D02*
X160507500Y-132227526D01*
%TO.N,LED_B_IO17*%
X159970000Y-135360000D02*
X160580000Y-135360000D01*
X160857500Y-129152500D02*
X160857500Y-132372500D01*
X159570000Y-134960000D02*
X159970000Y-135360000D01*
X155039255Y-100347567D02*
X155039255Y-100780893D01*
X156459255Y-96380945D02*
X156844255Y-96765945D01*
X156844255Y-96765945D02*
X156844255Y-97885893D01*
X156844255Y-98542567D02*
X155039255Y-100347567D01*
X156459255Y-95498393D02*
X156459255Y-96380945D01*
X159570000Y-133660000D02*
X159570000Y-134960000D01*
X156844255Y-97885893D02*
X156844255Y-98542567D01*
X160857500Y-132372500D02*
X159570000Y-133660000D01*
X156844255Y-97885893D02*
X156844255Y-98440893D01*
D74*
%TO.N,Net-(Q1-G)*%
X130950000Y-76635000D02*
X131005000Y-76580000D01*
X130950000Y-78660000D02*
X130950000Y-76635000D01*
%TO.N,Net-(Q2-G)*%
X134610000Y-77075000D02*
X134610000Y-78700000D01*
X134680000Y-77005000D02*
X134610000Y-77075000D01*
D76*
%TO.N,Net-(SMA1-Pad1)*%
X149530000Y-108160000D02*
X149490000Y-108200000D01*
X149490000Y-108200000D02*
X149490000Y-113270000D01*
D70*
X149530000Y-108160000D02*
X149710000Y-108340000D01*
X149710000Y-108340000D02*
X154680000Y-108340000D01*
D76*
X149490000Y-113270000D02*
X149450000Y-113310000D01*
X149530000Y-108160000D02*
X149455000Y-108235000D01*
D69*
%TO.N,ADS1155_ALERT_IO01*%
X133690000Y-125280000D02*
X134950000Y-125280000D01*
X150939359Y-91460893D02*
X150330252Y-92070000D01*
X150330252Y-92070000D02*
X149540000Y-92070000D01*
X135070000Y-125290000D02*
X134960000Y-125290000D01*
X134950000Y-125280000D02*
X135070000Y-125290000D01*
X152421755Y-91460893D02*
X150939359Y-91460893D01*
%TO.N,unconnected-(ESP32S1-GPIO2{slash}ADC1_CH1-Pad7)*%
X151034333Y-91860893D02*
X150201069Y-92694157D01*
X150201069Y-92694157D02*
X148567346Y-92694157D01*
X152421755Y-91860893D02*
X151034333Y-91860893D01*
%TO.N,unconnected-(ESP32S1-GPIO4{slash}ADC1_CH3-Pad9)*%
X150729307Y-92660893D02*
X152421755Y-92660893D01*
X149990200Y-93400000D02*
X150729307Y-92660893D01*
X149410000Y-93400000D02*
X149990200Y-93400000D01*
%TO.N,unconnected-(ESP32S1-GPIO5{slash}ADC1_CH4-Pad10)*%
X150824281Y-93060893D02*
X149605174Y-94280000D01*
X152421755Y-93060893D02*
X150824281Y-93060893D01*
X149605174Y-94280000D02*
X149010000Y-94280000D01*
%TO.N,unconnected-(ESP32S1-GPIO6{slash}ADC1_CH5-Pad11)*%
X150919107Y-93460893D02*
X149450000Y-94930000D01*
X152421755Y-93460893D02*
X150919107Y-93460893D01*
%TO.N,unconnected-(ESP32S1-GPIO7{slash}ADC1_CH6-Pad12)*%
X151331721Y-93860893D02*
X150975488Y-94217126D01*
X152421755Y-93860893D02*
X151331721Y-93860893D01*
%TO.N,unconnected-(ESP32S1-GPIO10{slash}ADC1_CH9-Pad15)*%
X153259255Y-95498393D02*
X153259255Y-95840893D01*
X153259255Y-95840893D02*
X153249255Y-95850893D01*
X153249255Y-95850893D02*
X152147571Y-95850893D01*
X152147571Y-95850893D02*
X151924243Y-96074221D01*
%TD*%
%TA.AperFunction,Conductor*%
%TO.N,Earth*%
G36*
X159655675Y-106355502D02*
G01*
X159702168Y-106409158D01*
X159713549Y-106460410D01*
X159778882Y-114015267D01*
X159759470Y-114083559D01*
X159706218Y-114130514D01*
X159652312Y-114142356D01*
X150913425Y-114102498D01*
X150845397Y-114082185D01*
X150799149Y-114028318D01*
X150788000Y-113976499D01*
X150788000Y-112241900D01*
X150788000Y-112241898D01*
X150777377Y-112153436D01*
X150721861Y-112012658D01*
X150663385Y-111935546D01*
X150630422Y-111892077D01*
X150509845Y-111800641D01*
X150509841Y-111800638D01*
X150369064Y-111745122D01*
X150369065Y-111745122D01*
X150280605Y-111734500D01*
X150280602Y-111734500D01*
X150076500Y-111734500D01*
X150008379Y-111714498D01*
X149961886Y-111660842D01*
X149950500Y-111608500D01*
X149950500Y-109861500D01*
X149970502Y-109793379D01*
X150024158Y-109746886D01*
X150076500Y-109735500D01*
X150360599Y-109735500D01*
X150360602Y-109735500D01*
X150449064Y-109724877D01*
X150589842Y-109669361D01*
X150710422Y-109577922D01*
X150801861Y-109457342D01*
X150857377Y-109316564D01*
X150868000Y-109228102D01*
X150868000Y-109021500D01*
X150888002Y-108953379D01*
X150941658Y-108906886D01*
X150994000Y-108895500D01*
X152542923Y-108895500D01*
X152611044Y-108915502D01*
X152657537Y-108969158D01*
X152667641Y-109039432D01*
X152652043Y-109084499D01*
X152554449Y-109253537D01*
X152554447Y-109253542D01*
X152494655Y-109437562D01*
X152474430Y-109629999D01*
X152494655Y-109822437D01*
X152554447Y-110006457D01*
X152554451Y-110006465D01*
X152651195Y-110174032D01*
X152651196Y-110174034D01*
X152651198Y-110174036D01*
X152780673Y-110317833D01*
X152937210Y-110431564D01*
X152937212Y-110431565D01*
X152937215Y-110431567D01*
X153113983Y-110510269D01*
X153303252Y-110550500D01*
X153303256Y-110550500D01*
X153496744Y-110550500D01*
X153496748Y-110550500D01*
X153686017Y-110510269D01*
X153862785Y-110431567D01*
X154019327Y-110317833D01*
X154148802Y-110174036D01*
X154245550Y-110006463D01*
X154305344Y-109822437D01*
X154325570Y-109630000D01*
X154305344Y-109437563D01*
X154298088Y-109415234D01*
X154296061Y-109344268D01*
X154332723Y-109283470D01*
X154396435Y-109252144D01*
X154444116Y-109253050D01*
X154573252Y-109280500D01*
X154573256Y-109280500D01*
X154766744Y-109280500D01*
X154766748Y-109280500D01*
X154895882Y-109253051D01*
X154966671Y-109258453D01*
X155023303Y-109301270D01*
X155047797Y-109367907D01*
X155041911Y-109415232D01*
X155034655Y-109437563D01*
X155014430Y-109629999D01*
X155034655Y-109822437D01*
X155094447Y-110006457D01*
X155094451Y-110006465D01*
X155191195Y-110174032D01*
X155191196Y-110174034D01*
X155191198Y-110174036D01*
X155320672Y-110317833D01*
X155320673Y-110317833D01*
X155477210Y-110431564D01*
X155477212Y-110431565D01*
X155477215Y-110431567D01*
X155653983Y-110510269D01*
X155843252Y-110550500D01*
X155843256Y-110550500D01*
X156036744Y-110550500D01*
X156036748Y-110550500D01*
X156226017Y-110510269D01*
X156402785Y-110431567D01*
X156559327Y-110317833D01*
X156688802Y-110174036D01*
X156785550Y-110006463D01*
X156845344Y-109822437D01*
X156865570Y-109630000D01*
X156845344Y-109437563D01*
X156845344Y-109437562D01*
X156785552Y-109253542D01*
X156785548Y-109253534D01*
X156784745Y-109252144D01*
X156688802Y-109085964D01*
X156559327Y-108942167D01*
X156510767Y-108906886D01*
X156402789Y-108828435D01*
X156226017Y-108749731D01*
X156226017Y-108749730D01*
X156036748Y-108709500D01*
X155843252Y-108709500D01*
X155782166Y-108722484D01*
X155714118Y-108736948D01*
X155643327Y-108731545D01*
X155586695Y-108688728D01*
X155562202Y-108622091D01*
X155568090Y-108574762D01*
X155575344Y-108552437D01*
X155595570Y-108360000D01*
X155575344Y-108167563D01*
X155568088Y-108145234D01*
X155566061Y-108074268D01*
X155602723Y-108013470D01*
X155666435Y-107982144D01*
X155714116Y-107983050D01*
X155843252Y-108010500D01*
X155843256Y-108010500D01*
X156036744Y-108010500D01*
X156036748Y-108010500D01*
X156226017Y-107970269D01*
X156402785Y-107891567D01*
X156559327Y-107777833D01*
X156688802Y-107634036D01*
X156785550Y-107466463D01*
X156845344Y-107282437D01*
X156865570Y-107090000D01*
X156845344Y-106897563D01*
X156834002Y-106862656D01*
X156785552Y-106713542D01*
X156785548Y-106713534D01*
X156784949Y-106712497D01*
X156711051Y-106584500D01*
X156688804Y-106545967D01*
X156688803Y-106545966D01*
X156688802Y-106545964D01*
X156688663Y-106545810D01*
X156688610Y-106545699D01*
X156684924Y-106540626D01*
X156685852Y-106539951D01*
X156657947Y-106481804D01*
X156666710Y-106411350D01*
X156712173Y-106356819D01*
X156779900Y-106335523D01*
X156782300Y-106335500D01*
X159587554Y-106335500D01*
X159655675Y-106355502D01*
G37*
%TD.AperFunction*%
%TA.AperFunction,Conductor*%
G36*
X152625821Y-106355502D02*
G01*
X152672314Y-106409158D01*
X152682418Y-106479432D01*
X152654621Y-106540295D01*
X152655076Y-106540626D01*
X152653445Y-106542869D01*
X152652924Y-106544012D01*
X152651336Y-106545811D01*
X152651195Y-106545967D01*
X152554451Y-106713534D01*
X152554447Y-106713542D01*
X152494655Y-106897562D01*
X152474430Y-107090000D01*
X152494655Y-107282437D01*
X152554447Y-107466457D01*
X152554451Y-107466465D01*
X152628949Y-107595500D01*
X152645687Y-107664496D01*
X152622466Y-107731587D01*
X152566659Y-107775474D01*
X152519830Y-107784500D01*
X150994000Y-107784500D01*
X150925879Y-107764498D01*
X150879386Y-107710842D01*
X150868000Y-107658500D01*
X150868000Y-107091901D01*
X150868000Y-107091898D01*
X150857377Y-107003436D01*
X150857377Y-107003435D01*
X150857377Y-107003434D01*
X150847238Y-106977724D01*
X150840855Y-106907014D01*
X150873714Y-106844079D01*
X150935381Y-106808900D01*
X150964453Y-106805500D01*
X151737989Y-106805500D01*
X151763847Y-106808181D01*
X151774268Y-106810367D01*
X151809436Y-106805983D01*
X151817226Y-106805500D01*
X151821107Y-106805500D01*
X151821114Y-106805500D01*
X151844140Y-106801657D01*
X151898626Y-106794866D01*
X151898627Y-106794865D01*
X151898630Y-106794865D01*
X151906136Y-106792630D01*
X151913604Y-106790065D01*
X151913610Y-106790065D01*
X151961877Y-106763944D01*
X152011211Y-106739826D01*
X152011213Y-106739823D01*
X152017603Y-106735261D01*
X152023819Y-106730422D01*
X152023826Y-106730419D01*
X152061008Y-106690028D01*
X152378632Y-106372404D01*
X152440945Y-106338379D01*
X152467728Y-106335500D01*
X152557700Y-106335500D01*
X152625821Y-106355502D01*
G37*
%TD.AperFunction*%
%TD*%
%TA.AperFunction,Conductor*%
%TO.N,GND*%
G36*
X139557695Y-87108214D02*
G01*
X139614532Y-87150759D01*
X139620907Y-87160124D01*
X139681109Y-87257728D01*
X139681114Y-87257734D01*
X139802265Y-87378885D01*
X139802271Y-87378890D01*
X139948115Y-87468847D01*
X140110758Y-87522742D01*
X140110771Y-87522744D01*
X140211598Y-87533046D01*
X140277333Y-87559868D01*
X140318132Y-87617971D01*
X140321041Y-87688908D01*
X140311063Y-87715587D01*
X140310049Y-87717577D01*
X140294500Y-87815755D01*
X140294500Y-88644244D01*
X140310048Y-88742418D01*
X140370341Y-88860751D01*
X140464248Y-88954658D01*
X140523414Y-88984804D01*
X140582580Y-89014951D01*
X140680754Y-89030500D01*
X140680756Y-89030500D01*
X141184244Y-89030500D01*
X141184246Y-89030500D01*
X141282420Y-89014951D01*
X141400751Y-88954658D01*
X141494658Y-88860751D01*
X141554951Y-88742420D01*
X141556634Y-88731789D01*
X141587047Y-88667636D01*
X141647316Y-88630109D01*
X141681084Y-88625500D01*
X141974278Y-88625500D01*
X142042399Y-88645502D01*
X142086544Y-88694296D01*
X142092296Y-88705585D01*
X142105647Y-88731789D01*
X142111472Y-88743220D01*
X142206780Y-88838528D01*
X142326874Y-88899719D01*
X142426512Y-88915500D01*
X142426515Y-88915500D01*
X142993485Y-88915500D01*
X142993488Y-88915500D01*
X143093126Y-88899719D01*
X143213220Y-88838528D01*
X143303451Y-88748297D01*
X143365763Y-88714272D01*
X143392546Y-88711393D01*
X143821418Y-88711393D01*
X143889539Y-88731395D01*
X143936032Y-88785051D01*
X143946136Y-88855325D01*
X143921380Y-88914097D01*
X143898917Y-88943370D01*
X143898912Y-88943378D01*
X143837649Y-89091281D01*
X143822000Y-89210150D01*
X143822000Y-95450000D01*
X144526413Y-95450000D01*
X144526658Y-95850000D01*
X143822000Y-95850000D01*
X143822000Y-101254260D01*
X143801998Y-101322381D01*
X143748342Y-101368874D01*
X143697552Y-101380250D01*
X122572592Y-101640392D01*
X122504230Y-101621231D01*
X122457080Y-101568152D01*
X122445044Y-101515455D01*
X122427154Y-99368619D01*
X122446588Y-99300337D01*
X122499854Y-99253399D01*
X122552773Y-99241573D01*
X136530000Y-99200000D01*
X136541066Y-95838614D01*
X136564550Y-88705585D01*
X136584776Y-88637531D01*
X136638584Y-88591215D01*
X136690549Y-88580000D01*
X138051710Y-88580000D01*
X138119831Y-88600002D01*
X138166324Y-88653658D01*
X138176159Y-88686290D01*
X138185048Y-88742418D01*
X138245341Y-88860751D01*
X138339248Y-88954658D01*
X138398414Y-88984804D01*
X138457580Y-89014951D01*
X138555754Y-89030500D01*
X138555756Y-89030500D01*
X139059244Y-89030500D01*
X139059246Y-89030500D01*
X139157420Y-89014951D01*
X139275751Y-88954658D01*
X139369658Y-88860751D01*
X139429951Y-88742420D01*
X139445500Y-88644246D01*
X139445500Y-87815754D01*
X139429951Y-87717580D01*
X139385470Y-87630281D01*
X139369658Y-87599248D01*
X139275752Y-87505342D01*
X139272435Y-87502932D01*
X139269380Y-87498970D01*
X139268740Y-87498330D01*
X139268822Y-87498247D01*
X139229083Y-87446708D01*
X139220500Y-87400999D01*
X139220500Y-87323936D01*
X139240502Y-87255815D01*
X139289298Y-87211669D01*
X139293124Y-87209719D01*
X139293126Y-87209719D01*
X139413220Y-87148528D01*
X139424572Y-87137175D01*
X139486879Y-87103151D01*
X139557695Y-87108214D01*
G37*
%TD.AperFunction*%
%TA.AperFunction,Conductor*%
G36*
X144520000Y-84990000D02*
G01*
X144520166Y-85260000D01*
X143802000Y-85260000D01*
X143802000Y-86014549D01*
X143781998Y-86082670D01*
X143728342Y-86129163D01*
X143658068Y-86139267D01*
X143593488Y-86109773D01*
X143568759Y-86080696D01*
X143538890Y-86032271D01*
X143538885Y-86032265D01*
X143417734Y-85911114D01*
X143417728Y-85911109D01*
X143271884Y-85821152D01*
X143109241Y-85767257D01*
X143109229Y-85767255D01*
X143008852Y-85757000D01*
X142964000Y-85757000D01*
X142964000Y-86843000D01*
X142943998Y-86911121D01*
X142890342Y-86957614D01*
X142838000Y-86969000D01*
X141727000Y-86969000D01*
X141727000Y-86988852D01*
X141737255Y-87089229D01*
X141737257Y-87089241D01*
X141791152Y-87251884D01*
X141881109Y-87397728D01*
X141881114Y-87397734D01*
X142002265Y-87518885D01*
X142002274Y-87518892D01*
X142099874Y-87579092D01*
X142147353Y-87631877D01*
X142158756Y-87701952D01*
X142130464Y-87767068D01*
X142122826Y-87775426D01*
X142111472Y-87786780D01*
X142111471Y-87786780D01*
X142096144Y-87816863D01*
X142089022Y-87830842D01*
X142086545Y-87835703D01*
X142037797Y-87887318D01*
X141974278Y-87904500D01*
X141692170Y-87904500D01*
X141624049Y-87884498D01*
X141577556Y-87830842D01*
X141567721Y-87798210D01*
X141564112Y-87775426D01*
X141554951Y-87717580D01*
X141510470Y-87630281D01*
X141494658Y-87599248D01*
X141400753Y-87505343D01*
X141400748Y-87505339D01*
X141317135Y-87462736D01*
X141265520Y-87413988D01*
X141248455Y-87345073D01*
X141271356Y-87277871D01*
X141285249Y-87261370D01*
X141288887Y-87257731D01*
X141288890Y-87257728D01*
X141378847Y-87111884D01*
X141432742Y-86949241D01*
X141432744Y-86949229D01*
X141442999Y-86848852D01*
X141443000Y-86848852D01*
X141443000Y-86804000D01*
X140357000Y-86804000D01*
X140288879Y-86783998D01*
X140242386Y-86730342D01*
X140231000Y-86678000D01*
X140231000Y-86461000D01*
X141727000Y-86461000D01*
X142456000Y-86461000D01*
X142456000Y-85757000D01*
X142411147Y-85757000D01*
X142310770Y-85767255D01*
X142310758Y-85767257D01*
X142148115Y-85821152D01*
X142002271Y-85911109D01*
X142002265Y-85911114D01*
X141881114Y-86032265D01*
X141881109Y-86032271D01*
X141791152Y-86178115D01*
X141737257Y-86340758D01*
X141737255Y-86340770D01*
X141727000Y-86441147D01*
X141727000Y-86461000D01*
X140231000Y-86461000D01*
X140231000Y-85567000D01*
X140739000Y-85567000D01*
X140739000Y-86296000D01*
X141443000Y-86296000D01*
X141443000Y-86251147D01*
X141432744Y-86150770D01*
X141432742Y-86150758D01*
X141378847Y-85988115D01*
X141288890Y-85842271D01*
X141288885Y-85842265D01*
X141167734Y-85721114D01*
X141167728Y-85721109D01*
X141021884Y-85631152D01*
X140859241Y-85577257D01*
X140859229Y-85577255D01*
X140758852Y-85567000D01*
X140739000Y-85567000D01*
X140231000Y-85567000D01*
X140211147Y-85567000D01*
X140110770Y-85577255D01*
X140110758Y-85577257D01*
X139948115Y-85631152D01*
X139802271Y-85721109D01*
X139802265Y-85721114D01*
X139681114Y-85842265D01*
X139681109Y-85842271D01*
X139620907Y-85939875D01*
X139568121Y-85987353D01*
X139498046Y-85998756D01*
X139432930Y-85970463D01*
X139424571Y-85962823D01*
X139413219Y-85951471D01*
X139329585Y-85908858D01*
X139293126Y-85890281D01*
X139193488Y-85874500D01*
X138676512Y-85874500D01*
X138576874Y-85890281D01*
X138576872Y-85890281D01*
X138576872Y-85890282D01*
X138456780Y-85951471D01*
X138361471Y-86046780D01*
X138308486Y-86150770D01*
X138300281Y-86166874D01*
X138284500Y-86266512D01*
X138284500Y-86833488D01*
X138300281Y-86933126D01*
X138318560Y-86969000D01*
X138361471Y-87053219D01*
X138462595Y-87154343D01*
X138496621Y-87216655D01*
X138499500Y-87243438D01*
X138499500Y-87346476D01*
X138479498Y-87414597D01*
X138430703Y-87458743D01*
X138339249Y-87505341D01*
X138339246Y-87505343D01*
X138245341Y-87599248D01*
X138185048Y-87717581D01*
X138179485Y-87752710D01*
X138149073Y-87816863D01*
X138088805Y-87854390D01*
X138055036Y-87859000D01*
X136693752Y-87859000D01*
X136625631Y-87838998D01*
X136579138Y-87785342D01*
X136567753Y-87732585D01*
X136570000Y-87050000D01*
X136569999Y-87049999D01*
X127456341Y-86990820D01*
X127388351Y-86970376D01*
X127342208Y-86916420D01*
X127331164Y-86863662D01*
X127348837Y-84946077D01*
X127369466Y-84878147D01*
X127423548Y-84832151D01*
X127476077Y-84821248D01*
X144520000Y-84990000D01*
G37*
%TD.AperFunction*%
%TD*%
M02*
